<svg width="1041" height="665" viewBox="0 0 1041 665" fill="none" xmlns="http://www.w3.org/2000/svg">
<path d="M221 221L607.008 443.862H709.463" stroke="#CBF6EC" stroke-width="410" stroke-linecap="round" stroke-linejoin="round"/>
<path fill-rule="evenodd" clip-rule="evenodd" d="M507.554 73.8438C507.554 73.8438 472.729 150.396 514.722 223.67L559.964 215.055" fill="#4300D2"/>
<path fill-rule="evenodd" clip-rule="evenodd" d="M596.624 58C596.624 58 676.807 59.3198 643.643 199.394L590.793 212.883" fill="#4300D2"/>
<path fill-rule="evenodd" clip-rule="evenodd" d="M536.341 197.702C530.345 192.333 517.632 193.014 510.626 198.203C503.62 203.391 502.124 211.68 505.26 218.323C507.507 223.078 512.139 227.322 518.555 228.96C524.971 230.599 533.156 229.116 537.249 224.832C536.525 229.592 541.294 233.981 547.323 235.385C553.351 236.79 560.204 235.65 565.989 233.36C571.776 231.07 576.7 227.718 581.55 224.407C588.592 229.744 600.452 231.219 610.021 227.95C619.59 224.679 626.237 216.881 625.979 209.225C632.55 210.316 640.02 208.615 644.921 204.91C649.825 201.204 651.983 195.631 650.395 190.774C649.146 186.956 645.77 183.501 646.189 179.523C646.584 175.803 650.226 171.765 647.69 168.659C645.602 166.1 640.737 166.042 636.775 165.338C632.813 164.636 628.748 161.437 631.32 158.943C631.32 158.943 624.831 209.167 536.341 197.702Z" fill="#4300D2"/>
<path fill-rule="evenodd" clip-rule="evenodd" d="M499.935 215.682C499.935 215.682 472.822 222.397 468.286 278.395C465.629 311.169 462.462 344.555 462.462 344.555L402.889 358.677L392.407 391.262L470.453 406.657C492.042 406.657 515.793 387.953 515.302 366.31L516.14 291.001L499.935 215.682Z" fill="white"/>
<path fill-rule="evenodd" clip-rule="evenodd" d="M643.03 216.135L655.131 300.295C656.88 312.464 656.009 324.868 652.575 336.671L637.656 387.94C637.656 387.94 657.92 413.961 641.195 424.024C637.912 426 548.337 430.09 548.337 430.09L504.917 427.086L499.105 302.463L499.935 215.681C499.935 215.681 530.068 204.667 541.889 203.35C549.304 202.524 581.42 201.465 607.72 203.886L643.03 216.135Z" fill="white"/>
<path fill-rule="evenodd" clip-rule="evenodd" d="M643.03 216.135C643.03 216.135 667.962 224.895 677.308 238.972C689.672 257.593 724.575 311.167 740.962 353.1C746.087 366.214 741.808 386.388 734.227 398.245C724.089 414.102 704.78 421.416 686.72 416.241L599.41 391.535L591.329 342.317L667.377 345.5L646.062 310.459L643.03 216.135Z" fill="white"/>
<path fill-rule="evenodd" clip-rule="evenodd" d="M551.555 504.795C551.555 504.795 462.854 529.413 459.296 530.669C453.952 532.555 454.849 552.186 463.164 551.881C467.098 551.736 531.296 554.278 539.408 553.77C547.52 553.261 571.992 543.591 571.992 543.591L551.555 504.795Z" fill="#E8505B"/>
<path fill-rule="evenodd" clip-rule="evenodd" d="M523.852 534.528C523.418 534.604 522.52 530.398 520.157 525.753C517.841 521.082 515.007 517.854 515.326 517.549C515.572 517.257 519.037 520.166 521.484 525.083C523.965 529.98 524.232 534.506 523.852 534.528Z" fill="#263238"/>
<path fill-rule="evenodd" clip-rule="evenodd" d="M532.528 532.198C532.081 532.171 532.421 527.728 530.453 522.801C528.568 517.84 525.312 514.807 525.622 514.483C525.8 514.145 529.778 516.894 531.837 522.26C533.95 527.599 532.887 532.325 532.528 532.198Z" fill="#263238"/>
<path fill-rule="evenodd" clip-rule="evenodd" d="M530.953 520.709C530.795 520.749 530.009 518.265 530.002 514.09C530.007 512.011 530.246 509.523 530.9 506.838C531.225 505.495 531.664 504.108 532.22 502.709C532.508 502.003 532.834 501.19 533.641 500.529C534.468 499.784 535.974 499.938 536.687 500.679C537.5 501.39 537.757 502.391 537.869 503.194C537.959 504.011 538.003 504.773 537.984 505.545C537.963 507.075 537.766 508.544 537.437 509.899C536.781 512.615 535.724 514.893 534.707 516.699C532.639 520.307 530.848 522.152 530.722 522.053C530.52 521.912 532.005 519.839 533.776 516.212C534.648 514.396 535.558 512.168 536.102 509.598C536.376 508.316 536.529 506.948 536.529 505.535C536.491 504.169 536.51 502.46 535.713 501.802C535.29 501.452 534.909 501.428 534.539 501.704C534.149 502.004 533.82 502.613 533.567 503.259C533.018 504.587 532.571 505.905 532.223 507.182C531.526 509.739 531.189 512.12 531.05 514.128C530.79 518.156 531.195 520.673 530.953 520.709Z" fill="#263238"/>
<path fill-rule="evenodd" clip-rule="evenodd" d="M531.064 519.806C531.023 519.643 533.164 518.904 536.785 518.879C538.587 518.876 540.75 519.066 543.079 519.653C544.228 519.963 545.462 520.262 546.703 520.991C547.918 521.61 549.19 523.301 548.708 525.057C548.327 526.711 546.914 527.869 545.512 528.232C544.1 528.627 542.732 528.485 541.533 528.222C539.1 527.66 537.207 526.459 535.77 525.38C532.928 523.143 531.54 521.432 531.647 521.307C531.802 521.119 533.483 522.582 536.372 524.517C537.825 525.448 539.645 526.455 541.812 526.878C542.89 527.085 544.053 527.15 545.102 526.833C546.146 526.544 547.014 525.746 547.262 524.717C547.516 523.723 546.914 522.814 545.945 522.236C544.994 521.645 543.818 521.305 542.726 520.978C540.531 520.349 538.479 520.06 536.749 519.931C533.278 519.688 531.101 520.044 531.064 519.806Z" fill="#263238"/>
<path fill-rule="evenodd" clip-rule="evenodd" d="M551.555 504.795C551.555 504.795 462.854 529.413 459.296 530.669C453.952 532.555 454.849 552.186 463.164 551.881C467.098 551.736 531.296 554.278 539.408 553.77C547.52 553.261 571.992 543.591 571.992 543.591L551.555 504.795Z" fill="#4300D2"/>
<path fill-rule="evenodd" clip-rule="evenodd" d="M551.555 504.795C551.555 504.795 462.854 529.413 459.296 530.669C453.952 532.555 454.849 552.186 463.164 551.881C467.098 551.736 531.296 554.278 539.408 553.77C547.52 553.261 571.992 543.591 571.992 543.591L551.555 504.795Z" stroke="#270570" stroke-width="4" stroke-linecap="round" stroke-linejoin="round"/>
<path fill-rule="evenodd" clip-rule="evenodd" d="M641.195 424.023L659.178 461.079C659.178 461.079 755.321 431.761 779.546 433.111C803.77 434.46 823.611 444.192 828.321 463.92C833.032 483.648 833.676 510.87 805.415 529.763C777.152 548.657 636.701 559.094 636.701 559.094H581.123L490.28 438.986L504.917 427.085L641.195 424.023Z" fill="white"/>
<path fill-rule="evenodd" clip-rule="evenodd" d="M545.269 549.29C527.416 542.256 429.218 509.31 394.456 469.026C365.512 435.485 411.552 407.074 411.552 407.074C411.552 407.074 443.842 406.038 454.617 407.074C465.391 408.109 619.477 512.535 619.477 512.535C619.477 512.535 592.561 565.168 593.234 567.192L545.269 549.29Z" fill="white"/>
<path fill-rule="evenodd" clip-rule="evenodd" d="M402.353 361.09C402.353 361.09 381.193 345.329 377.49 344.642C373.787 343.954 345.679 347.526 343.988 349.208C342.3 350.892 316.185 370.643 321.232 372.348C326.279 374.053 344.344 360.002 344.344 360.002L347.716 359.955C347.716 359.955 331.885 371.655 329.337 375.643C326.992 379.313 330.254 382.824 333.245 380.858C336.236 378.892 349.729 368.213 350.937 368.368C352.147 368.524 336.719 380.876 335.434 382.934C333.704 385.701 335.742 390.272 338.775 388.424C340.562 387.335 354.619 374.728 354.619 374.728C354.619 374.728 344.317 386.365 343.714 388.107C342.725 390.961 345.712 392.972 348.18 390.912C349.874 389.498 356.722 380.444 358.996 378.556C358.996 378.556 361.721 377.958 366.398 381.689C371.074 385.419 393.047 389.628 393.047 389.628L402.353 361.09Z" fill="#D3C4F6"/>
<path fill-rule="evenodd" clip-rule="evenodd" d="M395.955 364.777C395.047 367.307 391.973 368.393 389.296 368.219C386.621 368.045 384.082 366.967 381.425 366.601C373.481 365.505 365.592 370.83 357.709 369.354C356.61 369.148 355.318 368.549 355.286 367.428C355.256 366.389 356.329 365.713 357.261 365.258C365.223 361.372 373.184 357.486 381.146 353.6" fill="#FFBE9D"/>
<path fill-rule="evenodd" clip-rule="evenodd" d="M381.146 353.599C381.1 353.505 380.137 353.864 378.434 354.593C376.731 355.323 374.289 356.424 371.285 357.814C368.171 359.282 364.631 360.948 360.768 362.766C359.778 363.241 358.768 363.725 357.738 364.217C356.812 364.751 355.367 365.035 354.646 366.734C354.327 367.598 354.759 368.657 355.397 369.138C356.015 369.654 356.69 369.894 357.369 370.054C358.671 370.287 359.958 370.412 361.275 370.349C366.546 370.117 371.081 368.224 375.304 367.52C377.408 367.133 379.43 366.99 381.284 367.219C383.137 367.443 384.87 367.987 386.52 368.322C389.814 369.154 392.86 368.485 394.363 367.237C395.934 365.994 396.016 364.75 395.956 364.776C395.822 364.699 395.533 365.792 394.028 366.75C392.534 367.724 389.889 368.187 386.758 367.274C385.182 366.889 383.457 366.275 381.451 365.97C379.443 365.665 377.268 365.775 375.069 366.139C370.662 366.815 366.101 368.636 361.226 368.83C360.019 368.892 358.813 368.768 357.695 368.578C356.615 368.358 355.809 367.718 356.062 367.18C356.246 366.55 357.343 366.013 358.371 365.523C359.393 365.014 360.396 364.515 361.38 364.025C365.19 362.099 368.682 360.334 371.754 358.78C374.698 357.267 377.069 356.019 378.692 355.126C380.317 354.232 381.192 353.693 381.146 353.599Z" fill="#EB996E"/>
<path fill-rule="evenodd" clip-rule="evenodd" d="M614.086 519.619C614.086 519.619 702.788 544.238 706.346 545.494C711.69 547.38 710.792 567.011 702.477 566.706C698.543 566.561 634.344 569.103 626.233 568.595C618.121 568.085 596.293 559.438 596.293 559.438L614.086 519.619Z" fill="#4300D2"/>
<path fill-rule="evenodd" clip-rule="evenodd" d="M522.254 367.327C529.708 365.044 526.366 356.766 540.044 352.204C550.253 348.798 561.23 342.419 591.33 345.855L598.172 387.5L569.239 379.775L560.891 398.483C559.172 402.332 554.626 404.003 550.835 402.178L536.171 395.12C536.171 395.12 532.009 415.365 530.777 416.151C527.274 418.383 523.616 414.888 524.178 412.16C524.739 409.431 526.279 374.299 526.279 374.299C526.279 374.299 515.165 377.465 515.863 373.013C515.863 373.013 514.801 369.611 522.254 367.327Z" fill="#D3C4F6"/>
<path d="M555.078 388.312C555.029 388.248 554.186 388.782 553.221 390.053C552.256 391.31 551.288 393.373 551.038 395.812C550.797 398.251 551.335 400.467 552.03 401.891C552.723 403.33 553.442 404.023 553.503 403.969" stroke="#270570" stroke-width="4" stroke-linecap="round" stroke-linejoin="round"/>
<path d="M546.824 385.406C546.758 385.342 546.106 385.86 545.331 386.951C544.558 388.034 543.727 389.735 543.348 391.756C542.976 393.777 543.141 395.663 543.475 396.953C543.806 398.252 544.229 398.97 544.313 398.934" stroke="#270570" stroke-width="3.734" stroke-linecap="round" stroke-linejoin="round"/>
<path d="M537.843 382.902C537.763 382.85 537.296 383.364 536.805 384.367C536.313 385.364 535.855 386.871 535.795 388.586C535.742 390.3 536.102 391.836 536.528 392.862C536.953 393.895 537.385 394.439 537.469 394.392" stroke="#270570" stroke-width="3.734" stroke-linecap="round" stroke-linejoin="round"/>
<path fill-rule="evenodd" clip-rule="evenodd" d="M441.949 427.399L591.309 423.653C592.865 423.615 594.107 422.338 594.107 420.778C594.107 419.203 592.844 417.92 591.274 417.901L508.892 416.858L476.362 315.742C475.268 312.337 472.062 310.066 468.496 310.165L343.449 313.688C337.936 313.843 334.217 319.4 336.162 324.576L375.441 429.067L441.949 427.399Z" fill="#FB8478"/>
<path d="M499.934 215.682C499.934 215.682 472.821 222.397 468.285 278.395C465.628 311.169 465.269 311.075 465.269 311.075" stroke="#270570" stroke-width="4" stroke-linecap="round" stroke-linejoin="round"/>
<path d="M647.089 406.613C648.684 413.173 648.01 419.923 641.195 424.023C637.912 425.999 548.336 430.089 548.336 430.089L504.916 427.084" stroke="#270570" stroke-width="4"/>
<path d="M655.354 323.184C654.79 327.735 653.862 332.246 652.575 336.671L648.486 344.741" stroke="#270570" stroke-width="3.734" stroke-linecap="round" stroke-linejoin="round"/>
<path d="M607.72 203.887L643.03 216.135" stroke="#270570" stroke-width="3.734" stroke-linecap="round" stroke-linejoin="round"/>
<path d="M499.935 215.681C499.935 215.681 530.067 204.667 541.89 203.35" stroke="#270570" stroke-width="3.734" stroke-linecap="round" stroke-linejoin="round"/>
<path d="M643.03 216.135C643.03 216.135 667.962 224.895 677.308 238.972C689.672 257.593 724.575 311.167 740.962 353.1C746.087 366.214 741.808 386.388 734.227 398.245C724.089 414.102 704.78 421.416 686.72 416.241L599.41 391.535L591.329 342.317L648.916 344.727L667.377 345.5L632.178 281.255" stroke="#270570" stroke-width="4" stroke-linecap="round" stroke-linejoin="round"/>
<path d="M499.802 264.902C499.802 264.902 501.72 350.512 504.599 362.055L502.68 395.721" stroke="#270570" stroke-width="4" stroke-linecap="round" stroke-linejoin="round"/>
<path d="M694.53 360.132C694.53 360.132 678.223 346.665 667.671 345.703" stroke="#270570" stroke-width="3.734" stroke-linecap="round" stroke-linejoin="round"/>
<path d="M632.179 262.017C634.097 262.017 637.191 229.107 659.625 223.92" stroke="#270570" stroke-width="3.734" stroke-linecap="round" stroke-linejoin="round"/>
<path d="M495.371 218.832C495.371 218.832 504.599 229.312 504.599 240.854" stroke="#270570" stroke-width="4" stroke-linecap="round" stroke-linejoin="round"/>
<path d="M643.689 430.352L659.037 461.132C659.037 461.132 638.892 480.371 632.178 480.371" stroke="#270570" stroke-width="4" stroke-linecap="round" stroke-linejoin="round"/>
<path d="M612.993 504.417C612.993 504.417 653.281 494.798 694.53 472.675C735.777 450.55 769.351 443.817 778.943 448.626" stroke="#270570" stroke-width="4" stroke-linecap="round" stroke-linejoin="round"/>
<path d="M659.038 461.13C659.038 461.13 743.452 434.197 771.27 434.197C799.088 434.197 824.987 442.855 827.866 461.13C830.743 479.407 835.54 507.302 813.477 523.654C791.415 540.008 731.941 547.702 722.349 549.626" stroke="#270570" stroke-width="4" stroke-linecap="round" stroke-linejoin="round"/>
<path d="M490.209 427.465L618.749 509.227L593.808 566.942C593.808 566.942 483.495 529.428 454.717 511.151C425.939 492.875 378.936 470.751 384.692 439.008" stroke="#270570" stroke-width="4" stroke-linecap="round" stroke-linejoin="round"/>
<path d="M594.768 420.73C594.768 423.616 590.931 423.616 590.931 423.616L376.059 429.387L367.426 407.264" stroke="#270570" stroke-width="3.734" stroke-linecap="round" stroke-linejoin="round"/>
<path d="M362.629 394.76C362.629 394.76 335.77 325.503 335.77 324.541C335.77 323.578 332.892 313.96 344.404 313.96C355.914 313.96 462.391 310.112 462.391 310.112C462.391 310.112 474.861 308.188 476.78 315.883C478.698 323.578 508.435 416.883 508.435 416.883L573.664 417.846" stroke="#270570" stroke-width="3.734" stroke-linecap="round" stroke-linejoin="round"/>
<path d="M614.086 519.619C614.086 519.619 702.788 544.238 706.346 545.494C711.69 547.38 710.793 567.011 702.477 566.706C698.543 566.561 634.345 569.103 626.233 568.595C618.121 568.085 597.252 559.438 597.252 559.438" stroke="#270570" stroke-width="4" stroke-linecap="round" stroke-linejoin="round"/>
<path d="M591.41 346.183C591.41 346.183 568.388 339.45 542.488 351.955C542.488 351.955 530.498 355.321 526.661 364.941C526.661 364.941 520.905 368.788 518.986 368.788" stroke="#270570" stroke-width="4" stroke-linecap="round" stroke-linejoin="round"/>
<path d="M600.524 387.064L568.869 379.369L561.194 398.608" stroke="#270570" stroke-width="4" stroke-linecap="round" stroke-linejoin="round"/>
<path d="M525.702 374.559L524.742 411.112C524.742 411.112 524.085 416.838 526.812 416.86" stroke="#270570" stroke-width="4" stroke-linecap="round" stroke-linejoin="round"/>
<path d="M354.538 374.143L341.525 386.103" stroke="#270570" stroke-width="4" stroke-linecap="round" stroke-linejoin="round"/>
<path d="M351.118 366.865L336.729 378.408" stroke="#270570" stroke-width="4" stroke-linecap="round" stroke-linejoin="round"/>
<path d="M356.874 381.293L353.996 385.14" stroke="#270570" stroke-width="3.734" stroke-linecap="round" stroke-linejoin="round"/>
<path d="M344.994 347.92L320.422 370.712C320.422 370.712 321.381 373.598 324.259 372.636" stroke="#270570" stroke-width="4" stroke-linecap="round" stroke-linejoin="round"/>
<path fill-rule="evenodd" clip-rule="evenodd" d="M552.378 186.239C552.378 186.239 568.003 187.866 583.889 179.12C583.889 179.12 577.332 195.767 554.111 192.668L552.378 186.239Z" fill="white"/>
<path fill-rule="evenodd" clip-rule="evenodd" d="M600.745 207.16C589.809 229.787 555.467 230.767 542.503 210.101C541.327 208.167 540.651 204.908 540.877 203.576C543.177 190.047 546.509 166.777 550.46 139.137C550.749 137.124 551.807 135.02 553.095 134.212C564.672 126.99 580.268 127.602 591.163 136.049C592.375 136.994 593.359 139.156 593.626 141.106C597.291 167.928 600.248 189.609 602.082 200.775C602.259 201.858 601.738 205.043 600.745 207.16Z" fill="#D3C4F6"/>
<path fill-rule="evenodd" clip-rule="evenodd" d="M572.577 150.731C582 151.004 589.744 147.452 593.991 143.782C593.72 141.797 593.444 139.782 593.165 137.739C581.603 127.116 563.381 126.426 550.955 135.672C550.677 137.613 550.402 139.534 550.131 141.434C554.745 146.207 562.989 150.479 572.577 150.731Z" fill="#270570"/>
<path d="M549.071 149.697C545.521 174.462 542.555 194.822 540.512 206.378C546.299 219.249 557.79 225.028 570.112 224.899C582.435 224.771 590.998 221.302 597.756 211.873" stroke="#270570" stroke-width="4" stroke-linecap="round" stroke-linejoin="round"/>
<path fill-rule="evenodd" clip-rule="evenodd" d="M634.308 126.703C634.308 132.037 629.97 136.361 624.619 136.361C619.267 136.361 614.929 132.037 614.929 126.703C614.929 121.369 619.267 117.045 624.619 117.045C629.97 117.045 634.308 121.369 634.308 126.703Z" fill="#D3C4F6"/>
<path d="M624.23 117.045C629.368 117.045 633.533 121.369 633.533 126.703C633.533 132.037 629.368 136.361 624.23 136.361" stroke="#270570" stroke-width="4" stroke-linecap="round" stroke-linejoin="round"/>
<path fill-rule="evenodd" clip-rule="evenodd" d="M525.008 126.703C525.008 132.037 520.669 136.361 515.318 136.361C509.966 136.361 505.628 132.037 505.628 126.703C505.628 121.369 509.966 117.045 515.318 117.045C520.669 117.045 525.008 121.369 525.008 126.703Z" fill="#D3C4F6"/>
<path d="M514.93 136.361C509.793 136.361 505.628 132.037 505.628 126.703C505.628 121.369 509.793 117.045 514.93 117.045" stroke="#270570" stroke-width="4" stroke-linecap="round" stroke-linejoin="round"/>
<path d="M629.425 131.859L631.983 137.718" stroke="#FB8478" stroke-width="4" stroke-linecap="round" stroke-linejoin="round"/>
<path d="M508.608 131.141L507.953 137.841" stroke="#FB8478" stroke-width="4" stroke-linecap="round" stroke-linejoin="round"/>
<path fill-rule="evenodd" clip-rule="evenodd" d="M513.536 143.466C513.536 174.458 538.27 200.722 569.361 201.124C600.952 201.533 626.688 174.859 626.688 143.466V99.4019C626.688 81.5717 605.196 52.7266 569.361 52.7266C533.527 52.7266 513.536 84 513.536 99.4019V143.466Z" fill="#D3C4F6"/>
<path fill-rule="evenodd" clip-rule="evenodd" d="M588.819 146.557C588.819 147.937 587.696 149.057 586.311 149.057C584.925 149.057 583.803 147.937 583.803 146.557C583.803 145.175 584.925 144.057 586.311 144.057C587.696 144.057 588.819 145.175 588.819 146.557Z" fill="#270570"/>
<path fill-rule="evenodd" clip-rule="evenodd" d="M529.65 146.557C529.65 147.937 530.774 149.057 532.159 149.057C533.544 149.057 534.667 147.937 534.667 146.557C534.667 145.175 533.544 144.057 532.159 144.057C530.774 144.057 529.65 145.175 529.65 146.557Z" fill="#270570"/>
<path fill-rule="evenodd" clip-rule="evenodd" d="M551.33 179.011C554.539 182.643 569.981 185.877 576.639 172.955H546.407" fill="white"/>
<path d="M551.33 179.011C554.539 182.643 569.981 185.877 576.639 172.955H546.407" stroke="#270570" stroke-width="4" stroke-linecap="round" stroke-linejoin="round"/>
<path d="M557.933 146.152C556.252 151.465 552.977 163.151 552.977 163.151C552.977 163.151 555.696 163.151 561.136 163.151" stroke="#270570" stroke-width="4" stroke-linecap="round" stroke-linejoin="round"/>
<path d="M513.536 135.986V143.046C513.536 174.038 538.27 200.723 569.361 201.124C600.952 201.533 626.688 175.28 626.688 143.887V135.986" stroke="#270570" stroke-width="4" stroke-linecap="round" stroke-linejoin="round"/>
<path d="M513.38 117.044C513.38 72.6869 538.953 52.7266 571.131 52.7266" stroke="#270570" stroke-width="4" stroke-linecap="round" stroke-linejoin="round"/>
<path fill-rule="evenodd" clip-rule="evenodd" d="M628.883 121.686C639.839 109.402 641.065 48.454 573.385 45.1939C535.67 43.3773 516.601 55.0059 505.794 79.9316C505.374 81.0335 501.47 86.4588 494.748 84.8849C498.258 88.8116 503.801 95.5268 507.178 100.753C507.178 109.115 507.954 112.872 511.901 116.234C511.901 114.351 512.615 106.525 512.943 104.798C521.772 121.686 550.131 147.667 607.953 106.576C610.611 114.802 615.486 119.636 628.883 121.686Z" fill="#4300D2"/>
<path d="M607.952 106.81L616.479 99.084" stroke="#270570" stroke-width="4" stroke-linecap="round" stroke-linejoin="round"/>
<path d="M523.457 115.215L535.085 102.916" stroke="#270570" stroke-width="4" stroke-linecap="round" stroke-linejoin="round"/>
<path d="M597.843 50.4936C582.756 44.5888 527.449 36.8393 509.003 75.0396C506.78 79.6428 505.628 83.6322 494.775 84.8851C519.051 113.765 539.136 154.649 607.863 106.576C611.124 116.234 619.635 121.686 628.9 121.686" stroke="#270570" stroke-width="4" stroke-linecap="round" stroke-linejoin="round"/>
<path d="M513.38 116.233C507.492 113.338 506.558 108.468 507.491 101.553" stroke="#270570" stroke-width="4" stroke-linecap="round" stroke-linejoin="round"/>
<path d="M258 528H120.631L95 554" stroke="#270570" stroke-width="4" stroke-linecap="round" stroke-linejoin="round"/>
<path d="M860 528H997.548L1023 502" stroke="#270570" stroke-width="4" stroke-linecap="round" stroke-linejoin="round"/>
<path d="M826 55.8567V73L846 53" stroke="#270570" stroke-width="4" stroke-linecap="round" stroke-linejoin="round"/>
<path d="M876 73C876 101.166 853.167 124 825 124C796.833 124 774 101.166 774 73C774 44.8341 796.833 22 825 22C846.125 22 864.25 34.8445 871.992 53.1491" stroke="#270570" stroke-width="4" stroke-linecap="round" stroke-linejoin="round"/>
</svg>
