<svg width="1634" height="1035" viewBox="0 0 1634 1035" fill="none" xmlns="http://www.w3.org/2000/svg">
<g clip-path="url(#clip0)">
<path d="M1287.61 346L1024.47 607.76H346.242" stroke="#D3C4F6" stroke-width="660" stroke-linecap="round" stroke-linejoin="round"/>
<path d="M1182.58 662.619L1206.76 670.477L1214.62 646.293L1190.44 638.435L1182.58 662.619Z" fill="#FB8478"/>
<path d="M1183.38 653.205C1183.01 654.335 1183.63 655.551 1184.76 655.919C1185.89 656.286 1187.1 655.665 1187.47 654.535L1183.38 653.205ZM1192.49 639.098C1192.86 637.965 1192.24 636.751 1191.11 636.381C1189.97 636.014 1188.76 636.635 1188.39 637.765L1192.49 639.098ZM1191.1 636.386C1189.97 636.019 1188.75 636.637 1188.39 637.768C1188.02 638.9 1188.64 640.114 1189.77 640.482L1191.1 636.386ZM1214.62 646.293L1216.67 646.957L1217.33 644.909L1215.29 644.243L1214.62 646.293ZM1206.76 670.476L1206.1 672.524L1208.15 673.191L1208.81 671.141L1206.76 670.476ZM1197.34 667.412L1198 665.365L1197.34 667.412ZM1190.52 662.934C1189.39 662.567 1188.17 663.185 1187.81 664.318C1187.44 665.448 1188.06 666.665 1189.19 667.032L1190.52 662.934ZM1187.47 654.535L1192.49 639.098L1188.39 637.765L1183.38 653.205L1187.47 654.535ZM1189.77 640.482L1213.95 648.341L1215.29 644.243L1191.1 636.386L1189.77 640.482ZM1212.57 645.627L1204.71 669.81L1208.81 671.141L1216.67 646.957L1212.57 645.627ZM1207.43 668.426L1198 665.365L1196.67 669.463L1206.1 672.524L1207.43 668.426ZM1198 665.365L1190.52 662.934L1189.19 667.032L1196.67 669.463L1198 665.365Z" fill="#270570"/>
<path fill-rule="evenodd" clip-rule="evenodd" d="M319.805 254.052C327.705 254.052 334.109 247.648 334.109 239.749C334.109 231.849 327.705 225.445 319.805 225.445C311.905 225.445 305.501 231.849 305.501 239.749C305.501 247.648 311.905 254.052 319.805 254.052Z" fill="#ADEDDD" stroke="#270570" stroke-width="4.30848"/>
<path fill-rule="evenodd" clip-rule="evenodd" d="M316.628 540.122C324.528 540.122 330.932 533.718 330.932 525.818C330.932 517.918 324.528 511.514 316.628 511.514C308.728 511.514 302.326 517.918 302.326 525.818C302.326 533.718 308.728 540.122 316.628 540.122Z" fill="#ADEDDD" stroke="#270570" stroke-width="4.30848"/>
<path fill-rule="evenodd" clip-rule="evenodd" d="M856.982 508.339C864.882 508.339 871.286 501.934 871.286 494.035C871.286 486.135 864.882 479.73 856.982 479.73C849.082 479.73 842.678 486.135 842.678 494.035C842.678 501.934 849.082 508.339 856.982 508.339Z" fill="#ADEDDD" stroke="#270570" stroke-width="4.30848"/>
<path fill-rule="evenodd" clip-rule="evenodd" d="M736.195 699.054C744.095 699.054 750.499 692.649 750.499 684.749C750.499 676.85 744.095 670.445 736.195 670.445C728.295 670.445 721.894 676.85 721.894 684.749C721.894 692.649 728.295 699.054 736.195 699.054Z" fill="#ADEDDD" stroke="#270570" stroke-width="4.30848"/>
<path fill-rule="evenodd" clip-rule="evenodd" d="M1295.62 552.84C1303.52 552.84 1309.93 546.436 1309.93 538.536C1309.93 530.636 1303.52 524.234 1295.62 524.234C1287.72 524.234 1281.32 530.636 1281.32 538.536C1281.32 546.436 1287.72 552.84 1295.62 552.84Z" fill="#ADEDDD" stroke="#270570" stroke-width="4.30848"/>
<path fill-rule="evenodd" clip-rule="evenodd" d="M752.133 1210.79C754.465 1128.79 749.619 1087.67 737.733 1003.35C728.247 936.071 714.272 868.6 696.199 802.812C665.148 689.785 632.454 620.034 631.078 617.119L483.434 622.616C483.434 622.616 519.321 746.503 546.821 847.679C562.874 906.735 575.265 967.244 583.654 1027.52C594.07 1102.38 598.308 1133.89 596.247 1206.38L752.133 1210.79Z" fill="#6317F7"/>
<path fill-rule="evenodd" clip-rule="evenodd" d="M752.136 1213.97C754.455 1131.96 749.634 1090.85 737.804 1006.53C728.363 939.247 714.457 871.776 696.47 805.988C665.568 692.961 633.032 623.209 631.661 620.295L483.434 629.68L491.267 686.597L491.214 686.483C491.503 687.104 520.443 749.679 547.81 850.854C563.784 909.911 576.117 970.42 584.467 1030.7C594.833 1105.56 599.05 1137.06 596.998 1209.55L752.136 1213.97Z" fill="#4300D2"/>
<path d="M752.133 1213.97C754.465 1131.96 749.617 1090.85 737.723 1006.53C728.231 939.247 714.246 871.776 696.161 805.988C665.089 692.961 632.375 623.209 630.999 620.295" stroke="#270570" stroke-width="4" stroke-linecap="round"/>
<path d="M567.107 929.176C574.014 961.968 579.782 994.966 584.362 1027.9C594.778 1102.83 599.016 1134.37 596.953 1206.94L732.928 1210.79" stroke="#270570" stroke-width="4.30848" stroke-linecap="round"/>
<path fill-rule="evenodd" clip-rule="evenodd" d="M363.697 1213.84C412.289 1147.76 439.022 1100.33 477.286 1024.27C507.82 963.574 534.784 900.176 557.431 835.83C596.339 725.285 613.733 621.82 614.263 618.645L484.121 623.11L484.141 622.986C484.027 623.66 444.59 689.027 409.519 787.813C389.046 845.478 364.751 902.257 337.303 956.569C303.221 1024.02 281.465 1063.21 238.505 1121.62" fill="#4300D2"/>
<path d="M483.409 623.331L483.432 623.207C483.315 623.884 443.745 689.337 408.56 788.255C388.022 845.996 363.643 902.848 336.107 957.233C301.91 1024.77 280.084 1064.01 236.981 1122.5" stroke="#270570" stroke-width="4" stroke-linecap="round"/>
<path d="M466.699 685.62C466.699 685.62 496.215 678.364 504.73 652.133" stroke="#270570" stroke-width="4" stroke-linecap="round"/>
<path d="M573.484 761.369C565.343 792.111 544.827 854.889 529.195 899.223C506.497 963.599 479.47 1027.03 448.87 1087.75C410.519 1163.84 383.726 1211.3 335.025 1277.41L217.502 1192.24" stroke="#270570" stroke-width="4" stroke-linecap="round"/>
<path fill-rule="evenodd" clip-rule="evenodd" d="M815.58 1270.36C813.179 1185.23 818.167 1142.53 830.408 1054.98C840.176 985.127 854.566 915.073 873.176 846.769C905.153 729.416 938.817 656.993 940.234 653.967L1092.27 659.674C1092.27 659.674 1055.31 788.305 1027 893.351C1010.47 954.668 997.707 1017.49 989.069 1080.08C978.341 1157.81 973.977 1190.51 976.101 1265.78L815.58 1270.36Z" fill="#6317F7"/>
<path fill-rule="evenodd" clip-rule="evenodd" d="M817.093 1270.36C814.69 1185.23 819.683 1142.53 831.932 1054.98C841.704 985.127 856.105 915.073 874.728 846.769C906.722 729.416 940.409 656.993 941.828 653.967L1095.3 663.712L1087.19 722.806L1087.24 722.69C1086.94 723.333 1056.98 788.305 1028.64 893.351C1012.1 954.668 999.337 1017.49 990.692 1080.08C979.958 1157.81 975.592 1190.51 977.716 1265.78L817.093 1270.36Z" fill="white"/>
<path d="M818.604 1270.36C816.224 1185.23 821.171 1142.53 833.316 1054.98C843.005 985.127 857.281 915.073 875.744 846.769C907.465 729.416 940.861 656.993 942.267 653.967" stroke="#270570" stroke-width="4" stroke-linecap="round"/>
<path fill-rule="evenodd" clip-rule="evenodd" d="M1216.07 1273.4C1165.91 1204.81 1138.32 1155.56 1098.82 1076.59C1067.3 1013.59 1039.46 947.768 1016.08 880.966C975.921 766.198 957.967 658.786 957.42 655.488L1091.76 660.124L1091.74 659.994C1091.86 660.696 1132.57 728.56 1168.77 831.117C1189.9 890.982 1214.98 949.927 1243.32 1006.32C1278.5 1076.34 1300.96 1117.02 1345.3 1177.66" fill="white"/>
<path d="M1174.09 939.391C1174.09 939.391 1193 1007 1258.94 1117.02" stroke="#410062" stroke-width="4.30848" stroke-linecap="round" stroke-linejoin="round"/>
<path d="M1048.33 807.303L1008.05 977.931C1000.95 1011.98 995.023 1046.25 990.322 1080.44C979.622 1158.25 975.268 1191 977.386 1266.36L837.721 1270.36" stroke="#270570" stroke-width="4" stroke-linecap="round" stroke-linejoin="round"/>
<path d="M1092.29 658.649L1092.27 658.52C1092.39 659.222 1133.26 727.29 1169.6 830.157C1190.81 890.202 1215.99 949.324 1244.43 1005.88C1279.75 1076.12 1302.3 1116.92 1346.82 1177.75" stroke="#270570" stroke-width="4" stroke-linecap="round" stroke-linejoin="round"/>
<path d="M1027.12 907.514C1048.45 965.194 1073.07 1021.95 1100.46 1076.59C1140.04 1155.56 1167.69 1204.81 1217.95 1273.41L1339.24 1185.02" stroke="#270570" stroke-width="4" stroke-linecap="round" stroke-linejoin="round"/>
<path d="M727.16 214.583L656.191 171.176" stroke="#270570" stroke-width="4.30848" stroke-linecap="round" stroke-linejoin="round" stroke-dasharray="15.21 15.21"/>
<path d="M814.069 151.755V94.541" stroke="#270570" stroke-width="4.30848" stroke-linecap="round" stroke-linejoin="round" stroke-dasharray="15.21 15.21"/>
<path d="M752.886 164.736L723.479 112.025" stroke="#270570" stroke-width="4.30848" stroke-linecap="round" stroke-linejoin="round" stroke-dasharray="43.08 43.08"/>
<path d="M910.476 211.405L981.444 167.998" stroke="#270570" stroke-width="4.30848" stroke-linecap="round" stroke-linejoin="round" stroke-dasharray="15.21 15.21"/>
<path d="M878.213 171.091L907.62 118.381" stroke="#270570" stroke-width="4.30848" stroke-linecap="round" stroke-linejoin="round" stroke-dasharray="32.95 32.95"/>
<path d="M230.108 786.027C242.686 786.027 252.885 796.223 252.885 808.804C252.885 811.579 252.378 814.332 251.389 816.919L250.996 817.882C248.781 822.979 251.118 828.907 256.217 831.122C257.272 831.581 258.394 831.854 259.54 831.933L260.227 831.956H266.509C270.022 831.956 272.868 834.802 272.868 838.315C272.868 841.665 270.276 844.41 266.986 844.653L266.509 844.671H260.227C257.104 844.671 254.015 844.027 251.148 842.783C239.612 837.77 234.323 824.353 239.336 812.816C239.886 811.549 240.169 810.183 240.169 808.804C240.169 803.439 235.97 799.052 230.678 798.758L230.108 798.74H225.462C221.95 798.74 219.104 795.894 219.104 792.384C219.104 789.033 221.699 786.286 224.986 786.043L225.462 786.027H230.108Z" fill="#A780FF"/>
<path d="M230.617 800.909C231.808 800.942 232.799 800.007 232.832 798.816C232.865 797.627 231.928 796.636 230.739 796.603L230.617 800.909ZM230.108 798.74L230.166 796.588C230.148 796.586 230.128 796.586 230.108 796.586V798.74ZM224.986 786.042L224.907 783.891C224.882 783.891 224.854 783.893 224.829 783.896L224.986 786.042ZM225.462 786.027V783.873C225.434 783.873 225.409 783.873 225.381 783.873L225.462 786.027ZM251.389 816.919L253.384 817.733C253.391 817.717 253.396 817.702 253.404 817.687L251.389 816.919ZM249.002 817.069C248.553 818.171 249.083 819.428 250.185 819.877C251.285 820.325 252.542 819.798 252.993 818.696L249.002 817.069ZM257.074 829.14C255.984 828.666 254.714 829.168 254.24 830.258C253.766 831.35 254.266 832.617 255.358 833.091L257.074 829.14ZM259.54 831.928L259.393 834.077C259.416 834.077 259.441 834.08 259.466 834.08L259.54 831.928ZM260.227 831.951L260.153 834.102C260.178 834.105 260.204 834.105 260.227 834.105V831.951ZM266.986 844.648L267.064 846.8C267.09 846.8 267.118 846.797 267.143 846.795L266.986 844.648ZM266.509 844.666V846.82C266.537 846.82 266.563 846.817 266.591 846.817L266.509 844.666ZM251.148 842.778L250.292 844.752L251.148 842.778ZM239.336 812.808L241.312 813.667L239.336 812.808ZM242.324 808.799C242.324 807.608 241.361 806.645 240.169 806.645C238.981 806.645 238.015 807.608 238.015 808.799H242.324ZM230.739 796.603L230.166 796.588L230.047 800.894L230.617 800.909L230.739 796.603ZM230.108 796.586H225.462V800.894H230.108V796.586ZM225.462 796.586C223.141 796.586 221.258 794.705 221.258 792.384H216.949C216.949 797.085 220.761 800.894 225.462 800.894V796.586ZM221.258 792.384C221.258 790.169 222.973 788.351 225.145 788.192L224.829 783.896C220.421 784.22 216.949 787.895 216.949 792.384H221.258ZM225.067 788.197L225.541 788.179L225.381 783.873L224.907 783.891L225.067 788.197ZM225.462 788.182H230.108V783.873H225.462V788.182ZM230.108 788.182C241.497 788.182 250.73 797.414 250.73 808.804H255.039C255.039 795.035 243.877 783.873 230.108 783.873V788.182ZM250.73 808.804C250.73 811.318 250.272 813.807 249.377 816.151L253.404 817.687C254.484 814.854 255.039 811.843 255.039 808.804H250.73ZM249.395 816.106L249.002 817.069L252.993 818.696L253.384 817.733L249.395 816.106ZM255.358 833.091C256.638 833.649 258.004 833.981 259.393 834.077L259.687 829.779C258.787 829.715 257.905 829.5 257.074 829.14L255.358 833.091ZM259.466 834.08L260.153 834.102L260.3 829.796L259.613 829.774L259.466 834.08ZM260.227 834.105H266.509V829.796H260.227V834.105ZM266.509 834.105C268.831 834.105 270.714 835.985 270.714 838.307H275.022C275.022 833.606 271.211 829.796 266.509 829.796V834.105ZM270.714 838.307C270.714 840.522 268.998 842.339 266.826 842.499L267.143 846.795C271.55 846.47 275.022 842.795 275.022 838.307H270.714ZM266.905 842.494L266.431 842.511L266.591 846.817L267.064 846.8L266.905 842.494ZM266.509 842.511H260.227V846.82H266.509V842.511ZM260.227 842.511C257.398 842.511 254.6 841.929 252.008 840.801L250.292 844.752C253.427 846.115 256.808 846.82 260.227 846.82V842.511ZM252.008 840.801C241.561 836.262 236.773 824.114 241.312 813.667L237.361 811.949C231.874 824.578 237.663 839.265 250.292 844.752L252.008 840.801ZM241.312 813.667C241.981 812.132 242.324 810.474 242.324 808.799H238.015C238.015 809.884 237.792 810.956 237.361 811.949L241.312 813.667Z" fill="#270570"/>
<path d="M724.498 450.809C724.498 438.231 734.696 428.033 747.275 428.033C750.052 428.033 752.802 428.539 755.39 429.528L756.353 429.921C761.45 432.136 767.378 429.799 769.593 424.7C770.051 423.646 770.325 422.523 770.404 421.377L770.426 420.69V414.408C770.426 410.895 773.273 408.049 776.785 408.049C780.136 408.049 782.881 410.644 783.124 413.931L783.142 414.408V420.69C783.142 423.813 782.5 426.902 781.253 429.769C776.24 441.305 762.823 446.595 751.287 441.581C750.019 441.032 748.656 440.748 747.275 440.748C741.909 440.748 737.525 444.947 737.228 450.239L737.213 450.809V455.455C737.213 458.967 734.364 461.814 730.854 461.814C727.504 461.814 724.757 459.221 724.516 455.931L724.498 455.455V450.809Z" fill="#A780FF"/>
<path d="M739.38 450.299C739.415 449.108 738.478 448.117 737.289 448.084C736.098 448.051 735.107 448.989 735.074 450.178L739.38 450.299ZM737.213 450.809L735.059 450.75V450.778V450.809H737.213ZM724.516 455.931L722.361 456.009L722.364 456.05L722.367 456.088L724.516 455.931ZM724.498 455.454H722.344V455.495V455.535L724.498 455.454ZM755.39 429.527L756.203 427.533L756.181 427.523L756.158 427.512L755.39 429.527ZM755.539 431.915C756.642 432.363 757.899 431.834 758.347 430.731C758.796 429.631 758.269 428.374 757.166 427.923L755.539 431.915ZM767.618 423.845C767.144 424.935 767.646 426.205 768.736 426.679C769.828 427.152 771.095 426.653 771.572 425.561L767.618 423.845ZM770.406 421.379L772.555 421.526L772.558 421.491V421.453L770.406 421.379ZM770.429 420.692L772.581 420.766L772.583 420.728V420.692H770.429ZM783.126 413.933L785.278 413.855V413.814L785.273 413.776L783.126 413.933ZM783.144 414.41H785.298V414.369L785.296 414.328L783.144 414.41ZM781.256 429.771L783.233 430.627L781.256 429.771ZM751.287 441.583L752.146 439.607L751.287 441.583ZM747.277 438.595C746.086 438.595 745.123 439.558 745.123 440.75C745.123 441.938 746.086 442.904 747.277 442.904V438.595ZM735.074 450.178L735.059 450.75L739.365 450.869L739.38 450.299L735.074 450.178ZM735.059 450.809V455.454H739.367V450.809H735.059ZM735.059 455.454C735.059 457.776 733.176 459.659 730.854 459.659V463.967C735.556 463.967 739.367 460.155 739.367 455.454H735.059ZM730.854 459.659C728.639 459.659 726.825 457.943 726.662 455.771L722.367 456.088C722.691 460.495 726.366 463.967 730.854 463.967V459.659ZM726.667 455.85L726.65 455.376L722.344 455.535L722.361 456.009L726.667 455.85ZM726.652 455.454V450.809H722.344V455.454H726.652ZM726.652 450.809C726.652 439.419 735.885 430.186 747.275 430.186V425.878C733.505 425.878 722.344 437.039 722.344 450.809H726.652ZM747.275 430.186C749.789 430.186 752.28 430.645 754.622 431.54L756.158 427.512C753.324 426.433 750.313 425.878 747.275 425.878V430.186ZM754.576 431.522L755.539 431.915L757.166 427.923L756.203 427.533L754.576 431.522ZM771.572 425.561C772.127 424.281 772.459 422.915 772.555 421.526L768.257 421.232C768.194 422.132 767.978 423.014 767.618 423.845L771.572 425.561ZM772.558 421.453L772.581 420.766L768.275 420.619L768.252 421.306L772.558 421.453ZM772.583 420.692V414.41H768.275V420.692H772.583ZM772.583 414.41C772.583 412.088 774.464 410.205 776.785 410.205V405.896C772.086 405.896 768.275 409.708 768.275 414.41H772.583ZM776.785 410.205C779 410.205 780.817 411.921 780.977 414.093L785.273 413.776C784.949 409.369 781.274 405.896 776.785 405.896V410.205ZM780.972 414.014L780.99 414.488L785.296 414.328L785.278 413.855L780.972 414.014ZM780.99 414.41V420.692H785.298V414.41H780.99ZM780.99 420.692C780.99 423.521 780.407 426.319 779.279 428.911L783.233 430.627C784.594 427.492 785.298 424.111 785.298 420.692H780.99ZM779.279 428.911C774.74 439.358 762.593 444.146 752.146 439.607L750.427 443.558C763.056 449.045 777.743 443.256 783.233 430.627L779.279 428.911ZM752.146 439.607C750.61 438.937 748.952 438.595 747.277 438.595V442.904C748.362 442.904 749.434 443.127 750.427 443.558L752.146 439.607Z" fill="#270570"/>
<path d="M1258.47 182.572C1248.3 175.178 1246.04 160.933 1253.44 150.756C1255.07 148.51 1257.09 146.583 1259.41 145.069L1260.3 144.521C1265.09 141.699 1266.68 135.53 1263.86 130.741C1263.27 129.751 1262.53 128.869 1261.65 128.133L1261.1 127.709L1256.02 124.016C1253.18 121.953 1252.55 117.977 1254.61 115.137C1256.58 112.425 1260.3 111.728 1263.1 113.465L1263.49 113.73L1268.58 117.423C1271.1 119.259 1273.23 121.595 1274.81 124.286C1281.2 135.124 1277.59 149.087 1266.75 155.474C1265.56 156.175 1264.53 157.113 1263.72 158.229C1260.57 162.57 1261.39 168.587 1265.49 171.937L1265.95 172.286L1269.71 175.016C1272.55 177.08 1273.18 181.056 1271.11 183.896C1269.14 186.607 1265.43 187.304 1262.63 185.567L1262.23 185.302L1258.47 182.572Z" fill="#A780FF"/>
<path d="M1266.81 170.229C1265.87 169.503 1264.51 169.679 1263.79 170.621C1263.06 171.564 1263.24 172.917 1264.18 173.643L1266.81 170.229ZM1265.95 172.284L1264.63 173.991L1264.66 174.01L1264.68 174.027L1265.95 172.284ZM1269.71 175.015L1270.97 173.272L1269.71 175.015ZM1262.63 185.566L1261.43 187.354L1261.46 187.376L1261.49 187.397L1262.63 185.566ZM1262.23 185.301L1260.97 187.044L1261 187.067L1261.03 187.089L1262.23 185.301ZM1258.47 182.57L1259.74 180.828L1258.47 182.57ZM1259.41 145.068L1258.28 143.237L1258.26 143.25L1258.24 143.264L1259.41 145.068ZM1261.43 146.35C1262.44 145.723 1262.75 144.395 1262.13 143.384C1261.5 142.373 1260.17 142.062 1259.16 142.689L1261.43 146.35ZM1262 131.833C1262.61 132.858 1263.93 133.199 1264.95 132.595C1265.98 131.991 1266.32 130.671 1265.71 129.646L1262 131.833ZM1261.65 128.131L1263.03 126.479L1263 126.455L1262.97 126.432L1261.65 128.131ZM1261.1 127.707L1262.43 126.009L1262.4 125.986L1262.37 125.964L1261.1 127.707ZM1256.02 124.014L1254.76 125.757L1256.02 124.014ZM1263.1 113.463L1264.3 111.675L1264.27 111.653L1264.23 111.632L1263.1 113.463ZM1263.49 113.728L1264.76 111.985L1264.73 111.962L1264.7 111.94L1263.49 113.728ZM1274.81 124.284L1276.67 123.19L1274.81 124.284ZM1266.75 155.472L1265.66 153.616L1266.75 155.472ZM1261.98 156.961C1261.28 157.923 1261.49 159.27 1262.45 159.97C1263.42 160.669 1264.77 160.456 1265.47 159.493L1261.98 156.961ZM1264.18 173.643L1264.63 173.991L1267.26 170.577L1266.81 170.229L1264.18 173.643ZM1264.68 174.027L1268.44 176.758L1270.97 173.272L1267.21 170.541L1264.68 174.027ZM1268.44 176.758C1270.32 178.122 1270.73 180.751 1269.37 182.628L1272.85 185.161C1275.62 181.358 1274.77 176.035 1270.97 173.272L1268.44 176.758ZM1269.37 182.628C1268.07 184.42 1265.61 184.882 1263.76 183.735L1261.49 187.397C1265.25 189.724 1270.22 188.792 1272.85 185.161L1269.37 182.628ZM1263.83 183.778L1263.43 183.513L1261.03 187.089L1261.43 187.354L1263.83 183.778ZM1263.5 183.558L1259.74 180.828L1257.21 184.313L1260.97 187.044L1263.5 183.558ZM1259.74 180.828C1250.53 174.133 1248.48 161.235 1255.18 152.021L1251.69 149.488C1243.6 160.628 1246.07 176.22 1257.21 184.313L1259.74 180.828ZM1255.18 152.021C1256.66 149.987 1258.49 148.243 1260.59 146.872L1258.24 143.264C1255.7 144.921 1253.48 147.03 1251.69 149.488L1255.18 152.021ZM1260.55 146.898L1261.43 146.35L1259.16 142.689L1258.28 143.237L1260.55 146.898ZM1265.71 129.646C1265.01 128.443 1264.1 127.372 1263.03 126.479L1260.27 129.783C1260.96 130.361 1261.55 131.054 1262 131.833L1265.71 129.646ZM1262.97 126.432L1262.43 126.009L1259.78 129.406L1260.32 129.829L1262.97 126.432ZM1262.37 125.964L1257.29 122.271L1254.76 125.757L1259.84 129.45L1262.37 125.964ZM1257.29 122.271C1255.41 120.907 1254.99 118.279 1256.36 116.401L1252.87 113.868C1250.11 117.671 1250.95 122.994 1254.76 125.757L1257.29 122.271ZM1256.36 116.401C1257.66 114.609 1260.11 114.147 1261.97 115.295L1264.23 111.632C1260.48 109.305 1255.51 110.237 1252.87 113.868L1256.36 116.401ZM1261.9 115.251L1262.29 115.516L1264.7 111.94L1264.3 111.675L1261.9 115.251ZM1262.23 115.471L1267.31 119.164L1269.85 115.679L1264.76 111.985L1262.23 115.471ZM1267.31 119.164C1269.6 120.826 1271.52 122.941 1272.96 125.378L1276.67 123.19C1274.93 120.245 1272.61 117.688 1269.85 115.679L1267.31 119.164ZM1272.96 125.378C1278.74 135.19 1275.47 147.833 1265.66 153.616L1267.85 157.328C1279.71 150.337 1283.66 135.053 1276.67 123.19L1272.96 125.378ZM1265.66 153.616C1264.22 154.467 1262.96 155.605 1261.98 156.961L1265.47 159.493C1266.1 158.616 1266.91 157.879 1267.85 157.328L1265.66 153.616Z" fill="#270570"/>
<path d="M1293.41 427.666C1301.5 418.027 1315.86 416.77 1325.5 424.858C1327.63 426.642 1329.41 428.799 1330.76 431.219L1331.24 432.139C1333.72 437.111 1339.76 439.131 1344.74 436.65C1345.77 436.138 1346.7 435.451 1347.49 434.628L1347.96 434.116L1352 429.3C1354.25 426.611 1358.26 426.262 1360.95 428.517C1363.52 430.672 1363.96 434.422 1362.03 437.099L1361.74 437.474L1357.7 442.287C1355.69 444.679 1353.21 446.633 1350.41 448.027C1339.16 453.643 1325.48 449.071 1319.86 437.813C1319.25 436.579 1318.38 435.484 1317.33 434.597C1313.22 431.148 1307.16 431.546 1303.53 435.411L1303.15 435.837L1300.16 439.397C1297.91 442.086 1293.9 442.436 1291.21 440.181C1288.64 438.026 1288.2 434.273 1290.13 431.599L1290.43 431.224L1293.41 427.666Z" fill="#A780FF"/>
<path d="M1305.14 436.84C1305.93 435.951 1305.85 434.59 1304.96 433.799C1304.07 433.008 1302.71 433.09 1301.92 433.979L1305.14 436.84ZM1303.15 435.837L1301.54 434.407L1301.52 434.43L1301.5 434.453L1303.15 435.837ZM1300.16 439.398L1298.51 438.011L1300.16 439.398ZM1290.13 431.599L1288.43 430.276L1288.41 430.307L1288.38 430.34L1290.13 431.599ZM1290.42 431.224L1288.77 429.838L1288.75 429.868L1288.72 429.901L1290.42 431.224ZM1293.41 427.666L1295.06 429.05L1293.41 427.666ZM1330.76 431.219L1332.66 430.213L1332.65 430.193L1332.64 430.17L1330.76 431.219ZM1329.34 433.143C1329.89 434.197 1331.2 434.6 1332.25 434.042C1333.3 433.487 1333.7 432.185 1333.15 431.133L1329.34 433.143ZM1343.78 434.727C1342.71 435.259 1342.28 436.552 1342.81 437.616C1343.34 438.68 1344.64 439.114 1345.7 438.582L1343.78 434.727ZM1347.49 434.63L1349.05 436.126L1349.07 436.098L1349.1 436.07L1347.49 434.63ZM1347.96 434.118L1349.56 435.558L1349.58 435.53L1349.61 435.502L1347.96 434.118ZM1352 429.306L1353.64 430.689L1352 429.306ZM1362.03 437.102L1363.73 438.427L1363.75 438.394L1363.77 438.361L1362.03 437.102ZM1361.73 437.477L1363.38 438.863L1363.41 438.832L1363.43 438.8L1361.73 437.477ZM1357.69 442.289L1356.04 440.906L1357.69 442.289ZM1350.41 448.032L1351.38 449.958L1350.41 448.032ZM1319.86 437.816L1321.79 436.856L1319.86 437.816ZM1318.71 432.95C1317.8 432.185 1316.44 432.304 1315.68 433.216C1314.91 434.126 1315.03 435.485 1315.94 436.25L1318.71 432.95ZM1301.92 433.979L1301.54 434.407L1304.76 437.269L1305.14 436.84L1301.92 433.979ZM1301.5 434.453L1298.51 438.011L1301.81 440.781L1304.8 437.223L1301.5 434.453ZM1298.51 438.011C1297.02 439.791 1294.37 440.021 1292.59 438.531L1289.82 441.831C1293.42 444.852 1298.79 444.383 1301.81 440.781L1298.51 438.011ZM1292.59 438.531C1290.9 437.107 1290.61 434.625 1291.88 432.859L1288.38 430.34C1285.8 433.923 1286.38 438.947 1289.82 441.831L1292.59 438.531ZM1291.83 432.922L1292.12 432.547L1288.72 429.901L1288.43 430.276L1291.83 432.922ZM1292.07 432.608L1295.06 429.05L1291.76 426.28L1288.77 429.838L1292.07 432.608ZM1295.06 429.05C1302.38 420.324 1315.39 419.186 1324.11 426.508L1326.88 423.208C1316.34 414.355 1300.61 415.731 1291.76 426.28L1295.06 429.05ZM1324.11 426.508C1326.04 428.125 1327.65 430.076 1328.87 432.268L1332.64 430.17C1331.16 427.521 1329.21 425.159 1326.88 423.208L1324.11 426.508ZM1328.85 432.223L1329.34 433.143L1333.15 431.133L1332.66 430.213L1328.85 432.223ZM1345.7 438.582C1346.95 437.958 1348.08 437.127 1349.05 436.126L1345.94 433.135C1345.32 433.784 1344.59 434.324 1343.78 434.727L1345.7 438.582ZM1349.1 436.07L1349.56 435.558L1346.35 432.676L1345.89 433.191L1349.1 436.07ZM1349.61 435.502L1353.64 430.689L1350.35 427.919L1346.31 432.732L1349.61 435.502ZM1353.64 430.689C1355.14 428.91 1357.79 428.68 1359.57 430.172L1362.34 426.87C1358.73 423.849 1353.37 424.318 1350.35 427.919L1353.64 430.689ZM1359.57 430.172C1361.26 431.594 1361.55 434.075 1360.28 435.842L1363.77 438.361C1366.36 434.777 1365.77 429.757 1362.34 426.87L1359.57 430.172ZM1360.33 435.779L1360.03 436.154L1363.43 438.8L1363.73 438.427L1360.33 435.779ZM1360.08 436.093L1356.04 440.906L1359.34 443.676L1363.38 438.863L1360.08 436.093ZM1356.04 440.906C1354.23 443.073 1351.98 444.842 1349.45 446.104L1351.38 449.958C1354.44 448.433 1357.15 446.294 1359.34 443.676L1356.04 440.906ZM1349.45 446.104C1339.26 451.188 1326.88 447.046 1321.79 436.856L1317.94 438.779C1324.08 451.099 1339.05 456.107 1351.38 449.958L1349.45 446.104ZM1321.79 436.856C1321.05 435.355 1320 434.027 1318.71 432.95L1315.94 436.25C1316.77 436.947 1317.45 437.809 1317.94 438.779L1321.79 436.856Z" fill="#270570"/>
<path fill-rule="evenodd" clip-rule="evenodd" d="M875.65 389.499C853.823 360.536 832.869 324.274 815.437 278.961C810.541 266.228 816.844 251.999 829.518 247.179C842.193 242.359 856.436 248.775 861.335 261.507C893.75 345.776 939.43 393.116 972.043 417.986C1007.3 444.873 1055.28 456.922 1055.55 456.993L1058.26 460.582L1024.51 500.133C1020.29 499.132 943.741 479.861 875.65 389.499Z" fill="#A780FF"/>
<path d="M932.562 383.324C924.797 386.191 918.131 391.908 914.109 399.149" stroke="#270570" stroke-width="4" stroke-linecap="round"/>
<mask id="mask0" style="mask-type:alpha" maskUnits="userSpaceOnUse" x="766" y="172" width="120" height="122">
<path d="M830.37 172.332L885.485 245.473L821.537 293.663L766.422 220.522L830.37 172.332Z" fill="white"/>
</mask>
<g mask="url(#mask0)">
<path fill-rule="evenodd" clip-rule="evenodd" d="M861.198 261.35C859.452 255.738 851.786 233.221 850.212 228.604C850.029 228.065 850.019 227.489 850.186 226.946C851.046 224.171 853.788 215.118 854.543 210.563C854.865 208.627 855.169 206.591 854.51 204.737C853.142 200.89 847.726 200.401 845.731 203.966C845.353 204.642 845.143 205.4 844.94 206.15C844.35 208.309 844.005 210.553 843.356 212.68C843.171 213.278 842.941 213.879 842.52 214.341C842.099 214.802 841.455 215.103 840.845 214.967C840.026 214.786 839.55 213.943 839.23 213.169C838.265 210.843 838.488 208.242 837.852 205.832C837.281 203.669 837.385 201.188 837.345 198.972C837.281 195.255 836.655 191.464 834.585 188.277C833.269 186.25 830.71 185.749 829.635 188.197C828.396 191.019 828.682 194.721 828.327 197.733C827.856 201.734 828.157 205.652 828.809 209.639C828.877 210.05 828.948 210.474 828.849 210.878C828.657 211.673 827.326 213.01 826.487 212.248C826.252 212.033 826.122 211.725 826.013 211.424C825.365 209.625 825.453 207.453 825.256 205.561C824.944 202.558 824.156 195.016 823.661 192.027C823.319 189.952 822.63 187.898 821.373 186.208C820.395 184.886 818.669 184.107 817.08 184.913C815.491 185.717 815.237 187.981 815.237 189.566C815.237 194.497 816.208 203.87 816.872 208.761C817.077 210.288 817.516 211.827 817.574 213.363C817.599 214.03 817.232 214.809 816.57 214.858C815.959 214.902 815.501 214.327 815.171 213.811C814.246 212.365 813.937 210.893 813.128 209.42C812.614 208.486 810.832 202.217 809.973 200.315C809.086 198.352 808.29 196.269 806.711 194.737C805.971 194.018 805.044 193.441 804.022 193.332C801.739 193.089 800.023 195.042 800.454 197.252C800.697 198.502 806.06 212.488 806.714 214.018C807.408 215.643 807.745 217.481 808.186 219.188C808.278 219.547 808.366 219.948 808.184 220.269C807.852 220.854 806.651 221.113 806.108 220.763C805.799 220.562 805.571 220.26 805.353 219.961C803.548 217.47 802.147 214.745 800.773 212.005C800.266 211 799.734 209.963 798.87 209.244C797.626 208.209 795.471 208.182 794.536 209.623C794.065 210.347 793.948 211.259 794.039 212.122C794.204 213.643 794.79 215.313 795.231 216.782C795.732 218.454 796.391 220.076 796.87 221.755C798.363 226.988 799.891 232.21 801.582 237.383C808.052 257.181 813.058 274.846 821.538 293.664L861.198 261.35Z" fill="#A780FF"/>
</g>
<path d="M843.05 213.418C841.793 216.485 842.178 215.546 840.924 218.613" stroke="#270570" stroke-width="4.30848" stroke-linecap="round"/>
<path d="M811.904 232.828C818.958 228.776 827.656 227.677 835.532 229.843" stroke="#270570" stroke-width="4.30848" stroke-linecap="round"/>
<path d="M861.333 261.5C893.751 345.77 939.431 393.108 972.041 417.978C980.546 424.463 989.787 430.085 998.923 434.882" stroke="#270570" stroke-width="4" stroke-linecap="round"/>
<path d="M976.303 479.622C947.817 463.562 910.617 435.907 875.647 389.502C856.246 363.755 837.535 332.242 821.373 293.73" stroke="#270570" stroke-width="4" stroke-linecap="round"/>
<path fill-rule="evenodd" clip-rule="evenodd" d="M798.429 678.216L798.427 678.214C798.427 678.214 798.427 678.213 798.427 678.211L798.429 678.216Z" fill="#410062"/>
<path fill-rule="evenodd" clip-rule="evenodd" d="M1004.53 521.109C994.221 510.089 928.963 458.593 910.1 439.326C924.368 418.904 946.055 396.713 949.844 380.551C985.64 408.021 1032.11 447.038 1066.22 466.525L1004.53 521.109Z" fill="white"/>
<path d="M966.136 485.987C966.136 485.987 928.11 458.902 912.521 440.49C918.773 429.067 944.631 400.492 950.815 384.211C1024.38 449.768 1053.05 423.801 1057.19 439.945" stroke="#270570" stroke-width="4" stroke-linecap="round"/>
<path fill-rule="evenodd" clip-rule="evenodd" d="M1068.94 431.3L1050.76 426.756C1046.97 437.748 1040.44 448.377 1030.24 454.067C1020.05 459.756 1017.04 443.655 1009.33 434.922C977.479 459.756 929.891 619.657 919.895 645.834C918.724 648.896 921.119 652.135 924.406 651.945L1118.36 660.42C1121.03 660.268 1123 657.865 1122.59 655.235C1118.05 625.587 1128.16 486.205 1072.45 434.922" fill="white"/>
<path d="M1068.94 431.3L1050.76 426.756C1046.97 437.748 1040.44 448.377 1030.24 454.067C1020.05 459.756 1017.04 443.655 1009.33 434.922C977.479 459.756 929.891 619.657 919.895 645.834C918.724 648.896 921.119 652.135 924.406 651.945L1118.36 660.42C1121.03 660.268 1123 657.865 1122.59 655.235C1118.05 625.587 1128.16 486.205 1072.45 434.922" stroke="#270570" stroke-width="4" stroke-linecap="round"/>
<path fill-rule="evenodd" clip-rule="evenodd" d="M824.662 603.801C851.213 613.374 929.085 622.708 963.923 615.933L953.94 560.187C953.94 560.187 864.774 573.758 814.826 553.579L799.407 564.88L738.822 544.334C754.477 562.736 767.043 578.237 787.962 588.534" fill="#A780FF"/>
<path fill-rule="evenodd" clip-rule="evenodd" d="M765.318 524.079C768.192 524.697 770.663 526.689 772.751 529.31C773.23 526.425 775.083 524.043 780.319 525.176C783.193 525.794 785.661 527.786 787.75 530.407C788.231 527.523 790.081 525.143 795.32 526.273C806.626 528.714 811.712 552.33 811.712 552.33L792.537 551.658L792.319 550.91L781.713 550.132L758.477 535.564C758.477 535.564 754.012 521.635 765.318 524.079Z" fill="#A780FF"/>
<path d="M791.729 526.372C791.729 526.372 801.405 523.216 809.806 550.109" stroke="#270570" stroke-width="4.30848" stroke-linecap="round"/>
<path d="M777.176 525.434C777.176 525.434 786.852 522.279 795.254 549.172" stroke="#270570" stroke-width="4.30848" stroke-linecap="round"/>
<path d="M762.23 523.899C762.23 523.899 771.907 520.741 780.308 547.637" stroke="#270570" stroke-width="4.30848" stroke-linecap="round"/>
<path d="M908.09 563.296C908.09 563.296 876.565 569.12 849.629 563.189" stroke="#270570" stroke-width="4" stroke-linecap="round"/>
<path fill-rule="evenodd" clip-rule="evenodd" d="M727.729 521.596L820.757 553.369C822.815 554.071 823.284 556.771 821.581 558.124L810.435 566.994C809.7 567.577 808.719 567.747 807.832 567.445L714.804 535.672C712.749 534.967 712.28 532.268 713.98 530.915L725.129 522.047C725.862 521.461 726.842 521.291 727.729 521.596Z" fill="white"/>
<path fill-rule="evenodd" clip-rule="evenodd" d="M727.729 521.596L820.757 553.369C822.815 554.071 823.284 556.771 821.581 558.124L810.435 566.994C809.7 567.577 808.719 567.747 807.832 567.445L714.804 535.672C712.749 534.967 712.28 532.268 713.98 530.915L725.129 522.047C725.862 521.461 726.842 521.291 727.729 521.596Z" stroke="#270570" stroke-width="4.30848" stroke-linecap="round"/>
<path fill-rule="evenodd" clip-rule="evenodd" d="M759.891 556.338C759.891 556.338 749.906 544.039 760.294 541.282C770.68 538.527 788.667 567.297 788.667 567.297" fill="#A780FF"/>
<path d="M757.431 544.75C757.431 544.75 752.022 550.445 769.7 570.287" stroke="#270570" stroke-width="4.30848" stroke-linecap="round"/>
<path d="M809.877 595.92C815.473 598.191 821.155 600.335 826.89 602.398C853.443 611.95 881.755 617.665 910.13 614.75" stroke="#270570" stroke-width="4" stroke-linecap="round"/>
<path d="M738.825 544.336C755.828 567.427 769.218 576.819 790.19 587.079" stroke="#270570" stroke-width="4" stroke-linecap="round"/>
<path fill-rule="evenodd" clip-rule="evenodd" d="M1038.9 468.912C1038.09 489.573 1029.63 506.363 1017.94 523.506C997.045 554.164 933.52 559.527 933.467 559.307C933.512 559.489 948.858 622.77 948.891 622.91C949.928 627.168 996.026 613.961 999.417 612.988C1027.08 605.07 1056.76 595.898 1078.59 576.333C1095.46 561.223 1105.31 543.147 1111.93 523.445" fill="white"/>
<path d="M1017.94 523.506C997.047 554.162 935.978 558.96 933.467 559.307C933.888 562.267 948.858 622.771 948.894 622.91C949.928 627.168 996.026 613.959 999.419 612.988C1027.08 605.068 1056.76 595.898 1078.59 576.333C1095.46 561.223 1106.19 544.503 1112.81 524.803" stroke="#270570" stroke-width="4" stroke-linecap="round"/>
<path fill-rule="evenodd" clip-rule="evenodd" d="M1003.26 456.497C1014.8 480.29 1051.04 481.319 1064.72 459.589C1065.96 457.556 1066.67 454.129 1066.43 452.73C1064.01 438.505 1060.49 414.035 1056.32 384.973C1056.02 382.857 1054.9 380.645 1053.54 379.796C1041.32 372.202 1024.87 372.844 1013.37 381.727C1012.09 382.72 1011.05 384.994 1010.77 387.044C1006.9 415.247 1003.78 438.044 1001.85 449.783C1001.66 450.923 1002.21 454.271 1003.26 456.497Z" fill="#A780FF"/>
<path d="M1057.78 396.078C1061.53 422.119 1064.66 443.527 1066.82 455.677C1060.71 469.211 1046.78 475.689 1033.18 475.116" stroke="#270570" stroke-width="4" stroke-linecap="round"/>
<path fill-rule="evenodd" clip-rule="evenodd" d="M971.039 324.796C967.068 357.14 989.609 387.73 1022.12 392.15C1055.16 396.639 1085.53 372.111 1089.55 339.349L1095.2 293.361C1097.48 274.753 1078.67 241.886 1041.14 237.277C1003.6 232.669 978.66 262.736 976.686 278.81L971.039 324.796Z" fill="#A780FF"/>
<path fill-rule="evenodd" clip-rule="evenodd" d="M970.875 324.772C966.904 357.116 989.445 387.706 1021.96 392.123C1054.99 396.612 1085.36 372.084 1089.39 339.322C1089.39 339.322 1093.41 308.387 1093.05 309.504C1092.15 312.269 1078.41 297.501 1076.12 291.646C1081.32 313.253 1073.99 337.431 1066.68 336.534C1033.46 332.456 970.875 324.772 970.875 324.772Z" fill="#270570"/>
<path fill-rule="evenodd" clip-rule="evenodd" d="M1001.3 303.69C1001.08 305.431 999.496 306.67 997.752 306.458C996.011 306.242 994.772 304.658 994.985 302.914C995.2 301.171 996.784 299.934 998.528 300.147C1000.27 300.362 1001.51 301.946 1001.3 303.69Z" fill="#270570"/>
<path fill-rule="evenodd" clip-rule="evenodd" d="M974.798 344.511C976.081 346.782 986.18 344.912 989.546 337.795L973.8 335.861" fill="white"/>
<path d="M974.798 344.511C976.081 346.782 986.18 344.912 989.546 337.795L973.8 335.861" stroke="#A780FF" stroke-width="4.30848" stroke-linecap="round" stroke-linejoin="round"/>
<path d="M1088.36 267.177C1088.36 267.177 1071.88 241.245 1041.11 237.468C1010.35 233.691 979.713 252.603 976.028 284.191C974.34 296.353 971.096 324.351 971.096 324.351C967.124 356.695 989.612 387.723 1022.12 392.141C1055.16 396.629 1085.48 372.542 1089.5 339.78L1096.09 286.144" stroke="#270570" stroke-width="4.30848" stroke-linecap="round"/>
<path fill-rule="evenodd" clip-rule="evenodd" d="M969.256 277.558C980.019 278.879 989.807 271.286 991.117 260.598C992.43 249.91 984.771 240.174 974.01 238.852C963.247 237.531 953.459 245.124 952.146 255.813C950.836 266.501 958.495 276.236 969.256 277.558Z" fill="#270570"/>
<path fill-rule="evenodd" clip-rule="evenodd" d="M959.951 269.974C984.142 272.945 998.259 229.699 1044.8 234.876C1077.94 238.562 1101.88 266.492 1098.32 295.465C1098.32 295.465 1093.32 336.186 1092.37 343.961C1090.27 344.795 1022.51 330.605 1031.71 331.733C1052.44 334.277 1040.12 263.231 1027.83 271.569C1002.53 288.735 963.92 283.303 959.951 269.974Z" fill="#270570"/>
<path fill-rule="evenodd" clip-rule="evenodd" d="M986.852 258.437C994.698 259.4 1001.84 253.864 1002.79 246.07C1003.75 238.277 998.165 231.178 990.316 230.214C982.47 229.251 975.333 234.788 974.377 242.581C973.419 250.374 979.005 257.473 986.852 258.437Z" fill="#270570"/>
<path fill-rule="evenodd" clip-rule="evenodd" d="M1006.83 256.796C1014.68 257.76 1021.82 252.223 1022.77 244.429C1023.73 236.636 1018.15 229.537 1010.3 228.574C1002.45 227.61 995.314 233.147 994.359 240.94C993.401 248.734 998.987 255.833 1006.83 256.796Z" fill="#270570"/>
<path fill-rule="evenodd" clip-rule="evenodd" d="M1096.26 292.041C1101.17 290.282 1104.92 285.905 1105.6 280.402C1106.56 272.609 1100.97 265.51 1093.12 264.546C1085.28 263.583 1078.14 269.12 1077.18 276.913C1076.23 284.706 1094.21 292.774 1096.26 292.041Z" fill="#270570"/>
<path fill-rule="evenodd" clip-rule="evenodd" d="M977.313 293.047C974.682 300.913 962.831 316.487 962.831 316.487C962.831 316.487 971.897 318.806 974.758 319.158C982.151 320.065 978.998 288.01 977.313 293.047Z" fill="#A780FF"/>
<path d="M974.97 294.627C974.139 300.839 962.828 316.489 962.828 316.489C962.828 316.489 971.975 318.815 974.861 319.17" stroke="#270570" stroke-width="4" stroke-linecap="round"/>
<path fill-rule="evenodd" clip-rule="evenodd" d="M1056.99 334.985L1060.35 307.568C1060.35 307.568 1073.4 315.402 1072.47 322.972C1071.54 330.543 1056.99 334.985 1056.99 334.985Z" fill="#A780FF"/>
<path d="M1060.35 307.568C1067.98 308.506 1073.4 315.402 1072.47 322.972C1071.54 330.543 1064.61 335.921 1056.99 334.985" stroke="#270570" stroke-width="4.30848" stroke-linecap="round" stroke-linejoin="round"/>
<path fill-rule="evenodd" clip-rule="evenodd" d="M393.265 701.5C392.219 707.755 389.671 721.471 388.579 727.718C387.978 731.145 387.008 736.021 386.656 737.78C386.567 738.218 386.595 738.664 386.732 739.09C387.614 741.804 391.03 752.335 392.398 756.752C392.961 758.569 393.524 760.483 393.136 762.348C392.33 766.211 387.195 767.364 384.81 764.193C384.357 763.593 384.058 762.891 383.761 762.199C382.91 760.199 382.284 758.09 381.376 756.131C381.123 755.579 380.819 755.031 380.355 754.641C379.891 754.251 379.235 754.043 378.665 754.251C377.904 754.527 377.557 755.396 377.352 756.182C376.199 760.569 376.888 765.605 377.42 770.045C377.848 773.619 377.747 777.339 376.181 780.657C375.185 782.768 372.797 783.574 371.439 781.359C369.875 778.807 369.662 775.218 368.925 772.372C367.944 768.591 367.716 764.791 367.815 760.883C367.825 760.48 367.838 760.065 367.691 759.69C367.399 758.95 365.944 757.834 365.24 758.671C365.042 758.909 364.959 759.221 364.895 759.522C364.507 761.332 364.88 763.405 364.943 765.245C365.04 768.167 365.278 775.504 365.202 778.437C365.146 780.469 364.753 782.53 363.772 784.311C363.007 785.703 361.453 786.668 359.821 786.096C358.189 785.523 357.647 783.381 357.436 781.861C356.785 777.129 356.481 768.01 356.468 763.233C356.466 761.74 356.684 760.207 356.537 758.724C356.471 758.083 356.017 757.381 355.373 757.419C354.783 757.452 354.418 758.06 354.17 758.6C353.473 760.103 353.369 761.558 352.788 763.071C352.418 764.034 351.536 770.273 350.964 772.207C350.37 774.204 349.881 776.303 348.569 777.973C347.953 778.756 347.142 779.428 346.174 779.661C344.014 780.18 342.108 778.523 342.23 776.348C342.298 775.117 345.596 761.018 346.021 759.467C346.475 757.819 346.556 756.015 346.754 754.319C346.794 753.964 346.827 753.567 346.609 753.283C346.212 752.763 345.023 752.664 344.552 753.07C344.28 753.3 344.1 753.62 343.933 753.934C342.527 756.552 341.543 759.345 340.585 762.148C340.233 763.177 339.86 764.239 339.125 765.04C338.066 766.188 336.003 766.487 334.913 765.22C334.366 764.586 334.13 763.724 334.107 762.886C334.064 761.405 334.404 759.728 334.634 758.263C334.893 756.595 335.314 754.955 335.552 753.283C336.292 748.072 337.07 742.866 338.01 737.689C341.604 717.872 344.075 700.286 349.729 681.156L393.265 701.5Z" fill="#A780FF"/>
<path d="M378.856 754.278V745.139" stroke="#270570" stroke-width="4" stroke-linecap="round" stroke-linejoin="round"/>
<path fill-rule="evenodd" clip-rule="evenodd" d="M387.258 579.608C370.901 610.348 356.478 647.905 346.769 693.562C344.042 706.392 352.18 719.013 364.945 721.755C377.714 724.497 390.274 716.319 393.004 703.49C411.059 618.58 447.296 566.883 474.515 538.47C503.944 507.75 529.537 496.759 529.793 496.652L529.653 496.708L511.938 452.66C508.081 454.226 438.281 483.712 387.258 579.608Z" fill="#A780FF"/>
<path d="M391.752 704.005C409.898 618.571 446.312 566.555 473.666 537.967" stroke="#270570" stroke-width="4" stroke-linecap="round"/>
<path d="M484.283 467.904C458.455 485.24 419.027 519.233 387.005 579.433C372.899 605.956 360.229 637.56 350.791 675.071" stroke="#270570" stroke-width="4" stroke-linecap="round"/>
<path d="M435.742 585.193C428.009 583.619 420.888 579.217 416.021 573.008" stroke="#270570" stroke-width="4" stroke-linecap="round"/>
<path fill-rule="evenodd" clip-rule="evenodd" d="M722.392 425.268C743.983 396.619 764.648 360.707 781.73 315.767C786.528 303.138 780.128 288.939 767.436 284.054C754.744 279.169 740.564 285.447 735.764 298.074C704 381.651 658.72 428.403 626.328 452.903C591.313 479.39 543.484 491.026 543.208 491.094L540.531 494.642L574.525 534.225C578.732 533.259 655.043 514.646 722.392 425.268Z" fill="#A780FF"/>
<path d="M665.51 418.719C673.285 421.626 679.984 427.359 684.051 434.589" stroke="#270570" stroke-width="4" stroke-linecap="round"/>
<mask id="mask1" style="mask-type:alpha" maskUnits="userSpaceOnUse" x="711" y="209" width="120" height="122">
<path d="M766.042 209.602L711.527 281.947L775.744 330.337L830.259 257.992L766.042 209.602Z" fill="white"/>
</mask>
<g mask="url(#mask1)">
<path fill-rule="evenodd" clip-rule="evenodd" d="M735.898 297.913C737.604 292.344 745.096 270.004 746.634 265.424C746.814 264.889 746.819 264.316 746.647 263.775C745.77 261.009 742.964 251.986 742.179 247.45C741.844 245.522 741.525 243.495 742.171 241.655C743.509 237.839 748.915 237.392 750.932 240.952C751.315 241.628 751.528 242.383 751.738 243.131C752.342 245.282 752.702 247.516 753.368 249.636C753.556 250.232 753.791 250.832 754.215 251.294C754.638 251.756 755.282 252.06 755.892 251.929C756.708 251.755 757.177 250.92 757.492 250.152C758.437 247.846 758.196 245.258 758.814 242.865C759.37 240.718 759.248 238.25 759.271 236.046C759.309 232.35 759.907 228.584 761.95 225.429C763.25 223.423 765.802 222.943 766.894 225.386C768.151 228.201 767.893 231.881 768.268 234.879C768.767 238.861 768.496 242.757 767.872 246.717C767.809 247.125 767.741 247.547 767.842 247.949C768.04 248.741 769.378 250.08 770.209 249.329C770.445 249.117 770.572 248.812 770.678 248.512C771.314 246.728 771.21 244.567 771.393 242.687C771.682 239.702 772.417 232.207 772.885 229.238C773.212 227.177 773.889 225.139 775.128 223.466C776.099 222.16 777.815 221.397 779.409 222.21C781.001 223.021 781.272 225.275 781.282 226.851C781.317 231.755 780.415 241.071 779.789 245.93C779.594 247.447 779.168 248.975 779.123 250.502C779.102 251.165 779.472 251.943 780.134 251.996C780.745 252.045 781.198 251.476 781.523 250.965C782.438 249.533 782.737 248.071 783.532 246.613C784.039 245.687 785.773 239.465 786.617 237.58C787.489 235.634 788.269 233.568 789.836 232.056C790.568 231.346 791.491 230.779 792.509 230.678C794.788 230.453 796.516 232.408 796.103 234.603C795.867 235.844 790.614 249.715 789.972 251.232C789.291 252.843 788.966 254.669 788.538 256.364C788.449 256.72 788.366 257.118 788.548 257.439C788.885 258.023 790.086 258.289 790.626 257.944C790.933 257.748 791.158 257.449 791.374 257.153C793.158 254.689 794.537 251.989 795.89 249.273C796.389 248.277 796.912 247.25 797.771 246.541C799.005 245.521 801.157 245.509 802.102 246.949C802.579 247.673 802.703 248.581 802.617 249.438C802.462 250.95 801.892 252.606 801.461 254.064C800.972 255.724 800.323 257.332 799.857 258.999C798.404 264.192 796.917 269.375 795.267 274.508C788.948 294.152 784.075 311.685 775.744 330.338L735.898 297.913Z" fill="#A780FF"/>
</g>
<path d="M753.68 250.377C754.957 253.436 754.567 252.5 755.842 255.559" stroke="#270570" stroke-width="4" stroke-linecap="round"/>
<path d="M784.926 269.905C777.853 265.824 769.16 264.668 761.306 266.766" stroke="#270570" stroke-width="4" stroke-linecap="round"/>
<path d="M735.768 298.066C704.002 381.643 658.725 428.393 626.333 452.893C617.888 459.282 608.699 464.805 599.61 469.511" stroke="#270570" stroke-width="4" stroke-linecap="round"/>
<path d="M622.524 514.169C650.859 498.4 687.811 471.162 722.4 425.262C741.591 399.796 760.051 368.59 775.914 330.404" stroke="#270570" stroke-width="4" stroke-linecap="round"/>
<path fill-rule="evenodd" clip-rule="evenodd" d="M524.869 470.493C524.178 472.248 522.551 482.463 517.102 487.202C497.144 504.561 478.384 484.899 474.171 474.828C471.463 468.356 464.804 465.476 458.92 468.071C451.115 471.516 447.294 470.493 447.294 470.493C434.491 468.372 432.4 455.75 432.727 446.192C432.924 440.343 429.049 435.414 423.905 435.033C398.105 433.126 394.26 419.233 394.26 419.233C370.893 388.342 396.653 355.874 408.147 343.898C410.298 341.662 409.873 337.641 407.266 336.153C390.583 326.608 393.822 317.206 393.822 317.206C404.779 274.905 473.59 277.892 473.59 277.892C475.342 262.961 486.298 256.489 486.298 256.489C531.442 223.644 575.707 274.905 575.707 274.905C575.707 274.905 571.798 433.335 541.703 474.302C526.008 495.666 524.869 470.493 524.869 470.493Z" fill="#4300D2"/>
<path d="M575.827 274.876C575.827 274.876 531.452 223.665 486.197 256.479C486.197 256.479 475.213 262.944 473.457 277.86C473.457 277.86 404.476 274.876 393.493 317.134C393.493 317.134 390.246 326.526 406.969 336.059C409.58 337.546 410.01 341.565 407.853 343.799C396.331 355.76 370.507 388.195 393.932 419.057C393.932 419.057 397.787 432.933 423.65 434.84C428.807 435.219 432.691 440.142 432.493 445.985C432.166 455.537 434.262 468.145 447.094 470.265C447.094 470.265 450.927 471.284 458.751 467.845C464.56 465.289 471.122 468.041 473.913 474.302" stroke="#270570" stroke-width="4" stroke-linecap="round" stroke-linejoin="round"/>
<path fill-rule="evenodd" clip-rule="evenodd" d="M599.717 470.406C599.717 470.406 590.584 483.306 592.669 526.479C592.669 526.479 601.494 579.552 631.428 622.908L482.763 632.415C482.763 632.415 472.024 565.509 490.984 496.406C496.453 476.471 490.563 463.423 490.563 463.423C490.563 463.423 510.494 450.004 522.783 451.223L570.846 455.668L599.717 470.406Z" fill="white"/>
<path d="M612.485 463.358C588.393 480.609 573.45 455.643 573.45 455.643L515.033 451.145C515.033 451.145 500.374 456.074 490.353 463.358" stroke="#270570" stroke-width="4.30848" stroke-linecap="round"/>
<path d="M481.829 632.412C481.829 632.412 469.515 560.131 490.353 496.84" stroke="#270570" stroke-width="4" stroke-linecap="round"/>
<path d="M593.531 502.93C589.605 524.059 596.694 567.922 631.428 623.192L520.692 630.886" stroke="#270570" stroke-width="4" stroke-linecap="round"/>
<path fill-rule="evenodd" clip-rule="evenodd" d="M550.461 288.394L542.29 280.25L550.461 288.394Z" fill="#6317F7"/>
<path fill-rule="evenodd" clip-rule="evenodd" d="M487.737 466.418C495.208 466.418 521.28 525.799 492.595 577.668L472.143 572.875C473.912 541.908 479.632 543.623 464.479 485.821C463.351 474.348 480.263 466.418 487.737 466.418Z" fill="#FB8478" stroke="#270570" stroke-width="4.30848"/>
<path fill-rule="evenodd" clip-rule="evenodd" d="M581.21 463.235C573.993 465.169 564.179 529.274 605.31 571.951L623.826 562.029C614.102 532.574 609.02 535.712 608.696 475.958C606.816 464.584 588.428 461.302 581.21 463.235Z" fill="#FB8478" stroke="#270570" stroke-width="4.30848"/>
<path fill-rule="evenodd" clip-rule="evenodd" d="M619.453 564.9C619.453 564.9 637.711 587.489 638.892 591.902C640.608 598.309 628.671 594.484 624.694 589.175L609.8 569.295L619.453 564.9Z" fill="#270570"/>
<path fill-rule="evenodd" clip-rule="evenodd" d="M474.594 569.201C474.594 569.201 452.758 589.269 450.768 593.547C448.039 599.419 459.902 597.812 464.512 593.268L482.947 575.099L474.594 569.201Z" fill="#270570"/>
<path d="M769.364 748.443L793.548 756.301L801.406 732.117L777.222 724.259L769.364 748.443Z" fill="#FB8478"/>
<path d="M770.161 739.026C769.793 740.159 770.412 741.373 771.542 741.741C772.675 742.108 773.889 741.49 774.259 740.359L770.161 739.026ZM779.274 724.92C779.642 723.79 779.024 722.573 777.891 722.206C776.76 721.838 775.544 722.457 775.176 723.589L779.274 724.92ZM777.888 722.211C776.755 721.843 775.541 722.462 775.174 723.594C774.806 724.725 775.425 725.941 776.558 726.309L777.888 722.211ZM801.405 732.118L803.455 732.782L804.119 730.734L802.071 730.067L801.405 732.118ZM793.548 756.301L792.882 758.349L794.932 759.015L795.596 756.967L793.548 756.301ZM784.123 753.239L783.456 755.287L784.123 753.239ZM777.305 748.759C776.175 748.391 774.958 749.009 774.591 750.142C774.223 751.273 774.844 752.489 775.975 752.857L777.305 748.759ZM774.259 740.359L779.274 724.92L775.176 723.589L770.161 739.026L774.259 740.359ZM776.558 726.309L800.741 734.165L802.071 730.067L777.888 722.211L776.558 726.309ZM799.357 731.451L791.5 755.634L795.596 756.967L803.455 732.782L799.357 731.451ZM794.215 754.253L784.787 751.189L783.456 755.287L792.882 758.349L794.215 754.253ZM784.787 751.189L777.305 748.759L775.975 752.857L783.456 755.287L784.787 751.189Z" fill="#270570"/>
<path d="M260.035 679.783L247.707 657.543L225.467 669.871L237.795 692.111L260.035 679.783Z" fill="#FB8478"/>
<path d="M253.034 686.123C254.073 685.545 254.451 684.235 253.873 683.196C253.298 682.154 251.985 681.779 250.946 682.354L253.034 686.123ZM236.748 690.224C235.706 690.801 235.331 692.112 235.906 693.153C236.484 694.192 237.795 694.57 238.836 693.992L236.748 690.224ZM235.912 693.156C236.487 694.197 237.8 694.573 238.839 693.995C239.88 693.419 240.255 692.107 239.68 691.068L235.912 693.156ZM225.467 669.872L224.423 667.987L222.54 669.031L223.584 670.916L225.467 669.872ZM247.707 657.542L249.592 656.498L248.548 654.615L246.662 655.659L247.707 657.542ZM254.443 674.135C255.018 675.177 256.331 675.552 257.37 674.977C258.412 674.399 258.787 673.088 258.212 672.047L254.443 674.135ZM250.946 682.354L236.748 690.224L238.836 693.992L253.034 686.123L250.946 682.354ZM239.68 691.068L227.35 668.826L223.584 670.916L235.912 693.156L239.68 691.068ZM226.511 671.755L248.751 659.428L246.662 655.659L224.423 667.987L226.511 671.755ZM245.824 658.587L250.629 667.257L254.397 665.168L249.592 656.498L245.824 658.587ZM250.629 667.257L254.443 674.135L258.212 672.047L254.397 665.168L250.629 667.257Z" fill="#270570"/>
<path d="M1171.41 406.174L1147.51 414.871L1156.21 438.766L1180.1 430.069L1171.41 406.174Z" fill="#FB8478"/>
<path d="M1176.58 414.081C1176.17 412.961 1174.93 412.385 1173.81 412.791C1172.7 413.199 1172.12 414.436 1172.53 415.553L1176.58 414.081ZM1178.08 430.808C1178.48 431.926 1179.72 432.501 1180.84 432.095C1181.96 431.687 1182.53 430.451 1182.13 429.333L1178.08 430.808ZM1180.84 432.095C1181.96 431.687 1182.53 430.451 1182.13 429.333C1181.72 428.215 1180.48 427.64 1179.37 428.045L1180.84 432.095ZM1156.21 438.769L1154.18 439.503L1154.92 441.528L1156.94 440.791L1156.21 438.769ZM1147.51 414.872L1146.77 412.849L1144.75 413.584L1145.49 415.609L1147.51 414.872ZM1156.83 411.483L1157.56 413.506L1156.83 411.483ZM1164.95 410.817C1166.07 410.409 1166.65 409.174 1166.24 408.054C1165.84 406.936 1164.6 406.361 1163.48 406.767L1164.95 410.817ZM1172.53 415.553L1178.08 430.808L1182.13 429.333L1176.58 414.081L1172.53 415.553ZM1179.37 428.045L1155.47 436.744L1156.94 440.791L1180.84 432.095L1179.37 428.045ZM1158.23 438.031L1149.54 414.137L1145.49 415.609L1154.18 439.503L1158.23 438.031ZM1148.25 416.897L1157.56 413.506L1156.09 409.458L1146.77 412.849L1148.25 416.897ZM1157.56 413.506L1164.95 410.817L1163.48 406.767L1156.09 409.458L1157.56 413.506Z" fill="#270570"/>
<path d="M1076.05 120.106L1052.15 128.803L1060.85 152.698L1084.75 144.001L1076.05 120.106Z" fill="#FB8478"/>
<path d="M1081.22 128.006C1080.81 126.888 1079.57 126.312 1078.46 126.719C1077.34 127.125 1076.76 128.362 1077.17 129.48L1081.22 128.006ZM1082.72 144.733C1083.13 145.851 1084.36 146.428 1085.48 146.021C1086.6 145.614 1087.18 144.378 1086.77 143.26L1082.72 144.733ZM1085.48 146.024C1086.6 145.617 1087.18 144.381 1086.77 143.262C1086.36 142.145 1085.13 141.568 1084.01 141.975L1085.48 146.024ZM1060.85 152.696L1058.83 153.433L1059.56 155.458L1061.59 154.721L1060.85 152.696ZM1052.15 128.801L1051.42 126.777L1049.39 127.514L1050.13 129.538L1052.15 128.801ZM1061.47 125.411L1060.73 123.387L1061.47 125.411ZM1069.6 124.745C1070.71 124.339 1071.29 123.102 1070.88 121.984C1070.48 120.867 1069.24 120.29 1068.12 120.697L1069.6 124.745ZM1077.17 129.48L1082.72 144.733L1086.77 143.26L1081.22 128.006L1077.17 129.48ZM1084.01 141.975L1060.11 150.672L1061.59 154.721L1085.48 146.024L1084.01 141.975ZM1062.87 151.96L1054.18 128.065L1050.13 129.538L1058.83 153.433L1062.87 151.96ZM1052.89 130.826L1062.2 127.436L1060.73 123.387L1051.42 126.777L1052.89 130.826ZM1062.2 127.436L1069.6 124.745L1068.12 120.697L1060.73 123.387L1062.2 127.436Z" fill="#270570"/>
<path fill-rule="evenodd" clip-rule="evenodd" d="M1254.3 317.628C1262.2 317.628 1268.61 311.223 1268.61 303.323C1268.61 295.424 1262.2 289.02 1254.3 289.02C1246.4 289.02 1240 295.424 1240 303.323C1240 311.223 1246.4 317.628 1254.3 317.628Z" fill="#ADEDDD" stroke="#270570" stroke-width="4.30848"/>
<path d="M575.937 259.461C575.937 259.461 550.314 224.488 483.3 247.117" stroke="#270570" stroke-width="4" stroke-linecap="round" stroke-linejoin="round"/>
<path d="M572.607 253.87C572.607 253.87 574.978 247.162 559.966 237.1" stroke="#270570" stroke-width="4" stroke-linecap="round" stroke-linejoin="round"/>
<path fill-rule="evenodd" clip-rule="evenodd" d="M511.551 456.299C522.817 483.483 558.196 484.66 571.552 459.832C572.764 457.509 573.46 453.593 573.227 451.994C570.858 435.74 567.425 407.783 563.354 374.576C563.057 372.158 561.967 369.63 560.64 368.659C548.714 359.983 532.647 360.718 521.422 370.866C520.173 372.001 519.16 374.599 518.885 376.942C515.109 409.166 512.063 435.213 510.173 448.628C509.991 449.929 510.528 453.756 511.551 456.299Z" fill="#A780FF"/>
<path fill-rule="evenodd" clip-rule="evenodd" d="M540.568 384.895C530.86 385.177 522.883 381.505 518.508 377.712C518.787 375.66 519.071 373.578 519.359 371.467C531.27 360.486 550.042 359.774 562.843 369.33C563.129 371.336 563.413 373.322 563.692 375.286C558.939 380.219 550.446 384.634 540.568 384.895Z" fill="#270570"/>
<path d="M518.571 383.824C515.19 414.506 512.366 439.731 510.421 454.048C515.931 469.995 528.499 477.629 540.768 476.953" stroke="#270570" stroke-width="4" stroke-linecap="round" stroke-linejoin="round"/>
<path fill-rule="evenodd" clip-rule="evenodd" d="M608.634 346.734C611.982 378.592 589.478 408.253 557.667 412.014C525.345 415.836 496.094 391.189 492.702 358.919L487.941 313.625C486.015 295.297 504.919 263.331 541.634 259.472C578.349 255.614 602.209 285.608 603.873 301.44L608.634 346.734Z" fill="#A780FF"/>
<path fill-rule="evenodd" clip-rule="evenodd" d="M580.776 325.943C580.986 327.937 582.773 329.383 584.766 329.174C586.76 328.964 588.206 327.178 587.997 325.184C587.787 323.19 586.002 321.744 584.007 321.954C582.014 322.163 580.567 323.949 580.776 325.943Z" fill="#270570"/>
<path fill-rule="evenodd" clip-rule="evenodd" d="M607.709 360.147C606.421 362.356 596.593 360.337 593.423 353.283L608.826 351.664" fill="white"/>
<path d="M607.709 360.147C606.421 362.356 596.593 360.337 593.423 353.283L608.826 351.664" stroke="#270570" stroke-width="4" stroke-linecap="round" stroke-linejoin="round"/>
<path d="M495.049 288.02C506.058 271.226 521.593 261.774 541.654 259.666C571.746 256.503 601.349 275.637 604.43 306.745C605.395 314.734 606.781 327.919 608.588 346.3C611.936 378.158 589.478 408.251 557.666 412.012C525.344 415.834 496.139 391.62 492.747 359.35L488.26 316.375" stroke="#270570" stroke-width="4" stroke-linecap="round" stroke-linejoin="round"/>
<path fill-rule="evenodd" clip-rule="evenodd" d="M603.03 315.424C604.656 320.608 609.241 328.373 616.785 338.717C610.859 340.13 606.964 340.934 605.098 341.13C597.866 341.891 601.468 310.443 603.03 315.424Z" fill="#A780FF"/>
<path d="M605.29 317.02C605.764 321.1 609.596 328.334 616.786 338.723C610.808 340.137 606.877 340.944 604.995 341.141" stroke="#270570" stroke-width="4" stroke-linecap="round" stroke-linejoin="round"/>
<path fill-rule="evenodd" clip-rule="evenodd" d="M496.066 426.689C471.085 421.116 467.981 380.461 486.754 304.725C486.754 284.767 510.721 252.48 550.681 252.48C590.641 252.48 612.933 287.485 612.933 304.725C598.32 298.1 585.669 296.665 574.98 300.42C557.583 306.532 542.033 316.004 532.017 317.597C520.549 319.422 493.018 353.406 520.692 402.836C521.045 403.466 512.736 404.061 496.066 426.689Z" fill="#4300D2"/>
<mask id="mask2" style="mask-type:alpha" maskUnits="userSpaceOnUse" x="508" y="263" width="118" height="58">
<path d="M561.967 263.748C541.492 265.457 522.394 276.348 512.242 295.194C509.009 301.195 504.943 314.285 511.873 320.438C512.866 319.98 513.805 319.398 514.74 318.815C515.99 318.041 517.243 317.261 518.672 316.746C523.619 314.949 528.937 314.437 534.142 314.285C542.065 314.057 550.116 314.616 557.816 312.654C565.514 310.699 573.068 305.588 575.496 297.717C585.009 302.683 595.853 304.849 606.449 303.893C613.254 303.284 620.38 301.136 624.809 295.709C625.289 295.125 625.75 294.452 625.77 293.683C625.799 292.763 625.204 291.966 624.626 291.273C610.555 274.439 588.734 263.531 567.174 263.531C565.437 263.531 563.697 263.603 561.967 263.748Z" fill="white"/>
</mask>
<g mask="url(#mask2)">
<path fill-rule="evenodd" clip-rule="evenodd" d="M504.539 324.135H629.313V259.836H504.539V324.135Z" fill="#4300D2"/>
<path d="M574.98 297.828L566.994 290.641" stroke="#270570" stroke-width="4" stroke-linecap="round" stroke-linejoin="round"/>
<path d="M605.327 304.217L594.945 292.238" stroke="#270570" stroke-width="4" stroke-linecap="round" stroke-linejoin="round"/>
<path fill-rule="evenodd" clip-rule="evenodd" d="M492.809 304.956C496.995 290.417 510.164 264.17 550.665 264.288C552.88 264.294 553.389 267.394 551.271 268.049C537.306 272.365 514.2 282.712 496.244 306.611C494.945 308.34 492.211 307.03 492.809 304.956Z" fill="#ADEDDD"/>
</g>
<path fill-rule="evenodd" clip-rule="evenodd" d="M492.809 304.956C496.995 290.417 510.164 264.17 550.665 264.288C552.88 264.294 553.389 267.394 551.271 268.049C537.306 272.365 514.2 282.712 496.244 306.611C494.945 308.34 492.211 307.03 492.809 304.956Z" fill="#ADEDDD" stroke="#270570" stroke-width="4" stroke-linecap="round" stroke-linejoin="round"/>
<path d="M578.31 259.836C597.236 269.247 618.842 277.078 625.77 294.235C621.773 300.642 615.878 303.264 605.327 304.217C594.775 305.17 584.708 304.019 575.236 299.05C572.818 306.929 565.3 312.039 557.63 313.998C549.963 315.958 534.03 314.717 525.827 316.114C517.624 317.507 516.832 318.952 511.891 321.786" stroke="#270570" stroke-width="4" stroke-linecap="round" stroke-linejoin="round"/>
<path d="M967.528 663.868C967.528 663.868 965.99 688.63 940.176 702.57" stroke="#270570" stroke-width="4" stroke-linecap="round"/>
</g>
<defs>
<clipPath id="clip0">
<rect width="1634" height="1035" fill="white"/>
</clipPath>
</defs>
</svg>
