<svg width="918" height="804" viewBox="0 0 918 804" fill="none" xmlns="http://www.w3.org/2000/svg">
<path fill-rule="evenodd" clip-rule="evenodd" d="M582.616 766.747C493.882 809.249 387.623 786.156 324.532 710.658L93.9059 434.681C17.6941 343.482 29.8414 207.768 121.038 131.555C212.234 55.3412 347.945 67.4888 424.157 158.687L547.536 306.328L584.607 288.572C691.795 237.232 820.307 282.507 871.646 389.697C922.986 496.888 877.712 625.402 770.524 676.743L582.616 766.747Z" fill="#EBE5F5"/>
<path fill-rule="evenodd" clip-rule="evenodd" d="M659.828 125.674C652.498 128.477 665.269 135.705 677.09 158.611C693.07 207.037 641.772 154.274 653.579 181.604C683.317 250.437 707.913 328.176 671.048 341.235C642.218 351.447 612.472 331.558 612.472 331.558C612.472 331.558 618.773 344.305 612.455 355.409C605.062 367.691 593.498 374.947 594.01 375.611C594.522 376.275 738.792 449.998 738.792 288.662C734.597 265.769 728.662 239.929 707.189 200.31C703.843 194.136 707.968 188.802 708.364 181.604C708.82 173.331 700.376 158.383 699.35 156.757C684.798 133.698 667.158 122.87 659.828 125.674Z" fill="#A780FF"/>
<path d="M694.817 345.117C686.41 345.117 683.891 343.492 678.912 334.825" stroke="#270570" stroke-width="4.4928" stroke-linecap="round"/>
<path d="M663.378 204.77C694.415 289.23 698.385 307.37 680.193 331.791C671.797 342.027 651.887 353.61 617.161 331.791" stroke="#270570" stroke-width="4" stroke-linecap="round"/>
<path d="M596.577 376.898C647.879 406.081 732.965 408.931 738.792 310.978C738.792 261.469 725.068 239.582 708.524 205.642C700.752 189.697 710.676 190.432 705.631 172.962C705.631 172.962 696.3 142.158 674.309 127.112" stroke="#270570" stroke-width="4" stroke-linecap="round"/>
<path d="M672.363 177.584C672.363 177.584 684.725 179.185 679.492 164.537" stroke="#270570" stroke-width="4" stroke-linecap="round"/>
<path fill-rule="evenodd" clip-rule="evenodd" d="M381.432 305.395C412.47 268.694 479.943 279.642 479.943 279.642L541.212 279.642C541.212 279.642 568.74 282.682 594.537 296.236L596.315 296.789L596.291 297.16C616.553 308.227 643.638 309.068 670.969 334.825L658.552 410.956L628.384 404.644C628.384 404.644 613.39 398.646 611.391 437.131C611.013 439.09 611.845 472.316 617.389 506.106C599.473 512.502 494.676 510.101 451.454 515.102C440.459 516.374 442.958 525.598 426.464 525.598L429.463 481.115C428.541 470.533 429.463 414.64 426.464 388.15C409.472 395.647 352.336 375.155 372.486 326.673C379.852 308.95 379.16 309.773 381.432 305.395Z" fill="white"/>
<path d="M463.878 279.806C463.878 279.806 399.456 276.046 377.968 310.52C363.643 333.502 359.492 366.158 398.976 386.15" stroke="#270570" stroke-width="4.16" stroke-linecap="round" stroke-linejoin="round"/>
<path d="M551.723 301.644C551.723 301.644 557.633 286.323 556.93 280.557C556.93 280.557 594.236 295.628 632.392 309.332C670.548 323.037 671.868 329.172 671.868 329.172L660.372 408.162C660.372 408.162 632.392 398.449 629.157 408.162C619.35 437.605 628.963 502.264 628.963 501.351" stroke="#270570" stroke-width="4.16" stroke-linecap="round" stroke-linejoin="round"/>
<path fill-rule="evenodd" clip-rule="evenodd" d="M621.35 294.185C631.111 294.185 665.168 395.026 627.699 483.114L600.979 474.972C610.892 438.131 620.773 414.343 600.979 316.177C599.506 296.689 611.588 294.185 621.35 294.185Z" fill="white" stroke="#270570" stroke-width="4.16" stroke-linecap="round" stroke-linejoin="round"/>
<mask id="mask0_107_1113" style="mask-type:alpha" maskUnits="userSpaceOnUse" x="487" y="185" width="86" height="133">
<path d="M555.534 192.627C557.31 193.743 558.769 196.644 559.166 199.421C564.615 237.542 569.21 269.638 572.38 288.301C572.692 290.136 571.76 294.63 570.137 297.298C552.263 325.803 504.911 324.451 489.832 293.242C488.465 290.323 487.746 285.93 487.99 284.435C490.518 269.034 494.598 239.13 499.65 202.137C500.019 199.446 501.373 196.462 503.045 195.16C511.144 188.879 521.124 185.739 531.106 185.739C539.64 185.739 548.178 188.036 555.534 192.627Z" fill="white"/>
</mask>
<g mask="url(#mask0_107_1113)">
<path fill-rule="evenodd" clip-rule="evenodd" d="M577.782 323.037H482.598V180.411H577.782V323.037Z" fill="#CEB7FE"/>
</g>
<path fill-rule="evenodd" clip-rule="evenodd" d="M555.534 192.627C557.31 193.743 558.769 196.644 559.166 199.421C564.615 237.542 569.21 269.638 572.38 288.301C572.692 290.136 571.76 294.63 570.137 297.298C552.263 325.803 504.911 324.451 489.832 293.242C488.465 290.323 487.746 285.93 487.99 284.435C490.518 269.034 494.598 239.13 499.65 202.137C500.019 199.446 501.373 196.462 503.045 195.16C511.144 188.879 521.124 185.739 531.106 185.739C539.64 185.741 548.177 188.036 555.534 192.627Z" fill="#A780FF"/>
<mask id="mask1_107_1113" style="mask-type:alpha" maskUnits="userSpaceOnUse" x="498" y="185" width="62" height="30">
<path d="M557.885 194.466C558.268 197.094 558.649 199.696 559.025 202.268C552.641 208.732 541.239 214.515 527.975 214.857C514.94 215.227 504.23 210.416 498.356 205.446C498.73 202.759 499.11 200.03 499.496 197.266C508.048 189.574 519.235 185.728 530.419 185.728C540.154 185.728 549.887 188.642 557.885 194.466Z" fill="white"/>
</mask>
<g mask="url(#mask1_107_1113)">
<path fill-rule="evenodd" clip-rule="evenodd" d="M564.386 220.106H492.993V180.498H564.386V220.106Z" fill="#270570"/>
</g>
<mask id="mask2_107_1113" style="mask-type:alpha" maskUnits="userSpaceOnUse" x="586" y="134" width="38" height="38">
<path d="M623.561 152.782C623.561 163.012 615.295 171.309 605.096 171.309C594.9 171.309 586.631 163.012 586.631 152.782C586.631 142.548 594.9 134.253 605.096 134.253C615.295 134.253 623.561 142.548 623.561 152.782Z" fill="white"/>
</mask>
<g mask="url(#mask2_107_1113)">
<path fill-rule="evenodd" clip-rule="evenodd" d="M628.945 176.71H581.248V128.852H628.945V176.71Z" fill="#CEB7FE"/>
</g>
<mask id="mask3_107_1113" style="mask-type:alpha" maskUnits="userSpaceOnUse" x="442" y="134" width="38" height="38">
<path d="M479.649 152.782C479.649 163.012 471.383 171.309 461.184 171.309C450.985 171.309 442.719 163.012 442.719 152.782C442.719 142.548 450.985 134.253 461.184 134.253C471.383 134.253 479.649 142.548 479.649 152.782Z" fill="white"/>
</mask>
<g mask="url(#mask3_107_1113)">
<path fill-rule="evenodd" clip-rule="evenodd" d="M485.033 176.71H437.336V128.852H485.033V176.71Z" fill="#A780FF"/>
</g>
<path d="M605.316 171.309C615.395 171.309 623.567 163.013 623.567 152.781C623.567 142.548 615.395 134.254 605.316 134.254" stroke="#270570" stroke-width="5.9904" stroke-linecap="round" stroke-linejoin="round"/>
<path d="M461.81 134.253C451.731 134.253 443.559 142.549 443.559 152.781C443.559 163.013 451.731 171.308 461.81 171.308" stroke="#270570" stroke-width="5.9904" stroke-linecap="round" stroke-linejoin="round"/>
<mask id="mask4_107_1113" style="mask-type:alpha" maskUnits="userSpaceOnUse" x="459" y="46" width="156" height="205">
<path d="M614.674 110.825V171.49C614.674 214.156 580.699 250.316 537.991 250.869C494.597 251.431 459.244 214.71 459.244 171.49V110.825C459.244 86.2776 488.768 46.5662 537.991 46.5662C587.214 46.5662 614.674 89.62 614.674 110.825Z" fill="white"/>
</mask>
<g mask="url(#mask4_107_1113)">
<path fill-rule="evenodd" clip-rule="evenodd" d="M619.997 256.193H453.921V41.2466H619.997V256.193Z" fill="#A780FF"/>
</g>
<mask id="mask5_107_1113" style="mask-type:alpha" maskUnits="userSpaceOnUse" x="459" y="111" width="156" height="140">
<path d="M489.239 171.59H614.888C614.888 214.202 580.912 250.317 538.204 250.869C494.812 251.431 459.458 214.756 459.458 171.59C459.267 144.394 459.267 131.299 459.458 132.303C460.179 136.034 480.275 119.055 484.171 111.824C474.015 139.038 479.656 171.59 489.239 171.59Z" fill="white"/>
</mask>
<g mask="url(#mask5_107_1113)">
<path fill-rule="evenodd" clip-rule="evenodd" d="M620.212 256.187H453.988V106.511H620.212V256.187Z" fill="#270570"/>
</g>
<mask id="mask6_107_1113" style="mask-type:alpha" maskUnits="userSpaceOnUse" x="517" y="134" width="8" height="8">
<path d="M524.584 138.195C524.584 140.262 522.908 141.938 520.84 141.938C518.775 141.938 517.099 140.262 517.099 138.195C517.099 136.126 518.775 134.452 520.84 134.452C522.908 134.452 524.584 136.126 524.584 138.195Z" fill="white"/>
</mask>
<g mask="url(#mask6_107_1113)">
<path fill-rule="evenodd" clip-rule="evenodd" d="M529.552 145.385H513.652V129.484H529.552V145.385Z" fill="#270570"/>
</g>
<mask id="mask7_107_1113" style="mask-type:alpha" maskUnits="userSpaceOnUse" x="591" y="134" width="8" height="8">
<path d="M598.5 138.195C598.5 140.262 596.822 141.938 594.757 141.938C592.69 141.938 591.016 140.262 591.016 138.195C591.016 136.126 592.69 134.452 594.757 134.452C596.822 134.452 598.5 136.126 598.5 138.195Z" fill="white"/>
</mask>
<g mask="url(#mask7_107_1113)">
<path fill-rule="evenodd" clip-rule="evenodd" d="M603.469 145.385H587.568V129.484H603.469V145.385Z" fill="#270570"/>
</g>
<mask id="mask8_107_1113" style="mask-type:alpha" maskUnits="userSpaceOnUse" x="537" y="197" width="43" height="14">
<path d="M579.223 197.141L572.444 205.797C568.024 210.987 546.761 215.608 537.593 197.141H579.223Z" fill="white"/>
</mask>
<g mask="url(#mask8_107_1113)">
<path fill-rule="evenodd" clip-rule="evenodd" d="M584.559 224.244H532.256V199.935H584.559V224.244Z" fill="white"/>
</g>
<path d="M569.647 206.559C565.24 211.559 544.028 216.011 534.882 198.22H576.409" stroke="#A780FF" stroke-width="4.16" stroke-linecap="round" stroke-linejoin="round"/>
<path d="M560.077 131.353C562.387 140.481 566.886 160.557 566.886 160.557H555.68" stroke="#270570" stroke-width="5.9904" stroke-linecap="round" stroke-linejoin="round"/>
<path d="M472.238 77.0964C489.179 56.3819 511.095 46.0246 537.992 46.0246C578.334 46.0246 614.923 75.4941 614.674 117.131C614.839 127.848 614.839 145.507 614.674 170.108C614.674 212.778 580.698 249.514 537.992 250.068C494.597 250.63 459.245 214.487 459.245 171.267V100.512" stroke="#270570" stroke-width="5.9904" stroke-linecap="round" stroke-linejoin="round"/>
<mask id="mask9_107_1113" style="mask-type:alpha" maskUnits="userSpaceOnUse" x="458" y="43" width="184" height="91">
<path d="M536.625 43.5855C536.95 43.5855 537.281 43.5871 537.606 43.5919C598.455 44.2888 609.813 102.736 641.484 102.736C634.253 119.422 524.274 119.767 496.625 92.113C493.628 89.1154 489.582 100.928 483.894 112.74C477.752 125.497 469.697 138.255 458.981 132.353V113.783C458.981 75.8581 493.741 43.5887 536.615 43.5855C536.62 43.5855 536.618 43.5855 536.625 43.5855Z" fill="white"/>
</mask>
<g mask="url(#mask9_107_1113)">
<path fill-rule="evenodd" clip-rule="evenodd" d="M648.797 139.155H456.665V38.2659H648.797V139.155Z" fill="#270570"/>
</g>
<mask id="mask10_107_1113" style="mask-type:alpha" maskUnits="userSpaceOnUse" x="584" y="46" width="38" height="39">
<path d="M621.798 65.4164C621.798 75.8218 613.364 84.2567 602.959 84.2567C592.552 84.2567 584.117 75.8218 584.117 65.4164C584.117 55.0093 592.552 46.5744 602.959 46.5744C613.364 46.5744 621.798 55.0093 621.798 65.4164Z" fill="white"/>
</mask>
<g mask="url(#mask10_107_1113)">
<path fill-rule="evenodd" clip-rule="evenodd" d="M627.182 89.6394H578.734V41.1884H627.182V89.6394Z" fill="#270570"/>
</g>
<mask id="mask11_107_1113" style="mask-type:alpha" maskUnits="userSpaceOnUse" x="560" y="41" width="39" height="39">
<path d="M598.221 60.6722C598.221 71.0776 589.786 79.5142 579.381 79.5142C568.974 79.5142 560.538 71.0776 560.538 60.6722C560.538 50.2668 568.974 41.8302 579.381 41.8302C589.786 41.8302 598.221 50.2668 598.221 60.6722Z" fill="white"/>
</mask>
<g mask="url(#mask11_107_1113)">
<path fill-rule="evenodd" clip-rule="evenodd" d="M603.605 84.8969H555.155V36.4459H603.605V84.8969Z" fill="#270570"/>
</g>
<mask id="mask12_107_1113" style="mask-type:alpha" maskUnits="userSpaceOnUse" x="452" y="73" width="39" height="37">
<path d="M490.088 92.0378C490.088 102.48 465.299 110.212 462.745 108.914C456.608 105.794 452.405 99.4091 452.405 92.0378C452.405 81.5976 460.84 73.1344 471.246 73.1344C481.652 73.1344 490.088 81.5976 490.088 92.0378Z" fill="white"/>
</mask>
<g mask="url(#mask12_107_1113)">
<path fill-rule="evenodd" clip-rule="evenodd" d="M495.47 114.458H447.022V67.7321H495.47V114.458Z" fill="#270570"/>
</g>
<path d="M460.031 133.66C450.731 133.66 443.191 142.039 443.191 152.374C443.191 162.708 450.731 171.086 460.031 171.086" stroke="#270570" stroke-width="2.64408" stroke-linecap="round"/>
<path fill-rule="evenodd" clip-rule="evenodd" d="M480.736 277.401C490.421 278.078 513.766 424.907 456.953 518.601C454.363 522.872 444.958 526.098 440.959 526.098L440.959 451.626C447.026 399.309 460.603 407.482 446.918 308.086C446.75 288.533 470.609 276.693 480.736 277.401Z" fill="white" stroke="#270570" stroke-width="4.16"/>
<path d="M498.152 220.676C493.983 252.105 490.501 277.941 488.101 292.608C494.897 308.942 510.397 316.762 525.526 316.07" stroke="#270570" stroke-width="4" stroke-linecap="round" stroke-linejoin="round"/>
<path fill-rule="evenodd" clip-rule="evenodd" d="M508.173 137.871C508.173 139.679 509.639 141.146 511.448 141.146C513.256 141.146 514.722 139.679 514.722 137.871C514.722 136.062 513.256 134.596 511.448 134.596C509.639 134.596 508.173 136.062 508.173 137.871Z" fill="#410062"/>
<path fill-rule="evenodd" clip-rule="evenodd" d="M589.572 137.871C589.572 139.679 588.105 141.146 586.297 141.146C584.489 141.146 583.023 139.679 583.023 137.871C583.023 136.062 584.489 134.596 586.297 134.596C588.105 134.596 589.572 136.062 589.572 137.871Z" fill="#410062"/>
<path fill-rule="evenodd" clip-rule="evenodd" d="M639.16 181.378C657.246 181.378 671.908 165.46 671.908 145.824C671.908 126.187 657.246 110.269 639.16 110.269C621.075 110.269 606.414 126.187 606.414 145.824C606.414 165.46 621.075 181.378 639.16 181.378Z" fill="#FB8478"/>
<path fill-rule="evenodd" clip-rule="evenodd" d="M638.225 110.269L617.095 110.895C601.958 114.046 590.508 128.718 590.508 146.343C590.508 163.292 601.098 177.512 615.373 181.378H630.672" fill="#FB8478"/>
<path d="M638.225 110.269L617.094 110.895C601.958 114.045 590.508 128.718 590.508 146.343C590.508 163.293 601.097 177.513 615.373 181.378H637.207" stroke="#270570" stroke-width="4.16" stroke-linecap="round"/>
<path fill-rule="evenodd" clip-rule="evenodd" d="M639.16 181.378C657.246 181.378 671.908 165.46 671.908 145.824C671.908 126.187 657.246 110.269 639.16 110.269C621.075 110.269 606.414 126.187 606.414 145.824C606.414 165.46 621.075 181.378 639.16 181.378Z" stroke="#270570" stroke-width="4" stroke-linecap="round"/>
<path fill-rule="evenodd" clip-rule="evenodd" d="M640.564 169.215C652.707 169.215 662.551 158.952 662.551 146.292C662.551 133.631 652.707 123.368 640.564 123.368C628.42 123.368 618.577 133.631 618.577 146.292C618.577 158.952 628.42 169.215 640.564 169.215Z" fill="#4300D2" stroke="#270570" stroke-width="4.16" stroke-linecap="round"/>
<path fill-rule="evenodd" clip-rule="evenodd" d="M508.918 126.175C508.918 126.175 480.436 130.622 479.434 140.722C478.431 150.822 480.343 157.244 483.907 159.454C487.47 161.665 499.801 169.19 512.851 171.086" fill="#FB8478"/>
<path d="M508.918 126.175C508.918 126.175 480.436 130.622 479.434 140.722C478.431 150.822 480.343 157.244 483.907 159.454C487.47 161.665 499.801 169.19 512.851 171.086" stroke="#270570" stroke-width="4.16" stroke-linecap="round"/>
<path fill-rule="evenodd" clip-rule="evenodd" d="M551.211 181.378C569.297 181.378 583.958 165.46 583.958 145.824C583.958 126.187 569.297 110.269 551.211 110.269C533.126 110.269 518.465 126.187 518.465 145.824C518.465 165.46 533.126 181.378 551.211 181.378Z" fill="#FB8478"/>
<path fill-rule="evenodd" clip-rule="evenodd" d="M550.276 110.269L529.146 110.895C514.009 114.045 502.559 128.718 502.559 146.343C502.559 163.293 513.149 177.513 527.424 181.378H542.722" fill="#FB8478"/>
<path d="M550.276 110.269L529.146 110.895C514.009 114.045 502.559 128.718 502.559 146.343C502.559 163.293 513.149 177.513 527.424 181.378H549.258" stroke="#270570" stroke-width="4.16" stroke-linecap="round"/>
<path fill-rule="evenodd" clip-rule="evenodd" d="M551.211 181.378C569.297 181.378 583.958 165.46 583.958 145.824C583.958 126.187 569.297 110.269 551.211 110.269C533.126 110.269 518.465 126.187 518.465 145.824C518.465 165.46 533.126 181.378 551.211 181.378Z" stroke="#270570" stroke-width="4.16" stroke-linecap="round"/>
<path fill-rule="evenodd" clip-rule="evenodd" d="M552.148 169.215C564.549 169.215 574.602 158.533 574.602 145.356C574.602 132.179 564.549 121.497 552.148 121.497C539.746 121.497 529.692 132.179 529.692 145.356C529.692 158.533 539.746 169.215 552.148 169.215Z" fill="#4300D2" stroke="#270570" stroke-width="4.16" stroke-linecap="round"/>
<path fill-rule="evenodd" clip-rule="evenodd" d="M597.057 143.737C595.688 147.439 594.8 150.502 594.8 150.502C594.8 150.502 589.552 147.077 583.958 150.502C583.958 147.016 583.958 141.464 583.958 141.464C583.958 141.464 591.518 137.47 597.057 143.737Z" fill="#FB8478" stroke="#270570" stroke-width="2.64408" stroke-linecap="round" stroke-linejoin="round"/>
<path fill-rule="evenodd" clip-rule="evenodd" d="M576.474 121.57C576.474 121.57 592.562 115.392 603.607 125.061C597.406 133.522 597.406 142.081 597.406 142.081C597.406 142.081 590.04 138.088 584.675 142.081C583.777 130.621 576.474 121.57 576.474 121.57Z" fill="#FB8478" stroke="#270570" stroke-width="2.64408" stroke-linecap="round" stroke-linejoin="round"/>
<path d="M589.988 148.847C592.302 157.913 596.809 177.852 596.809 177.852H585.582" stroke="#410062" stroke-width="2.64408" stroke-linecap="round" stroke-linejoin="round"/>
<path d="M393.896 712.349L372.986 753.013C406.973 775.005 438.552 785.72 487.441 788L508.932 744.016L508.432 743.017L393.896 712.349Z" fill="#A780FF"/>
<path d="M546.447 678.168L665.09 664.046L682.661 717.873L568.076 771.229L522.224 685.139C518.779 675.222 546.447 678.168 546.447 678.168Z" fill="#A780FF"/>
<path fill-rule="evenodd" clip-rule="evenodd" d="M684.359 694.071C639.488 572.946 616.58 511.379 615.634 509.371L462.087 519.079L470.201 577.931L470.147 577.816C470.346 578.245 496.639 637.181 549.024 754.624L684.359 694.071Z" fill="white"/>
<path d="M682.067 694.719C650.057 577.836 620.795 521.74 619.376 518.727" stroke="#270570" stroke-width="4" stroke-linecap="round" stroke-linejoin="round"/>
<path fill-rule="evenodd" clip-rule="evenodd" d="M532.423 756.35C577.136 591.05 597.444 510.969 597.811 508.78L461.95 510.442L458.452 515.94C453.169 516.068 434.592 579.701 377.543 711.166L532.423 756.35Z" fill="white"/>
<path d="M497.621 514.368L605.344 510.085" stroke="#270570" stroke-width="4.16" stroke-linecap="round" stroke-linejoin="round"/>
<path d="M456.953 518.601C451.167 532.267 424.821 588.182 386.059 685.363C379.697 701.315 376.515 709.291 376.515 709.291" stroke="#270570" stroke-width="4" stroke-linecap="round" stroke-linejoin="round"/>
<path d="M445.266 580.836C445.266 580.836 475.635 573.241 484.395 545.774" stroke="#270570" stroke-width="4.16" stroke-linecap="round" stroke-linejoin="round"/>
<path d="M584.741 592.535C576.341 624.312 555.169 689.189 539.038 735.007" stroke="#270570" stroke-width="4" stroke-linecap="round" stroke-linejoin="round"/>
<path d="M518.984 754.995C487.207 746.594 422.332 725.422 376.515 709.291" stroke="#270570" stroke-width="4" stroke-linecap="round" stroke-linejoin="round"/>
<path d="M682.692 694.187C645.18 711.601 599.27 729.386 555.466 750.378" stroke="#270570" stroke-width="4" stroke-linecap="round" stroke-linejoin="round"/>
<path fill-rule="evenodd" clip-rule="evenodd" d="M728.212 365.483C728.212 365.483 743.48 361.357 748.794 396.39C754.109 431.423 754.155 450.617 754.155 450.617C754.155 450.617 756.103 458.233 761.776 455.571C767.448 452.894 777.213 443.215 783.841 447.747C790.718 452.444 790.403 461.759 784.815 473.744C779.231 485.728 767.952 512.431 766.941 514.851C765.948 517.228 766.154 521.275 770.308 520.076C774.463 518.877 801.126 503.659 807.585 516.749C814.045 529.84 792.999 560.669 790.764 564.081C788.528 567.493 788.73 569.334 790.199 570.855C791.669 572.368 800.15 566.408 807.909 562.396C815.67 558.378 825.372 555.08 828.468 562.939C831.563 570.812 824.722 596.915 786.631 630.349L767.967 644.682L745.985 635.995C700.074 614.539 686.219 591.39 686.993 582.968C687.77 574.552 698.007 575.009 706.58 576.693C715.154 578.385 724.961 581.74 725.949 579.87C726.936 578 726.615 576.172 723.513 573.524C720.412 570.869 691.6 547.157 694.147 532.781C696.696 518.405 726.545 525.565 730.871 525.558C735.195 525.543 734.258 521.596 732.643 519.597C731.863 518.627 727.34 513.059 721.87 506.414C720.469 504.708 719.005 502.938 717.526 501.153C715.979 499.283 714.413 497.399 712.886 495.571C709.562 491.588 706.417 487.877 704.004 485.121C695.294 475.178 692.392 466.32 697.681 459.889C702.781 453.686 718.107 461.366 724.298 462.344C730.489 463.322 720.16 376.675 720.16 376.675" fill="white"/>
<path d="M726.987 454.35C726.987 454.35 727.242 462.209 721.05 461.231C714.859 460.253 702.779 453.686 697.679 459.889C692.389 466.32 695.292 475.178 704.002 485.121C706.414 487.877 709.56 491.595 712.884 495.571C714.411 497.399 715.977 499.283 717.524 501.153C719.003 502.938 720.466 504.708 721.868 506.414C727.338 513.059 731.861 518.627 732.641 519.597C734.256 521.596 735.193 525.543 730.869 525.558C726.543 525.565 696.694 518.405 694.144 532.781C691.598 547.157 720.41 570.869 723.511 573.524C726.613 576.172 726.933 578 725.947 579.87C724.959 581.74 715.151 578.385 706.577 576.701C698.005 575.009 687.767 574.552 686.991 582.968C686.216 591.39 700.072 614.539 745.982 635.995L767.965 644.689L786.629 630.349C824.72 596.915 831.561 570.812 828.466 562.946C825.37 555.08 815.668 558.378 807.906 562.396C800.148 566.408 791.667 572.368 790.197 570.855C788.728 569.334 788.526 567.493 790.761 564.081C792.997 560.669 814.043 529.84 807.583 516.749C801.123 503.659 774.461 518.876 770.306 520.076C766.151 521.275 765.946 517.228 766.938 514.851C767.95 512.431 779.229 485.728 784.812 473.744C790.4 461.759 790.716 452.444 783.839 447.747C777.211 443.215 767.446 452.901 761.773 455.571C756.101 458.24 754.153 450.617 754.153 450.617C754.153 450.617 754.107 431.423 748.791 396.39C743.477 361.357 728.21 365.483 728.21 365.483C723.944 365.804 716.862 374.477 722.656 406.562C723.221 417.625 724.489 440.517 725.042 443.586" stroke="#270570" stroke-width="4" stroke-linecap="round" stroke-linejoin="round"/>
<path fill-rule="evenodd" clip-rule="evenodd" d="M732.267 376.261L768.156 644.453L732.267 376.261Z" fill="white"/>
<path d="M732.267 376.261L768.156 644.453" stroke="#270570" stroke-width="4" stroke-linecap="round" stroke-linejoin="round"/>
<path d="M768.554 472.345L749.039 501.61L716.894 478.255" stroke="#270570" stroke-width="4" stroke-linecap="round" stroke-linejoin="round"/>
<path d="M785.654 535.194L757.423 564.238L719.766 544.83" stroke="#270570" stroke-width="4" stroke-linecap="round" stroke-linejoin="round"/>
<path d="M800.036 589.363L765.029 621.07L712.006 593.832" stroke="#270570" stroke-width="3.744" stroke-linecap="round" stroke-linejoin="round"/>
<path d="M792.581 539.491C797.457 544.737 798.528 552.26 800.511 559.148C810.14 592.578 811.007 648.276 800.316 659.048C797.409 661.978 789.755 665.815 781.324 670.544C758.755 683.202 725.846 698.034 725.846 698.034C701.626 696.021 684.343 702.662 640.933 672.17C635.242 668.173 629.7 663.683 626.037 657.773C622.376 651.855 620.844 644.254 623.535 637.837C627.635 628.079 639.885 624.296 650.4 625.452C656.017 626.073 661.57 627.751 667.208 627.38C672.847 627.001 690.886 623.825 692.172 618.314C693.453 612.818 689.39 607.244 684.343 604.717C679.294 602.19 673.472 601.926 667.857 601.362C652.201 599.792 636.815 595.516 622.594 588.778C615.492 585.409 607.653 579.52 608.74 571.733C609.526 566.115 614.842 562.253 620.136 560.241C625.433 558.235 631.223 557.343 636.009 554.316C640.233 551.639 643.501 545.943 640.828 541.725C639.341 539.377 636.531 538.306 633.937 537.321C619.55 531.839 605.962 524.266 593.734 514.908C585.492 508.598 577.254 500.168 577.346 489.79C577.438 479.432 586.578 470.631 596.739 468.669C606.898 466.698 617.478 470.446 625.941 476.406C634.403 482.359 641.144 490.389 647.971 498.169C654.795 505.957 661.953 513.709 670.926 518.862C673.527 520.354 676.817 521.61 679.404 520.097C681.963 518.598 682.519 515.086 681.994 512.167C681.467 509.255 680.152 506.478 680.031 503.516C679.735 496.399 687.016 490.532 694.133 490.696C701.252 490.86 707.586 495.743 711.411 501.753C715.237 507.763 716.984 514.815 718.676 521.739C721.831 534.637 724.984 547.535 728.138 560.433C729.831 567.357 732.623 575.451 739.523 577.229C744.551 578.521 749.741 575.723 753.644 572.296C759.582 567.086 764 560.162 766.23 552.574C767.907 546.878 768.676 540.297 773.287 536.557C778.852 532.039 787.703 534.237 792.581 539.491Z" fill="#FB8478"/>
<path d="M650.876 624.561C640.362 623.405 626.636 629.079 622.538 638.843C619.846 645.253 621.377 652.855 625.039 658.765C628.702 664.682 634.242 669.172 639.933 673.169C659.828 687.145 683.166 696.546 707.387 698.559" stroke="#270570" stroke-width="3.744" stroke-linecap="round" stroke-linejoin="round"/>
<path d="M692.172 618.314C693.453 612.818 689.39 607.244 684.343 604.717C679.294 602.19 673.472 601.926 667.857 601.362C652.201 599.792 636.815 595.516 622.594 588.778C615.492 585.409 607.653 579.52 608.74 571.733C609.526 566.115 614.842 562.253 620.136 560.241C625.433 558.235 631.223 557.343 636.009 554.316C640.233 551.639 643.501 545.943 640.828 541.725C639.341 539.377 636.531 538.306 633.937 537.321C619.55 531.839 605.962 524.266 593.734 514.908C585.492 508.598 577.254 500.168 577.346 489.79C577.438 479.432 586.578 470.631 596.739 468.669C606.898 466.698 617.478 470.446 625.941 476.406C634.403 482.359 641.144 490.389 647.971 498.169C654.795 505.957 661.953 513.709 670.926 518.862C673.527 520.354 676.817 521.61 679.404 520.097C681.963 518.598 682.519 515.086 681.994 512.167C681.467 509.255 680.152 506.478 680.031 503.516C679.735 496.399 687.016 490.532 694.133 490.696C701.252 490.86 707.586 495.743 711.411 501.753C715.237 507.763 716.984 514.815 718.676 521.739C721.831 534.637 724.984 547.535 728.138 560.433C729.831 567.357 732.623 575.451 739.523 577.229C744.551 578.521 749.741 575.723 753.644 572.296C759.582 567.086 764 560.162 766.23 552.574C767.907 546.878 768.676 540.297 773.287 536.557C778.852 532.039 787.703 534.237 792.581 539.491C797.457 544.737 798.528 552.26 800.511 559.148C809.685 590.998 813.155 627.207 800.511 657.734" stroke="#270570" stroke-width="4" stroke-linecap="round"/>
<path d="M588.455 476.006C588.455 476.006 697.968 550.681 768.845 655.55M768.845 655.55C774.852 664.437 770.464 656.752 775.826 666.046L768.845 655.55Z" stroke="#270570" stroke-width="4" stroke-linecap="round" stroke-linejoin="round"/>
<path d="M782.002 579.577C782.002 579.577 770.987 641.498 764.761 649.607C764.761 649.607 699.564 661.77 672.176 652.127" stroke="#270570" stroke-width="4" stroke-linecap="round" stroke-linejoin="round"/>
<path d="M645.436 571.775L705.213 577.364C704.862 572.946 698.749 522.21 698.749 522.21" stroke="#270570" stroke-width="4" stroke-linecap="round" stroke-linejoin="round"/>
<path fill-rule="evenodd" clip-rule="evenodd" d="M458.131 88.9279C458.131 88.9279 586.976 54.7441 623.486 88.9807C623.486 88.9807 623.113 61.2527 621.296 56.3814C614.893 39.2323 597.881 16 539.729 16C499.074 16 470.31 27.8318 457.853 53.5292C455.656 58.0659 458.131 84.089 458.131 88.9279Z" fill="white"/>
<path fill-rule="evenodd" clip-rule="evenodd" d="M458.131 88.9279C458.131 88.9279 586.976 54.7441 623.486 88.9807C623.486 88.9807 623.113 61.2527 621.296 56.3814C614.893 39.2323 597.881 16 539.729 16C499.074 16 470.31 27.8318 457.853 53.5292C455.656 58.0659 458.131 84.089 458.131 88.9279Z" stroke="#270570" stroke-width="4"/>
<path fill-rule="evenodd" clip-rule="evenodd" d="M488.073 82.7221L485.013 98.2625C485.013 98.2625 487.209 106.256 499.21 105.804C511.211 105.352 649.054 100.879 649.054 100.879C649.054 100.879 654.68 96.3909 649.054 92.9635C643.429 89.5363 633.013 84.5646 633.013 84.5646C633.013 84.5646 609.102 74.0103 563.5 74.0103C531.445 74.0103 488.073 82.7221 488.073 82.7221Z" fill="white"/>
<path fill-rule="evenodd" clip-rule="evenodd" d="M488.073 82.7221L485.013 98.2625C485.013 98.2625 487.209 106.256 499.21 105.804C511.211 105.352 649.054 100.879 649.054 100.879C649.054 100.879 654.68 96.3909 649.054 92.9635C643.429 89.5363 633.013 84.5646 633.013 84.5646C633.013 84.5646 609.102 74.0103 563.5 74.0103C531.445 74.0103 488.073 82.7221 488.073 82.7221Z" stroke="#270570" stroke-width="4.4928"/>
<path d="M486.947 83.3668C486.947 83.3668 483.577 47.5026 526.18 16" stroke="#270570" stroke-width="4"/>
<path d="M606.644 79.6249L602.559 52.5638C602.559 52.5638 596.898 32.2816 567.348 17.872" stroke="#270570" stroke-width="4"/>
<path fill-rule="evenodd" clip-rule="evenodd" d="M343.586 259.202H448.787C448.811 258.725 448.823 258.246 448.823 257.764C448.823 242.147 436.187 229.487 420.6 229.487C416.539 229.487 412.681 230.354 409.191 231.901C403.187 213.795 386.156 200.731 366.069 200.731C346.32 200.731 329.521 213.357 323.254 230.989C319.668 229.411 315.707 228.529 311.538 228.529C295.422 228.529 282.358 241.618 282.358 257.764C282.358 258.246 282.372 258.725 282.395 259.202H316.799" fill="white"/>
<path d="M343.586 259.202H448.787C448.811 258.725 448.823 258.246 448.823 257.764C448.823 242.147 436.187 229.487 420.6 229.487C416.539 229.487 412.681 230.354 409.191 231.901C403.187 213.795 386.156 200.731 366.069 200.731C346.32 200.731 329.521 213.357 323.254 230.989C319.668 229.411 315.707 228.529 311.538 228.529C295.422 228.529 282.358 241.618 282.358 257.764C282.358 258.246 282.372 258.725 282.395 259.202H316.799" stroke="#270570" stroke-width="4.16" stroke-linecap="round" stroke-linejoin="round"/>
<path fill-rule="evenodd" clip-rule="evenodd" d="M123.937 74.8105C166.447 74.7582 203.247 99.3093 220.939 135.046C220.939 135.046 220.939 135.046 220.94 135.046C222.042 134.039 222.572 133.682 222.663 133.837C281.137 91.7876 329.024 147.426 329.069 182.834L232.14 182.955L117.068 183.223H117.066H16.0001C15.9252 123.422 64.2507 74.8842 123.937 74.8105Z" fill="white"/>
<path d="M264.37 118.171C247.637 118.192 232.401 124.581 220.939 135.046C203.247 99.3095 166.447 74.7584 123.937 74.8104C64.2506 74.8845 15.9251 123.422 16.0003 183.222H117.066" stroke="#270570" stroke-width="4" stroke-linecap="round" stroke-linejoin="round"/>
<path d="M264.37 118.171C300.057 118.127 329.023 147.077 329.069 182.833L232.14 182.954L199.83 182.995" stroke="#270570" stroke-width="4" stroke-linecap="round" stroke-linejoin="round"/>
<path fill-rule="evenodd" clip-rule="evenodd" d="M766.368 244.2L793.044 233.08C793.044 233.08 854.546 211.547 860.204 208.73C866.742 205.474 869.831 207.82 870.827 210.296C872.38 214.155 869.03 219.097 863.503 222.061C861.591 223.088 830.825 238.057 830.825 238.057C830.825 238.057 834.035 238.189 841.948 239.845C849.862 241.503 858.244 250.447 863.137 261.47C868.029 272.494 868.418 276.031 864.199 278.2C862.503 279.07 860.673 278.8 859.046 278.119C856.386 277.008 854.312 274.817 853.106 272.196C845.027 254.655 833.415 254.616 833.415 254.616L829.926 256.07C829.926 256.07 842.626 262.869 843.482 272.871C843.625 274.502 843.419 275.951 843.021 277.261C845.203 281.902 844.854 287.697 842.037 292.074C839.106 296.628 833.652 299.448 828.291 299.181C825.731 299.055 822.848 297.903 822.219 295.423C821.886 294.115 822.266 292.731 822.614 291.415C822.797 290.724 822.961 290.005 823.019 289.295L812.692 292.009C812.692 292.009 789.193 296.869 779.187 300.137L428.645 389.954C406.685 399.561 381.415 389.395 372.557 367.398C362.925 343.469 376.818 316.21 401.991 309.647L766.368 244.2Z" fill="#A780FF"/>
<path d="M773.047 261.836C773.712 265.47 777.662 267.578 781.353 267.89C785.043 268.202 788.752 267.254 792.459 267.298C803.547 267.432 813.107 276.305 824.196 275.912C825.741 275.855 827.639 275.302 827.939 273.784C828.214 272.374 826.903 271.232 825.735 270.423C815.749 263.494 805.766 256.569 795.782 249.642" stroke="#270570" stroke-width="4" stroke-linecap="round" stroke-linejoin="round"/>
<path d="M854.521 211.756C849.782 214.636 756.103 248.535 753.402 248.348" stroke="#270570" stroke-width="4" stroke-linecap="round" stroke-linejoin="round"/>
<path fill-rule="evenodd" clip-rule="evenodd" d="M772.336 300.588C767.366 303.046 518.915 368.173 516.242 367.751L772.336 300.588Z" stroke="#270570" stroke-width="4" stroke-linecap="round" stroke-linejoin="round"/>
<path d="M551.195 332.642C542.788 332.642 540.269 331.016 535.29 322.35" stroke="#270570" stroke-width="4" stroke-linecap="round"/>
<path d="M463.583 380.415C405.9 396.162 382.796 391.574 373.304 369.666C362.983 345.834 376.144 318.387 401.189 311.516C498.048 292.891 570.692 278.923 619.121 269.61" stroke="#270570" stroke-width="4" stroke-linecap="round"/>
<path fill-rule="evenodd" clip-rule="evenodd" d="M451.824 343.155C451.824 343.155 383.536 436.651 360.612 514.21C358.747 520.523 357.18 526.736 355.976 532.779C339.99 613.06 343.852 647.447 372.011 635.966C400.171 624.493 448.508 493.473 451.843 447.063C455.18 400.653 451.824 343.155 451.824 343.155Z" fill="#FA503F"/>
<path d="M353.929 551.181C353.929 551.181 345.634 612.251 351.4 624.215" stroke="#270570" stroke-width="3.744" stroke-linecap="round" stroke-linejoin="round"/>
<path d="M372.009 635.973C386.09 630.233 405.215 594.601 421.235 554.617C437.258 514.62 450.177 470.264 451.842 447.063C455.179 400.653 451.823 343.155 451.823 343.155C451.823 343.155 383.538 436.651 360.616 514.203" stroke="#270570" stroke-width="4" stroke-linecap="round" stroke-linejoin="round"/>
<path d="M422.757 441.375L372.331 607.722" stroke="#270570" stroke-width="4" stroke-linecap="round" stroke-linejoin="round"/>
<path fill-rule="evenodd" clip-rule="evenodd" d="M268.563 395.269C268.563 395.269 280.583 500.338 271.263 539.683C261.943 579.034 260.204 617.678 286.525 636.401C312.85 655.124 338.112 642.197 344.724 636.272C352.876 628.97 378.057 576.378 333.896 497.455C316.552 466.462 268.563 395.269 268.563 395.269Z" fill="white"/>
<path d="M301.867 497.79C301.867 497.79 323.284 663.225 319.211 702.027" stroke="#270570" stroke-width="4" stroke-linecap="round" stroke-linejoin="round"/>
<path d="M354.493 547.09C339.345 474.617 268.563 395.269 268.563 395.269C268.563 395.269 280.586 500.346 271.266 539.69C261.948 579.027 260.208 617.678 286.527 636.401C312.848 655.124 331.73 646.13 338.345 640.213" stroke="#270570" stroke-width="4" stroke-linecap="round" stroke-linejoin="round"/>
<path fill-rule="evenodd" clip-rule="evenodd" d="M506.667 454.27C506.667 454.27 448.799 542.765 439.48 582.109C430.16 621.453 414.377 656.779 382.456 661.69C350.533 666.601 333.759 643.695 330.509 635.436C326.498 625.258 327.584 566.948 402.449 516.248C431.851 496.333 506.667 454.27 506.667 454.27Z" fill="#FB8478"/>
<path d="M320.368 700.72C320.368 700.72 397.054 566.035 449.968 511.344" stroke="#270570" stroke-width="4" stroke-linecap="round" stroke-linejoin="round"/>
<path d="M439.479 582.109C430.409 621.51 414.376 656.772 382.455 661.69C350.536 666.601 333.762 643.695 330.507 635.436C326.497 625.251 327.584 566.948 402.45 516.248C431.853 496.34 506.667 454.27 506.667 454.27C506.667 454.27 468.887 515.827 451.729 549.925" stroke="#270570" stroke-width="4" stroke-linecap="round" stroke-linejoin="round"/>
</svg>
