<svg width="869" height="771" viewBox="0 0 869 771" fill="none" xmlns="http://www.w3.org/2000/svg">
<g clip-path="url(#clip0_107_1281)">
<mask id="mask0_107_1281" style="mask-type:alpha" maskUnits="userSpaceOnUse" x="-128" y="16" width="1080" height="740">
<path d="M348.887 144.588L371.921 110.686L97.5622 62.9065L-70.0091 173.216C-110.668 173.216 -154.343 347.212 -108.233 460.606C-92.0743 500.344 -88.0063 541.729 -88.0063 555.978C-88.0063 589.423 59.6259 622.295 74.7257 651.454C84.4166 670.167 92.1879 679.448 107.365 694.626C146.193 733.451 198.854 755.263 253.761 755.263H578.956C633.865 755.263 686.526 733.451 725.352 694.626C764.178 655.799 785.992 603.138 785.992 548.23V441.052C785.992 391.098 918.739 554.245 951.681 249.774C952.143 245.457 728.856 80.1427 725.352 76.6392C686.526 37.8123 633.865 16 578.956 16C524.047 16 471.388 37.8123 432.56 76.6392C393.733 115.465 348.887 89.6788 348.887 144.588Z" fill="white"/>
</mask>
<g mask="url(#mask0_107_1281)">
<path fill-rule="evenodd" clip-rule="evenodd" d="M371.922 223.035V341.194H253.762C198.855 341.194 146.194 363.006 107.366 401.834C68.5409 440.66 46.7285 493.32 46.7285 548.23C46.7285 603.138 68.5409 655.799 107.366 694.626C146.194 733.451 198.855 755.263 253.762 755.263H578.957C633.866 755.263 686.527 733.451 725.353 694.626C764.179 655.799 785.993 603.138 785.993 548.23V223.035C785.993 168.125 764.179 115.465 725.353 76.6392C686.527 37.8123 633.866 16 578.957 16C524.048 16 471.389 37.8123 432.561 76.6392C393.734 115.465 371.922 168.125 371.922 223.035Z" fill="#FFE3E0"/>
<path fill-rule="evenodd" clip-rule="evenodd" d="M307.074 240.875C307.074 254.974 310.558 267.748 317.341 279.006L302.675 308.338C302.675 308.338 342.023 304.075 342.359 304.397C351.072 312.738 367.366 315.671 381.871 315.671C423.181 315.671 456.667 282.186 456.667 240.875C456.667 199.565 423.181 166.078 381.871 166.078C340.561 166.078 307.074 199.565 307.074 240.875Z" fill="#FB8478" stroke="#270570" stroke-width="4.88867" stroke-linecap="round" stroke-linejoin="round"/>
<path fill-rule="evenodd" clip-rule="evenodd" d="M655.518 368.237C673.447 390.851 690.565 368.237 690.565 368.237C714.6 391.945 719.607 390.89 719.607 390.89C734.698 395.558 743.669 383.486 748.482 372.825C751.576 365.975 759.183 362.926 765.905 365.673C774.821 369.32 779.186 368.237 779.186 368.237C793.813 365.991 796.201 352.631 795.828 342.513C795.603 336.322 800.029 331.105 805.907 330.701C835.38 328.682 839.772 313.977 839.772 313.977C866.467 281.278 837.039 246.91 823.908 234.234C821.451 231.866 821.937 227.61 824.915 226.035C843.973 215.931 840.273 205.979 840.273 205.979C827.756 161.203 749.146 164.365 749.146 164.365C747.145 148.559 734.628 141.709 734.628 141.709C683.056 106.942 632.487 161.202 632.487 161.202C632.487 161.202 621.138 324.873 655.518 368.237Z" fill="#4300D2"/>
<path d="M632.067 161.231C632.067 161.231 682.733 106.92 734.405 141.721C734.405 141.721 746.946 148.577 748.951 164.396C748.951 164.396 827.712 161.231 840.252 206.047C840.252 206.047 843.96 216.008 824.866 226.118C821.885 227.695 821.394 231.957 823.857 234.326C837.013 247.011 866.498 281.41 839.752 314.14C839.752 314.14 835.35 328.856 805.82 330.879C799.932 331.281 795.497 336.502 795.723 342.699C796.097 352.828 793.703 366.2 779.051 368.448C779.051 368.448 774.675 369.529 765.742 365.881C759.11 363.171 751.617 366.089 748.43 372.729" stroke="#270570" stroke-width="4.31099" stroke-linecap="round" stroke-linejoin="round"/>
<path fill-rule="evenodd" clip-rule="evenodd" d="M629.106 303.563C629.106 303.563 644.411 312.157 664.57 310.258C664.57 310.258 650.482 324.375 628.04 310.905L629.106 303.563Z" fill="white"/>
<path fill-rule="evenodd" clip-rule="evenodd" d="M611.094 539.797C638.176 539.803 700.277 540.639 711.768 563.541C718.664 577.282 722.486 599.132 722.328 611.673C721.778 655.367 672.29 672.925 637.467 672.925C602.133 672.925 616.044 668.577 540.899 683.071C465.754 697.565 459.251 739.528 459.251 787.729C459.251 831.105 459.251 861.49 459.251 893.003C416.301 893.003 391.697 893.003 348.573 893.003C348.573 823.944 348.573 701.194 406.995 635.41C443.538 594.262 535.155 582.625 556.97 585.633" fill="white"/>
<path fill-rule="evenodd" clip-rule="evenodd" d="M574.72 544.75C591.401 544.75 675.337 546.945 725.226 547.545C726.775 560.558 723.816 596.39 722.334 608.861C713.142 686.224 634.482 673.612 599.66 673.612C530.955 673.612 506.791 687.76 481.311 712.674C458.018 735.45 457.704 837.257 457.704 893.003C414.753 893.003 334.485 893.003 291.36 893.003C291.36 824.025 292.48 674.759 348.574 607.439C404.59 540.212 558.039 544.75 574.72 544.75Z" fill="white"/>
<path d="M727.936 532.464C727.603 543.595 727.436 559.536 727.436 580.286C727.436 611.411 710.917 672.71 651.19 672.71C605.86 672.71 541.578 672.71 508.509 689.673C475.646 706.53 462.011 746.936 460.086 779.119C457.536 821.75 459.252 856.398 459.252 892.821C423.321 892.821 354.237 893.231 316.301 892.821C316.379 847.264 311.495 682.202 373.129 613.444C409.9 572.424 535.155 558.974 556.971 561.977" stroke="#270570" stroke-width="4.31099" stroke-linecap="round" stroke-linejoin="round"/>
<path d="M402.167 892.821C366.236 892.821 329.346 893.231 291.41 892.821C291.488 847.238 287.782 678.688 348.573 607.353C384.152 565.602 457.066 548.577 542.087 544.686" stroke="#270570" stroke-width="4.31099" stroke-linecap="round" stroke-linejoin="round"/>
<path d="M469.959 677.564C452.239 689.077 428.726 719.889 434.813 830.888" stroke="#270570" stroke-width="4.88867" stroke-linecap="round" stroke-linejoin="round"/>
<path fill-rule="evenodd" clip-rule="evenodd" d="M517.334 471.781C482.702 477.919 442.468 480.229 396.481 475.728C383.559 474.462 374.891 463.112 377.121 450.375C379.351 437.638 391.635 428.339 404.556 429.604C490.078 437.974 551.586 419.5 588.123 402.526C627.624 384.176 661.096 348.805 661.291 348.599L665.582 347.839L681.719 393.081C678.825 396.217 625.377 452.634 517.334 471.781Z" fill="#D3C4F6"/>
<path d="M540.452 421.22C538.617 429.079 540.446 437.249 545.516 443.838" stroke="#270570" stroke-width="4.88867" stroke-linecap="round" stroke-linejoin="round"/>
<path d="M405.859 429.016C490.178 437.782 550.839 419.495 586.878 402.609C596.275 398.206 605.325 392.808 613.654 387.148" stroke="#270570" stroke-width="4.88867" stroke-linecap="round" stroke-linejoin="round"/>
<path d="M642.078 425.886C615.195 443.062 574.644 462.625 519.894 472.273C489.517 477.626 454.775 479.926 415.565 477.075" stroke="#270570" stroke-width="3.09746" stroke-linecap="round" stroke-linejoin="round"/>
<path fill-rule="evenodd" clip-rule="evenodd" d="M428.652 578.75L428.651 578.749C428.651 578.748 428.651 578.748 428.651 578.747L428.652 578.75Z" fill="#270570"/>
<path fill-rule="evenodd" clip-rule="evenodd" d="M683.975 341.172L666.737 336.826C663.146 347.334 656.95 357.494 647.283 362.933C637.616 368.372 634.768 352.982 627.454 344.633C597.25 368.372 552.123 521.225 542.643 546.251C541.535 549.176 543.804 552.272 546.922 552.092L730.84 560.194C733.377 560.047 735.238 557.751 734.855 555.235C730.548 526.895 740.131 393.656 687.306 344.633" fill="white"/>
<path d="M683.975 341.172L666.737 336.826C663.146 347.334 656.95 357.494 647.283 362.933C637.616 368.372 634.768 352.982 627.454 344.633C597.25 368.372 552.123 521.225 542.643 546.251C541.535 549.176 543.804 552.272 546.922 552.092L730.84 560.194C733.377 560.047 735.238 557.751 734.855 555.235C730.548 526.895 740.131 393.656 687.306 344.633" stroke="#270570" stroke-width="4.31099" stroke-linecap="round" stroke-linejoin="round"/>
<path fill-rule="evenodd" clip-rule="evenodd" d="M396.394 432.619C399.174 433.135 401.413 434.967 403.211 437.409C403.982 434.65 406.057 432.334 411.123 433.275C413.903 433.792 416.142 435.624 417.94 438.066C418.711 435.307 420.787 432.99 425.852 433.932C436.79 435.965 439.404 458.325 439.404 458.325L420.502 458.183L420.362 457.475L409.946 457.011L388.448 443.737C388.448 443.737 385.457 430.585 396.394 432.619Z" fill="#D3C4F6"/>
<path fill-rule="evenodd" clip-rule="evenodd" d="M389.735 463.124C389.735 463.124 380.87 451.592 391.731 448.684C402.592 445.776 417.861 472.889 417.861 472.889" fill="#D3C4F6"/>
<path fill-rule="evenodd" clip-rule="evenodd" d="M687.851 349.646C675.545 374.698 636.899 375.782 622.311 352.902C620.987 350.76 620.227 347.152 620.481 345.678C623.069 330.699 626.819 304.935 631.265 274.333C631.59 272.105 632.78 269.775 634.23 268.881C647.257 260.885 664.807 261.562 677.068 270.914C678.432 271.96 679.539 274.355 679.839 276.514C683.964 306.21 687.291 330.214 689.355 342.576C689.554 343.776 688.968 347.302 687.851 349.646Z" fill="#D3C4F6"/>
<path d="M680.183 286.025C683.876 313.443 686.96 335.985 689.085 348.779C683.066 363.03 669.338 369.852 655.937 369.248" stroke="#270570" stroke-width="4.88867" stroke-linecap="round" stroke-linejoin="round"/>
<mask id="mask1_107_1281" style="mask-type:alpha" maskUnits="userSpaceOnUse" x="594" y="229" width="26" height="28">
<path d="M619.975 242.925C619.975 250.317 614.184 256.314 607.045 256.314C599.904 256.314 594.116 250.317 594.116 242.925C594.116 235.526 599.904 229.531 607.045 229.531C614.184 229.531 619.975 235.526 619.975 242.925Z" fill="white"/>
</mask>
<g mask="url(#mask1_107_1281)">
<path fill-rule="evenodd" clip-rule="evenodd" d="M623.742 260.219H590.344V225.626H623.742V260.219Z" fill="#D3C4F6"/>
</g>
<mask id="mask2_107_1281" style="mask-type:alpha" maskUnits="userSpaceOnUse" x="695" y="229" width="27" height="28">
<path d="M721.661 242.925C721.661 250.317 715.872 256.314 708.728 256.314C701.59 256.314 695.796 250.317 695.796 242.925C695.796 235.526 701.59 229.531 708.728 229.531C715.872 229.531 721.661 235.526 721.661 242.925Z" fill="white"/>
</mask>
<g mask="url(#mask2_107_1281)">
<path fill-rule="evenodd" clip-rule="evenodd" d="M725.428 260.219H692.03V225.626H725.428V260.219Z" fill="#D3C4F6"/>
</g>
<path d="M607.158 256.313C600.015 256.313 594.225 250.315 594.225 242.921C594.225 235.524 600.015 229.529 607.158 229.529" stroke="#270570" stroke-width="4.30203" stroke-linecap="round" stroke-linejoin="round"/>
<path d="M708.846 229.529C715.99 229.529 721.779 235.527 721.779 242.924C721.779 250.318 715.99 256.313 708.846 256.313" stroke="#270570" stroke-width="4.30203" stroke-linecap="round" stroke-linejoin="round"/>
<path fill-rule="evenodd" clip-rule="evenodd" d="M656.155 286.094C666.759 286.397 675.472 282.464 680.252 278.4C679.946 276.203 679.637 273.972 679.322 271.711C666.311 259.948 645.807 259.185 631.823 269.422C631.511 271.57 631.201 273.698 630.896 275.801C636.088 281.086 645.365 285.815 656.155 286.094Z" fill="#270570"/>
<mask id="mask3_107_1281" style="mask-type:alpha" maskUnits="userSpaceOnUse" x="600" y="162" width="111" height="155">
<path d="M710.772 210.857V256.676C710.772 289.322 685.739 317.062 655.007 316.635C624.762 316.22 600.706 288.904 600.706 256.676V210.857C600.706 194.843 620.15 162.319 655.007 162.319C689.865 162.319 710.772 192.315 710.772 210.857Z" fill="white"/>
</mask>
<g mask="url(#mask3_107_1281)">
<path fill-rule="evenodd" clip-rule="evenodd" d="M714.544 320.658H596.934V158.301H714.544V320.658Z" fill="#D3C4F6"/>
</g>
<path d="M600.705 219.858V256.776C600.705 289.111 624.766 316.945 655.009 317.364C685.738 317.792 710.774 290.402 710.774 257.654V249.412" stroke="#270570" stroke-width="4.88867" stroke-linecap="round" stroke-linejoin="round"/>
<mask id="mask4_107_1281" style="mask-type:alpha" maskUnits="userSpaceOnUse" x="591" y="159" width="127" height="63">
<path d="M659.894 159.739C681.768 161.588 702.17 173.366 713.016 193.747C716.47 200.237 720.813 214.394 713.409 221.049C712.349 220.553 711.346 219.924 710.347 219.294C709.011 218.456 707.673 217.612 706.147 217.056C700.862 215.113 695.18 214.559 689.62 214.394C681.156 214.148 672.554 214.752 664.328 212.63C656.104 210.516 648.035 204.988 645.441 196.476C635.277 201.847 623.693 204.189 612.374 203.156C605.103 202.497 597.49 200.174 592.759 194.304C592.247 193.673 591.753 192.945 591.733 192.113C591.701 191.118 592.337 190.256 592.955 189.506C607.986 171.302 631.298 159.505 654.331 159.505C656.187 159.505 658.046 159.582 659.894 159.739Z" fill="white"/>
</mask>
<g mask="url(#mask4_107_1281)">
<path fill-rule="evenodd" clip-rule="evenodd" d="M721.246 225.047H587.948V155.509H721.246V225.047Z" fill="#4300D2"/>
</g>
<mask id="mask5_107_1281" style="mask-type:alpha" maskUnits="userSpaceOnUse" x="650" y="188" width="9" height="9">
<path d="M650.49 196.881L658.425 188.34L650.49 196.881Z" fill="white"/>
</mask>
<g mask="url(#mask5_107_1281)">
<path fill-rule="evenodd" clip-rule="evenodd" d="M662.418 201.184H646.489V184.037H662.418V201.184Z" fill="#4300D2"/>
</g>
<path d="M647.561 197.844L655.807 189.619" stroke="#270570" stroke-width="4.30203" stroke-linecap="round" stroke-linejoin="round"/>
<path d="M613.199 204.699L624.194 192.361" stroke="#270570" stroke-width="4.30203" stroke-linecap="round" stroke-linejoin="round"/>
<path d="M629.569 164.942C609.154 175.07 608.769 171.524 592.442 191.112C591.819 191.859 591.178 192.72 591.207 193.709C591.236 194.538 591.731 195.264 592.242 195.892C596.997 201.736 604.651 204.051 611.961 204.706C623.343 205.732 634.985 203.401 645.203 198.053C647.811 206.533 655.921 212.031 664.194 214.14C672.464 216.249 689.652 214.913 698.5 216.416C707.349 217.916 708.204 219.471 713.533 222.52" stroke="#270570" stroke-width="4.30203" stroke-linecap="round" stroke-linejoin="round"/>
<path d="M653.058 141.637C653.058 141.637 680.43 105.615 752.018 128.923" stroke="#270570" stroke-width="4.30203" stroke-linecap="round" stroke-linejoin="round"/>
<path d="M655.953 136.153C655.953 136.153 653.403 129.025 669.551 118.332" stroke="#270570" stroke-width="4.70025" stroke-linecap="round" stroke-linejoin="round"/>
<path fill-rule="evenodd" clip-rule="evenodd" d="M732.664 219.007C727.093 198.209 709.566 160.661 655.66 160.83C652.712 160.839 652.035 165.274 654.853 166.211C673.44 172.385 704.194 187.186 728.092 221.375C729.821 223.848 733.461 221.974 732.664 219.007Z" fill="#ADEDDD"/>
<path fill-rule="evenodd" clip-rule="evenodd" d="M732.664 219.007C727.093 198.209 709.566 160.661 655.66 160.83C652.712 160.839 652.035 165.274 654.853 166.211C673.44 172.385 704.194 187.186 728.092 221.375C729.821 223.848 733.461 221.974 732.664 219.007Z" stroke="#270570" stroke-width="4.70025" stroke-linecap="round" stroke-linejoin="round"/>
<mask id="mask6_107_1281" style="mask-type:alpha" maskUnits="userSpaceOnUse" x="599" y="229" width="7" height="7">
<path d="M599.315 232.9C599.315 234.523 600.63 235.838 602.252 235.838C603.872 235.838 605.191 234.523 605.191 232.9C605.191 231.278 603.872 229.963 602.252 229.963C600.63 229.963 599.315 231.278 599.315 232.9Z" fill="white"/>
</mask>
<g mask="url(#mask6_107_1281)">
</g>
<path fill-rule="evenodd" clip-rule="evenodd" d="M680.63 236.072C680.63 237.319 679.619 238.331 678.371 238.331C677.124 238.331 676.113 237.319 676.113 236.072C676.113 234.824 677.124 233.813 678.371 233.813C679.619 233.813 680.63 234.824 680.63 236.072Z" fill="#270570"/>
<path fill-rule="evenodd" clip-rule="evenodd" d="M623.521 236.072C623.521 237.319 624.532 238.331 625.779 238.331C627.026 238.331 628.038 237.319 628.038 236.072C628.038 234.824 627.026 233.813 625.779 233.813C624.532 233.813 623.521 234.824 623.521 236.072Z" fill="#270570"/>
<path d="M650.988 231.749C649.355 238.209 646.174 252.417 646.174 252.417C646.174 252.417 648.815 252.417 654.098 252.417" stroke="#270570" stroke-width="4.88867" stroke-linecap="round" stroke-linejoin="round"/>
<path d="M672.074 288.846C670.658 285.64 660.806 280.16 653.502 287.791" stroke="#270570" stroke-width="4.88867" stroke-linecap="round" stroke-linejoin="round"/>
<path d="M653.2 750.112L653.055 989.427" stroke="#270570" stroke-width="4.88867" stroke-linecap="round" stroke-linejoin="round"/>
<path d="M700.379 740.334L771.947 989.181" stroke="#270570" stroke-width="4.88867" stroke-linecap="round" stroke-linejoin="round"/>
<path d="M606.021 740.334L528.689 989.181" stroke="#270570" stroke-width="4.88867" stroke-linecap="round" stroke-linejoin="round"/>
<path fill-rule="evenodd" clip-rule="evenodd" d="M783.936 578.149C783.936 578.149 516.814 574.871 492.965 731.674L491.279 740.653C489.664 749.263 497.138 757.102 506.963 757.102H768.036C776.817 757.102 783.936 750.777 783.936 742.975V578.149Z" fill="#A780FF"/>
<path fill-rule="evenodd" clip-rule="evenodd" d="M783.936 578.149C783.936 578.149 516.814 574.871 492.965 731.674L491.279 740.653C489.664 749.263 497.138 757.102 506.963 757.102H768.036C776.817 757.102 783.936 750.777 783.936 742.975V578.149Z" stroke="#270570" stroke-width="4.88867" stroke-linecap="round" stroke-linejoin="round"/>
<path d="M409.213 247.931C415.87 258.456 409.107 262.175 404.866 262.175H358.033C353.793 262.175 345.869 258.702 353.804 247.931L373.384 213.132C373.49 213.132 376.807 206.444 381.059 206.444H381.829C386.069 206.444 389.409 212.799 389.504 213.132" fill="white"/>
<path d="M409.213 247.931C415.87 258.456 409.107 262.175 404.866 262.175H358.033C353.793 262.175 345.869 258.702 353.804 247.931L373.384 213.132C373.49 213.132 376.807 206.444 381.059 206.444H381.829C386.069 206.444 389.409 212.799 389.504 213.132" stroke="#270570" stroke-width="4.88867" stroke-linecap="round" stroke-linejoin="round"/>
<path d="M384.632 238.577C384.869 238.577 385.073 238.502 385.245 238.351C385.396 238.179 385.471 237.975 385.471 237.738V224.09C385.471 223.853 385.396 223.66 385.245 223.509C385.073 223.358 384.869 223.283 384.632 223.283H380.728C380.491 223.283 380.298 223.358 380.147 223.509C379.975 223.66 379.889 223.853 379.889 224.09V237.738C379.889 237.975 379.975 238.179 380.147 238.351C380.298 238.502 380.491 238.577 380.728 238.577H384.632ZM384.761 245.869C384.976 245.869 385.17 245.794 385.342 245.643C385.492 245.471 385.568 245.277 385.568 245.062V240.9C385.568 240.663 385.492 240.47 385.342 240.319C385.17 240.147 384.976 240.061 384.761 240.061H380.599C380.384 240.061 380.201 240.147 380.05 240.319C379.878 240.47 379.792 240.663 379.792 240.9V245.062C379.792 245.277 379.867 245.471 380.018 245.643C380.169 245.794 380.362 245.869 380.599 245.869H384.761Z" fill="#270570"/>
<path fill-rule="evenodd" clip-rule="evenodd" d="M420.869 502.019H225.581C217.009 502.019 210.062 495.07 210.062 486.499C210.062 477.928 217.009 470.98 225.581 470.98H420.869C429.44 470.98 436.389 477.928 436.389 486.499C436.389 495.07 429.44 502.019 420.869 502.019Z" fill="#FB8478" stroke="#270570" stroke-width="5.17319"/>
<mask id="mask7_107_1281" style="mask-type:alpha" maskUnits="userSpaceOnUse" x="213" y="269" width="70" height="201">
<path d="M243.338 283.069L282.163 465.296L256.31 469.37L213.94 270.537L220.488 269.505C221.684 269.316 222.877 269.224 224.051 269.224C233.345 269.224 241.604 274.925 243.338 283.069Z" fill="white"/>
</mask>
<g mask="url(#mask7_107_1281)">
<path fill-rule="evenodd" clip-rule="evenodd" d="M285.995 460.62H210.109V264.47H285.995V460.62Z" fill="#A780FF"/>
</g>
<mask id="mask8_107_1281" style="mask-type:alpha" maskUnits="userSpaceOnUse" x="251" y="442" width="222" height="23">
<path d="M452.518 442.133C463.422 442.133 472.261 449.7 472.261 459.03V464.758H251.449V442.133H452.518Z" fill="white"/>
</mask>
<g mask="url(#mask8_107_1281)">
<path fill-rule="evenodd" clip-rule="evenodd" d="M476.383 465.288H233.218V428.645H476.383V465.288Z" fill="#A780FF"/>
</g>
<path d="M254.566 458.514L213.94 270.449C228.257 268.222 241.988 276.264 244.612 288.408" stroke="#270570" stroke-width="4.45283" stroke-linecap="round" stroke-linejoin="round"/>
<path d="M273.794 440.537H446.107C460.553 440.537 472.261 451.565 472.261 465.168H255.334" stroke="#270570" stroke-width="4.67657" stroke-linecap="round" stroke-linejoin="round"/>
<path d="M253.5 327L279.095 438.363" stroke="#270570" stroke-width="4.67657" stroke-linecap="round" stroke-linejoin="round"/>
<mask id="mask9_107_1281" style="mask-type:alpha" maskUnits="userSpaceOnUse" x="44" y="538" width="368" height="24">
<path d="M411.408 539.275C411.244 551.755 404.546 561.741 396.343 561.741H59.149C50.8253 561.741 44.0782 551.475 44.0782 538.815L411.408 539.275Z" fill="white"/>
</mask>
<g mask="url(#mask9_107_1281)">
<path fill-rule="evenodd" clip-rule="evenodd" d="M414.709 565.426H40.7744V535.13H414.709V565.426Z" fill="white"/>
</g>
<path d="M44.0782 538.816C44.0782 551.476 50.824 561.741 59.1464 561.741H396.343C404.546 561.741 411.244 551.755 411.408 539.275" stroke="#270570" stroke-width="5.17319" stroke-linecap="round" stroke-linejoin="round"/>
<mask id="mask10_107_1281" style="mask-type:alpha" maskUnits="userSpaceOnUse" x="327" y="562" width="164" height="482">
<path d="M361.668 562.217C380.021 646.863 423.016 807.426 490.659 1043.91H482.789C406.878 811.024 355.158 650.459 327.632 562.217H361.668Z" fill="white"/>
</mask>
<g mask="url(#mask10_107_1281)">
<path fill-rule="evenodd" clip-rule="evenodd" d="M501.8 1047.6H332.167V558.531H501.8V1047.6Z" fill="#A780FF"/>
</g>
<path fill-rule="evenodd" clip-rule="evenodd" d="M482.789 1043.91C406.878 811.022 355.159 650.457 327.632 562.217H361.668C380.02 646.862 423.016 807.427 490.659 1043.91H482.789Z" stroke="#270570" stroke-width="5.17319"/>
<mask id="mask11_107_1281" style="mask-type:alpha" maskUnits="userSpaceOnUse" x="-25" y="562" width="164" height="482">
<path d="M138.496 562.217C110.968 650.459 59.2492 811.024 -16.6635 1043.91H-24.5345C43.1089 807.426 86.1059 646.863 104.458 562.217H138.496Z" fill="white"/>
</mask>
<g mask="url(#mask11_107_1281)">
<path fill-rule="evenodd" clip-rule="evenodd" d="M141.795 1047.6H-27.8377V558.531H141.795V1047.6Z" fill="#A780FF"/>
</g>
<path fill-rule="evenodd" clip-rule="evenodd" d="M-17.9038 1043.91C58.0076 811.022 109.728 650.457 137.254 562.217H103.217C84.8655 646.862 41.8685 807.427 -25.7736 1043.91H-17.9038Z" stroke="#270570" stroke-width="5.17319"/>
<mask id="mask12_107_1281" style="mask-type:alpha" maskUnits="userSpaceOnUse" x="329" y="560" width="36" height="48">
<path d="M362.064 564.959C363.027 565.395 362.215 570.711 362.725 572.051C365.194 578.524 365.804 572.655 363.18 580.512C358.162 595.557 341.141 609.473 340.873 606.646C339.943 596.858 330.502 579.14 329.034 564.959C328.878 563.468 331.251 562.593 332.13 562.217C334.611 561.151 337.886 560.684 341.468 560.684C348.351 560.684 356.371 562.412 362.064 564.959Z" fill="white"/>
</mask>
<g mask="url(#mask12_107_1281)">
<path fill-rule="evenodd" clip-rule="evenodd" d="M324.15 560.691L361.952 549.387L374.345 601.005L336.544 612.309L324.15 560.691Z" fill="#270570"/>
</g>
<mask id="mask13_107_1281" style="mask-type:alpha" maskUnits="userSpaceOnUse" x="-43" y="508" width="541" height="34">
<path d="M482.531 508.294C490.968 508.294 497.761 515.987 497.597 525.348C497.426 534.45 490.731 541.73 482.531 541.73H384.307H338.609H-27.5111C-35.8309 541.73 -42.5754 534.246 -42.5754 525.014C-42.5754 515.781 -35.8309 508.294 -27.5111 508.294H482.531Z" fill="white"/>
</mask>
<g mask="url(#mask13_107_1281)">
<path fill-rule="evenodd" clip-rule="evenodd" d="M500.898 545.416H39.2534C27.9855 545.416 18.851 536.281 18.851 525.013C18.851 513.745 27.9855 504.611 39.2534 504.611H500.898V545.416Z" fill="white"/>
</g>
<path d="M397.319 541.73H484.26C491.52 541.73 497.444 534.448 497.597 525.347C497.741 515.988 491.729 508.295 484.26 508.295H32.8017C25.4375 508.295 19.4688 515.781 19.4688 525.012C19.4688 534.245 25.4375 541.73 32.8017 541.73H356.87" stroke="#270570" stroke-width="5.17319" stroke-linecap="round" stroke-linejoin="round"/>
<mask id="mask14_107_1281" style="mask-type:alpha" maskUnits="userSpaceOnUse" x="424" y="554" width="1" height="1">
<path d="M424.875 554.936H424.873V554.933L424.875 554.936Z" fill="white"/>
</mask>
<g mask="url(#mask14_107_1281)">
<path fill-rule="evenodd" clip-rule="evenodd" d="M428.997 559.057H420.752V550.811H428.997V559.057Z" fill="#270E6E"/>
</g>
<mask id="mask15_107_1281" style="mask-type:alpha" maskUnits="userSpaceOnUse" x="382" y="415" width="230" height="69">
<path d="M599.601 431.017L599.36 430.994C593.673 430.497 572.312 432.321 549.885 434.404L547.904 434.588C547.243 434.65 546.581 434.712 545.919 434.774L543.934 434.96L542.941 435.053L542.019 435.14C540.791 435.256 539.564 435.371 538.341 435.487L536.511 435.66C513.68 437.82 492.781 439.821 489.559 439.444L487.035 439.144C479.462 438.233 471.885 437.233 464.303 436.894L463.655 436.872C459.565 436.773 455.81 437.397 452.005 435.597L444.371 431.985L436.739 428.374L435.805 427.908C432.081 425.954 428.537 422.997 425.163 420.606L424.72 420.288C421.908 418.239 418.949 415.64 415.259 415.195L414.945 415.165C411.713 414.94 408.822 417.232 409.724 420.216L409.88 420.674C411.137 423.968 414.734 425.849 417.648 428.148L417.991 428.411C418.957 429.138 420.298 430.057 420.872 430.959L421.006 431.192C421.122 431.416 421.206 431.647 421.257 431.879L391.112 423.971C387.256 422.96 383.476 424.799 382.67 428.079C381.863 431.36 384.335 434.839 388.191 435.851L403.552 439.879C403.462 439.91 403.375 439.948 403.291 439.992L403.027 440.151C400.512 441.838 401.681 446.61 403.98 448.376L404.475 448.733C405.821 449.654 407.386 450.315 408.933 450.886L408.848 450.884C408.379 451.02 407.691 453.406 407.605 453.68L407.495 454.101C407.283 455.092 407.37 456.149 407.569 457.179L407.631 457.467C407.882 458.526 408.403 459.622 409.504 460.236L410.063 460.53C411.198 461.091 412.433 461.503 413.647 461.868L413.47 462.177C412.002 464.972 413.718 468.077 416.447 470.199L417.013 470.62C421.226 473.618 426.815 474.717 431.837 475.767L433.327 476.069C438.787 477.144 444.182 477.832 449.722 477.914L450.491 477.931C451.787 477.967 453.157 478.044 454.546 478.124L456.218 478.22C460.126 478.437 464.013 478.572 466.686 477.83L467.468 477.607C476.896 474.844 478.07 471.706 487.037 473.202L487.153 473.22C487.28 473.239 487.441 473.259 487.634 473.281L488.064 473.329C492.388 473.782 507.261 474.825 523.42 475.948L525.188 476.071L526.963 476.194C527.852 476.256 528.743 476.318 529.634 476.38L530.516 476.441L533.162 476.624L534.92 476.746L536.672 476.868C552.399 477.962 566.969 478.998 571.873 479.503L572.378 479.557C572.842 479.608 573.183 479.653 573.389 479.691L573.53 479.716C576.796 480.28 606.065 484.757 607.923 483.296L608.115 483.116C609.808 481.285 610.498 473.683 610.803 471.69L610.856 471.32C611.348 467.523 610.902 460.79 610.137 454.125L609.98 452.793C608.908 443.936 607.344 435.554 606.76 434.763L606.591 434.565C605.359 433.276 601.159 431.371 600.42 431.159C600.218 431.101 599.944 431.054 599.601 431.017Z" fill="white"/>
</mask>
<g mask="url(#mask15_107_1281)">
<path d="M599.643 427.328L599.403 427.309C593.733 426.916 572.393 429.357 549.985 432.097L548.006 432.34C547.345 432.421 546.684 432.502 546.023 432.584L544.039 432.828L543.047 432.95L542.126 433.064C540.899 433.216 539.673 433.368 538.451 433.52L536.623 433.747C513.812 436.578 492.93 439.195 489.719 438.872L487.203 438.613C479.656 437.825 472.107 436.944 464.544 436.763L463.897 436.755C459.816 436.747 456.062 437.498 452.285 435.678L444.71 432.028L437.136 428.377L436.209 427.904C432.516 425.919 429.014 422.866 425.676 420.409L425.238 420.082C422.455 417.975 419.534 415.288 415.857 414.903L415.544 414.879C412.321 414.716 409.408 417.217 410.272 420.36L410.423 420.843C411.637 424.308 415.206 426.218 418.086 428.589L418.425 428.86C419.38 429.608 420.707 430.551 421.269 431.495L421.401 431.739C421.514 431.973 421.595 432.217 421.643 432.461L391.652 424.785C387.816 423.803 384.022 425.844 383.178 429.343C382.334 432.842 384.759 436.475 388.595 437.457L403.878 441.368C403.788 441.403 403.7 441.444 403.615 441.494L403.35 441.668C400.82 443.518 401.93 448.553 404.203 450.372L404.692 450.74C406.025 451.684 407.579 452.348 409.116 452.918L409.031 452.918C408.562 453.073 407.846 455.621 407.757 455.914L407.643 456.362C407.419 457.419 407.493 458.538 407.68 459.626L407.738 459.93C407.975 461.048 408.483 462.198 409.574 462.824L410.129 463.122C411.255 463.691 412.482 464.099 413.689 464.457L413.509 464.789C412.011 467.789 413.686 471.043 416.384 473.23L416.943 473.663C421.112 476.744 426.677 477.778 431.676 478.773L433.16 479.058C438.597 480.069 443.972 480.671 449.501 480.628L450.268 480.627C451.561 480.635 452.927 480.684 454.312 480.736L455.98 480.799C459.877 480.937 463.755 480.988 466.431 480.137L467.215 479.882C476.657 476.727 477.866 473.371 486.798 474.746L486.913 474.762C487.04 474.779 487.2 474.797 487.393 474.816L487.821 474.856C492.131 475.235 506.962 475.99 523.076 476.799L524.839 476.887L526.609 476.976C527.495 477.02 528.383 477.065 529.272 477.11L530.152 477.154L532.79 477.286L534.543 477.373L536.29 477.461C551.972 478.249 566.502 479.004 571.39 479.424L571.893 479.469C572.356 479.513 572.695 479.552 572.9 479.587L573.041 479.61C576.294 480.132 605.45 484.19 607.322 482.595L607.516 482.4C609.228 480.417 610.007 472.336 610.336 470.214L610.393 469.82C610.93 465.78 610.565 458.648 609.881 451.594L609.741 450.186C608.776 440.814 607.316 431.958 606.743 431.133L606.577 430.927C605.362 429.588 601.193 427.667 600.459 427.46C600.257 427.403 599.985 427.36 599.643 427.328Z" fill="#D3C4F6"/>
<path d="M463.846 458.61C462.066 462.676 462.482 469.85 462.981 474.132" stroke="#270570" stroke-width="4.34548" stroke-linecap="round" stroke-linejoin="round"/>
<path d="M418.752 476.622C424.123 479.822 430.708 480.703 436.818 481.374C443.938 482.154 451.118 482.142 458.156 481.334" stroke="#270570" stroke-width="4.34548" stroke-linecap="round" stroke-linejoin="round"/>
<path d="M414.551 419.364C413.708 420.492 413.774 421.68 414.846 422.741C415.597 423.486 416.585 424.264 417.555 424.734C417.794 424.85 418.042 424.967 418.304 424.984C418.828 425.019 419.245 424.655 419.596 424.316C420.134 423.795 420.667 423.566 421.205 423.044" stroke="#270570" stroke-width="4.34548" stroke-linecap="round" stroke-linejoin="round"/>
<path d="M402.468 442.473C408.612 444.9 411.301 445.877 417.813 446.98" stroke="#270570" stroke-width="4.34548" stroke-linecap="round" stroke-linejoin="round"/>
<path d="M404.364 448.246C404.453 450.013 405.309 451.781 406.697 453.063C408.112 454.37 409.977 455.134 411.795 455.857C415.829 457.462 420.323 458.491 424.533 459.545" stroke="#270570" stroke-width="4.34548" stroke-linecap="round" stroke-linejoin="round"/>
<path d="M408.77 460.173C409.647 464.689 412.485 466.392 416.978 467.615C420.177 468.487 423.087 469.3 426.404 469.662" stroke="#270570" stroke-width="4.34548" stroke-linecap="round" stroke-linejoin="round"/>
<path d="M415.714 417.61C419.578 418.011 422.606 420.965 425.517 423.109C429.414 425.979 433.225 428.968 437.357 431.54C440.334 433.394 443.514 434.917 446.706 436.396C449.606 437.739 452.055 438.92 455.243 439.382C463.93 440.643 472.819 440.313 481.545 441.072" stroke="#270570" stroke-width="4.34548" stroke-linecap="round" stroke-linejoin="round"/>
<path d="M389.731 427.967C391.774 427.261 394.033 427.917 396.106 428.422C398.558 429.02 401 429.654 403.432 430.326C408.296 431.667 413.117 433.156 417.885 434.79" stroke="#270570" stroke-width="4.34548" stroke-linecap="round" stroke-linejoin="round"/>
<path d="M385.291 434.768C386.329 436.162 388.487 437.777 392.934 438.898L396.785 440.265" stroke="#270570" stroke-width="4.34548" stroke-linecap="round" stroke-linejoin="round"/>
</g>
<path fill-rule="evenodd" clip-rule="evenodd" d="M676.379 375.333C669.846 394.12 658.618 387.643 643.026 401.872C615.148 427.317 554.994 424.378 555.007 424.172C554.997 424.343 551.449 484.086 551.441 484.218C551.205 488.239 597.464 481.855 600.868 481.386C628.63 477.562 658.594 472.841 684.232 457.65C704.032 445.919 718.19 430.611 729.818 413.418L676.379 375.333Z" fill="white"/>
<path d="M641.97 401.439C614.092 426.884 556.366 423.73 553.95 423.738C553.51 426.495 550.392 483.653 550.385 483.784C550.149 487.805 596.408 481.422 599.812 480.953C627.573 477.128 657.537 472.408 683.175 457.217C702.975 445.485 717.567 431.527 729.195 414.334" stroke="#270570" stroke-width="4.88867" stroke-linecap="round" stroke-linejoin="round"/>
<path fill-rule="evenodd" clip-rule="evenodd" d="M679.54 726.79H783.435V394.353C783.435 381.349 771.111 371.885 758.561 375.249L697.302 387.889C684.96 391.199 676.377 402.392 676.377 415.18V531.163" fill="#A780FF"/>
<path d="M783.435 726.79V394.353C783.435 381.349 771.111 371.885 758.561 375.249L697.302 387.889C684.96 391.199 676.377 402.392 676.377 415.18V531.163" stroke="#270570" stroke-width="4.31099" stroke-linecap="round" stroke-linejoin="round"/>
<path d="M551.56 429.447C540.995 433.219 510.089 439.767 498.874 440.265" stroke="#270570" stroke-width="4.34548" stroke-linecap="round" stroke-linejoin="round"/>
</g>
</g>
<defs>
<clipPath id="clip0_107_1281">
<rect width="869" height="771" fill="white"/>
</clipPath>
</defs>
</svg>
