<svg width="947" height="709" viewBox="0 0 947 709" fill="none" xmlns="http://www.w3.org/2000/svg">
<g id="24">
<g id="Group 1337">
<path id="Fill 109" fill-rule="evenodd" clip-rule="evenodd" d="M407.298 692.863H705.029C764.959 692.863 822.437 669.05 864.815 626.663C907.192 584.277 931 526.786 931 466.841C931 406.898 907.192 349.408 864.815 307.019C822.437 264.634 764.959 240.821 705.029 240.821L500.899 240.821L427.513 167.416C385.134 125.029 342.095 115.654 282.162 115.654C222.229 115.654 164.754 139.467 122.374 181.854C79.9979 224.24 56.188 281.731 56.188 341.673C56.188 401.619 79.9968 459.109 122.373 501.496L261.946 641.1C304.325 683.488 347.367 692.863 407.298 692.863Z" fill="#D3C4F6"/>
<g id="piernas">
<mask id="mask0_127_1494" style="mask-type:alpha" maskUnits="userSpaceOnUse" x="401" y="458" width="301" height="236">
<path id="Rectangle" d="M497.347 458.322H632.663L701.07 693H401.477L497.347 458.322Z" fill="white"/>
</mask>
<g mask="url(#mask0_127_1494)">
<g id="pierna izq">
<path id="Path" fill-rule="evenodd" clip-rule="evenodd" d="M510.686 478.786L516.421 520.368C517.432 522.565 538.185 567.925 557.826 640.378C569.526 683.525 578.556 727.735 584.671 771.775C592.26 826.469 595.351 849.485 593.847 902.449L707.452 905.673C709.15 845.762 705.62 815.72 696.958 754.115C690.044 704.962 679.86 655.664 666.69 607.6C644.061 525.019 620.234 474.056 619.23 471.928L510.686 478.786Z" fill="#FB8478"/>
<path id="Stroke 57" d="M707.764 905.672C709.462 845.762 705.932 815.719 697.27 754.116C690.356 704.96 680.172 655.663 667.001 607.599C644.373 525.02 620.546 474.055 619.542 471.929" stroke="#270570" stroke-width="4" stroke-linecap="round" stroke-linejoin="round"/>
</g>
<g id="pierna derecha">
<path id="Clip 73" fill-rule="evenodd" clip-rule="evenodd" d="M511.602 475.876L511.618 475.783C511.533 476.278 482.701 524.031 457.059 596.199C442.091 638.325 424.329 679.805 404.261 719.482C379.343 768.756 363.436 797.382 332.025 840.054L423.559 907.421C459.085 859.158 478.63 824.502 506.606 768.936C528.929 724.598 548.643 678.285 565.202 631.275C593.648 550.517 606.365 474.932 606.754 472.615L511.602 475.876Z" fill="#FB8478"/>
<path id="Stroke 80" d="M512.826 476.796C512.741 477.289 487.454 520.226 461.814 592.396C446.846 634.521 429.082 675.998 409.016 715.677C384.096 764.952 368.191 793.58 336.78 836.253" stroke="#270570" stroke-width="4" stroke-linecap="round" stroke-linejoin="round"/>
<path id="Stroke 82" d="M503.666 518.546C503.666 518.546 525.133 513.18 531.327 493.774" stroke="#270570" stroke-width="4" stroke-linecap="round" stroke-linejoin="round"/>
<path id="Stroke 84" d="M602.265 526.81C596.327 549.26 581.36 595.097 569.957 627.472C553.398 674.479 533.684 720.793 511.36 765.131C483.384 820.699 463.839 855.352 428.313 903.618L342.583 841.428" stroke="#270570" stroke-width="4" stroke-linecap="round" stroke-linejoin="round"/>
</g>
</g>
</g>
<g id="torso">
<path id="Fill 165" fill-rule="evenodd" clip-rule="evenodd" d="M651.846 303.652C651.846 303.652 662.03 339.59 634.722 328.593C634.722 328.593 600.43 299.243 570.937 274.217C570.937 274.217 531.755 280.348 586.471 332.734C605.019 350.495 620.159 366.215 645.269 370.722C654.902 372.451 669.853 373.157 678.897 368.707C702.433 357.126 691.918 309.439 685.142 289.143C679.444 272.077 673.774 254.995 667.344 238.189C661.876 223.896 658.226 206.752 640.084 204.543C637.204 204.192 634.467 204.275 631.688 205.105C630.045 205.598 629.691 205.596 627.97 205.8C626.342 205.995 624.862 206.415 623.88 207.859C622.466 209.945 622.619 213.173 620.425 214.415C619.01 215.219 617.253 214.775 615.645 214.513C614.035 214.251 612.064 214.359 611.219 215.753C610.378 217.147 611.274 219.049 612.641 219.932C614.011 220.814 615.699 220.987 617.299 221.296C636.691 225.041 637.753 246.43 642.112 261.987C646.019 275.939 648.34 287.685 651.846 303.652Z" fill="#A780FF"/>
<g id="Group 170">
<path id="Fill 167" fill-rule="evenodd" clip-rule="evenodd" d="M517.379 277.679L533.488 273.619C536.843 283.437 542.633 292.933 551.666 298.015C560.7 303.096 563.362 288.715 570.196 280.913C598.42 303.096 640.591 445.932 649.45 469.318C650.486 472.05 648.365 474.943 645.451 474.776L473.584 482.346C471.213 482.209 469.476 480.064 469.833 477.714C473.855 451.229 464.903 326.724 514.265 280.913" fill="white"/>
<path id="Stroke 169" d="M517.379 277.679L533.488 273.619C536.843 283.437 542.633 292.933 551.666 298.015C560.7 303.096 563.362 288.715 570.196 280.913C598.42 303.096 640.591 445.932 649.45 469.318C650.486 472.05 648.365 474.943 645.451 474.776L473.584 482.346C471.213 482.209 469.476 480.064 469.833 477.714C473.855 451.229 464.903 326.724 514.265 280.913" stroke="#270570" stroke-width="4" stroke-linecap="round" stroke-linejoin="round"/>
</g>
<path id="Fill 171" fill-rule="evenodd" clip-rule="evenodd" d="M659.562 218.435C657.059 210.191 653.495 202.265 648.996 194.916C643.315 185.632 638.348 176.181 629.436 169.527C628.454 168.794 627.42 168.097 626.247 167.747C625.074 167.397 623.733 167.432 622.706 168.099C621.619 168.807 621.042 170.117 620.913 171.408C620.783 172.699 621.038 173.994 621.295 175.268C622.646 181.991 623.824 188.527 626.028 195.013C628.394 201.984 630.761 208.954 633.129 215.926" fill="#A780FF"/>
</g>
<g id="cuello">
<path id="Clip 175" fill-rule="evenodd" clip-rule="evenodd" d="M525.591 227.446C524.388 228.203 523.401 230.172 523.133 232.059C519.443 257.943 516.331 279.739 514.186 292.408C513.976 293.654 514.605 296.704 515.701 298.518C527.806 317.873 559.866 316.955 570.072 295.764C571 293.783 571.485 290.8 571.32 289.786C569.609 279.326 566.847 259.02 563.426 233.903C563.176 232.075 562.258 230.05 561.126 229.164C555.644 224.899 548.887 222.769 542.129 222.769C536.35 222.769 530.571 224.328 525.591 227.446Z" fill="#A780FF"/>
<path id="Clip 180" fill-rule="evenodd" clip-rule="evenodd" d="M543.194 217.333L543.375 217.334C549.361 217.37 555.332 219.191 560.188 222.795L560.24 222.835C561.229 223.61 562.025 225.304 562.243 226.839L562.277 227.065C563.411 234.561 567.808 243.665 562.551 250.987L562.239 251.408C551.734 265.198 519.741 267.691 520.218 264.677L520.268 264.36C521.932 253.885 523.949 240.392 526.206 225.263L526.219 225.184C526.477 223.598 527.35 221.96 528.404 221.328C532.86 218.665 538.029 217.333 543.194 217.333Z" fill="black"/>
<path id="Stroke 177" d="M522.17 241.819C518.832 265.104 516.046 284.245 514.123 295.11C519.564 307.212 531.971 313.004 544.082 312.49" stroke="#270570" stroke-width="4" stroke-linecap="round" stroke-linejoin="round"/>
</g>
<g id="Group 195">
<mask id="mask1_127_1494" style="mask-type:alpha" maskUnits="userSpaceOnUse" x="494" y="114" width="106" height="140">
<path id="Clip 194" fill-rule="evenodd" clip-rule="evenodd" d="M494.354 157.908V199.176C494.354 228.58 518.378 253.563 547.867 253.176C576.891 252.801 599.977 228.202 599.977 199.176V157.908C599.977 143.487 581.317 114.197 547.867 114.197C514.416 114.197 494.354 141.21 494.354 157.908Z" fill="white"/>
</mask>
<g mask="url(#mask1_127_1494)">
<path id="Fill 193" fill-rule="evenodd" clip-rule="evenodd" d="M490.737 256.798H603.598V110.578H490.737V256.798Z" fill="#A780FF"/>
</g>
</g>
<g id="Group 187">
<path id="Clip 186" fill-rule="evenodd" clip-rule="evenodd" d="M483.689 186.523C483.689 193.379 489.246 198.934 496.1 198.934C502.956 198.934 508.512 193.379 508.512 186.523C508.512 179.67 502.956 174.113 496.1 174.113C489.246 174.113 483.689 179.67 483.689 186.523Z" fill="#A780FF"/>
<path id="Stroke 188" d="M593.622 198.933C600.476 198.933 606.034 193.378 606.034 186.523C606.034 179.669 600.476 174.112 593.622 174.112" stroke="#270570" stroke-width="4" stroke-linecap="round" stroke-linejoin="round"/>
<path id="Stroke 190" d="M496.043 174.112C489.189 174.112 483.631 179.669 483.631 186.523C483.631 193.378 489.189 198.935 496.043 198.935" stroke="#270570" stroke-width="4" stroke-linecap="round" stroke-linejoin="round"/>
</g>
<g id="Group 207">
<path id="Stroke 199" d="M562.731 172.61C564.303 178.817 567.359 192.477 567.359 192.477H559.743" stroke="#270570" stroke-width="4" stroke-linecap="round" stroke-linejoin="round"/>
<path id="Stroke 201" d="M599.836 165.831V198.973C599.836 228.001 576.748 252.991 547.723 253.367C518.234 253.75 494.209 229.164 494.209 199.762V192.363" stroke="#270570" stroke-width="4" stroke-linecap="round" stroke-linejoin="round"/>
<path id="Stroke 203" d="M604.434 192.714L605.045 198.991" stroke="#ADEDDD" stroke-width="4" stroke-linecap="round" stroke-linejoin="round"/>
<path id="Stroke 205" d="M491.885 192.954C495.418 194.346 498.572 196.795 500.569 200.027C502.563 203.261 503.333 207.284 502.408 210.97C501.482 214.654 498.795 217.912 495.254 219.284C491.383 220.781 486.754 219.887 483.56 217.239C480.367 214.59 478.643 210.342 478.84 206.197C478.99 203.031 480.217 199.962 482.166 197.453" stroke="#ADEDDD" stroke-width="4" stroke-linecap="round" stroke-linejoin="round"/>
</g>
<g id="Group 210">
<mask id="mask2_127_1494" style="mask-type:alpha" maskUnits="userSpaceOnUse" x="453" y="16" width="101" height="99">
<path id="Clip 209" fill-rule="evenodd" clip-rule="evenodd" d="M505.941 16C497.64 16 489.096 18.0595 481.047 22.3219C473.07 26.5417 465.609 33.4837 463.269 42.4723C461.134 50.6437 466.585 61.0708 460.449 68.0824L455.279 73.9918C453.454 76.0776 453.18 79.0997 454.606 81.4775C456.205 84.1402 458.009 86.6847 459.896 89.1447C473.48 106.867 497.719 119.447 520.139 111.673C545.654 102.825 560.323 74.8053 551.254 48.6462C543.934 27.5404 525.612 16 505.945 16H505.941Z" fill="white"/>
</mask>
<g mask="url(#mask2_127_1494)">
<path id="Fill 208" fill-rule="evenodd" clip-rule="evenodd" d="M450.08 117.638H557.569V12.3839H450.08V117.638Z" fill="#4300D2"/>
</g>
</g>
<g id="Group 219">
<path id="Stroke 211" d="M463.291 42.4705C465.635 33.4822 473.096 26.5419 481.071 22.3205C508.197 7.95834 540.869 18.6331 551.278 48.6481C560.349 74.8073 545.677 102.823 520.164 111.673" stroke="#270570" stroke-width="4" stroke-linecap="round" stroke-linejoin="round"/>
<path id="Stroke 213" d="M499.872 104.176L511.546 109.839" stroke="#270570" stroke-width="4" stroke-linecap="round" stroke-linejoin="round"/>
<path id="Stroke 215" d="M525.878 95.1611L520.216 106.834" stroke="#270570" stroke-width="4" stroke-linecap="round" stroke-linejoin="round"/>
<path id="Stroke 217" d="M511.046 94.394L516.013 108.717" stroke="#270570" stroke-width="4" stroke-linecap="round" stroke-linejoin="round"/>
</g>
<g id="Group 222">
<mask id="mask3_127_1494" style="mask-type:alpha" maskUnits="userSpaceOnUse" x="501" y="104" width="37" height="31">
<path id="Clip 221" fill-rule="evenodd" clip-rule="evenodd" d="M528.399 104.227L503.104 112.998C501.972 113.39 501.371 114.627 501.766 115.758L507.921 133.517C508.315 134.651 509.551 135.251 510.685 134.855L535.98 126.088C537.11 125.692 537.711 124.456 537.318 123.324L531.163 105.567C530.85 104.671 530.009 104.105 529.109 104.105C528.873 104.105 528.635 104.145 528.399 104.227Z" fill="white"/>
</mask>
<g mask="url(#mask3_127_1494)">
<path id="Fill 220" fill-rule="evenodd" clip-rule="evenodd" d="M498.028 138.595H541.058V100.487H498.028V138.595Z" fill="#D3C4F6"/>
</g>
</g>
<g id="Group 227">
<path id="Stroke 223" fill-rule="evenodd" clip-rule="evenodd" d="M510.564 134.856L535.86 126.085C536.992 125.691 537.593 124.455 537.199 123.323L531.042 105.566C530.649 104.434 529.412 103.832 528.279 104.226L502.983 112.997C501.852 113.39 501.252 114.627 501.646 115.761L507.801 133.516C508.194 134.65 509.433 135.249 510.564 134.856Z" stroke="#270570" stroke-width="4" stroke-linecap="round" stroke-linejoin="round"/>
<path id="Fill 225" fill-rule="evenodd" clip-rule="evenodd" d="M606.366 139.4C606.956 140.08 607.569 140.861 607.537 141.761C607.511 142.514 607.038 143.173 606.553 143.747C602.03 149.055 594.747 151.158 587.793 151.757C576.963 152.686 565.885 150.569 556.164 145.709C553.682 153.413 545.968 158.411 538.096 160.328C530.226 162.244 522.004 161.699 513.904 161.926C508.586 162.074 503.152 162.576 498.097 164.332C496.639 164.834 495.355 165.599 494.081 166.355C493.12 166.927 492.166 167.497 491.151 167.942C484.07 161.926 488.224 149.113 491.526 143.243C501.902 124.796 521.418 114.138 542.338 112.465C544.107 112.324 545.885 112.257 547.663 112.257C569.693 112.255 591.987 122.93 606.366 139.4Z" fill="#4300D2"/>
</g>
<path id="Stroke 234" d="M555.896 145.71L547.935 138.474" stroke="#270570" stroke-width="4" stroke-linecap="round" stroke-linejoin="round"/>
<path id="Stroke 236" d="M586.286 151.44L575.434 139.922" stroke="#270570" stroke-width="4" stroke-linecap="round" stroke-linejoin="round"/>
<path id="Stroke 238" d="M542.006 112.635C565.735 110.738 590.548 121.773 606.098 139.585C606.692 140.263 607.301 141.044 607.273 141.946C607.246 142.697 606.774 143.357 606.287 143.93C601.76 149.244 594.467 151.348 587.508 151.944C576.665 152.879 565.58 150.76 555.85 145.898C553.365 153.604 545.639 158.605 537.762 160.524C529.885 162.441 513.514 161.225 505.088 162.591C496.66 163.959 495.846 165.371 490.769 168.143" stroke="#270570" stroke-width="4" stroke-linecap="round" stroke-linejoin="round"/>
<path id="Fill 240" fill-rule="evenodd" clip-rule="evenodd" d="M549.73 223.824L619.823 213.85C621.84 213.561 623.241 211.695 622.954 209.679L617.612 172.14C617.324 170.124 615.731 170.632 613.713 170.921L603.898 172.242C600.181 172.742 597.038 172.691 594.548 168.923L594.537 168.841C594.548 168.923 591.785 165.198 588.534 165.661L542.387 172.227C540.373 172.513 538.969 174.38 539.256 176.396L545.559 220.693C545.848 222.707 547.714 224.111 549.73 223.824Z" fill="white"/>
<path id="Stroke 242" fill-rule="evenodd" clip-rule="evenodd" d="M549.73 223.824L619.823 213.85C621.84 213.561 623.241 211.695 622.954 209.679L617.612 172.14C617.324 170.124 615.731 170.632 613.713 170.921L603.898 172.242C600.181 172.742 597.038 172.691 594.548 168.923L594.537 168.841C594.548 168.923 591.785 165.198 588.534 165.661L542.387 172.227C540.373 172.513 538.969 174.38 539.256 176.396L545.559 220.693C545.848 222.707 547.714 224.111 549.73 223.824Z" stroke="#270570" stroke-width="4"/>
<path id="Stroke 244" d="M614.603 170.592L613.722 164.411C613.565 163.305 612.542 162.537 611.44 162.694L601.392 164.126C600.286 164.283 599.518 165.306 599.675 166.41L600.533 172.436" stroke="#270570" stroke-width="4"/>
<path id="Fill 246" fill-rule="evenodd" clip-rule="evenodd" d="M556.601 196.758C558.143 207.596 568.18 215.134 579.018 213.59C589.857 212.048 597.393 202.012 595.849 191.174C594.307 180.333 584.272 172.799 573.432 174.339C562.593 175.883 555.059 185.92 556.601 196.758Z" fill="#D3C4F6"/>
<path id="Stroke 248" fill-rule="evenodd" clip-rule="evenodd" d="M571.818 194.594C572.164 197.028 574.418 198.72 576.855 198.375C579.287 198.026 580.98 195.772 580.634 193.338C580.289 190.904 578.033 189.21 575.599 189.557C573.165 189.904 571.471 192.158 571.818 194.594Z" stroke="#270570" stroke-width="4" stroke-linecap="round" stroke-linejoin="round"/>
<path id="Stroke 250" d="M594.875 201.729L597.249 203.4C598.055 204.08 598.626 205.047 598.785 206.175C599.132 208.609 597.44 210.865 595.004 211.212C593.929 211.363 592.887 211.118 592.031 210.586L589.776 209.107" stroke="#270570" stroke-width="4" stroke-linecap="round" stroke-linejoin="round"/>
<path id="Stroke 252" d="M618.171 177.26L597.639 180.183" stroke="#270570" stroke-width="4" stroke-linecap="round" stroke-linejoin="round"/>
<path id="Stroke 254" d="M551.417 186.654L540.853 188.159" stroke="#270570" stroke-width="4" stroke-linecap="round" stroke-linejoin="round"/>
<path id="Stroke 256" d="M559.832 213.153L544.715 215.303" stroke="#270570" stroke-width="4" stroke-linecap="round" stroke-linejoin="round"/>
<path id="Stroke 258" d="M622.036 204.421L603.546 207.051" stroke="#270570" stroke-width="4" stroke-linecap="round" stroke-linejoin="round"/>
<path id="Stroke 260" fill-rule="evenodd" clip-rule="evenodd" d="M556.601 196.758C558.143 207.596 568.18 215.134 579.018 213.59C589.857 212.048 597.393 202.012 595.849 191.174C594.307 180.333 584.272 172.799 573.432 174.339C562.593 175.883 555.059 185.92 556.601 196.758Z" stroke="#270570" stroke-width="4" stroke-linecap="round" stroke-linejoin="round"/>
<path id="Stroke 264" d="M662.338 224.042C662.338 224.042 728.708 370.084 661.337 374.096" stroke="#270570" stroke-width="4" stroke-linecap="round" stroke-linejoin="round"/>
<path id="Stroke 266" d="M650.524 348.911C650.524 348.911 646.543 332.323 637.916 329.004" stroke="#270570" stroke-width="4" stroke-linecap="round" stroke-linejoin="round"/>
<path id="Stroke 268" d="M591.816 294.328C601.082 302.456 612.294 312.636 625.773 325.362" stroke="#270570" stroke-width="4" stroke-linecap="round" stroke-linejoin="round"/>
<g id="mano">
<path id="Fill 262" fill-rule="evenodd" clip-rule="evenodd" d="M518.983 341.705C521.487 339.477 524.282 337.885 527.37 336.934C533.137 335.186 539.362 334.849 543.91 337.487C545.339 338.55 546.771 339.61 548.2 340.671C550.661 343.264 552.137 346.462 552.63 350.268C553.752 354.531 554.905 358.776 556.072 363.017C560.865 380 566.104 396.778 572.135 413.13C578.514 430.435 585.771 447.286 594.289 463.299C598.679 471.55 603.429 479.555 608.539 487.292C618.792 502.098 630.507 515.763 643.985 527.633C645.677 529.121 647.401 530.577 649.147 532.006C654.896 533.691 666.252 537.238 671.551 538.826C674.566 539.73 678.819 541.129 680.35 541.635C680.734 541.763 681.158 541.778 681.6 541.682C684.428 541.068 695.389 538.701 699.961 537.768C701.846 537.386 703.819 537.011 705.438 537.565C708.798 538.708 708.215 543.837 704.48 545.875C703.768 546.263 703.017 546.494 702.27 546.719C700.126 547.367 697.948 547.783 695.822 548.489C695.226 548.688 694.613 548.933 694.098 549.349C693.585 549.769 693.178 550.395 693.189 550.97C693.202 551.738 693.903 552.154 694.572 552.432C698.305 553.964 703.242 553.754 707.569 553.642C711.054 553.554 714.503 553.994 717.102 555.831C718.756 557.002 718.738 559.411 716.229 560.534C713.334 561.828 709.905 561.707 707.003 562.164C703.146 562.775 699.519 562.649 695.891 562.194C695.517 562.143 695.132 562.094 694.733 562.205C693.948 562.418 692.434 563.738 692.989 564.504C693.146 564.718 693.412 564.828 693.674 564.92C695.243 565.465 697.304 565.293 699.047 565.403C701.814 565.576 708.758 566.022 711.477 566.365C713.364 566.606 715.164 567.182 716.515 568.306C717.569 569.183 717.972 570.79 716.907 572.332C715.847 573.876 713.666 574.21 712.174 574.276C707.537 574.476 698.902 573.933 694.426 573.504C693.028 573.371 691.664 573.014 690.229 573.022C689.609 573.026 688.805 573.406 688.631 574.038C688.473 574.618 688.923 575.031 689.346 575.325C690.53 576.144 691.857 576.38 693.086 577.088C693.868 577.536 699.425 578.977 701.05 579.713C702.729 580.481 704.533 581.152 705.674 582.589C706.206 583.262 706.571 584.12 706.478 585.089C706.268 587.247 704.102 588.958 702.104 588.639C700.975 588.456 688.84 583.931 687.529 583.372C686.539 582.949 685.413 582.702 684.3 582.469C683.843 582.376 683.388 582.284 682.945 582.183C682.627 582.108 682.267 582.042 681.93 582.226C681.313 582.569 680.839 583.721 681.066 584.221C681.193 584.506 681.435 584.712 681.675 584.905C683.674 586.52 685.968 587.742 688.284 588.936C689.132 589.378 690.006 589.839 690.517 590.631C691.252 591.77 690.862 593.82 689.326 594.769C688.554 595.244 687.673 595.394 686.88 595.34C685.481 595.246 684.023 594.757 682.722 594.397C681.248 593.991 679.85 593.427 678.36 593.041C673.721 591.836 668.997 590.791 664.555 589.2C628.978 576.46 598.192 554.099 589.846 544.721C578.99 532.514 569.498 519.04 560.91 504.989C545.126 479.16 533.272 450.602 523.506 421.1C517.514 403.002 512.305 384.505 507.403 365.878C506.95 363.116 507.229 360.285 508.245 357.381C508.79 354.435 510.036 351.608 511.977 348.902C513.823 345.99 516.159 343.594 518.983 341.705Z" fill="#A780FF"/>
<path id="Stroke 270" d="M701.19 562.818C701.19 562.818 694.006 564.9 676.219 557.819" stroke="#270570" stroke-width="4" stroke-linecap="round" stroke-linejoin="round"/>
<path id="Stroke 272" d="M686.382 573.156C686.382 573.156 683.142 572.961 672.55 567.666" stroke="#270570" stroke-width="4" stroke-linecap="round" stroke-linejoin="round"/>
<path id="Stroke 274" d="M678.714 584.907C678.714 584.907 672.726 583.785 665.613 576.672" stroke="#270570" stroke-width="4" stroke-linecap="round" stroke-linejoin="round"/>
</g>
<g id="nubes">
<path id="Fill 532" fill-rule="evenodd" clip-rule="evenodd" d="M306.322 351.928H411.422C411.445 351.453 411.458 350.974 411.458 350.492C411.458 334.89 398.834 322.243 383.262 322.243C379.205 322.243 375.35 323.108 371.864 324.655C365.866 306.566 348.851 293.515 328.783 293.515C309.053 293.515 292.27 306.128 286.01 323.743C282.426 322.167 278.469 321.285 274.304 321.285C258.204 321.285 245.153 334.362 245.153 350.492C245.153 350.974 245.166 351.453 245.189 351.928H279.56" fill="white"/>
<path id="Stroke 534" d="M306.322 351.928H411.422C411.445 351.453 411.458 350.974 411.458 350.492C411.458 334.89 398.834 322.243 383.262 322.243C379.205 322.243 375.35 323.108 371.864 324.655C365.866 306.566 348.851 293.515 328.783 293.515C309.053 293.515 292.27 306.128 286.01 323.743C282.426 322.167 278.469 321.285 274.304 321.285C258.204 321.285 245.153 334.362 245.153 350.492C245.153 350.974 245.166 351.453 245.189 351.928H279.56" stroke="#270570" stroke-width="4.16" stroke-linecap="round" stroke-linejoin="round"/>
<path id="Fill 542" fill-rule="evenodd" clip-rule="evenodd" d="M123.833 72.8498C166.303 72.7975 203.068 97.3242 220.742 133.026C220.743 133.025 220.743 133.025 220.743 133.025C221.845 132.019 222.374 131.663 222.464 131.818C280.882 89.8099 328.723 145.393 328.768 180.765L231.932 180.886L116.971 181.154H116.969H16.0001C15.9252 121.413 64.2043 72.9234 123.833 72.8498Z" fill="white"/>
<path id="Stroke 544" d="M264.131 116.167C247.415 116.188 232.193 122.571 220.742 133.026C203.067 97.3244 166.302 72.7978 123.833 72.8498C64.204 72.9237 15.9249 121.413 16.0001 181.154H116.969" stroke="#270570" stroke-width="4" stroke-linecap="round" stroke-linejoin="round"/>
<path id="Stroke 546" d="M264.131 116.168C299.784 116.125 328.722 145.046 328.768 180.768L231.932 180.888L199.653 180.929" stroke="#270570" stroke-width="4" stroke-linecap="round" stroke-linejoin="round"/>
<path id="Fill 532_2" fill-rule="evenodd" clip-rule="evenodd" d="M786.434 184.422H850.745C850.76 184.131 850.768 183.839 850.768 183.544C850.768 174.016 843.043 166.291 833.515 166.291C831.032 166.291 828.673 166.82 826.54 167.764C822.87 156.717 812.458 148.746 800.179 148.746C788.105 148.746 777.836 156.45 774.005 167.208C771.812 166.245 769.391 165.707 766.842 165.707C756.991 165.707 749.004 173.693 749.004 183.544C749.004 183.839 749.012 184.131 749.027 184.422H770.058" fill="white"/>
<path id="Stroke 534_2" d="M786.434 184.422H850.746C850.76 184.131 850.768 183.839 850.768 183.544C850.768 174.016 843.043 166.291 833.515 166.291C831.032 166.291 828.673 166.82 826.54 167.764C822.87 156.717 812.458 148.746 800.179 148.746C788.105 148.746 777.836 156.45 774.005 167.208C771.812 166.245 769.391 165.707 766.842 165.707C756.991 165.707 749.004 173.693 749.004 183.544C749.004 183.839 749.012 184.131 749.027 184.422H770.058" stroke="#270570" stroke-width="4" stroke-linecap="round" stroke-linejoin="round"/>
</g>
</g>
</g>
</svg>
