<svg width="120" height="99" viewBox="0 0 120 99" fill="none" xmlns="http://www.w3.org/2000/svg">
<g clip-path="url(#clip0_103_913)">
<path fill-rule="evenodd" clip-rule="evenodd" d="M71.8807 58.2559L45.227 44.2724L43.2652 43.297C41.8988 42.6177 40.2412 43.126 39.5627 44.4323C38.9886 45.5378 39.2921 46.8942 40.2936 47.6985L41.0112 48.3653L52 58.2559" fill="white"/>
<path fill-rule="evenodd" clip-rule="evenodd" d="M51.8094 73.0019C49.7424 72.9707 48.344 72.9494 47.6142 72.9382C40.2958 72.8255 32.645 72.7022 24.6619 72.5682C22.4318 72.7212 18.9883 71.8701 17.2502 70.0321C15.5122 68.1942 10.762 58.5486 10.3969 56.3673C10.0319 54.1861 11.2117 51.7815 14.2999 52.4028C17.5794 53.9175 25.1876 58.6147 25.8763 58.7849C26.565 58.9552 52.7517 58.7351 84.17 58.7547C86.3422 58.6549 88.331 58.8051 90.0118 58.9013C94.3038 59.147 97.0912 62.6526 99.1899 65.988C101.289 69.3234 98.2868 72.0353 93.2534 72.2666C83.6442 72.7082 77.8066 72.6737 71.969 72.6392C67.5992 75.729 58.9085 82.159 45.8968 91.9293C44.7242 92.8098 43.04 92.5823 42.1349 91.4211C41.4023 90.4813 41.3885 89.1828 42.1011 88.2404L49.0194 79.0913" fill="white"/>
<path d="M71.8802 58.2559L45.2265 44.2724L43.2647 43.297C41.8983 42.6177 40.2407 43.126 39.5623 44.4323C38.9881 45.5378 39.2916 46.8942 40.2932 47.6985L41.0107 48.3653L44.1915 51.3215" stroke="#270570" stroke-width="3" stroke-linecap="round"/>
<path fill-rule="evenodd" clip-rule="evenodd" d="M12.7409 57.3657C12.1415 55.6237 11.7883 55.3141 12.6724 54.3857C12.8424 54.2072 13.2693 54.0715 13.727 54.2741C16.2551 55.3936 22.7194 59.2692 24.6497 60.3487C25.1497 60.6283 25.5985 60.693 25.6812 60.6985C26.1223 60.7279 28.4191 60.7797 28.4191 60.7797L39.9139 70.8742C39.9139 70.8742 24.2328 70.6634 23.3273 70.5961C22.4219 70.5287 20.2333 70.1282 18.7885 68.8435C17.3437 67.5589 13.3404 59.1078 12.7409 57.3657Z" fill="#CBF6EC"/>
<path d="M82.8695 64.8682L88.0185 64.7679" stroke="#270570" stroke-width="3" stroke-linecap="round"/>
<path d="M51.8099 73.0017C49.7429 72.9704 48.3445 72.9492 47.6147 72.9379C40.2963 72.8253 32.6455 72.702 24.6624 72.568C22.4323 72.7209 18.9888 71.8698 17.2507 70.0319C15.5127 68.194 10.7625 58.5483 10.3974 56.3671C10.0324 54.1858 11.2122 51.7812 14.3004 52.4026C17.5798 53.9173 25.1881 58.6145 25.8768 58.7847C26.5655 58.9549 52.7522 58.7349 84.1705 58.7545C86.3427 58.6547 88.3315 58.8048 90.0123 58.901C94.3043 59.1467 97.0917 62.6523 99.1904 65.9878C101.289 69.3232 98.2873 72.035 93.2539 72.2664C83.6447 72.708 77.8071 72.6735 71.9695 72.639C67.5997 75.7287 58.909 82.1588 45.8972 91.9291C44.7247 92.8096 43.0404 92.582 42.1353 91.4209C41.4028 90.4811 41.389 89.1825 42.1016 88.2401L49.0198 79.091" stroke="#270570" stroke-width="3" stroke-linecap="round" stroke-linejoin="round"/>
<path d="M96.389 43.5289H89.2519L82.8252 50.9075L76.5876 43.5289H67.8044C65.4341 43.5289 63.5127 41.7194 63.5127 39.4874V13.9099C63.5127 11.6778 65.4341 9.86841 67.8044 9.86841L97.846 9.86841C100.216 9.86841 102.138 11.6778 102.138 13.9099C102.138 13.9099 102.138 26.9812 102.138 32.1489C102.138 33.279 102.138 37.2135 102.138 40.1415C102.138 42.0133 100.62 43.5289 98.7484 43.5289H96.389Z" fill="#FFE3E0"/>
<path d="M96.389 43.5289H89.2519L82.8252 50.9075L76.5876 43.5289H67.8044C65.4341 43.5289 63.5127 41.7194 63.5127 39.4874V13.9099C63.5127 11.6778 65.4341 9.86841 67.8044 9.86841L97.846 9.86841C100.216 9.86841 102.138 11.6778 102.138 13.9099C102.138 13.9099 102.138 26.9812 102.138 32.1489" stroke="#270570" stroke-width="3" stroke-linecap="round" stroke-linejoin="round"/>
<path fill-rule="evenodd" clip-rule="evenodd" d="M79.2626 23.5465C80.0188 24.1089 81.0876 23.9518 81.65 23.1956C82.2123 22.4395 82.0552 21.3706 81.2991 20.8083L76.6405 17.3437L75.6223 16.5864L74.6041 17.3437L69.9455 20.8083C69.1893 21.3706 69.0322 22.4395 69.5946 23.1956C70.1569 23.9518 71.2258 24.1089 71.9819 23.5465L73.7769 22.2116V33.8758C73.7769 34.8181 74.5408 35.582 75.4831 35.582C76.4255 35.582 77.1894 34.8181 77.1894 33.8758L77.1894 22.0047L79.2626 23.5465Z" fill="#270570"/>
<path d="M89.134 34.9748C89.0053 34.9748 88.8894 34.9297 88.7864 34.8396C88.6963 34.7494 88.6512 34.6336 88.6512 34.4919V33.1401C87.6856 33.0242 86.8616 32.786 86.1792 32.4255C85.5097 32.0521 85.0012 31.5951 84.6535 31.0543C84.3188 30.5136 84.1385 29.9406 84.1128 29.3355C84.1128 29.2196 84.1514 29.1231 84.2287 29.0458C84.3188 28.9686 84.4218 28.9299 84.5377 28.9299H87.1062C87.2736 28.9299 87.4024 28.9557 87.4925 29.0072C87.5826 29.0587 87.6856 29.1488 87.8015 29.2776C88.2006 29.9857 88.9345 30.3398 90.0031 30.3398C90.6984 30.3398 91.2327 30.2368 91.606 30.0308C91.9923 29.8119 92.1854 29.5158 92.1854 29.1424C92.1854 28.872 92.0824 28.6531 91.8764 28.4858C91.6833 28.3055 91.3743 28.151 90.9494 28.0223C90.5374 27.8806 89.9259 27.7261 89.1147 27.5588C87.5569 27.2498 86.3917 26.7798 85.6192 26.1489C84.8467 25.5181 84.4604 24.6168 84.4604 23.4452C84.4604 22.4023 84.8338 21.5204 85.5805 20.7994C86.3273 20.0655 87.3509 19.6084 88.6512 19.4282V18.0763C88.6512 17.9347 88.6963 17.8188 88.7864 17.7287C88.8894 17.6386 89.0053 17.5935 89.134 17.5935H90.8142C90.9559 17.5935 91.0717 17.6386 91.1619 17.7287C91.252 17.8188 91.297 17.9347 91.297 18.0763V19.4668C92.1468 19.6213 92.8807 19.8981 93.4987 20.2973C94.1167 20.6835 94.5866 21.1341 94.9085 21.6491C95.2432 22.1513 95.4235 22.6405 95.4492 23.1169C95.4492 23.2328 95.4106 23.3358 95.3334 23.4259C95.2561 23.5031 95.1595 23.5418 95.0437 23.5418H92.3399C92.0438 23.5418 91.8249 23.4259 91.6833 23.1941C91.606 22.9238 91.4 22.6984 91.0653 22.5182C90.7434 22.3251 90.3507 22.2285 89.8872 22.2285C89.3465 22.2285 88.928 22.3251 88.6319 22.5182C88.3358 22.7113 88.1877 22.9946 88.1877 23.3679C88.1877 23.7413 88.3809 24.0374 88.7671 24.2563C89.1534 24.4623 89.8679 24.6748 90.9108 24.8936C92.121 25.1125 93.0867 25.3893 93.8077 25.7241C94.5287 26.0459 95.0565 26.4708 95.3913 26.9987C95.726 27.5137 95.8934 28.1703 95.8934 28.9686C95.8934 30.1016 95.475 31.035 94.6381 31.7689C93.8141 32.5028 92.7004 32.9598 91.297 33.1401V34.4919C91.297 34.6336 91.252 34.7494 91.1619 34.8396C91.0717 34.9297 90.9559 34.9748 90.8142 34.9748H89.134Z" fill="#270570"/>
</g>
<defs>
<clipPath id="clip0_103_913">
<rect width="120" height="99" fill="white"/>
</clipPath>
</defs>
</svg>
