<svg width="120" height="100" viewBox="0 0 120 100" fill="none" xmlns="http://www.w3.org/2000/svg">
<path fill-rule="evenodd" clip-rule="evenodd" d="M69.1824 48.2316L43.5879 46.5316L41.7226 46.4485C40.4235 46.3906 39.3072 47.3586 39.2293 48.6106C39.1633 49.6702 39.8678 50.6224 40.9258 50.9035L41.715 51.1756L53 55" fill="white"/>
<path fill-rule="evenodd" clip-rule="evenodd" d="M58.6306 66.6473C57.0091 67.3361 55.9121 67.8021 55.3395 68.0451C49.5979 70.4825 43.5935 73.0262 37.3265 75.6763C35.6415 76.5649 32.6646 77.0899 30.6761 76.2574C28.6876 75.4249 21.6579 69.5476 20.6208 67.9739C19.5837 66.4001 19.6734 64.1193 22.2942 63.5379C25.3724 63.5867 32.9217 64.6218 33.5171 64.5168C34.1125 64.4118 54.4423 55.2049 78.9314 44.3797C80.5896 43.5524 82.1912 42.9832 83.5341 42.4782C86.9634 41.1888 90.345 42.9587 93.1312 44.8337C95.9174 46.7086 94.5141 49.8575 90.6716 51.7745C83.3362 55.4342 78.7754 57.4215 74.2146 59.4088C71.8755 63.3242 67.322 71.3334 60.5539 83.4364C59.944 84.527 58.5531 84.9309 57.4471 84.3383C56.552 83.8588 56.0933 82.8516 56.3234 81.8714L58.5575 72.355" fill="white"/>
<path d="M69.1824 48.2316L43.5879 46.5316L41.7226 46.4485C40.4235 46.3906 39.3072 47.3586 39.2293 48.6106C39.1633 49.6702 39.8678 50.6224 40.9258 50.9035L41.715 51.1756L45.2136 52.3817" stroke="#270570" stroke-width="3" stroke-linecap="round"/>
<path fill-rule="evenodd" clip-rule="evenodd" d="M22.7914 67.9438C21.7232 66.7932 21.3412 66.6737 21.7098 65.6453C21.7807 65.4475 22.0664 65.1944 22.493 65.1944C24.8493 65.1944 31.2237 65.9841 33.1004 66.1592C33.5865 66.2046 33.9585 66.1001 34.0249 66.0759C34.3787 65.9467 36.1864 65.1944 36.1864 65.1944L48.6266 69.0944C48.6266 69.0944 36.3345 74.3407 35.6057 74.6006C34.8769 74.8606 33.0332 75.3036 31.4642 74.8011C29.8951 74.2985 23.8596 69.0944 22.7914 67.9438Z" fill="#CBF6EC"/>
<path d="M80.0268 49.5927L84.0045 47.7378" stroke="#270570" stroke-width="3" stroke-linecap="round"/>
<path d="M37.75 94.4793H46.5278" stroke="#270570" stroke-width="3" stroke-linecap="round"/>
<path d="M53.1113 94.4793H72.951" stroke="#270570" stroke-width="3" stroke-linecap="round"/>
<path d="M58.6306 66.6473C57.0091 67.3361 55.9121 67.8021 55.3395 68.0451C49.5979 70.4825 43.5935 73.0262 37.3265 75.6763C35.6415 76.5649 32.6646 77.0899 30.6761 76.2574C28.6876 75.4249 21.6579 69.5476 20.6208 67.9739C19.5837 66.4001 19.6734 64.1193 22.2942 63.5379C25.3724 63.5867 32.9217 64.6218 33.5171 64.5168C34.1125 64.4118 54.4423 55.2049 78.9314 44.3797C80.5896 43.5524 82.1912 42.9832 83.5341 42.4782C86.9634 41.1888 90.345 42.9587 93.1312 44.8337C95.9174 46.7086 94.5141 49.8575 90.6716 51.7745C83.3362 55.4342 78.7754 57.4215 74.2146 59.4088C71.8755 63.3242 67.322 71.3334 60.5539 83.4364C59.944 84.527 58.5531 84.9309 57.4471 84.3383C56.552 83.8588 56.0933 82.8516 56.3234 81.8714L58.5575 72.355" stroke="#270570" stroke-width="3" stroke-linecap="round" stroke-linejoin="round"/>
<path d="M80.9092 34.7068H74.8268L69.3499 40.995L64.0341 34.7068H56.549C54.5291 34.7068 52.8916 33.1648 52.8916 31.2626V9.46517C52.8916 7.56301 54.5291 6.021 56.549 6.021H82.1509C84.1708 6.021 85.8083 7.56301 85.8083 9.46517C85.8083 9.46517 85.8083 20.6047 85.8083 25.0087C85.8083 25.9235 85.8083 28.9947 85.8083 31.4389C85.8083 33.2445 84.3446 34.7068 82.539 34.7068H80.9092Z" fill="#FFE3E0"/>
<path d="M80.9092 34.7068H74.8268L69.3499 40.995L64.0341 34.7068H56.549C54.5291 34.7068 52.8916 33.1648 52.8916 31.2626V9.46517C52.8916 7.56301 54.5291 6.021 56.549 6.021H82.1509C84.1708 6.021 85.8083 7.56301 85.8083 9.46517C85.8083 9.46517 85.8083 20.6047 85.8083 25.0087" stroke="#270570" stroke-width="3" stroke-linecap="round" stroke-linejoin="round"/>
<path fill-rule="evenodd" clip-rule="evenodd" d="M72.5165 14.2726C72.625 14.2726 72.7124 14.1845 72.7122 14.0761C72.7113 13.2906 73.3557 12.2268 73.9516 12.7386C73.9668 12.7516 73.9812 12.7658 73.9948 12.7811L76.8202 15.4547C77.1738 15.8541 77.1738 16.5037 76.8202 16.9051L73.9966 19.5609C73.4498 20.1754 72.7125 19.0279 72.7125 18.2055V18.1277C72.7125 18.0082 72.616 17.911 72.4965 17.9101L65.4025 17.8552C63.5969 17.8552 63.8219 19.3843 63.8219 19.3843C63.8219 20.6473 63.341 21.6316 62.3128 21.684C61.3275 21.684 60.5723 21.0479 60.5723 19.3843C60.5723 17.7208 61.3275 14.2726 65.4025 14.2726H72.5165ZM65.1411 28.2495C65.0326 28.2495 64.9453 28.3375 64.9454 28.4459C64.9463 29.2314 64.3019 30.2952 63.706 29.7834C63.6908 29.7704 63.6764 29.7562 63.6628 29.7409L60.8374 27.0673C60.4838 26.6679 60.4838 26.0183 60.8374 25.6169L63.661 22.9611C64.2078 22.3466 64.9452 23.4941 64.9452 24.3165V24.3943C64.9452 24.5139 65.0416 24.611 65.1611 24.612L72.2551 24.6668C74.0608 24.6668 73.8357 23.1377 73.8357 23.1377C73.8357 21.8747 74.3166 20.8904 75.3448 20.838C76.3301 20.838 77.0853 21.4741 77.0853 23.1377C77.0853 24.8012 76.3301 28.2495 72.2551 28.2495H65.1411Z" fill="#270570"/>
</svg>
