<svg width="72" height="72" viewBox="0 0 72 72" fill="none" xmlns="http://www.w3.org/2000/svg">
<path d="M46 60C46 65.5228 41.5228 70 36 70C30.4772 70 26 65.5228 26 60H46Z" fill="white"/>
<path d="M46.0421 60.3578C46.0421 65.8923 41.5555 70.3788 36.0211 70.3788C30.4866 70.3788 26 65.8923 26 60.3578" stroke="#270570" stroke-width="3"/>
<path d="M36 10.8421V2" stroke="#270570" stroke-width="3" stroke-linecap="round"/>
<path d="M35.5 11.5C24.8066 11.5 19.5 18.5 19 29C18.4286 41 17.5 43.5 12 52C8.86718 56.8416 12 59.5 15 60C16.389 60.2315 42.7228 60 57 60C60.7309 60 62.5 55.5 59.5 52C54.3571 46 52.4133 36.1748 53 30C53 19.1092 46.1933 11.5 35.5 11.5Z" fill="#CBF6EC"/>
<path d="M19.2 6.68652C15.4667 9.29986 8 17.3265 8 28.5265" stroke="#270570" stroke-width="3" stroke-linecap="round"/>
<path d="M53.3895 6.12646C56.9263 8.80681 64 17.0393 64 28.5265" stroke="#270570" stroke-width="3" stroke-linecap="round"/>
<path d="M52.8002 30.2951C52.8002 19.5517 46.3939 11.4316 35.6505 11.4316C24.9071 11.4316 18.6106 19.5517 18.6106 30.2951C19.0035 35.6003 17 45.5 12.126 51.5159C8.49301 56 11.8547 59.7685 14.4294 59.7685C25.5 59.7685 43.1719 59.7685 57.5158 59.7685C60.5177 59.7685 63.4106 55.6966 59.2297 51.5159C56.5 48.7863 55.4571 47.0359 54.5139 43.2632" stroke="#270570" stroke-width="3" stroke-linecap="round"/>
<path d="M30.9895 19.6842C29.4175 20.8632 26.2737 24.8716 26.2737 31.4737" stroke="#270570" stroke-width="3" stroke-linecap="round"/>
</svg>
