<svg width="72" height="72" viewBox="0 0 72 72" fill="none" xmlns="http://www.w3.org/2000/svg">
<circle cx="36" cy="36" r="27" fill="white"/>
<path fill-rule="evenodd" clip-rule="evenodd" d="M10.7813 29.2961C8.81507 29.0866 6.79197 29.7228 5.30376 31.211C2.65885 33.8559 2.70504 38.1904 5.40694 40.8923C6.82729 42.3126 8.69879 42.9991 10.5388 42.9465" fill="white"/>
<path d="M10.7813 29.2961C8.81507 29.0866 6.79197 29.7228 5.30376 31.211C2.65885 33.8559 2.70504 38.1904 5.40694 40.8923C6.82729 42.3126 8.69879 42.9991 10.5388 42.9465" stroke="#270570" stroke-width="3"/>
<path fill-rule="evenodd" clip-rule="evenodd" d="M61.2187 42.7039C63.1849 42.9134 65.208 42.2772 66.6962 40.789C69.3412 38.1441 69.295 33.8096 66.5931 31.1077C65.1727 29.6874 63.3012 29.0009 61.4612 29.0535" fill="white"/>
<path d="M61.2187 42.7039C63.1849 42.9134 65.208 42.2772 66.6962 40.789C69.3412 38.1441 69.295 33.8096 66.5931 31.1077C65.1727 29.6874 63.3012 29.0009 61.4612 29.0535" stroke="#270570" stroke-width="3"/>
<path d="M36 9C21.0883 9 9 21.0883 9 36C9 45.7288 14.1455 54.2557 21.8635 59.0079C23.3727 59.9372 24.9802 60.7221 26.6669 61.3434C29.5755 62.4149 32.7194 63 36 63C50.9117 63 63 50.9117 63 36C63 30.8827 61.5764 26.0979 59.1036 22.0201C58.4625 20.9628 57.7508 19.953 56.9751 18.9973C56.4777 18.3844 55.9539 17.7937 55.4056 17.227" stroke="#270570" stroke-width="3" stroke-linecap="round"/>
<path d="M28.4851 50C28.9762 50.4562 29.5051 50.8685 30.0661 51.2313C30.703 51.643 31.3813 51.9908 32.0931 52.266C33.3204 52.7408 34.6471 53 36.0314 53C38.8815 53 41.4872 51.9012 43.4851 50.0851" stroke="#270570" stroke-width="3" stroke-linecap="round"/>
<path d="M36 27C40.9706 27 45 22.9706 45 18C45 15.0239 43.5555 12.3852 41.3293 10.7468C39.8374 9.64877 37.9945 9 36 9" stroke="#270570" stroke-width="3" stroke-linecap="round" stroke-linejoin="round"/>
<path fill-rule="evenodd" clip-rule="evenodd" d="M27 44C28.1046 44 29 43.1046 29 42C29 40.8954 28.1046 40 27 40C25.8954 40 25 40.8954 25 42C25 43.1046 25.8954 44 27 44Z" fill="#270570"/>
<path fill-rule="evenodd" clip-rule="evenodd" d="M45 44C46.1046 44 47 43.1046 47 42C47 40.8954 46.1046 40 45 40C43.8954 40 43 40.8954 43 42C43 43.1046 43.8954 44 45 44Z" fill="#270570"/>
</svg>
