<svg width="120" height="100" viewBox="0 0 120 100" fill="none" xmlns="http://www.w3.org/2000/svg">
<path d="M26.7627 30.604C26.7627 27.8426 29.0013 25.604 31.7627 25.604H103.92C106.682 25.604 108.92 27.8426 108.92 30.604V70.7327L99.0844 81.1471H31.7627C29.0013 81.1471 26.7627 78.9085 26.7627 76.1471V30.604Z" fill="#CBF6EC"/>
<path d="M25.9912 44.587V30.7469C25.9912 27.9065 28.2938 25.604 31.1341 25.604H104.42C107.26 25.604 109.563 27.9065 109.563 30.7469V70.3647L99.1637 80.8899C92.4543 80.8899 84.1814 80.8899 82.0591 80.8899M63.9199 80.8899C60.1182 80.8899 53.1606 80.8899 42.7056 80.8899M25.9912 65.6866V75.747C25.9912 78.5874 28.2938 80.8899 31.1341 80.8899C34.6504 80.8899 38.6509 80.8899 42.7056 80.8899M42.7056 35.8898V80.8899M91.5629 35.8898V80.8899" stroke="#270570" stroke-width="3" stroke-linecap="round" stroke-linejoin="round"/>
<path d="M56.8481 24.3183C56.8481 22.7743 56.8481 20.4582 56.8481 17.3701C56.8481 14.8167 59.0355 12.7468 61.7339 12.7468H76.3911C79.0894 12.7468 81.2768 14.8167 81.2768 17.3701C81.2768 20.4314 81.2768 17.9015 81.2768 19.4674" stroke="#270570" stroke-width="3" stroke-linecap="round" stroke-linejoin="round"/>
<path d="M62.4721 41.0325H78.7054V52.6039H56.8481V48.1022" stroke="#270570" stroke-width="3" stroke-linecap="round" stroke-linejoin="round"/>
<path d="M45.4546 83.5508C45.4546 85.976 43.4886 87.942 41.0634 87.942V87.942H32.2699L25.6941 96.1897L19.3118 87.942H5.93359V57.8927C5.93359 55.3978 7.89961 53.3752 10.3248 53.3752H41.0634C43.4886 53.3752 45.4546 55.3978 45.4546 57.8927C45.4546 57.8927 45.4546 77.1061 45.4546 82.8825" fill="white"/>
<path d="M39.5726 87.942H32.2699L25.6941 96.1897L19.3118 87.942H5.93359V57.8927C5.93359 55.3978 7.89961 53.3752 10.3248 53.3752H41.0634C43.4886 53.3752 45.4546 55.3978 45.4546 57.8927C45.4546 57.8927 45.4546 69.4454 45.4546 75.2218" stroke="#270570" stroke-width="3" stroke-linecap="round" stroke-linejoin="round"/>
<path d="M26.0231 81.0401C26.0231 81.0401 32.9393 73.4623 32.9393 69.5965C32.9393 65.7308 29.8428 62.5969 26.0231 62.5969C22.2034 62.5969 19.1069 65.7308 19.1069 69.5965C19.1069 73.4623 26.0231 81.0401 26.0231 81.0401Z" fill="#CBF6EC" stroke="#270570" stroke-width="3" stroke-linecap="round" stroke-linejoin="round"/>
<path d="M26.0237 71.1594C26.9331 71.1594 27.6704 70.4221 27.6704 69.5127C27.6704 68.6032 26.9331 67.866 26.0237 67.866C25.1142 67.866 24.377 68.6032 24.377 69.5127C24.377 70.4221 25.1142 71.1594 26.0237 71.1594Z" fill="#270570"/>
<path fill-rule="evenodd" clip-rule="evenodd" d="M96.2936 40.9066C104.173 38.8988 110 31.7554 110 23.251C110 13.189 101.843 5.03223 91.7812 5.03223C81.7193 5.03223 73.5625 13.189 73.5625 23.251C73.5625 31.7551 79.3891 38.8984 87.268 40.9064L90.9174 47.1501C91.3035 47.8106 92.258 47.8106 92.6441 47.1501L96.2936 40.9066Z" fill="white"/>
<path d="M96.2936 40.9066L95.9232 39.453C95.5342 39.5521 95.2012 39.803 94.9986 40.1496L96.2936 40.9066ZM87.268 40.9064L88.5631 40.1494C88.3605 39.8029 88.0275 39.552 87.6385 39.4528L87.268 40.9064ZM90.9174 47.1501L92.2124 46.3932L92.2124 46.3932L90.9174 47.1501ZM92.6441 47.1501L91.3491 46.3932L91.3491 46.3932L92.6441 47.1501ZM108.5 23.251C108.5 31.0532 103.154 37.6105 95.9232 39.453L96.664 42.3601C105.192 40.1872 111.5 32.4576 111.5 23.251H108.5ZM91.7812 6.53223C101.015 6.53223 108.5 14.0175 108.5 23.251H111.5C111.5 12.3606 102.672 3.53223 91.7812 3.53223V6.53223ZM75.0625 23.251C75.0625 14.0175 82.5477 6.53223 91.7812 6.53223V3.53223C80.8909 3.53223 72.0625 12.3606 72.0625 23.251H75.0625ZM87.6385 39.4528C80.408 37.6101 75.0625 31.0529 75.0625 23.251H72.0625C72.0625 32.4573 78.3703 40.1866 86.8976 42.3599L87.6385 39.4528ZM92.2124 46.3932L88.5631 40.1494L85.973 41.6633L89.6224 47.907L92.2124 46.3932ZM91.3491 46.3932C91.5421 46.0629 92.0194 46.0629 92.2124 46.3932L89.6224 47.907C90.5875 49.5583 92.9739 49.5583 93.9391 47.9071L91.3491 46.3932ZM94.9986 40.1496L91.3491 46.3932L93.9391 47.9071L97.5886 41.6635L94.9986 40.1496Z" fill="#270570"/>
<path fill-rule="evenodd" clip-rule="evenodd" d="M95.6133 16.6038C98.2297 16.6038 100.372 18.6293 100.551 21.1944L100.56 21.1943L100.558 21.334C100.561 21.4029 100.563 21.4721 100.563 21.5417C100.563 21.7757 100.546 22.0059 100.515 22.2312C100.124 26.7354 97.1499 30.4596 91.5934 33.4038C85.7456 30.1499 82.7378 26.2677 82.57 21.7573C82.567 21.6857 82.5654 21.6139 82.5654 21.5417L82.5675 21.6848C82.5642 21.5755 82.5625 21.4658 82.5625 21.3557C82.5896 20.7982 82.7028 20.2651 82.8934 19.7703C83.6071 17.9182 85.407 16.6038 87.5146 16.6038C89.1888 16.6038 90.6688 17.4331 91.5644 18.7025C92.4595 17.4329 93.9394 16.6038 95.6133 16.6038Z" fill="#FFE3E0" stroke="#270570" stroke-width="3" stroke-linecap="round" stroke-linejoin="round"/>
</svg>
