<svg width="120" height="100" viewBox="0 0 120 100" fill="none" xmlns="http://www.w3.org/2000/svg">
<path d="M26.7627 30.604C26.7627 27.8426 29.0013 25.604 31.7627 25.604H103.92C106.682 25.604 108.92 27.8426 108.92 30.604V70.7327L99.0844 81.1471H31.7627C29.0013 81.1471 26.7627 78.9085 26.7627 76.1471V30.604Z" fill="#CBF6EC"/>
<path d="M25.9912 44.587V30.7469C25.9912 27.9065 28.2938 25.604 31.1341 25.604H86M82.0591 80.8899C84.1814 80.8899 92.4543 80.8899 99.1637 80.8899L109.563 70.3647V50.5558M63.9199 80.8899C60.1182 80.8899 53.1606 80.8899 42.7056 80.8899M25.9912 65.6866V75.747C25.9912 78.5874 28.2938 80.8899 31.1341 80.8899C34.6504 80.8899 38.6509 80.8899 42.7056 80.8899M42.7056 35.8898V80.8899M91.5629 35.8898V80.8899" stroke="#270570" stroke-width="3" stroke-linecap="round" stroke-linejoin="round"/>
<path d="M56.8481 24.3183C56.8481 22.7743 56.8481 20.4582 56.8481 17.3701C56.8481 14.8167 59.0355 12.7468 61.7339 12.7468H76.3911C79.0894 12.7468 81.2768 14.8167 81.2768 17.3701C81.2768 20.4314 81.2768 17.9015 81.2768 19.4674" stroke="#270570" stroke-width="3" stroke-linecap="round" stroke-linejoin="round"/>
<path d="M62.4721 41.0325H78.7054V52.6039H56.8481V48.1022" stroke="#270570" stroke-width="3" stroke-linecap="round" stroke-linejoin="round"/>
<path d="M98 4C98 11.4558 93.9706 17.5 89 17.5C93.9706 17.5 98 23.5442 98 31C98 23.5442 102.029 17.5 107 17.5C102.029 17.5 98 11.4558 98 4Z" fill="#FFE3E0" stroke="#270570" stroke-width="3" stroke-linejoin="round"/>
<path d="M109.5 24C109.5 29.5228 106.59 34 103 34C106.59 34 109.5 38.4772 109.5 44C109.5 38.4772 112.41 34 116 34C112.41 34 109.5 29.5228 109.5 24Z" fill="#FFE3E0" stroke="#270570" stroke-width="3" stroke-linejoin="round"/>
</svg>
