<svg width="120" height="100" viewBox="0 0 120 100" fill="none" xmlns="http://www.w3.org/2000/svg">
<path d="M27.3618 32.0845C27.3618 29.3231 29.6004 27.0845 32.3618 27.0845H102.94C105.702 27.0845 107.94 29.323 107.94 32.0845V71.3459L98.2936 81.5601H32.3618C29.6004 81.5601 27.3618 79.3215 27.3618 76.5601V32.0845Z" fill="#CBF6EC"/>
<path d="M26.6055 45.7026V32.1285C26.6055 29.3428 28.8638 27.0845 31.6495 27.0845H103.527C106.313 27.0845 108.571 29.3428 108.571 32.1285V70.9849L98.3717 81.3079C91.7913 81.3079 83.6773 81.3079 81.5958 81.3079M63.8052 81.3079C60.0766 81.3079 53.2527 81.3079 42.9986 81.3079M26.6055 66.3967V76.2638C26.6055 79.0496 28.8638 81.3079 31.6495 81.3079C35.0983 81.3079 39.0219 81.3079 42.9986 81.3079M42.9986 37.1725V81.3079M90.917 37.1725V81.3079" stroke="#270570" stroke-width="3" stroke-linecap="round" stroke-linejoin="round"/>
<path d="M56.8696 25.8235C56.8696 24.3091 56.8696 22.0375 56.8696 19.0088C56.8696 16.5045 59.015 14.4744 61.6614 14.4744H76.037C78.6834 14.4744 80.8288 16.5045 80.8288 19.0088C80.8288 22.0113 80.8288 19.53 80.8288 21.0658" stroke="#270570" stroke-width="3" stroke-linecap="round" stroke-linejoin="round"/>
<path d="M62.3855 42.2166H78.3068V53.5656H56.8696V49.1504" stroke="#270570" stroke-width="3" stroke-linecap="round" stroke-linejoin="round"/>
<path d="M45.6951 83.9179C45.6951 86.2965 43.7669 88.2247 41.3883 88.2247V88.2247H32.7637L26.3143 96.3139L20.0547 88.2247H6.93359V58.7529C6.93359 56.3059 8.86183 54.3223 11.2404 54.3223H41.3883C43.7669 54.3223 45.6951 56.3059 45.6951 58.7529C45.6951 58.7529 45.6951 77.5971 45.6951 83.2624" fill="white"/>
<path d="M39.9261 88.2247H32.7637L26.3143 96.3139L20.0547 88.2247H6.93359V58.7529C6.93359 56.3059 8.86183 54.3223 11.2404 54.3223H41.3883C43.7669 54.3223 45.6951 56.3059 45.6951 58.7529C45.6951 58.7529 45.6951 70.0836 45.6951 75.749" stroke="#270570" stroke-width="3" stroke-linecap="round" stroke-linejoin="round"/>
<path d="M26.6368 81.4554C26.6368 81.4554 33.42 74.0233 33.42 70.2318C33.42 66.4403 30.3831 63.3667 26.6368 63.3667C22.8905 63.3667 19.8535 66.4403 19.8535 70.2318C19.8535 74.0233 26.6368 81.4554 26.6368 81.4554Z" fill="#CBF6EC" stroke="#270570" stroke-width="3" stroke-linecap="round" stroke-linejoin="round"/>
<path d="M26.6375 71.7648C27.5295 71.7648 28.2526 71.0417 28.2526 70.1497C28.2526 69.2578 27.5295 68.5347 26.6375 68.5347C25.7455 68.5347 25.0225 69.2578 25.0225 70.1497C25.0225 71.0417 25.7455 71.7648 26.6375 71.7648Z" fill="#270570"/>
<path fill-rule="evenodd" clip-rule="evenodd" d="M95.557 42.0931C103.285 40.1239 109 33.1178 109 24.7768C109 14.9082 101 6.9082 91.1313 6.9082C81.2627 6.9082 73.2627 14.9082 73.2627 24.7768C73.2627 33.1175 78.9774 40.1235 86.7049 42.0929L90.2675 48.1882C90.6536 48.8487 91.6081 48.8487 91.9942 48.1883L95.557 42.0931Z" fill="white"/>
<path d="M95.557 42.0931L95.1866 40.6395C94.7976 40.7387 94.4646 40.9896 94.262 41.3361L95.557 42.0931ZM86.7049 42.0929L88 41.336C87.7974 40.9894 87.4644 40.7385 87.0754 40.6394L86.7049 42.0929ZM90.2675 48.1882L88.9725 48.9451L88.9725 48.9451L90.2675 48.1882ZM91.9942 48.1883L93.2892 48.9452L93.2892 48.9452L91.9942 48.1883ZM107.5 24.7768C107.5 32.4155 102.266 38.8356 95.1866 40.6395L95.9274 43.5466C104.304 41.4123 110.5 33.82 110.5 24.7768H107.5ZM91.1313 8.4082C100.171 8.4082 107.5 15.7367 107.5 24.7768H110.5C110.5 14.0798 101.828 5.4082 91.1313 5.4082V8.4082ZM74.7627 24.7768C74.7627 15.7367 82.0912 8.4082 91.1313 8.4082V5.4082C80.4343 5.4082 71.7627 14.0798 71.7627 24.7768H74.7627ZM87.0754 40.6394C79.9963 38.8352 74.7627 32.4153 74.7627 24.7768H71.7627C71.7627 33.8198 77.9585 41.4118 86.3345 43.5465L87.0754 40.6394ZM91.5626 47.4313L88 41.336L85.4099 42.8498L88.9725 48.9451L91.5626 47.4313ZM90.6992 47.4313C90.8923 47.101 91.3695 47.1011 91.5626 47.4313L88.9725 48.9451C89.9377 50.5964 92.324 50.5964 93.2892 48.9452L90.6992 47.4313ZM94.262 41.3361L90.6992 47.4313L93.2892 48.9452L96.852 42.85L94.262 41.3361Z" fill="#270570"/>
<circle cx="90.9998" cy="25.0001" r="11.3333" fill="#CBF6EC"/>
<path d="M90.9998 13.6667C84.7403 13.6667 79.6665 18.7405 79.6665 25.0001C79.6665 31.2597 84.7403 36.3334 90.9998 36.3334C97.2594 36.3334 102.333 31.2597 102.333 25.0001" stroke="#270570" stroke-width="3" stroke-linecap="round" stroke-linejoin="round"/>
<path d="M87.6943 26.8889L91.9443 24.9606V18.3889" stroke="#270570" stroke-width="3" stroke-linecap="round" stroke-linejoin="round"/>
</svg>
