<svg width="72" height="72" viewBox="0 0 72 72" fill="none" xmlns="http://www.w3.org/2000/svg">
<path d="M4 22C4 19.7909 5.79086 18 8 18H65C67.2091 18 69 19.7909 69 22V52L60.5 61H8C5.79086 61 4 59.2091 4 57V22Z" fill="white"/>
<rect x="27" y="30" width="17" height="9" fill="#CBF6EC"/>
<path d="M3 32.7645V22C3 19.7909 4.79086 18 7 18H64C66.2091 18 68 19.7909 68 22V52.8137L59.9117 61C54.6934 61 48.2589 61 46.6082 61M32.5 61C29.5431 61 24.1316 61 16 61M3 49.1752V57C3 59.2091 4.79086 61 7 61C9.73493 61 12.8464 61 16 61M16 26V61M54 26V61" stroke="#270570" stroke-width="3" stroke-linecap="round" stroke-linejoin="round"/>
<path d="M27 17C27 15.7991 27 13.9977 27 11.5959C27 9.60992 28.7013 8 30.8 8H42.2C44.2987 8 46 9.60992 46 11.5959C46 13.9769 46 12.0092 46 13.2271" stroke="#270570" stroke-width="3" stroke-linecap="round" stroke-linejoin="round"/>
<path d="M31.3742 30H44V39H27V35.4986" stroke="#270570" stroke-width="3" stroke-linecap="round" stroke-linejoin="round"/>
<path fill-rule="evenodd" clip-rule="evenodd" d="M57.68 29.9021C63.8082 28.3404 68.3402 22.7845 68.3402 16.1701C68.3402 8.34416 61.996 2 54.1701 2C46.3442 2 40 8.34416 40 16.1701C40 22.7845 44.532 28.3405 50.6602 29.9021L53.3067 34.4299C53.6927 35.0904 54.6473 35.0904 55.0333 34.4299L57.68 29.9021Z" fill="white"/>
<path d="M57.68 29.9021L57.3096 28.4485C56.9206 28.5477 56.5876 28.7986 56.385 29.1451L57.68 29.9021ZM50.6602 29.9021L51.9553 29.1452C51.7527 28.7986 51.4196 28.5477 51.0306 28.4486L50.6602 29.9021ZM53.3067 34.4299L54.6017 33.673H54.6017L53.3067 34.4299ZM55.0333 34.4299L56.3283 35.1869L55.0333 34.4299ZM66.8402 16.1701C66.8402 22.0823 62.7893 27.0521 57.3096 28.4485L58.0504 31.3556C64.827 29.6287 69.8402 23.4867 69.8402 16.1701H66.8402ZM54.1701 3.5C61.1676 3.5 66.8402 9.17259 66.8402 16.1701H69.8402C69.8402 7.51573 62.8244 0.5 54.1701 0.5V3.5ZM41.5 16.1701C41.5 9.17259 47.1726 3.5 54.1701 3.5V0.5C45.5157 0.5 38.5 7.51573 38.5 16.1701H41.5ZM51.0306 28.4486C45.5509 27.0522 41.5 22.0823 41.5 16.1701H38.5C38.5 23.4868 43.5132 29.6288 50.2898 31.3557L51.0306 28.4486ZM54.6017 33.673L51.9553 29.1452L49.3652 30.659L52.0116 35.1868L54.6017 33.673ZM53.7383 33.673C53.9314 33.3427 54.4087 33.3427 54.6017 33.673L52.0116 35.1868C52.9768 36.8381 55.3631 36.8381 56.3283 35.1869L53.7383 33.673ZM56.385 29.1451L53.7383 33.673L56.3283 35.1869L58.975 30.659L56.385 29.1451Z" fill="#270570"/>
<path fill-rule="evenodd" clip-rule="evenodd" d="M57.1506 11C59.1856 11 60.8517 12.5754 60.9906 14.5705L60.9977 14.5704L60.9967 14.6791C60.9989 14.7326 61 14.7865 61 14.8406C61 15.0226 60.9873 15.2016 60.9628 15.3769C60.6588 18.8801 58.3457 21.7767 54.024 24.0667C49.4758 21.5358 47.1364 18.5164 47.0058 15.0083C47.0035 14.9526 47.0023 14.8967 47.0023 14.8406L47.0039 14.9519C47.0013 14.8669 47 14.7815 47 14.696C47.0211 14.2624 47.1091 13.8477 47.2574 13.4628C47.8125 12.0224 49.2124 11 50.8516 11C52.1537 11 53.3049 11.645 54.0015 12.6323C54.6976 11.6449 55.8486 11 57.1506 11Z" fill="#FFE3E0" stroke="#270570" stroke-width="3" stroke-linecap="round" stroke-linejoin="round"/>
</svg>
