<svg width="72" height="73" viewBox="0 0 72 73" fill="none" xmlns="http://www.w3.org/2000/svg">
<path d="M66 37.3927L66.2743 52.7643C66.3142 55.001 64.512 56.8357 62.275 56.8357H45.9832L36 69.4423L26.3105 56.8357H6V10.9051C6 7.09155 8.98477 4.00009 12.6667 4.00009H59.3333C63.0152 4.00009 66 7.09155 66 10.9051C66 10.9051 66 28.5635 66 37.3927Z" fill="white" stroke="#270570" stroke-width="3" stroke-linecap="round" stroke-linejoin="round"/>
<path d="M57.07 57.3661H45.9832L36 69.9727L26.3105 57.3661H6V11.4355C6 7.62197 8.98477 4.53052 12.6667 4.53052H59.3333C63.0152 4.53052 66 7.62197 66 11.4355C66 11.4355 66 29.0939 66 37.9231" stroke="#270570" stroke-width="3" stroke-linecap="round" stroke-linejoin="round"/>
<path d="M35.9998 46.3334C44.4682 46.3334 51.3332 39.4684 51.3332 31.0001C51.3332 22.5317 44.4682 15.6667 35.9998 15.6667C27.5315 15.6667 20.6665 22.5317 20.6665 31.0001C20.6665 39.4684 27.5315 46.3334 35.9998 46.3334Z" fill="#CBF6EC"/>
<path d="M35.7685 39.3057C35.6407 39.3057 35.5257 39.2609 35.4235 39.1715C35.334 39.0821 35.2893 38.9671 35.2893 38.8265V37.4848C34.331 37.3698 33.5132 37.1334 32.836 36.7757C32.1715 36.4051 31.6668 35.9515 31.3218 35.4148C30.9896 34.8782 30.8107 34.3096 30.7852 33.709C30.7852 33.594 30.8235 33.4982 30.9002 33.4215C30.9896 33.3448 31.0918 33.3065 31.2068 33.3065H33.756C33.9221 33.3065 34.0499 33.3321 34.1393 33.3832C34.2288 33.4343 34.331 33.5237 34.446 33.6515C34.8421 34.3543 35.5704 34.7057 36.631 34.7057C37.321 34.7057 37.8513 34.6034 38.2218 34.399C38.6052 34.1818 38.7968 33.8879 38.7968 33.5173C38.7968 33.249 38.6946 33.0318 38.4902 32.8657C38.2985 32.6868 37.9918 32.5334 37.5702 32.4057C37.1613 32.2651 36.5543 32.1118 35.7493 31.9457C34.2032 31.639 33.0468 31.1726 32.2802 30.5465C31.5135 29.9204 31.1302 29.0259 31.1302 27.8632C31.1302 26.8282 31.5007 25.9529 32.2418 25.2373C32.9829 24.509 33.9988 24.0554 35.2893 23.8765V22.5348C35.2893 22.3943 35.334 22.2793 35.4235 22.1898C35.5257 22.1004 35.6407 22.0557 35.7685 22.0557H37.436C37.5765 22.0557 37.6915 22.1004 37.781 22.1898C37.8704 22.2793 37.9152 22.3943 37.9152 22.5348V23.9148C38.7585 24.0682 39.4868 24.3429 40.1002 24.739C40.7135 25.1223 41.1799 25.5696 41.4993 26.0807C41.8315 26.579 42.0104 27.0646 42.036 27.5373C42.036 27.6523 41.9977 27.7546 41.921 27.844C41.8443 27.9207 41.7485 27.959 41.6335 27.959H38.9502C38.6563 27.959 38.439 27.844 38.2985 27.614C38.2218 27.3457 38.0174 27.1221 37.6852 26.9432C37.3657 26.7515 36.976 26.6557 36.516 26.6557C35.9793 26.6557 35.564 26.7515 35.2702 26.9432C34.9763 27.1348 34.8293 27.4159 34.8293 27.7865C34.8293 28.1571 35.021 28.4509 35.4043 28.6682C35.7877 28.8726 36.4968 29.0834 37.5318 29.3007C38.7329 29.5179 39.6913 29.7926 40.4068 30.1248C41.1224 30.4443 41.6463 30.8659 41.9785 31.3898C42.3107 31.9009 42.4768 32.5526 42.4768 33.3448C42.4768 34.4693 42.0615 35.3957 41.231 36.124C40.4132 36.8523 39.3079 37.3059 37.9152 37.4848V38.8265C37.9152 38.9671 37.8704 39.0821 37.781 39.1715C37.6915 39.2609 37.5765 39.3057 37.436 39.3057H35.7685Z" fill="#270570"/>
<path d="M35.9998 15.6667C27.5315 15.6667 20.6665 22.5317 20.6665 31.0001C20.6665 39.4684 27.5315 46.3334 35.9998 46.3334V46.3334C44.4682 46.3334 51.3332 39.4684 51.3332 31.0001" stroke="#270570" stroke-width="3" stroke-linecap="round" stroke-linejoin="round"/>
</svg>
