<svg width="72" height="72" viewBox="0 0 72 72" fill="none" xmlns="http://www.w3.org/2000/svg">
<path d="M66 52.4786C66 54.6877 64.2091 56.4786 62 56.4786H45.9832L36 69L26.3105 56.4786H6V10.8583C6 7.07057 8.98477 4 12.6667 4H59.3333C63.0152 4 66 7.07057 66 10.8583C66 10.8583 66 28.3974 66 37.167" fill="white"/>
<path d="M23.272 35.8587C20.2461 40.6428 23.3204 42.3333 25.248 42.3333H46.5368C48.4643 42.3333 52.0663 40.7549 48.4589 35.8587L39.5589 20.04V20.04C39.5105 20.04 38.0029 17 36.07 17H35.7201C33.7926 17 32.2742 19.889 32.2312 20.04" fill="#FFE3E0"/>
<path d="M32.4411 20.04C32.4895 20.04 33.9971 17 35.93 17H36.2799C38.2074 17 39.7258 19.889 39.7688 20.04L48.728 35.8587C51.7539 40.6428 48.6796 42.3333 46.752 42.3333H25.4632C23.5357 42.3333 19.9337 40.7549 23.5411 35.8587" stroke="#270570" stroke-width="3" stroke-linecap="round" stroke-linejoin="round"/>
<path d="M34.4899 33.3484C34.3921 33.3484 34.3041 33.3142 34.2259 33.2457C34.1575 33.1675 34.1233 33.0795 34.1233 32.9817V26.6897C34.1233 26.5822 34.1575 26.4942 34.2259 26.4257C34.3041 26.3573 34.3921 26.3231 34.4899 26.3231H36.1766C36.2841 26.3231 36.3721 26.3573 36.4406 26.4257C36.509 26.4942 36.5433 26.5822 36.5433 26.6897V32.9817C36.5433 33.0795 36.509 33.1675 36.4406 33.2457C36.3721 33.3142 36.2841 33.3484 36.1766 33.3484H34.4899ZM34.4313 36.5897C34.3237 36.5897 34.2357 36.5555 34.1673 36.4871C34.0988 36.4186 34.0646 36.3306 34.0646 36.2231V34.4191C34.0646 34.3115 34.0988 34.2235 34.1673 34.1551C34.2357 34.0768 34.3237 34.0377 34.4313 34.0377H36.2353C36.333 34.0377 36.4161 34.0768 36.4846 34.1551C36.5628 34.2235 36.6019 34.3115 36.6019 34.4191V36.2231C36.6019 36.3208 36.5677 36.4088 36.4993 36.4871C36.4308 36.5555 36.3428 36.5897 36.2353 36.5897H34.4313Z" fill="#270570"/>
<path d="M57.07 56.4786H45.9832L36 69L26.3105 56.4786H6V10.8583C6 7.07057 8.98477 4 12.6667 4H59.3333C63.0152 4 66 7.07057 66 10.8583C66 10.8583 66 28.3974 66 37.167" stroke="#270570" stroke-width="3" stroke-linecap="round" stroke-linejoin="round"/>
</svg>
