<svg width="72" height="73" viewBox="0 0 72 73" fill="none" xmlns="http://www.w3.org/2000/svg">
<path d="M66 53.3662C66 55.5753 64.2091 57.3662 62 57.3662H45.9832L36 69.9728L26.3105 57.3662H6V11.4356C6 7.62207 8.98477 4.53061 12.6667 4.53061H59.3333C63.0152 4.53061 66 7.62207 66 11.4356C66 11.4356 66 29.094 66 37.9232" fill="white"/>
<path d="M57.07 57.3661H45.9832L36 69.9727L26.3105 57.3661H6V11.4355C6 7.62197 8.98477 4.53052 12.6667 4.53052H59.3333C63.0152 4.53052 66 7.62197 66 11.4355C66 11.4355 66 29.0939 66 37.9231" stroke="#270570" stroke-width="3" stroke-linecap="round" stroke-linejoin="round"/>
<path d="M47.5317 25.2867L41.1387 31.7232C40.5919 32.2737 40.5917 33.1682 41.1387 33.719L47.5317 40.1555C48.156 40.784 48.1553 41.8058 47.5296 42.4358L45.649 44.3291C45.0226 44.9598 44.0093 44.9606 43.3841 44.3312L36.9912 37.8948C36.4444 37.3442 35.5559 37.344 35.0088 37.8948L28.6159 44.3312C27.9916 44.9598 26.9766 44.9591 26.351 44.3291L24.4704 42.4358C23.8439 41.8051 23.8432 40.7848 24.4683 40.1555L30.8613 33.719C31.4081 33.1685 31.4083 32.274 30.8613 31.7232L24.4683 25.2867C23.844 24.6582 23.8447 23.6363 24.4704 23.0064L26.351 21.113C26.9774 20.4823 27.9907 20.4816 28.6159 21.1109L35.0088 27.5474C35.5556 28.0979 36.4441 28.0982 36.9912 27.5474L43.3841 21.1109C44.0084 20.4824 45.0234 20.4831 45.649 21.113L47.5296 23.0064C48.1561 23.6371 48.1568 24.6573 47.5317 25.2867Z" fill="#CBF6EC"/>
<path d="M44.6049 28.2334L41.1387 31.7232C40.5919 32.2737 40.5917 33.1682 41.1387 33.719L47.5317 40.1555C48.156 40.784 48.1553 41.8058 47.5296 42.4358L45.649 44.3291C45.0226 44.9598 44.0093 44.9606 43.3841 44.3312L36.9912 37.8948C36.4444 37.3442 35.5559 37.344 35.0088 37.8948L28.6159 44.3312C27.9916 44.9598 26.9766 44.9591 26.351 44.3291L24.4704 42.4358C23.8439 41.8051 23.8432 40.7848 24.4683 40.1555L30.8613 33.719C31.4081 33.1685 31.4083 32.274 30.8613 31.7232L24.4683 25.2867C23.844 24.6582 23.8447 23.6363 24.4704 23.0064L26.351 21.113C26.9774 20.4823 27.9907 20.4816 28.6159 21.1109L35.0088 27.5474C35.5556 28.0979 36.4441 28.0982 36.9912 27.5474L43.3841 21.1109C44.0084 20.4824 45.0234 20.4831 45.649 21.113" stroke="#270570" stroke-width="3" stroke-linecap="round" stroke-linejoin="round"/>
</svg>
