<?xml version="1.0" encoding="UTF-8"?>
<svg width="557px" height="221px" viewBox="0 0 557 221" version="1.1" xmlns="http://www.w3.org/2000/svg" xmlns:xlink="http://www.w3.org/1999/xlink">
    <title>banner_device_qr_Desktop</title>
    <defs>
        <rect id="path-1" x="0" y="0" width="557" height="221" rx="8"></rect>
        <rect id="path-3" x="0" y="0" width="557" height="221" rx="8"></rect>
        <rect id="path-5" x="0" y="0" width="30.9391125" height="31.455867"></rect>
    </defs>
    <g id="Page-1" stroke="none" stroke-width="1" fill="none" fill-rule="evenodd">
        <g id="banner_device_qr_Desktop">
            <g id="Group-1868-Copy">
                <rect id="Rectangle" fill="#FFFFFF" fill-rule="nonzero" x="0" y="0" width="557" height="221" rx="8"></rect>
                <g id="Clipped">
                    <mask id="mask-2" fill="white">
                        <use xlink:href="#path-1"></use>
                    </mask>
                    <g id="Rectangle"></g>
                </g>
            </g>
            <g id="banner_device_qr">
                <rect id="Rectangle" fill="#FFFFFF" fill-rule="nonzero" x="0" y="0" width="557" height="221" rx="8"></rect>
                <g id="Clipped">
                    <mask id="mask-4" fill="white">
                        <use xlink:href="#path-3"></use>
                    </mask>
                    <use id="Rectangle" fill="#FFFFFF" xlink:href="#path-3"></use>
                    <g id="Group" mask="url(#mask-4)" stroke="#D3C5F4" stroke-linecap="round" stroke-linejoin="round" stroke-width="70">
                        <g transform="translate(-52.568227, 111.716934)" id="Path">
                            <polyline transform="translate(120.659475, 106.017143) rotate(-90.000000) translate(-120.659475, -106.017143) " points="14.6423319 226.676617 226.676617 135.072657 226.676617 -14.6423319"></polyline>
                        </g>
                    </g>
                </g>
            </g>
            <g id="Group-30" transform="translate(52.000000, 40.000000)">
                <g id="Group-52">
                    <path d="M9.57304,0 L67.42696,0 C72.1617193,0 76,3.83828075 76,8.57304 L76,140.42696 C76,145.161719 72.1617193,149 67.42696,149 L9.57304,149 C4.83828075,149 1,145.161719 1,140.42696 L1,8.57304 C1,3.83828075 4.83828075,0 9.57304,0 Z" id="Rectangle" fill="#FFFFFF"></path>
                    <path d="M13.9498228,7.00573542 L21.2263274,7 L23.0052817,11.9211984 L55.0334116,11.9211984 L56.9729211,7 L64.0501773,7.00566369 C67.3343759,7.01305521 69.9954042,9.77343009 70,13.1776165 L70,134.832809 C70,138.238854 67.3361727,141 64.0501755,141 L15.0831244,141 C11.1712228,141 8,137.712922 8,133.658105 L8,13.1776165 C8.00452615,9.77340207 10.6655966,7.01301558 13.9498228,7.00573542 Z" id="Rectangle" fill="#4300D2" fill-rule="nonzero"></path>
                    <path d="M50.1280581,142 C42.2908535,142 30.5350467,142 14.8606375,142 C11.0870374,142 8,138.551128 8,134.336094 L8,122 M25.7234567,142 C34.0381024,142 46.510071,142 63.1393625,142 C66.9129626,142 70,138.551128 70,134.336094 L70,122 M8,115 L8,104.203335 L8,14.0901487 C8,10.190673 11.1410856,7 14.9807543,7 L20.2851084,7 C21.0395383,7 21.6509113,7.62094945 21.6509113,8.38719673 L21.6509113,9.64311938 C21.6509113,11.0053046 22.7379072,12.1093754 24.0787047,12.1093754 L53.9209158,12.1093754 C55.2617134,12.1093754 56.3491363,11.0053046 56.3491363,9.64311938 L56.3491363,8.38719673 C56.3491363,7.62094945 56.9605092,7 57.7148917,7 L63.0191982,7 C66.858535,7 70,10.190673 70,14.0901487 L70,105.107844 M77.3193117,129.002842 L77.3193117,11.3774488 C77.3193117,5.11978333 72.1106009,0 65.7438817,0 L24.3193117,0 M0.31931172,124.833709 L0.31931172,137.421813 C0.31931172,143.679885 5.52698001,148.799262 11.8930969,148.799262 L65.7451645,148.799262 C72.1111781,148.799262 77.3193117,143.679885 77.3193117,137.421813 L77.3193117,137.24227 M0.31931172,93.4462351 L0.31931172,107.040041 L0.31931172,118.344971 M0.31931172,79.364366 L0.31931172,82.4254319 M11.7720327,0 C5.4725067,0 0.31931172,5.11978333 0.31931172,11.3774488 L0.31931172,79.364366" id="Stroke-42" stroke="#270570" stroke-width="4" stroke-linecap="round" stroke-linejoin="round"></path>
                </g>
                <g id="logo" transform="translate(23.960000, 58.496000)">
                    <g id="Group" opacity="0.3">
                        <g id="Clipped">
                            <mask id="mask-6" fill="white">
                                <use xlink:href="#path-5"></use>
                            </mask>
                            <g id="SVGID_1_"></g>
                            <path d="M0.000199584,31.4550677 L15.2294567,31.4560668 C23.9057724,31.4560668 30.9391125,24.4142334 30.9391125,15.7281333 C30.9391125,7.0420332 23.9055728,0 15.2294567,0 L0.000199584,0.000999068354 L0.000199584,31.4550677 Z" id="Path" fill="#FFFFFF" mask="url(#mask-6)"></path>
                        </g>
                    </g>
                    <path d="M0.073047744,0 C0.048698496,0 0.024349248,0.000799254684 0.000199584,0.000999068354 L0.000199584,31.4550677 C0.024349248,31.4550677 0.048698496,31.4560668 0.073047744,31.4560668 C8.74956298,31.4560668 15.7829031,24.4144332 15.7829031,15.7281333 C15.7829031,7.04183339 8.74956298,0 0.073047744,0" id="Path" fill="#FFFFFF"></path>
                </g>
            </g>
        </g>
    </g>
</svg>