<?xml version="1.0" encoding="UTF-8"?>
<svg width="350px" height="243px" viewBox="0 0 350 243" version="1.1" xmlns="http://www.w3.org/2000/svg" xmlns:xlink="http://www.w3.org/1999/xlink">
    <title>banner_device_qr_tablet</title>
    <defs>
        <rect id="path-1" x="0" y="0" width="350" height="243" rx="8"></rect>
        <rect id="path-3" x="0" y="0" width="27.2100152" height="27.6558293"></rect>
    </defs>
    <g id="Page-1" stroke="none" stroke-width="1" fill="none" fill-rule="evenodd">
        <g id="Clipped">
            <mask id="mask-2" fill="white">
                <use xlink:href="#path-1"></use>
            </mask>
            <g id="Rectangle"></g>
            <g id="Group" mask="url(#mask-2)">
                <g transform="translate(-88.568227, 61.000000)" id="Group-9">
                    <g transform="translate(0.000000, 0.000000)">
                        <polyline id="Path" stroke="#D3C5F4" stroke-width="65" stroke-linecap="round" stroke-linejoin="round" transform="translate(120.659475, 165.734077) rotate(-90.000000) translate(-120.659475, -165.734077) " points="14.6423319 286.393551 226.676617 194.789591 226.676617 45.0746023"></polyline>
                        <g id="Group-30" transform="translate(121.000000, 0.000000)">
                            <g id="Group-52">
                                <path d="M8.423745,0 L59.29543,0 C63.4620181,0 66.8397052,3.37768706 66.8397052,7.5442752 L66.8397052,123.455725 C66.8397052,127.622313 63.4620181,131 59.29543,131 L8.423745,131 C4.25715686,131 0.879469805,127.622313 0.879469805,123.455725 L0.879469805,7.5442752 C0.879469805,3.37768706 4.25715686,0 8.423745,0 Z" id="Rectangle" fill="#FFFFFF"></path>
                                <path d="M12.2684479,6.15940497 L18.667914,6.15436242 L20.2324506,10.4810536 L48.4002238,10.4810536 L50.1059638,6.15436242 L56.3301969,6.1593419 C59.2185505,6.16584049 61.5588445,8.59274726 61.5628863,11.5856897 L61.5628863,118.544281 C61.5628863,121.538858 59.2201306,123.966443 56.3301953,123.966443 L13.2651525,123.966443 C9.82475316,123.966443 7.03575844,121.076462 7.03575844,117.511489 L7.03575844,11.5856897 C7.03973905,8.59272263 9.38007015,6.16580565 12.2684479,6.15940497 Z" id="Rectangle" fill="#4300D2" fill-rule="nonzero"></path>
                                <path d="M44.0861135,124.845638 C37.1935287,124.845638 26.8546515,124.845638 13.069482,124.845638 C9.75071461,124.845638 7.03575844,121.813408 7.03575844,118.107573 L7.03575844,107.261745 M22.6230034,124.845638 C29.9354833,124.845638 40.9042031,124.845638 55.5291628,124.845638 C58.8479302,124.845638 61.5628863,121.813408 61.5628863,118.107573 L61.5628863,107.261745 M7.03575844,101.107383 L7.03575844,91.6150124 L7.03575844,12.3879831 C7.03575844,8.95958494 9.79824836,6.15436242 13.1751211,6.15436242 L17.8401403,6.15436242 C18.5036387,6.15436242 19.0413227,6.70029784 19.0413227,7.37397833 L19.0413227,8.47817878 C19.0413227,9.67580475 19.9973028,10.6464979 21.1764937,10.6464979 L47.4218173,10.6464979 C48.6010083,10.6464979 49.5573639,9.67580475 49.5573639,8.47817878 L49.5573639,7.37397833 C49.5573639,6.70029784 50.095048,6.15436242 50.7585046,6.15436242 L55.4234819,6.15436242 C58.8000627,6.15436242 61.5628863,8.95958494 61.5628863,12.3879831 L61.5628863,92.410252 M68,113.418606 L68,10.0029919 C68,4.50128602 63.4190961,0 57.8197588,0 L21.3881003,0 M0.280825016,109.753127 L0.280825016,120.82052 C0.280825016,126.322583 4.86081203,130.823512 10.4596196,130.823512 L57.820887,130.823512 C63.4196038,130.823512 68,126.322583 68,120.82052 L68,120.662667 M0.280825016,82.1574282 L0.280825016,94.1090291 L0.280825016,104.048263 M0.280825016,69.7767245 L0.280825016,72.4679971 M10.3531473,0 C4.8129044,0 0.280825016,4.50128602 0.280825016,10.0029919 L0.280825016,69.7767245" id="Stroke-42" stroke="#270570" stroke-width="3" stroke-linecap="round" stroke-linejoin="round"></path>
                            </g>
                            <g id="logo" transform="translate(21.072097, 51.429369)">
                                <g id="Group" opacity="0.3">
                                    <g id="Clipped">
                                        <mask id="mask-4" fill="white">
                                            <use xlink:href="#path-3"></use>
                                        </mask>
                                        <g id="SVGID_1_"></g>
                                        <path d="M0.000175528102,27.6551266 L13.3938473,27.656005 C21.0244049,27.656005 27.2100152,21.4648629 27.2100152,13.8280903 C27.2100152,6.19131778 21.0242294,0 13.3938473,0 L0.000175528102,0.000878375533 L0.000175528102,27.6551266 Z" id="Path" fill="#FFFFFF" mask="url(#mask-4)"></path>
                                    </g>
                                </g>
                                <path d="M0.0642432852,0 C0.0428288568,0 0.0214144284,0.000702700426 0.000175528102,0.000878375533 L0.000175528102,27.6551266 C0.0214144284,27.6551266 0.0428288568,27.656005 0.0642432852,27.656005 C7.69497644,27.656005 13.8805867,21.4650386 13.8805867,13.8280903 C13.8805867,6.19114211 7.69497644,0 0.0642432852,0" id="Path" fill="#FFFFFF"></path>
                            </g>
                        </g>
                    </g>
                </g>
            </g>
        </g>
    </g>
</svg>