<?xml version="1.0" encoding="UTF-8"?>
<svg width="557px" height="221px" viewBox="0 0 557 221" version="1.1" xmlns="http://www.w3.org/2000/svg" xmlns:xlink="http://www.w3.org/1999/xlink">
    <title>banner_descuentos</title>
    <defs>
        <rect id="path-1" x="0" y="0" width="557" height="221" rx="8"></rect>
        <rect id="path-3" x="0" y="0" width="132" height="132"></rect>
    </defs>
    <g id="Page-1" stroke="none" stroke-width="1" fill="none" fill-rule="evenodd">
        <g id="banner_descuentos">
            <g id="Group-1868-Copy-2">
                <rect id="Rectangle" fill="#FFFFFF" fill-rule="nonzero" x="0" y="0" width="557" height="221" rx="8"></rect>
                <g id="Clipped">
                    <mask id="mask-2" fill="white">
                        <use xlink:href="#path-1"></use>
                    </mask>
                    <use id="Rectangle" fill="#EBE5F5" xlink:href="#path-1"></use>
                    <g id="Group" mask="url(#mask-2)" stroke="#4300D2" stroke-linecap="round" stroke-linejoin="round" stroke-width="70">
                        <g transform="translate(-24.000000, -81.283066)" id="Path">
                            <polyline transform="translate(106.375361, 106.017143) scale(-1, 1) rotate(-270.000000) translate(-106.375361, -106.017143) " points="0.358218546 212.392504 212.392504 120.788544 212.392504 -0.358218546"></polyline>
                        </g>
                    </g>
                </g>
            </g>
            <g id="Group-6" transform="translate(44.000000, 53.000000)">
                <g id="Correo">
                    <mask id="mask-4" fill="white">
                        <use xlink:href="#path-3"></use>
                    </mask>
                    <g id="Mask"></g>
                    <polygon id="Rectangle" fill="#FFFFFF" mask="url(#mask-4)" points="2.75 57.75 66 8.25 129.25 57.75 129.25 123.75 2.75 123.75"></polygon>
                    <polygon id="Rectangle" fill="#ADEDDD" mask="url(#mask-4)" points="24.75 24.75 107.25 24.75 107.25 79.75 90.75 96.25 41.25 96.25 24.75 79.75"></polygon>
                    <g id="Group" mask="url(#mask-4)" stroke="#270570" stroke-linecap="round" stroke-linejoin="round">
                        <g transform="translate(2.062500, 8.250000)">
                            <path d="M127.1875,49.5 L127.1875,115.5 L0.6875,115.5 L0.6875,82.5 M0.6875,66 L0.6875,49.5" id="Shape" stroke-width="4"></path>
                            <line x1="0.6875" y1="49.5" x2="11.6889449" y2="40.8901736" id="Path" stroke-width="5.46"></line>
                            <line x1="116.1875" y1="49.5" x2="127.188945" y2="40.8901736" id="Path" stroke-width="4" transform="translate(121.688222, 45.195087) scale(-1, 1) translate(-121.688222, -45.195087) "></line>
                            <polyline id="Path" stroke-width="4" points="127.1875 49.5 88.6875 88 39.1875 88 0.6875 49.5 0.6875 49.5"></polyline>
                            <path d="M22.6875,71.5 L22.6875,16.5 L39.1875,16.5 M61.1875,16.5 L105.1875,16.5 L105.1875,71.5" id="Shape" stroke-width="4"></path>
                            <line x1="63.9375" y1="0" x2="85.0199933" y2="16.4993425" id="Path" stroke-width="4"></line>
                            <line x1="56.8975" y1="0" x2="63.9375" y2="5.50825509" id="Path" stroke-width="4" transform="translate(60.417500, 2.754128) scale(-1, 1) translate(-60.417500, -2.754128) "></line>
                        </g>
                    </g>
                </g>
                <path d="M90.9871914,65.4177354 C90.3887739,64.3738501 89.7852417,63.3299648 89.1868243,62.2809624 C88.8901729,61.7436685 88.8901729,61.1142671 89.1868243,60.5769732 C89.2635445,60.4388119 89.3402646,60.3057677 89.4169848,60.1727235 C89.7903564,59.5177367 90.1688427,58.8678669 90.5422143,58.2128801 C90.7979482,57.7676937 91.0587969,57.3225074 91.3145308,56.8722039 C91.902719,55.8180845 91.7492786,54.4671741 90.8900125,53.6023868 C90.4961822,53.2083713 89.9489115,52.952517 89.4732463,52.6761944 C88.7878793,52.2821789 88.1025123,51.8881634 87.4171452,51.4941479 C86.9619388,51.2331766 86.3890947,50.9875565 86.0770993,50.5526043 C85.7037277,50.0306617 85.7497598,49.4370798 85.7497598,48.8383809 L85.7497598,46.489639 C85.7497598,45.9523451 85.7906772,45.3945829 85.713957,44.8624061 C85.5349433,43.6394229 84.4915487,42.7336989 83.2844844,42.6057717 C82.7883605,42.5546009 82.2666632,42.5955376 81.7654246,42.5955376 L79.4331309,42.5955376 C78.8244841,42.5955376 78.2311813,42.6313572 77.7197133,42.2168733 C77.310539,41.8842628 77.0650344,41.3111493 76.8041858,40.8608459 C76.4103555,40.1751565 76.0165252,39.4894672 75.6226948,38.8088949 C75.3362728,38.3125377 75.0754242,37.7547754 74.6406764,37.3709941 C73.7558369,36.5880801 72.4873965,36.4652701 71.4644606,37.0383836 C70.3443458,37.667785 69.2344604,38.3227718 68.124575,38.9624074 C67.981364,39.0442808 67.8432677,39.1312712 67.7000567,39.2029104 C67.1885887,39.4741159 66.5697125,39.4382963 66.068474,39.1619737 C65.6183822,38.9112366 65.1785198,38.6502653 64.728428,38.3892939 C64.0737491,38.0157468 63.4241848,37.6370825 62.7695059,37.2584182 C62.1199416,36.884871 61.4703773,36.5880801 60.6929461,36.6853047 C59.7467304,36.8029977 59.0409047,37.3709941 58.5703542,38.1794935 C58.2327853,38.7628411 57.8952165,39.3513059 57.5576477,39.9346535 C57.2354229,40.4975328 56.9080834,41.0604122 56.5858586,41.6232915 C56.2380604,42.2322246 55.6856751,42.5853034 54.9747346,42.5853034 C53.6653768,42.5904205 52.3560189,42.5853034 51.0415463,42.5853034 C50.1925095,42.5853034 49.3792755,42.8155722 48.7910874,43.4705591 C48.3767984,43.9310967 48.1415231,44.5042102 48.0903764,45.1182603 C48.0750323,45.2871241 48.0852617,45.461105 48.0852617,45.6299688 C48.0852617,46.9245912 48.1006057,48.2192137 48.0852617,49.5138361 C48.080147,50.2506963 47.665858,50.7675219 47.0520965,51.1206007 C46.4639083,51.4583283 45.8757202,51.801173 45.2875321,52.1389006 C44.7300321,52.4612769 44.172532,52.7836532 43.615032,53.1060296 C42.7608806,53.5972697 42.1931512,54.4467058 42.1675778,55.4496544 C42.147119,56.1762804 42.4744585,56.7647451 42.8222567,57.3685611 C43.2109723,58.0388992 43.5945733,58.7143544 43.9832889,59.3898096 C44.2339082,59.8247618 44.5305596,60.259714 44.7402614,60.7151345 C44.970422,61.2166088 44.9243899,61.7999565 44.6584266,62.2758454 C44.5765917,62.4242408 44.4896422,62.5726363 44.4026926,62.7159146 C43.7787017,63.8007366 43.1393668,64.8804415 42.5256053,65.9703805 C41.9220732,67.0500854 42.0959723,68.4624008 43.0268439,69.3067197 C43.4360182,69.6802669 43.9730595,69.9310041 44.4487247,70.2073266 C45.1340917,70.6013422 45.8143441,70.9953577 46.4997111,71.3893732 C46.9702616,71.6605787 47.5277616,71.9010817 47.824413,72.3820876 C48.1517525,72.9040303 48.0903764,73.4976121 48.0903764,74.0860769 L48.0903764,76.4450529 C48.0903764,76.9823468 48.0443442,77.5503432 48.1415231,78.08252 C48.366569,79.3003862 49.4713398,80.1907589 50.6886334,80.2470468 C51.1796426,80.2675152 51.6706518,80.2470468 52.1616611,80.2470468 L54.4530374,80.2470468 C55.097487,80.2470468 55.7112485,80.2368127 56.2176017,80.7229357 C56.5858586,81.0760146 56.8160192,81.6235426 57.0666385,82.0584948 C57.4553541,82.73395 57.8440697,83.4145223 58.2379,84.0899775 C58.5396661,84.6119201 58.8107441,85.1747994 59.2915239,85.5585808 C60.1814781,86.2698555 61.3885424,86.356846 62.3807902,85.7939667 C62.8717994,85.5176441 63.357694,85.2310873 63.8435885,84.9496477 C64.4829234,84.5812176 65.1222583,84.2127875 65.7615932,83.8443574 C65.9150336,83.757367 66.0633593,83.6550253 66.227029,83.5833861 C66.7282676,83.3633514 67.3011117,83.4094052 67.7767769,83.6754936 C68.8968916,84.304895 70.006777,84.9598819 71.1166624,85.6046345 C71.2445294,85.6762737 71.3672817,85.75303 71.4951487,85.8246692 C72.0628781,86.1368113 72.6970983,86.2340359 73.3313185,86.1214601 C74.2059287,85.9679475 74.8401489,85.3692486 75.269782,84.6272714 C75.9295756,83.4810444 76.5893692,82.3297003 77.2542775,81.1834733 C77.6071904,80.5745403 78.1698051,80.2470468 78.8705162,80.2470468 C79.4996217,80.2470468 80.1287273,80.2470468 80.7578328,80.2470468 L82.8292779,80.2470468 C83.6936587,80.2470468 84.5273515,79.9809584 85.0950809,79.290152 C85.4940258,78.804029 85.7241864,78.2104471 85.7344158,77.5759286 C85.7395304,77.4326503 85.7344158,77.2842548 85.7344158,77.1409764 L85.7344158,74.9048104 C85.7344158,74.3726336 85.7293011,73.8404568 85.7344158,73.30828 C85.7395304,72.8323911 85.9185442,72.3923218 86.2612277,72.0648284 C86.4197828,71.9113159 86.6090259,71.8038571 86.798269,71.6963983 C87.9439572,71.0362944 89.0896454,70.3813075 90.2302188,69.7160865 C91.0997143,69.2146122 91.6776731,68.3088882 91.6572144,67.2905884 C91.662329,66.5844307 91.3298749,66.0164343 90.9871914,65.4177354 Z" id="Shape" fill="#FFFFFF" fill-rule="nonzero" transform="translate(66.916667, 61.416667) rotate(123.000000) translate(-66.916667, -61.416667) "></path>
                <path d="M89.1868243,60.5769732 C89.2635445,60.4388119 89.3402646,60.3057677 89.4169848,60.1727235 C89.7903564,59.5177367 90.1688427,58.8678669 90.5422143,58.2128801 C90.7979482,57.7676937 91.0587969,57.3225074 91.3145308,56.8722039 C91.902719,55.8180845 91.7492786,54.4671741 90.8900125,53.6023868 C90.4961822,53.2083713 89.9489115,52.952517 89.4732463,52.6761944 C88.7878793,52.2821789 88.1025123,51.8881634 87.4171452,51.4941479 C86.9619388,51.2331766 86.3890947,50.9875565 86.0770993,50.5526043 C85.7037277,50.0306617 85.7497598,49.4370798 85.7497598,48.8383809 L85.7497598,46.489639 C85.7497598,45.9523451 85.7906772,45.3945829 85.713957,44.8624061 C85.5349433,43.6394229 84.4915487,42.7336989 83.2844844,42.6057717 C82.7883605,42.5546009 82.2666632,42.5955376 81.7654246,42.5955376 L79.4331309,42.5955376 C78.8244841,42.5955376 78.2311813,42.6313572 77.7197133,42.2168733 C77.310539,41.8842628 77.0650344,41.3111493 76.8041858,40.8608459 C76.4103555,40.1751565 76.0165252,39.4894672 75.6226948,38.8088949 C75.3362728,38.3125377 75.0754242,37.7547754 74.6406764,37.3709941 C73.7558369,36.5880801 72.4873965,36.4652701 71.4644606,37.0383836 C70.3443458,37.667785 69.2344604,38.3227718 68.124575,38.9624074 C67.981364,39.0442808 67.8432677,39.1312712 67.7000567,39.2029104 C67.1885887,39.4741159 66.5697125,39.4382963 66.068474,39.1619737 C65.6183822,38.9112366 65.1785198,38.6502653 64.728428,38.3892939 C64.0737491,38.0157468 63.4241848,37.6370825 62.7695059,37.2584182 C62.1199416,36.884871 61.4703773,36.5880801 60.6929461,36.6853047 C59.7467304,36.8029977 59.0409047,37.3709941 58.5703542,38.1794935 C58.2327853,38.7628411 57.8952165,39.3513059 57.5576477,39.9346535 C57.2354229,40.4975328 56.9080834,41.0604122 56.5858586,41.6232915 C56.2380604,42.2322246 55.6856751,42.5853034 54.9747346,42.5853034 C53.6653768,42.5904205 52.3560189,42.5853034 51.0415463,42.5853034 C50.1925095,42.5853034 49.3792755,42.8155722 48.7910874,43.4705591 C48.3767984,43.9310967 48.1415231,44.5042102 48.0903764,45.1182603 C48.0750323,45.2871241 48.0852617,45.461105 48.0852617,45.6299688 C48.0852617,46.9245912 48.1006057,48.2192137 48.0852617,49.5138361 C48.080147,50.2506963 47.665858,50.7675219 47.0520965,51.1206007 C46.4639083,51.4583283 45.8757202,51.801173 45.2875321,52.1389006 C44.7300321,52.4612769 44.172532,52.7836532 43.615032,53.1060296 C42.7608806,53.5972697 42.1931512,54.4467058 42.1675778,55.4496544 C42.147119,56.1762804 42.4744585,56.7647451 42.8222567,57.3685611 C43.2109723,58.0388992 43.5945733,58.7143544 43.9832889,59.3898096 C44.2339082,59.8247618 44.5305596,60.259714 44.7402614,60.7151345 C44.970422,61.2166088 44.9243899,61.7999565 44.6584266,62.2758454 C44.5765917,62.4242408 44.4896422,62.5726363 44.4026926,62.7159146 C43.7787017,63.8007366 43.1393668,64.8804415 42.5256053,65.9703805 C41.9220732,67.0500854 42.0959723,68.4624008 43.0268439,69.3067197 C43.4360182,69.6802669 43.9730595,69.9310041 44.4487247,70.2073266 C45.1340917,70.6013422 45.8143441,70.9953577 46.4997111,71.3893732 C46.9702616,71.6605787 47.5277616,71.9010817 47.824413,72.3820876 C48.1517525,72.9040303 48.0903764,73.4976121 48.0903764,74.0860769 L48.0903764,76.4450529 C48.0903764,76.9823468 48.0443442,77.5503432 48.1415231,78.08252 C48.366569,79.3003862 49.4713398,80.1907589 50.6886334,80.2470468 C51.1796426,80.2675152 51.6706518,80.2470468 52.1616611,80.2470468 L54.4530374,80.2470468 C55.097487,80.2470468 55.7112485,80.2368127 56.2176017,80.7229357 C56.5858586,81.0760146 56.8160192,81.6235426 57.0666385,82.0584948 C57.4553541,82.73395 57.8440697,83.4145223 58.2379,84.0899775 C58.5396661,84.6119201 58.8107441,85.1747994 59.2915239,85.5585808 C60.1814781,86.2698555 61.3885424,86.356846 62.3807902,85.7939667 C62.8717994,85.5176441 63.357694,85.2310873 63.8435885,84.9496477 C64.4829234,84.5812176 65.1222583,84.2127875 65.7615932,83.8443574 C65.9150336,83.757367 66.0633593,83.6550253 66.227029,83.5833861 C66.7282676,83.3633514 67.3011117,83.4094052 67.7767769,83.6754936 C68.8968916,84.304895 70.006777,84.9598819 71.1166624,85.6046345 C71.2445294,85.6762737 71.3672817,85.75303 71.4951487,85.8246692 C72.0628781,86.1368113 72.6970983,86.2340359 73.3313185,86.1214601 C74.2059287,85.9679475 74.8401489,85.3692486 75.269782,84.6272714 C75.9295756,83.4810444 76.5893692,82.3297003 77.2542775,81.1834733 C77.6071904,80.5745403 78.1698051,80.2470468 78.8705162,80.2470468 C79.4996217,80.2470468 80.1287273,80.2470468 80.7578328,80.2470468 L82.8292779,80.2470468 C83.6936587,80.2470468 84.5273515,79.9809584 85.0950809,79.290152 C85.4940258,78.804029 85.7241864,78.2104471 85.7344158,77.5759286 C85.7395304,77.4326503 85.7344158,77.2842548 85.7344158,77.1409764 L85.7344158,74.9048104 C85.7344158,74.3726336 85.7293011,73.8404568 85.7344158,73.30828 C85.7395304,72.8323911 85.9185442,72.3923218 86.2612277,72.0648284 C86.4197828,71.9113159 86.6090259,71.8038571 86.798269,71.6963983 C87.9439572,71.0362944 89.0896454,70.3813075 90.2302188,69.7160865 C91.0997143,69.2146122 91.6776731,68.3088882 91.6572144,67.2905884" id="Shape" stroke="#270570" stroke-width="4" stroke-linecap="round" fill-rule="nonzero" transform="translate(66.916667, 61.416667) rotate(123.000000) translate(-66.916667, -61.416667) "></path>
                <g id="Group-5" transform="translate(55.000000, 51.333333)" fill="#270570" fill-rule="nonzero" stroke="#270570" stroke-width="0.4">
                    <g id="Group-4">
                        <path d="M5.37209302,10.6435185 C6.26744186,10.6435185 7.04838501,10.5128086 7.71492248,10.2513889 C8.38145995,9.98996914 8.93856589,9.62118056 9.38624031,9.14502315 C9.83391473,8.66886574 10.1721576,8.10401235 10.400969,7.45046296 C10.6297804,6.79691358 10.744186,6.08734568 10.744186,5.32175926 C10.744186,4.55617284 10.6297804,3.84660494 10.400969,3.19305556 C10.1721576,2.53950617 9.83391473,1.97465278 9.38624031,1.49849537 C8.93856589,1.02233796 8.38145995,0.653549383 7.71492248,0.39212963 C7.04838501,0.130709877 6.26744186,0 5.37209302,0 C4.47674419,0 3.69082687,0.130709877 3.01434109,0.39212963 C2.3378553,0.653549383 1.77577519,1.02233796 1.32810078,1.49849537 C0.880426357,1.97465278 0.547157623,2.53950617 0.328294574,3.19305556 C0.109431525,3.84660494 0,4.55617284 0,5.32175926 C0,6.08734568 0.109431525,6.79691358 0.328294574,7.45046296 C0.547157623,8.10401235 0.880426357,8.66886574 1.32810078,9.14502315 C1.77577519,9.62118056 2.3378553,9.98996914 3.01434109,10.2513889 C3.69082687,10.5128086 4.47674419,10.6435185 5.37209302,10.6435185 Z M8.05813953,19.8865741 L8.35658915,19.6064815 L19.6976744,3.36111111 L19.6976744,0.560185185 L19.3992248,0.280092593 L17.6085271,0.280092593 L17.3100775,0.560185185 L5.96899225,16.8055556 L5.96899225,19.6064815 L6.26744186,19.8865741 L8.05813953,19.8865741 Z M5.37209302,7.5625 C4.91447028,7.5625 4.55135659,7.39911265 4.28275194,7.07233796 C4.01414729,6.74556327 3.87984496,6.16203704 3.87984496,5.32175926 C3.87984496,4.48148148 4.01414729,3.89795525 4.28275194,3.57118056 C4.55135659,3.24440586 4.91447028,3.08101852 5.37209302,3.08101852 C5.82971576,3.08101852 6.19282946,3.24440586 6.46143411,3.57118056 C6.73003876,3.89795525 6.86434109,4.48148148 6.86434109,5.32175926 C6.86434109,6.16203704 6.73003876,6.74556327 6.46143411,7.07233796 C6.19282946,7.39911265 5.82971576,7.5625 5.37209302,7.5625 Z M20.2945736,20.1666667 C21.1899225,20.1666667 21.9708656,20.0359568 22.6374031,19.774537 C23.3039406,19.5131173 23.8610465,19.1443287 24.3087209,18.6681713 C24.7563953,18.1920139 25.0946382,17.6271605 25.3234496,16.9736111 C25.552261,16.3200617 25.6666667,15.6104938 25.6666667,14.8449074 C25.6666667,14.079321 25.552261,13.3697531 25.3234496,12.7162037 C25.0946382,12.0626543 24.7563953,11.4978009 24.3087209,11.0216435 C23.8610465,10.5454861 23.3039406,10.1766975 22.6374031,9.91527778 C21.9708656,9.65385802 21.1899225,9.52314815 20.2945736,9.52314815 C19.3992248,9.52314815 18.6133075,9.65385802 17.9368217,9.91527778 C17.2603359,10.1766975 16.6982558,10.5454861 16.2505814,11.0216435 C15.802907,11.4978009 15.4696382,12.0626543 15.2507752,12.7162037 C15.0319121,13.3697531 14.9224806,14.079321 14.9224806,14.8449074 C14.9224806,15.6104938 15.0319121,16.3200617 15.2507752,16.9736111 C15.4696382,17.6271605 15.802907,18.1920139 16.2505814,18.6681713 C16.6982558,19.1443287 17.2603359,19.5131173 17.9368217,19.774537 C18.6133075,20.0359568 19.3992248,20.1666667 20.2945736,20.1666667 Z M20.2945736,17.0856481 C19.8369509,17.0856481 19.4738372,16.9222608 19.2052326,16.5954861 C18.9366279,16.2687114 18.8023256,15.6851852 18.8023256,14.8449074 C18.8023256,14.0046296 18.9366279,13.4211034 19.2052326,13.0943287 C19.4738372,12.767554 19.8369509,12.6041667 20.2945736,12.6041667 C20.7521964,12.6041667 21.1153101,12.767554 21.3839147,13.0943287 C21.6525194,13.4211034 21.7868217,14.0046296 21.7868217,14.8449074 C21.7868217,15.6851852 21.6525194,16.2687114 21.3839147,16.5954861 C21.1153101,16.9222608 20.7521964,17.0856481 20.2945736,17.0856481 Z" id="%"></path>
                    </g>
                </g>
            </g>
        </g>
    </g>
</svg>