<?xml version="1.0" encoding="UTF-8"?>
<svg width="350px" height="243px" viewBox="0 0 350 243" version="1.1" xmlns="http://www.w3.org/2000/svg" xmlns:xlink="http://www.w3.org/1999/xlink">
    <title>banner_descuentos</title>
    <defs>
        <rect id="path-1" x="0" y="0" width="350" height="243" rx="8"></rect>
    </defs>
    <g id="Page-1" stroke="none" stroke-width="1" fill="none" fill-rule="evenodd">
        <g id="Clipped">
            <mask id="mask-2" fill="white">
                <use xlink:href="#path-1"></use>
            </mask>
            <use id="Rectangle" fill="#EBE5F5" xlink:href="#path-1"></use>
            <g id="Group" mask="url(#mask-2)">
                <g transform="translate(-28.000000, -47.074977)">
                    <polyline id="Path" stroke="#4300D2" stroke-width="65" stroke-linecap="round" stroke-linejoin="round" transform="translate(78.500000, 97.590972) scale(-1, 1) rotate(-270.000000) translate(-78.500000, -97.590972) " points="-19.0909717 176.090972 176.090972 103.936125 176.090972 19.0909717"></polyline>
                    <g id="sobre" stroke="none" stroke-width="1" fill-rule="evenodd" transform="translate(48.000000, 113.074977)">
                        <g id="Correo">
                            <polygon id="Rectangle" fill="#FFFFFF" points="0.545939744 39 50.7723962 3.19898028e-14 100.998853 39 100.998853 91 0.545939744 91"></polygon>
                            <polygon id="Rectangle" fill="#ADEDDD" points="18.0160116 13 83.5287808 13 83.5287808 56.3333333 70.426227 69.3333333 31.1185654 69.3333333 18.0160116 56.3333333"></polygon>
                            <g id="Group" stroke="#270570" stroke-linecap="round" stroke-linejoin="round" stroke-width="3">
                                <path d="M100.998853,39 L100.998853,91 L0.545939744,91 L0.545939744,65 M0.545939744,52 L0.545939744,39" id="Shape"></path>
                                <line x1="0.545939744" y1="39" x2="9.28212301" y2="32.2165004" id="Path"></line>
                                <line x1="92.2638167" y1="39" x2="101" y2="32.2165004" id="Path" transform="translate(96.631908, 35.608250) scale(-1, 1) translate(-96.631908, -35.608250) "></line>
                                <polyline id="Path" points="100.998853 39 70.426227 69.3333333 31.1185654 69.3333333 0.545939744 39 0.545939744 39"></polyline>
                                <path d="M18.0160116,56.3333333 L18.0160116,13 L31.1185654,13 M48.5886372,13 L83.5287808,13 L83.5287808,56.3333333" id="Shape"></path>
                                <line x1="50.7723962" y1="0" x2="67.5138812" y2="12.999482" id="Path"></line>
                                <line x1="45.1819732" y1="0" x2="50.7723962" y2="4.33983734" id="Path" transform="translate(47.977185, 2.169919) scale(-1, 1) translate(-47.977185, -2.169919) "></line>
                            </g>
                        </g>
                        <path d="M70.6145793,45.041246 C70.1393794,44.218791 69.6601181,43.3963359 69.1849182,42.5698492 C68.9493491,42.1465267 68.9493491,41.6506347 69.1849182,41.2273122 C69.2458413,41.1184579 69.3067643,41.0136352 69.3676874,40.9088125 C69.6641796,40.3927622 69.9647333,39.8807436 70.2612255,39.3646934 C70.4643024,39.0139405 70.6714408,38.6631876 70.8745176,38.3084031 C71.3415944,37.4778847 71.2197483,36.4135311 70.5374101,35.7321835 C70.2246717,35.421747 69.7900872,35.2201649 69.4123643,35.0024562 C68.8681183,34.6920198 68.3238724,34.3815833 67.7796264,34.0711468 C67.4181496,33.865533 66.9632575,33.6720142 66.7155037,33.3293246 C66.4190115,32.9180971 66.4555654,32.4504265 66.4555654,31.9787244 L66.4555654,30.1282005 C66.4555654,29.704878 66.4880577,29.265429 66.4271346,28.8461381 C66.2849808,27.8825756 65.4564273,27.1689749 64.4979045,27.0681838 C64.1039354,27.0278674 63.6896587,27.0601205 63.291628,27.0601205 L61.4395672,27.0601205 C60.9562443,27.0601205 60.485106,27.088342 60.0789523,26.761779 C59.7540293,26.4997222 59.5590755,26.0481782 59.3519371,25.6933937 C59.0391988,25.1531536 58.7264605,24.6129135 58.4137221,24.0767051 C58.186276,23.6856357 57.9791376,23.2461867 57.633907,22.9438135 C56.9312611,22.3269722 55.9239999,22.2302128 55.1116925,22.6817568 C54.2222159,23.1776488 53.3408624,23.693699 52.4595089,24.1976543 C52.3457858,24.2621606 52.2361243,24.3306985 52.1224013,24.3871415 C51.7162476,24.6008186 51.2248016,24.5725971 50.826771,24.3548884 C50.4693557,24.1573379 50.1200635,23.9517241 49.7626483,23.7461104 C49.2427715,23.4518005 48.7269563,23.1534589 48.2070796,22.8551174 C47.6912644,22.5608075 47.1754492,22.3269722 46.5580956,22.4035734 C45.8067112,22.4963012 45.2462191,22.9438135 44.8725577,23.580813 C44.6044963,24.0404203 44.3364348,24.5040592 44.0683734,24.9636664 C43.8124966,25.4071471 43.5525582,25.8506278 43.2966814,26.2941084 C43.0204969,26.7738739 42.5818509,27.0520572 42.0172972,27.0520572 C40.9775437,27.0560889 39.9377903,27.0520572 38.8939753,27.0520572 C38.2197601,27.0520572 37.5739757,27.2334811 37.106899,27.7495314 C36.7779145,28.1123792 36.5910838,28.5639232 36.5504684,29.0477203 C36.5382838,29.1807645 36.5464069,29.3178403 36.5464069,29.4508845 C36.5464069,30.4708901 36.5585915,31.4908956 36.5464069,32.5109012 C36.5423453,33.0914577 36.2133608,33.4986536 35.7259764,33.7768369 C35.2588996,34.0429253 34.7918229,34.3130454 34.3247461,34.5791338 C33.8820386,34.8331272 33.4393311,35.0871207 32.9966235,35.3411142 C32.3183469,35.7281519 31.8675162,36.3974045 31.8472086,37.1876065 C31.8309624,37.7600997 32.0909008,38.2237386 32.3670853,38.6994724 C32.6757621,39.2276176 32.9803774,39.7597944 33.2890542,40.2919712 C33.4880695,40.6346608 33.7236387,40.9773504 33.8901617,41.3361666 C34.0729308,41.7312676 34.036377,42.1908748 33.8251771,42.5658176 C33.7601925,42.6827352 33.6911464,42.7996528 33.6221002,42.9125388 C33.1265927,43.767247 32.6189006,44.6179236 32.1315162,45.4766634 C31.6522548,46.32734 31.790347,47.4400733 32.5295468,48.1052943 C32.8544697,48.3996042 33.2809311,48.5971547 33.6586541,48.8148634 C34.2029,49.1252999 34.7430844,49.4357364 35.2873304,49.7461728 C35.6609918,49.9598499 36.1036993,50.1493371 36.3392685,50.5283115 C36.5992069,50.939539 36.5504684,51.4072095 36.5504684,51.8708484 L36.5504684,53.7294356 C36.5504684,54.1527581 36.5139146,54.6002704 36.5910838,55.0195612 C36.7697914,55.9790921 37.6470834,56.6805979 38.6137292,56.724946 C39.0036368,56.7410726 39.3935443,56.724946 39.7834519,56.724946 L41.6030204,56.724946 C42.1147741,56.724946 42.6021585,56.7168827 43.0042507,57.0998887 C43.2966814,57.3780721 43.4794505,57.8094578 43.6784659,58.1521474 C43.9871427,58.6843243 44.2958195,59.2205327 44.6085578,59.7527095 C44.8481885,60.163937 45.06345,60.6074177 45.4452345,60.9097909 C46.1519419,61.4701892 47.1104646,61.5387271 47.8984028,61.0952465 C48.2883104,60.8775378 48.6741564,60.6517658 49.0600024,60.4300255 C49.5676945,60.1397472 50.0753866,59.8494689 50.5830788,59.5591907 C50.7049249,59.4906527 50.8227094,59.4100199 50.9526786,59.3535769 C51.3507093,59.1802163 51.8056014,59.2165011 52.1833243,59.4261465 C53.0728009,59.9220385 53.9541545,60.4380887 54.835508,60.9460757 C54.9370464,61.0025187 55.0345233,61.0629933 55.1360617,61.1194363 C55.5868923,61.3653665 56.0905229,61.4419677 56.5941535,61.3532716 C57.2886764,61.2323223 57.7923069,60.7606201 58.133476,60.176032 C58.6574143,59.2729441 59.1813526,58.3658245 59.7093524,57.4627366 C59.9895985,56.9829711 60.4363675,56.724946 60.9927981,56.724946 C61.4923672,56.724946 61.9919362,56.724946 62.4915053,56.724946 L64.1364277,56.724946 C64.8228275,56.724946 65.484858,56.5153006 65.9356886,55.9710289 C66.2524885,55.5880228 66.4352577,55.1203523 66.4433808,54.6204286 C66.4474423,54.5075426 66.4433808,54.390625 66.4433808,54.277739 L66.4433808,52.5159112 C66.4433808,52.0966204 66.4393192,51.6773296 66.4433808,51.2580388 C66.4474423,50.883096 66.5895961,50.5363748 66.8617191,50.2783496 C66.9876267,50.1574004 67.1379036,50.0727359 67.2881805,49.9880714 C68.1979647,49.4679895 69.107749,48.9519393 70.0134718,48.4278257 C70.7039331,48.0327248 71.1628868,47.3191241 71.1466406,46.5168272 C71.1507021,45.9604605 70.8867022,45.5129482 70.6145793,45.041246 Z" id="Shape" fill="#FFFFFF" fill-rule="nonzero" transform="translate(51.500316, 41.888889) rotate(123.000000) translate(-51.500316, -41.888889) "></path>
                        <path d="M69.1849182,41.2273122 C69.2458413,41.1184579 69.3067643,41.0136352 69.3676874,40.9088125 C69.6641796,40.3927622 69.9647333,39.8807436 70.2612255,39.3646934 C70.4643024,39.0139405 70.6714408,38.6631876 70.8745176,38.3084031 C71.3415944,37.4778847 71.2197483,36.4135311 70.5374101,35.7321835 C70.2246717,35.421747 69.7900872,35.2201649 69.4123643,35.0024562 C68.8681183,34.6920198 68.3238724,34.3815833 67.7796264,34.0711468 C67.4181496,33.865533 66.9632575,33.6720142 66.7155037,33.3293246 C66.4190115,32.9180971 66.4555654,32.4504265 66.4555654,31.9787244 L66.4555654,30.1282005 C66.4555654,29.704878 66.4880577,29.265429 66.4271346,28.8461381 C66.2849808,27.8825756 65.4564273,27.1689749 64.4979045,27.0681838 C64.1039354,27.0278674 63.6896587,27.0601205 63.291628,27.0601205 L61.4395672,27.0601205 C60.9562443,27.0601205 60.485106,27.088342 60.0789523,26.761779 C59.7540293,26.4997222 59.5590755,26.0481782 59.3519371,25.6933937 C59.0391988,25.1531536 58.7264605,24.6129135 58.4137221,24.0767051 C58.186276,23.6856357 57.9791376,23.2461867 57.633907,22.9438135 C56.9312611,22.3269722 55.9239999,22.2302128 55.1116925,22.6817568 C54.2222159,23.1776488 53.3408624,23.693699 52.4595089,24.1976543 C52.3457858,24.2621606 52.2361243,24.3306985 52.1224013,24.3871415 C51.7162476,24.6008186 51.2248016,24.5725971 50.826771,24.3548884 C50.4693557,24.1573379 50.1200635,23.9517241 49.7626483,23.7461104 C49.2427715,23.4518005 48.7269563,23.1534589 48.2070796,22.8551174 C47.6912644,22.5608075 47.1754492,22.3269722 46.5580956,22.4035734 C45.8067112,22.4963012 45.2462191,22.9438135 44.8725577,23.580813 C44.6044963,24.0404203 44.3364348,24.5040592 44.0683734,24.9636664 C43.8124966,25.4071471 43.5525582,25.8506278 43.2966814,26.2941084 C43.0204969,26.7738739 42.5818509,27.0520572 42.0172972,27.0520572 C40.9775437,27.0560889 39.9377903,27.0520572 38.8939753,27.0520572 C38.2197601,27.0520572 37.5739757,27.2334811 37.106899,27.7495314 C36.7779145,28.1123792 36.5910838,28.5639232 36.5504684,29.0477203 C36.5382838,29.1807645 36.5464069,29.3178403 36.5464069,29.4508845 C36.5464069,30.4708901 36.5585915,31.4908956 36.5464069,32.5109012 C36.5423453,33.0914577 36.2133608,33.4986536 35.7259764,33.7768369 C35.2588996,34.0429253 34.7918229,34.3130454 34.3247461,34.5791338 C33.8820386,34.8331272 33.4393311,35.0871207 32.9966235,35.3411142 C32.3183469,35.7281519 31.8675162,36.3974045 31.8472086,37.1876065 C31.8309624,37.7600997 32.0909008,38.2237386 32.3670853,38.6994724 C32.6757621,39.2276176 32.9803774,39.7597944 33.2890542,40.2919712 C33.4880695,40.6346608 33.7236387,40.9773504 33.8901617,41.3361666 C34.0729308,41.7312676 34.036377,42.1908748 33.8251771,42.5658176 C33.7601925,42.6827352 33.6911464,42.7996528 33.6221002,42.9125388 C33.1265927,43.767247 32.6189006,44.6179236 32.1315162,45.4766634 C31.6522548,46.32734 31.790347,47.4400733 32.5295468,48.1052943 C32.8544697,48.3996042 33.2809311,48.5971547 33.6586541,48.8148634 C34.2029,49.1252999 34.7430844,49.4357364 35.2873304,49.7461728 C35.6609918,49.9598499 36.1036993,50.1493371 36.3392685,50.5283115 C36.5992069,50.939539 36.5504684,51.4072095 36.5504684,51.8708484 L36.5504684,53.7294356 C36.5504684,54.1527581 36.5139146,54.6002704 36.5910838,55.0195612 C36.7697914,55.9790921 37.6470834,56.6805979 38.6137292,56.724946 C39.0036368,56.7410726 39.3935443,56.724946 39.7834519,56.724946 L41.6030204,56.724946 C42.1147741,56.724946 42.6021585,56.7168827 43.0042507,57.0998887 C43.2966814,57.3780721 43.4794505,57.8094578 43.6784659,58.1521474 C43.9871427,58.6843243 44.2958195,59.2205327 44.6085578,59.7527095 C44.8481885,60.163937 45.06345,60.6074177 45.4452345,60.9097909 C46.1519419,61.4701892 47.1104646,61.5387271 47.8984028,61.0952465 C48.2883104,60.8775378 48.6741564,60.6517658 49.0600024,60.4300255 C49.5676945,60.1397472 50.0753866,59.8494689 50.5830788,59.5591907 C50.7049249,59.4906527 50.8227094,59.4100199 50.9526786,59.3535769 C51.3507093,59.1802163 51.8056014,59.2165011 52.1833243,59.4261465 C53.0728009,59.9220385 53.9541545,60.4380887 54.835508,60.9460757 C54.9370464,61.0025187 55.0345233,61.0629933 55.1360617,61.1194363 C55.5868923,61.3653665 56.0905229,61.4419677 56.5941535,61.3532716 C57.2886764,61.2323223 57.7923069,60.7606201 58.133476,60.176032 C58.6574143,59.2729441 59.1813526,58.3658245 59.7093524,57.4627366 C59.9895985,56.9829711 60.4363675,56.724946 60.9927981,56.724946 C61.4923672,56.724946 61.9919362,56.724946 62.4915053,56.724946 L64.1364277,56.724946 C64.8228275,56.724946 65.484858,56.5153006 65.9356886,55.9710289 C66.2524885,55.5880228 66.4352577,55.1203523 66.4433808,54.6204286 C66.4474423,54.5075426 66.4433808,54.390625 66.4433808,54.277739 L66.4433808,52.5159112 C66.4433808,52.0966204 66.4393192,51.6773296 66.4433808,51.2580388 C66.4474423,50.883096 66.5895961,50.5363748 66.8617191,50.2783496 C66.9876267,50.1574004 67.1379036,50.0727359 67.2881805,49.9880714 C68.1979647,49.4679895 69.107749,48.9519393 70.0134718,48.4278257 C70.7039331,48.0327248 71.1628868,47.3191241 71.1466406,46.5168272" id="Shape" stroke="#270570" stroke-width="3" stroke-linecap="round" fill-rule="nonzero" transform="translate(51.500316, 41.888889) rotate(123.000000) translate(-51.500316, -41.888889) "></path>
                        <g id="Group-5" transform="translate(42.037360, 33.944444)" fill="#270570" fill-rule="nonzero">
                            <g id="Group-4">
                                <path d="M4.26594777,8.38580247 C4.97693906,8.38580247 5.59708147,8.28281893 6.12637499,8.07685185 C6.65566851,7.87088477 7.09806309,7.58032407 7.45355874,7.20516975 C7.80905438,6.83001543 8.0776511,6.38497942 8.25934887,5.87006173 C8.44104665,5.35514403 8.53189553,4.79609053 8.53189553,4.19290123 C8.53189553,3.58971193 8.44104665,3.03065844 8.25934887,2.51574074 C8.0776511,2.00082305 7.80905438,1.55578704 7.45355874,1.18063272 C7.09806309,0.805478395 6.65566851,0.514917695 6.12637499,0.308950617 C5.59708147,0.102983539 4.97693906,0 4.26594777,0 C3.55495647,0 2.93086411,0.102983539 2.39367069,0.308950617 C1.85647727,0.514917695 1.41013273,0.805478395 1.05463709,1.18063272 C0.69914144,1.55578704 0.43449468,2.00082305 0.260696808,2.51574074 C0.086898936,3.03065844 0,3.58971193 0,4.19290123 C0,4.79609053 0.086898936,5.35514403 0.260696808,5.87006173 C0.43449468,6.38497942 0.69914144,6.83001543 1.05463709,7.20516975 C1.41013273,7.58032407 1.85647727,7.87088477 2.39367069,8.07685185 C2.93086411,8.28281893 3.55495647,8.38580247 4.26594777,8.38580247 Z M6.39892165,15.6682099 L6.63591875,15.4475309 L15.6418085,2.64814815 L15.6418085,0.441358025 L15.4048114,0.220679012 L13.9828288,0.220679012 L13.7458317,0.441358025 L4.73994196,13.2407407 L4.73994196,15.4475309 L4.97693906,15.6682099 L6.39892165,15.6682099 Z M4.26594777,5.95833333 C3.90255222,5.95833333 3.61420575,5.82960391 3.40090836,5.57214506 C3.18761097,5.31468621 3.08096228,4.85493827 3.08096228,4.19290123 C3.08096228,3.5308642 3.18761097,3.07111626 3.40090836,2.81365741 C3.61420575,2.55619856 3.90255222,2.42746914 4.26594777,2.42746914 C4.62934332,2.42746914 4.91768979,2.55619856 5.13098718,2.81365741 C5.34428456,3.07111626 5.45093326,3.5308642 5.45093326,4.19290123 C5.45093326,4.85493827 5.34428456,5.31468621 5.13098718,5.57214506 C4.91768979,5.82960391 4.62934332,5.95833333 4.26594777,5.95833333 Z M16.1158027,15.8888889 C16.826794,15.8888889 17.4469364,15.7859053 17.9762299,15.5799383 C18.5055234,15.3739712 18.947918,15.0834105 19.3034136,14.7082562 C19.6589093,14.3331019 19.927506,13.8880658 20.1092038,13.3731481 C20.2909016,12.8582305 20.3817504,12.299177 20.3817504,11.6959877 C20.3817504,11.0927984 20.2909016,10.5337449 20.1092038,10.0188272 C19.927506,9.50390947 19.6589093,9.05887346 19.3034136,8.68371914 C18.947918,8.30856481 18.5055234,8.01800412 17.9762299,7.81203704 C17.4469364,7.60606996 16.826794,7.50308642 16.1158027,7.50308642 C15.4048114,7.50308642 14.780719,7.60606996 14.2435256,7.81203704 C13.7063322,8.01800412 13.2599876,8.30856481 12.904492,8.68371914 C12.5489963,9.05887346 12.2843496,9.50390947 12.1105517,10.0188272 C11.9367538,10.5337449 11.8498549,11.0927984 11.8498549,11.6959877 C11.8498549,12.299177 11.9367538,12.8582305 12.1105517,13.3731481 C12.2843496,13.8880658 12.5489963,14.3331019 12.904492,14.7082562 C13.2599876,15.0834105 13.7063322,15.3739712 14.2435256,15.5799383 C14.780719,15.7859053 15.4048114,15.8888889 16.1158027,15.8888889 Z M16.1158027,13.4614198 C15.7524071,13.4614198 15.4640607,13.3326903 15.2507633,13.0752315 C15.0374659,12.8177726 14.9308172,12.3580247 14.9308172,11.6959877 C14.9308172,11.0339506 15.0374659,10.5742027 15.2507633,10.3167438 C15.4640607,10.059285 15.7524071,9.93055556 16.1158027,9.93055556 C16.4791982,9.93055556 16.7675447,10.059285 16.9808421,10.3167438 C17.1941395,10.5742027 17.3007882,11.0339506 17.3007882,11.6959877 C17.3007882,12.3580247 17.1941395,12.8177726 16.9808421,13.0752315 C16.7675447,13.3326903 16.4791982,13.4614198 16.1158027,13.4614198 Z" id="%"></path>
                            </g>
                        </g>
                    </g>
                </g>
            </g>
        </g>
    </g>
</svg>