<svg width="72" height="72" viewBox="0 0 72 72" fill="none" xmlns="http://www.w3.org/2000/svg">
<path d="M24.5799 54L23.0274 64.7333C22.9708 65.1392 23.0021 65.5524 23.1194 65.9453C23.2366 66.3381 23.4371 66.7014 23.7072 67.0109C23.9774 67.3203 24.3111 67.5687 24.6858 67.7393C25.0605 67.9099 25.4676 67.9988 25.8797 68H48.1203C48.5324 67.9988 48.9395 67.9099 49.3142 67.7393C49.6889 67.5687 50.0226 67.3203 50.2928 67.0109C50.5629 66.7014 50.7634 66.3381 50.8806 65.9453C50.9979 65.5524 51.0292 65.1392 50.9726 64.7333L49.4201 54" fill="white"/>
<path fill-rule="evenodd" clip-rule="evenodd" d="M58.0479 29.403H64.755C66.0437 29.403 67.0985 30.4496 66.9903 31.7337C66.4008 38.7304 63.1713 45.3328 57.8366 50.3314C51.9128 55.882 43.8784 59.0002 35.5008 59.0002C27.1233 59.0002 19.0889 55.882 13.1651 50.3314C7.83037 45.3328 4.60088 38.7304 4.01131 31.7337C3.9031 30.4496 4.95796 29.403 6.24662 29.403H12.1024V6.74039C12.1024 6.01359 12.4049 5.31656 12.9435 4.80264C13.482 4.28872 14.2124 4 14.974 4H55.1763C55.9379 4 56.6683 4.28872 57.2069 4.80264C57.7454 5.31656 58.0479 6.01359 58.0479 6.74039V29.403Z" fill="white"/>
<path d="M12 28V6.4C12 5.76348 12.3029 5.15303 12.8421 4.70294C13.3812 4.25286 14.1125 4 14.875 4H55.125C55.8875 4 56.6188 4.25286 57.1579 4.70294C57.6971 5.15303 58 5.76348 58 6.4V28" fill="#CBF6EC"/>
<path d="M25 16.5H32" stroke="#270570" stroke-width="3" stroke-linecap="round" stroke-linejoin="round"/>
<path d="M67 28C67 35.6913 63.6813 43.0675 57.7739 48.5061C51.8665 53.9447 43.8543 57 35.5 57C27.1457 57 19.1335 53.9447 13.2261 48.5061C7.31874 43.0675 4 35.6913 4 28H67Z" stroke="#270570" stroke-width="3" stroke-linecap="round" stroke-linejoin="round"/>
<path d="M23.5799 56L22.0274 65.2C21.9708 65.5479 22.0021 65.9021 22.1194 66.2388C22.2366 66.5755 22.4371 66.8869 22.7072 67.1522C22.9774 67.4174 23.3111 67.6303 23.6858 67.7765C24.0605 67.9227 24.4676 67.9989 24.8797 68H47.1203C47.5324 67.9989 47.9395 67.9227 48.3142 67.7765C48.6889 67.6303 49.0226 67.4174 49.2928 67.1522C49.5629 66.8869 49.7634 66.5755 49.8806 66.2388C49.9979 65.9021 50.0292 65.5479 49.9726 65.2L48.4201 56" stroke="#270570" stroke-width="3" stroke-linecap="round" stroke-linejoin="round"/>
<path d="M12 28V8C12 5.79086 13.7909 4 16 4H40" stroke="#270570" stroke-width="3" stroke-linecap="round"/>
<path d="M52 4H54C56.2091 4 58 5.79086 58 8V28" stroke="#270570" stroke-width="3" stroke-linecap="round"/>
</svg>
