<svg width="72" height="72" viewBox="0 0 72 72" fill="none" xmlns="http://www.w3.org/2000/svg">
<path fill-rule="evenodd" clip-rule="evenodd" d="M3.75 33V67.5V33ZM63.75 58.5H3.75H63.75ZM63.75 54V67.5V54ZM24.75 40.5H45.75C52.3774 40.5 57.75 45.8726 57.75 52.5H24.75V40.5Z" fill="white"/>
<path d="M5.25 33C5.25 32.1716 4.57843 31.5 3.75 31.5C2.92157 31.5 2.25 32.1716 2.25 33H5.25ZM2.25 67.5C2.25 68.3284 2.92157 69 3.75 69C4.57843 69 5.25 68.3284 5.25 67.5H2.25ZM63.75 60C64.5784 60 65.25 59.3284 65.25 58.5C65.25 57.6716 64.5784 57 63.75 57V60ZM3.75 57C2.92157 57 2.25 57.6716 2.25 58.5C2.25 59.3284 2.92157 60 3.75 60V57ZM65.25 54C65.25 53.1716 64.5784 52.5 63.75 52.5C62.9216 52.5 62.25 53.1716 62.25 54H65.25ZM62.25 67.5C62.25 68.3284 62.9216 69 63.75 69C64.5784 69 65.25 68.3284 65.25 67.5H62.25ZM24.75 40.5V39C23.9216 39 23.25 39.6716 23.25 40.5H24.75ZM57.75 52.5V54C58.5784 54 59.25 53.3284 59.25 52.5H57.75ZM24.75 52.5H23.25C23.25 53.3284 23.9216 54 24.75 54V52.5ZM2.25 33V67.5H5.25V33H2.25ZM63.75 57H3.75V60H63.75V57ZM62.25 54V67.5H65.25V54H62.25ZM24.75 42H45.75V39H24.75V42ZM45.75 42C51.549 42 56.25 46.701 56.25 52.5H59.25C59.25 45.0442 53.2058 39 45.75 39V42ZM57.75 51H24.75V54H57.75V51ZM26.25 52.5V40.5H23.25V52.5H26.25Z" fill="#270570"/>
<circle cx="15" cy="47.25" r="5.25" fill="white" stroke="#270570" stroke-width="3" stroke-linecap="round" stroke-linejoin="round"/>
<path d="M64.535 28.144H58.9916L54 33.875L49.1552 28.144H42.3333C40.4924 28.144 39 26.7387 39 25.005V5.13899C39 3.40538 40.4924 2 42.3333 2H65.6667C67.5076 2 69 3.40538 69 5.13899C69 5.13899 69 15.2915 69 19.3053C69 20.139 69 22.9381 69 25.1657C69 26.8113 67.666 28.144 66.0204 28.144H64.535Z" fill="#FFE3E0"/>
<path d="M64.535 28.144H58.9916L54 33.875L49.1552 28.144H42.3333C40.4924 28.144 39 26.7387 39 25.005V5.13899C39 3.40538 40.4924 2 42.3333 2H65.6667C67.5076 2 69 3.40538 69 5.13899C69 5.13899 69 15.2915 69 19.3053" stroke="#270570" stroke-width="3" stroke-linecap="round" stroke-linejoin="round"/>
<path fill-rule="evenodd" clip-rule="evenodd" d="M64.2271 12.4554C63.7328 13.1202 62.7931 13.2583 62.1284 12.7639L60.797 11.7738V20.6462C60.797 21.4747 60.1254 22.1462 59.297 22.1462C58.4685 22.1462 57.797 21.4747 57.797 20.6462V11.9347L56.682 12.7639C56.0172 13.2583 55.0776 13.1202 54.5832 12.4554C54.0888 11.7907 54.227 10.8511 54.8917 10.3567L58.51 7.66572L59.4052 7L60.3003 7.66572L63.9186 10.3567C64.5834 10.8511 64.7215 11.7907 64.2271 12.4554ZM50.6184 9.50244C50.6184 8.67402 49.9469 8.00244 49.1184 8.00244C48.29 8.00244 47.6184 8.67402 47.6184 9.50244V18.5903L46.3952 17.6807C45.7305 17.1863 44.7908 17.3244 44.2965 17.9891C43.8021 18.6539 43.9402 19.5935 44.605 20.0879L48.2233 22.7789L49.1184 23.4446L50.0136 22.7789L53.6319 20.0879C54.2966 19.5935 54.4347 18.6539 53.9404 17.9891C53.446 17.3244 52.5064 17.1863 51.8416 17.6807L50.6184 18.5903V9.50244Z" fill="#270570"/>
</svg>
