<svg width="72" height="72" viewBox="0 0 72 72" fill="none" xmlns="http://www.w3.org/2000/svg">
<path d="M5 26H70V58L61.5 67H5V26Z" fill="white"/>
<path d="M13.9521 40.3572H18.4353" stroke="#270570" stroke-width="3" stroke-linecap="round" stroke-linejoin="round"/>
<path d="M12.0193 50.6429H48.0962" stroke="#270570" stroke-width="3" stroke-linecap="round" stroke-linejoin="round"/>
<path d="M26.8365 40.3571H62.2692" stroke="#270570" stroke-width="3" stroke-linecap="round" stroke-linejoin="round"/>
<path d="M9.4423 11.4286H64.8461C67.6925 11.4286 70 13.736 70 16.5824V26.8572H4.28845V16.5824C4.28845 13.736 6.59591 11.4286 9.4423 11.4286Z" fill="#FFE3E0"/>
<path d="M43.0348 26.8571H69.403V58.6321L60.9839 67.276H49.9996M31.6749 67.276H3.7998V26.8571H12.976" stroke="#270570" stroke-width="3" stroke-linecap="round" stroke-linejoin="round"/>
<path d="M54.5385 17.8571C58.0965 17.8571 60.9808 14.979 60.9808 11.4286C60.9808 7.87817 58.0965 5 54.5385 5C50.9805 5 48.0962 7.87817 48.0962 11.4286" stroke="#270570" stroke-width="3" stroke-linecap="round" stroke-linejoin="round"/>
<path d="M41.7842 12.1621H48.0843H58.0759H64.2436C67.09 12.1621 69.3974 14.4696 69.3974 17.316V17.3242V29.4286" stroke="#270570" stroke-width="3" stroke-linecap="round" stroke-linejoin="round"/>
<path d="M22.327 17.8571C25.8849 17.8571 28.7693 14.979 28.7693 11.4286C28.7693 7.87817 25.8849 5 22.327 5C18.769 5 15.8846 7.87817 15.8846 11.4286" stroke="#270570" stroke-width="3" stroke-linecap="round" stroke-linejoin="round"/>
<path d="M28.5721 12.1621H15.1718H9.00427C6.15788 12.1621 3.85042 14.4696 3.85042 17.316V27.4265" stroke="#270570" stroke-width="3" stroke-linecap="round" stroke-linejoin="round"/>
</svg>
