<svg width="72" height="72" viewBox="0 0 72 72" fill="none" xmlns="http://www.w3.org/2000/svg">
<path d="M3 21C3 18.7909 4.79086 17 7 17H65C67.2091 17 69 18.7909 69 21V59.5L59.5 69H7C4.79086 69 3 67.2091 3 65V21Z" fill="white"/>
<path d="M11.2002 44.689H15.7002" stroke="#270570" stroke-width="2.99793" stroke-linecap="round" stroke-linejoin="round"/>
<path d="M11.2002 55.7492H47.2771" stroke="#270570" stroke-width="2.99793" stroke-linecap="round" stroke-linejoin="round"/>
<path d="M24.7002 44.6889H60.7002" stroke="#270570" stroke-width="2.99793" stroke-linecap="round" stroke-linejoin="round"/>
<path d="M69 35.1175V59.9571L60.5301 68.537H49.4792M31.0437 68.5409H3V32.1397H32.5278" stroke="#270570" stroke-width="2.99793" stroke-linecap="round" stroke-linejoin="round"/>
<path d="M21.5273 23.2064C25.0853 23.2064 27.9696 20.3495 27.9696 16.8254C27.9696 13.3013 25.0853 10.4445 21.5273 10.4445C17.9693 10.4445 15.085 13.3013 15.085 16.8254" stroke="#270570" stroke-width="2.99793" stroke-linecap="round" stroke-linejoin="round"/>
<path d="M30.7725 17.5535H14.3722H8.20103C5.35661 17.5535 3.05074 19.8594 3.05074 22.7038V32.7049" stroke="#270570" stroke-width="2.99793" stroke-linecap="round" stroke-linejoin="round"/>
<path d="M64.535 28.144H58.9916L54 33.875L49.1552 28.144H42.3333C40.4924 28.144 39 26.7387 39 25.005V5.13899C39 3.40538 40.4924 2 42.3333 2H65.6667C67.5076 2 69 3.40538 69 5.13899C69 5.13899 69 15.2915 69 19.3053C69 20.139 69 22.9381 69 25.1657C69 26.8113 67.666 28.144 66.0204 28.144H64.535Z" fill="#CBF6EC"/>
<path d="M64.535 28.144H58.9916L54 33.875L49.1552 28.144H42.3333C40.4924 28.144 39 26.7387 39 25.005V5.13899C39 3.40538 40.4924 2 42.3333 2H65.6667C67.5076 2 69 3.40538 69 5.13899C69 5.13899 69 15.2915 69 19.3053" stroke="#270570" stroke-width="3" stroke-linecap="round" stroke-linejoin="round"/>
<path fill-rule="evenodd" clip-rule="evenodd" d="M64.2271 12.4554C63.7328 13.1202 62.7931 13.2583 62.1284 12.7639L60.797 11.7738V20.6462C60.797 21.4747 60.1254 22.1462 59.297 22.1462C58.4685 22.1462 57.797 21.4747 57.797 20.6462V11.9347L56.682 12.7639C56.0172 13.2583 55.0776 13.1202 54.5832 12.4554C54.0888 11.7907 54.227 10.8511 54.8917 10.3567L58.51 7.66572L59.4052 7L60.3003 7.66572L63.9186 10.3567C64.5834 10.8511 64.7215 11.7907 64.2271 12.4554ZM50.6184 9.50244C50.6184 8.67402 49.9469 8.00244 49.1184 8.00244C48.29 8.00244 47.6184 8.67402 47.6184 9.50244V18.5903L46.3952 17.6807C45.7305 17.1863 44.7908 17.3244 44.2965 17.9891C43.8021 18.6539 43.9402 19.5935 44.605 20.0879L48.2233 22.7789L49.1184 23.4446L50.0136 22.7789L53.6319 20.0879C54.2966 19.5935 54.4347 18.6539 53.9404 17.9891C53.446 17.3244 52.5064 17.1863 51.8416 17.6807L50.6184 18.5903V9.50244Z" fill="#270570"/>
</svg>
