<svg width="72" height="72" viewBox="0 0 72 72" fill="none" xmlns="http://www.w3.org/2000/svg">
<path d="M3 21C3 18.7909 4.79086 17 7 17H65C67.2091 17 69 18.7909 69 21V59.5L59.5 69H7C4.79086 69 3 67.2091 3 65V21Z" fill="white"/>
<path d="M11.2002 44.689H15.7002" stroke="#270570" stroke-width="2.99793" stroke-linecap="round" stroke-linejoin="round"/>
<path d="M11.2002 55.7492H47.2771" stroke="#270570" stroke-width="2.99793" stroke-linecap="round" stroke-linejoin="round"/>
<path d="M24.7002 44.6889H60.7002" stroke="#270570" stroke-width="2.99793" stroke-linecap="round" stroke-linejoin="round"/>
<path d="M69 35.1175V59.9571L60.5301 68.537H49.4792M31.0437 68.5409H3V32.1397H32.5278" stroke="#270570" stroke-width="2.99793" stroke-linecap="round" stroke-linejoin="round"/>
<path d="M21.5273 23.2064C25.0853 23.2064 27.9696 20.3495 27.9696 16.8254C27.9696 13.3013 25.0853 10.4445 21.5273 10.4445C17.9693 10.4445 15.085 13.3013 15.085 16.8254" stroke="#270570" stroke-width="2.99793" stroke-linecap="round" stroke-linejoin="round"/>
<path d="M30.7725 17.5535H14.3722H8.20103C5.35661 17.5535 3.05074 19.8594 3.05074 22.7038V32.7049" stroke="#270570" stroke-width="2.99793" stroke-linecap="round" stroke-linejoin="round"/>
<path d="M64.535 29.144H58.9916L54 34.875L49.1552 29.144H42.3333C40.4924 29.144 39 27.7387 39 26.005V6.13899C39 4.40538 40.4924 3 42.3333 3H65.6667C67.5076 3 69 4.40538 69 6.13899C69 6.13899 69 16.2915 69 20.3053C69 21.139 69 23.9381 69 26.1657C69 27.8113 67.666 29.144 66.0204 29.144H64.535Z" fill="#CBF6EC"/>
<path d="M64.535 28.144H58.9916L54 33.875L49.1552 28.144H42.3333C40.4924 28.144 39 26.7387 39 25.005V5.13899C39 3.40538 40.4924 2 42.3333 2H65.6667C67.5076 2 69 3.40538 69 5.13899C69 5.13899 69 15.2915 69 19.3053" stroke="#270570" stroke-width="3" stroke-linecap="round" stroke-linejoin="round"/>
<path d="M52.2272 18.7791C52.1173 18.7791 52.021 18.7396 51.9385 18.6604C51.8561 18.5812 51.8148 18.4888 51.8148 18.3832C51.8148 18.1985 51.8217 18.0599 51.8354 17.9675C51.9317 17.4264 52.1448 16.9381 52.4747 16.5026C52.8184 16.0671 53.2789 15.5788 53.8563 15.0377C54.2824 14.6418 54.6055 14.3119 54.8254 14.0479C55.0454 13.7708 55.1622 13.5003 55.176 13.2363C55.2172 12.8536 55.0866 12.5435 54.7842 12.3059C54.4955 12.0684 54.1312 11.9496 53.6913 11.9496C52.674 11.9496 52.0485 12.4181 51.8148 13.3551C51.7461 13.5135 51.6636 13.6322 51.5674 13.7114C51.4711 13.7906 51.3337 13.8302 51.155 13.8302H48.4743C48.3368 13.8302 48.22 13.784 48.1237 13.6916C48.0412 13.586 48 13.4541 48 13.2957C48.0275 12.583 48.2681 11.8968 48.7217 11.2369C49.1754 10.5771 49.849 10.0426 50.7425 9.63347C51.6361 9.21116 52.7015 9 53.9388 9C55.2035 9 56.2276 9.19136 57.0112 9.57408C57.8086 9.9436 58.3791 10.3989 58.7227 10.94C59.0664 11.4811 59.2383 12.0288 59.2383 12.583C59.2383 13.2561 59.0802 13.8434 58.764 14.3449C58.4478 14.8464 57.9941 15.4073 57.403 16.0275C57.0319 16.4234 56.75 16.7402 56.5576 16.9777C56.3651 17.2153 56.207 17.4726 56.0833 17.7498C56.0283 17.8685 55.9802 18.0335 55.939 18.2447C55.829 18.4426 55.7259 18.5812 55.6296 18.6604C55.5472 18.7396 55.4303 18.7791 55.2791 18.7791H52.2272ZM52.2891 23.055C52.1379 23.055 52.0073 23.0089 51.8973 22.9165C51.8011 22.8241 51.753 22.7053 51.753 22.5601V20.2044C51.753 20.0593 51.8011 19.9405 51.8973 19.8481C52.0073 19.7425 52.1379 19.6898 52.2891 19.6898H55.0523C55.2035 19.6898 55.3272 19.7425 55.4234 19.8481C55.5334 19.9405 55.5884 20.0593 55.5884 20.2044V22.5601C55.5884 22.7053 55.5334 22.8241 55.4234 22.9165C55.3272 23.0089 55.2035 23.055 55.0523 23.055H52.2891Z" fill="#270570"/>
</svg>
