<svg width="72" height="72" viewBox="0 0 72 72" fill="none" xmlns="http://www.w3.org/2000/svg">
<path d="M41.6655 21.0427H15.844L11.619 29.5337L10.2101 32.3652H5.68778C5.30641 32.3652 4.93943 32.5108 4.66182 32.7723L2.3325 34.9662C1.70996 35.5526 1.70464 36.5406 2.32084 37.1336L11.5329 45.9995C11.8117 46.2678 12.1836 46.4177 12.5705 46.4177H27.5H58H65.2118C66.1118 46.4177 66.9645 46.0397 67.5356 45.3874L69.1021 43.5983C70.4718 42.034 70.2499 39.7285 68.6036 38.4195C63.2293 34.3535 60.3048 32.1508 59.83 32.1508H54.9197L43.7933 21.8702C43.2293 21.3404 42.4638 21.0427 41.6655 21.0427Z" fill="white"/>
<path fill-rule="evenodd" clip-rule="evenodd" d="M57 41H70L67.3735 47H57.6109L57 41Z" fill="#CBF6EC"/>
<path fill-rule="evenodd" clip-rule="evenodd" d="M27 41H48L46.988 47H27.9869L27 41Z" fill="#CBF6EC"/>
<path fill-rule="evenodd" clip-rule="evenodd" d="M6 41H18L16.988 47H11.9869L6 41Z" fill="#CBF6EC"/>
<path d="M15.844 21.0427L41.6655 21.0427C42.4638 21.0427 43.2293 21.3403 43.7933 21.8701L54.9197 32.1507H59.83C60.3048 32.1507 63.2293 34.3534 68.6036 38.4195C70.2499 39.7285 70.4718 42.0339 69.1021 43.5982L67.5356 45.3873C66.9645 46.0396 66.1118 46.4177 65.2118 46.4177H58M11.619 29.5337L10.2101 32.3651H5.68778C5.30641 32.3651 4.93943 32.5107 4.66182 32.7722L2.3325 34.9662C1.70996 35.5526 1.70464 36.5405 2.32084 37.1335L11.5329 45.9995C11.8117 46.2678 12.1836 46.4177 12.5705 46.4177H17.2337M27.5 46.4177H47" stroke="#270570" stroke-width="3" stroke-linecap="round" stroke-linejoin="round"/>
<path d="M27.3933 32.2375H59.9999" stroke="#270570" stroke-width="3" stroke-linecap="round" stroke-linejoin="round"/>
<path fill-rule="evenodd" clip-rule="evenodd" d="M22.1146 49.6802C19.1993 49.6802 16.8359 47.408 16.8359 44.6052C16.8359 41.8023 19.1993 39.5302 22.1146 39.5302C25.03 39.5302 27.3933 41.8023 27.3933 44.6052C27.3933 47.408 25.03 49.6802 22.1146 49.6802Z" fill="white" stroke="#270570" stroke-width="3" stroke-linecap="round" stroke-linejoin="round"/>
<path fill-rule="evenodd" clip-rule="evenodd" d="M52.2787 49.6802C49.3633 49.6802 47 47.408 47 44.6052C47 41.8023 49.3633 39.5302 52.2787 39.5302C55.194 39.5302 57.5574 41.8023 57.5574 44.6052C57.5574 47.408 55.194 49.6802 52.2787 49.6802Z" fill="white" stroke="#270570" stroke-width="3" stroke-linecap="round" stroke-linejoin="round"/>
<path d="M24.4825 27.5903C22.074 30.0054 19.2685 31.341 18.25 31.341V4.50018C21.4949 6.46077 25.3886 8.22134 28.982 9.22893C29.2207 9.2958 29.3862 9.51787 29.3862 9.77115V15.5158C29.3862 21.4315 26.7196 25.3472 24.4825 27.5903Z" fill="#CBF6EC"/>
<path d="M12.0639 27.7271C14.551 30.1565 17.4482 31.5 18.5 31.5V4.5C15.1491 6.47221 11.1282 8.24322 7.4174 9.2568C7.17088 9.32406 7 9.54744 7 9.80223V15.5809C7 21.5317 9.75369 25.4707 12.0639 27.7271Z" fill="white"/>
<path d="M7.11353 10.9661C7.11353 10.5134 7.11353 10.1151 7.11353 9.771C7.11353 9.51767 7.279 9.2956 7.51773 9.22873C11.2131 8.19258 14.6323 6.70854 17.9708 4.69163C18.1431 4.58749 18.357 4.58749 18.5293 4.69163C21.7742 6.65222 25.3887 8.22114 28.9821 9.22873C29.2208 9.2956 29.3863 9.51767 29.3863 9.77095V15.5156C29.3863 21.4313 26.7197 25.347 24.4825 27.5901C22.0741 30.0052 19.2686 31.3408 18.25 31.3408C17.2314 31.3408 14.4259 30.0052 12.0174 27.5901C10.8199 26.3894 9.4993 24.7094 8.53051 22.5" stroke="#270570" stroke-width="3" stroke-linecap="round" stroke-linejoin="round"/>
<path d="M13.2578 19.4315L15.9383 22.1699L22.7301 13.7848" stroke="#270570" stroke-width="3" stroke-linecap="round" stroke-linejoin="round"/>
</svg>
