<svg width="120" height="100" viewBox="0 0 120 100" fill="none" xmlns="http://www.w3.org/2000/svg">
<path d="M4 82.6372H107.073L116 86.5419" stroke="#270570" stroke-width="3" stroke-linecap="round" stroke-linejoin="round"/>
<path d="M45 51H67L77 62H40L45 51Z" fill="white"/>
<path d="M51 81.6372C53.7614 81.6372 56 79.3986 56 76.6372C56 73.8758 53.7614 71.6372 51 71.6372C48.2386 71.6372 46 73.8758 46 76.6372C46 79.3986 48.2386 81.6372 51 81.6372Z" fill="#CBF6EC"/>
<path d="M75 82.6372C77.7614 82.6372 80 80.3986 80 77.6372C80 74.8758 77.7614 72.6372 75 72.6372C72.2386 72.6372 70 74.8758 70 77.6372C70 80.3986 72.2386 82.6372 75 82.6372Z" fill="#CBF6EC"/>
<path d="M36 61.6372H82.5752L91 69.6482V76.6372H36V61.6372Z" fill="#CBF6EC"/>
<path d="M89.2704 71.1793C89.2704 70.5603 89.252 69.8533 88.7419 69.3419L84.4152 64.9439C83.9177 64.4452 83.1742 63.7036 82.1852 62.7195H77.0668C77.0271 62.7195 76.9875 62.7177 76.9483 62.7141H53.7145C52.9901 62.7141 52.4029 62.1287 52.4029 61.4064C52.4029 60.6842 52.9901 60.0987 53.7145 60.0987H74.2292L67.9442 52.7142C67.695 52.4214 67.3293 52.2526 66.9442 52.2526H45.8209C45.0966 52.2526 44.5094 51.6671 44.5094 50.9449C44.5094 50.2227 45.0966 49.6372 45.8209 49.6372H66.9442C68.0996 49.6372 69.1966 50.1435 69.9442 51.0219L77.6694 60.0987H78.6333C78.6735 60.0987 78.7133 60.1006 78.7526 60.1041H82.5678C82.5783 60.1041 82.5887 60.1042 82.599 60.1045C82.9738 60.0694 83.3609 60.1948 83.6483 60.4805C84.8358 61.6616 85.7112 62.5344 86.2814 63.1061L90.6081 67.504C92.1192 69.0189 91.9977 70.0745 91.9977 72.488C91.9977 75.7762 91.9977 77.5473 91.9977 77.8011C91.9977 78.1819 89.7897 78.4614 89.364 78.3865C89.2894 78.3996 89.2127 78.4064 89.1344 78.4064H81.1251C80.5175 81.3909 77.8712 83.6372 74.6987 83.6372C71.5262 83.6372 68.8799 81.3909 68.2723 78.4064H57.5178C56.9102 81.3909 54.2639 83.6372 51.0914 83.6372C47.9189 83.6372 45.2726 81.3909 44.665 78.4064H37.4049C36.0166 78.4064 34.0852 77.5932 34.0187 76.2443C33.9744 75.345 34.0088 71.7888 34.122 65.5757C34.0187 64.9439 34.0852 64.492 34.0852 63.9133C34.0852 61.8915 35.738 60.0987 37.7799 60.0987H39.2024L39.9716 58.5048C40.2856 57.854 41.0693 57.5802 41.7221 57.8934C42.3748 58.2065 42.6493 58.9879 42.3353 59.6387L41.2087 61.9734C40.9902 62.4262 40.5308 62.7141 40.0268 62.7141H37.7799C37.2383 62.7141 36.7083 63.2891 36.7083 63.9133C36.7083 64.0678 36.3711 64.2207 36.5268 64.5522V74.8271C36.7088 75.1728 36.9842 75.791 37.4049 75.791H44.665C45.2726 72.8066 47.9189 70.5603 51.0914 70.5603C54.2639 70.5603 56.9102 72.8066 57.5178 75.791H68.2723C68.8799 72.8066 71.5262 70.5603 74.6987 70.5603C77.8712 70.5603 80.5175 72.8066 81.1251 75.791H89.1344L89.2704 71.1793ZM74.6987 81.0218C76.8717 81.0218 78.6333 79.2654 78.6333 77.0987C78.6333 74.9321 76.8717 73.1757 74.6987 73.1757C72.5257 73.1757 70.7642 74.9321 70.7642 77.0987C70.7642 79.2654 72.5257 81.0218 74.6987 81.0218ZM51.0914 81.0218C53.2644 81.0218 55.026 79.2654 55.026 77.0987C55.026 74.9321 53.2644 73.1757 51.0914 73.1757C48.9184 73.1757 47.1569 74.9321 47.1569 77.0987C47.1569 79.2654 48.9184 81.0218 51.0914 81.0218Z" fill="#270570"/>
<path fill-rule="evenodd" clip-rule="evenodd" d="M87 22.7532V24.4732C87 25.1801 86.3905 25.7532 85.6387 25.7532L24.5 25.7532C23.7482 25.7532 24 25.6472 24 24.9403L24 23.4403V19.7532H31.3266L78.3601 19.7532" fill="#FFE3E0"/>
<path d="M87 22.7532V24.4732C87 25.1801 86.3905 25.7532 85.6387 25.7532L24.5 25.7532C23.7482 25.7532 24 25.6472 24 24.9403L24 23.4403V19.7532H31.3266L78.3601 19.7532" stroke="#270570" stroke-width="3" stroke-linecap="round" stroke-linejoin="round"/>
<path d="M46 37.4712C49.3516 40.8664 54.4273 43.0309 60.1086 43.0309C65.6685 43.0309 70.6484 40.9579 74 37.6872" stroke="#270570" stroke-width="3" stroke-linecap="round" stroke-linejoin="round"/>
<path d="M64.1796 30.9945C69.4148 28.6636 71.7875 22.5714 69.4793 17.3871C67.1711 12.2027 61.056 9.88951 55.8208 12.2203C50.5857 14.5512 48.213 20.6434 50.5212 25.8277C52.8294 31.0121 58.9445 33.3253 64.1796 30.9945Z" fill="#FFE3E0"/>
<path d="M55.7982 12.2304C50.5575 14.5487 48.1903 20.6263 50.5109 25.8051C52.8316 30.9839 58.9612 33.3028 64.2019 30.9844C69.4426 28.6661 71.8097 22.5884 69.4891 17.4097" stroke="#270570" stroke-width="3" stroke-linecap="round" stroke-linejoin="round"/>
<path d="M49.8699 33.8816C52.6362 36.392 55.775 37.9622 59.8875 37.9622C63.7556 37.9622 66.9985 36.1324 69.7069 33.8816" stroke="#270570" stroke-width="3" stroke-linecap="round" stroke-linejoin="round"/>
<path fill-rule="evenodd" clip-rule="evenodd" d="M17.677 26.6015V11.7532C17.677 10.6486 18.2143 9.75317 18.877 9.75317H21.8581L24 12.7532V80.7532C24 81.8577 23.4628 82.7532 22.8 82.7532H18.877C18.2143 82.7532 17.677 81.8577 17.677 80.7532V38.3122" fill="white"/>
<path d="M17.677 26.6015V11.7532C17.677 10.6486 18.2143 9.75317 18.877 9.75317H21.8581L24 12.7532V80.7532C24 81.8577 23.4628 82.7532 22.8 82.7532H18.877C18.2143 82.7532 17.677 81.8577 17.677 80.7532V38.3122" stroke="#270570" stroke-width="3" stroke-linecap="round" stroke-linejoin="round"/>
</svg>
