<svg width="72" height="72" viewBox="0 0 72 72" fill="none" xmlns="http://www.w3.org/2000/svg">
<path d="M41.6655 40.5427H17.7021C16.5637 40.5427 15.5234 41.1871 15.0162 42.2063L11.619 49.0337L10.2101 51.8652H5.68778C5.30641 51.8652 4.93943 52.0108 4.66182 52.2723L2.3325 54.4662C1.70996 55.0526 1.70464 56.0406 2.32084 56.6336L11.5329 65.4995C11.8117 65.7678 12.1836 65.9177 12.5705 65.9177H16.7337H27.5H47H57.5H65.2118C66.1118 65.9177 66.9645 65.5397 67.5356 64.8874L69.1021 63.0983C70.4718 61.534 70.2499 59.2285 68.6036 57.9195C63.2293 53.8535 60.3048 51.6508 59.83 51.6508H54.9197L43.7933 41.3702C43.2293 40.8404 42.4638 40.5427 41.6655 40.5427Z" fill="white"/>
<path d="M15.844 40.5427L41.6655 40.5427C42.4638 40.5427 43.2293 40.8404 43.7933 41.3702L54.9197 51.6508H59.83C60.3048 51.6508 63.2293 53.8535 68.6036 57.9195C70.2499 59.2285 70.4718 61.534 69.1021 63.0983L67.5356 64.8874C66.9645 65.5397 66.1118 65.9177 65.2118 65.9177H57.5M11.619 49.0337L10.2101 51.8652H5.68778C5.30641 51.8652 4.93943 52.0108 4.66182 52.2723L2.3325 54.4662C1.70996 55.0526 1.70464 56.0406 2.32084 56.6336L11.5329 65.4995C11.8117 65.7678 12.1836 65.9177 12.5705 65.9177H16.7337M27.5 65.9177H47" stroke="#270570" stroke-width="3" stroke-linecap="round" stroke-linejoin="round"/>
<path d="M27.3934 51.7376H60" stroke="#270570" stroke-width="3" stroke-linecap="round" stroke-linejoin="round"/>
<path fill-rule="evenodd" clip-rule="evenodd" d="M22.1147 69.1803C19.1994 69.1803 16.8361 66.9081 16.8361 64.1053C16.8361 61.3024 19.1994 59.0303 22.1147 59.0303C25.0301 59.0303 27.3934 61.3024 27.3934 64.1053C27.3934 66.9081 25.0301 69.1803 22.1147 69.1803Z" fill="white" stroke="#270570" stroke-width="3" stroke-linecap="round" stroke-linejoin="round"/>
<path fill-rule="evenodd" clip-rule="evenodd" d="M52.2787 69.1803C49.3633 69.1803 47 66.9081 47 64.1053C47 61.3024 49.3633 59.0303 52.2787 59.0303C55.194 59.0303 57.5574 61.3024 57.5574 64.1053C57.5574 66.9081 55.194 69.1803 52.2787 69.1803Z" fill="white" stroke="#270570" stroke-width="3" stroke-linecap="round" stroke-linejoin="round"/>
<path d="M64.535 28.144H58.9916L54 33.875L49.1552 28.144H42.3333C40.4924 28.144 39 26.7387 39 25.005V5.13899C39 3.40538 40.4924 2 42.3333 2H65.6667C67.5076 2 69 3.40538 69 5.13899C69 5.13899 69 15.2915 69 19.3053C69 20.139 69 22.9381 69 25.1657C69 26.8113 67.666 28.144 66.0204 28.144H64.535Z" fill="#FFE3E0"/>
<path d="M64.535 28.144H58.9916L54 33.875L49.1552 28.144H42.3333C40.4924 28.144 39 26.7387 39 25.005V5.13899C39 3.40538 40.4924 2 42.3333 2H65.6667C67.5076 2 69 3.40538 69 5.13899C69 5.13899 69 15.2915 69 19.3053" stroke="#270570" stroke-width="3" stroke-linecap="round" stroke-linejoin="round"/>
<path fill-rule="evenodd" clip-rule="evenodd" d="M64.2271 12.4554C63.7328 13.1202 62.7931 13.2583 62.1284 12.7639L60.797 11.7738V20.6462C60.797 21.4747 60.1254 22.1462 59.297 22.1462C58.4685 22.1462 57.797 21.4747 57.797 20.6462V11.9347L56.682 12.7639C56.0172 13.2583 55.0776 13.1202 54.5832 12.4554C54.0888 11.7907 54.227 10.8511 54.8917 10.3567L58.51 7.66572L59.4052 7L60.3003 7.66572L63.9186 10.3567C64.5834 10.8511 64.7215 11.7907 64.2271 12.4554ZM50.6184 9.50244C50.6184 8.67402 49.9469 8.00244 49.1184 8.00244C48.29 8.00244 47.6184 8.67402 47.6184 9.50244V18.5903L46.3952 17.6807C45.7305 17.1863 44.7908 17.3244 44.2965 17.9891C43.8021 18.6539 43.9402 19.5935 44.605 20.0879L48.2233 22.7789L49.1184 23.4446L50.0136 22.7789L53.6319 20.0879C54.2966 19.5935 54.4347 18.6539 53.9404 17.9891C53.446 17.3244 52.5064 17.1863 51.8416 17.6807L50.6184 18.5903V9.50244Z" fill="#270570"/>
</svg>
