<svg width="72" height="72" viewBox="0 0 72 72" fill="none" xmlns="http://www.w3.org/2000/svg">
<circle cx="25" cy="46" r="19" fill="white"/>
<path fill-rule="evenodd" clip-rule="evenodd" d="M41.1001 27.5925H60.0001V42.4425C60.0001 47.6616 55.7692 51.8925 50.5501 51.8925C45.331 51.8925 41.1001 47.6616 41.1001 42.4425V27.5925H41.1001Z" fill="white"/>
<path d="M41.1 26.0926C40.2716 26.0926 39.6 26.7641 39.6 27.5926C39.6 28.421 40.2716 29.0926 41.1 29.0926V26.0926ZM60 27.5926H61.5C61.5 26.7641 60.8284 26.0926 60 26.0926V27.5926ZM60 42.4426H61.5H60ZM41.1 42.4426H39.6H41.1ZM52.5 53.0926C52.5 52.2641 51.8284 51.5926 51 51.5926C50.1716 51.5926 49.5 52.2641 49.5 53.0926H52.5ZM49.5 63.5926C49.5 64.421 50.1716 65.0926 51 65.0926C51.8284 65.0926 52.5 64.421 52.5 63.5926H49.5ZM58.65 66.3631C59.4784 66.3631 60.15 65.6915 60.15 64.8631C60.15 64.0346 59.4784 63.3631 58.65 63.3631V66.3631ZM42.45 63.3631C41.6216 63.3631 40.95 64.0346 40.95 64.8631C40.95 65.6915 41.6216 66.3631 42.45 66.3631V63.3631ZM58.65 42.5926C59.4784 42.5926 60.15 41.921 60.15 41.0926C60.15 40.2641 59.4784 39.5926 58.65 39.5926V42.5926ZM42.45 39.5926C41.6216 39.5926 40.95 40.2641 40.95 41.0926C40.95 41.921 41.6216 42.5926 42.45 42.5926V39.5926ZM28.527 28.8711C29.3375 29.0426 30.1335 28.5245 30.305 27.7141C30.4765 26.9036 29.9585 26.1075 29.148 25.936L28.527 28.8711ZM24.9 26.9926V28.4926L24.9007 28.4926L24.9 26.9926ZM42.3151 56.5212C42.7474 55.8145 42.5249 54.8911 41.8181 54.4589C41.1114 54.0267 40.1881 54.2492 39.7559 54.9559L42.3151 56.5212ZM41.1 29.0926H60V26.0926H41.1V29.0926ZM58.5 27.5926V42.4426H61.5V27.5926H58.5ZM58.5 42.4426C58.5 46.8332 54.9407 50.3926 50.55 50.3926V53.3926C56.5975 53.3926 61.5 48.4901 61.5 42.4426H58.5ZM50.55 50.3926C46.1593 50.3926 42.6 46.8332 42.6 42.4426H39.6C39.6 48.4901 44.5025 53.3926 50.55 53.3926V50.3926ZM42.6 42.4426V27.5926H39.6V42.4426H42.6ZM49.5 53.0926V63.5926H52.5V53.0926H49.5ZM58.65 63.3631H42.45V66.3631H58.65V63.3631ZM58.65 39.5926H42.45V42.5926H58.65V39.5926ZM29.148 25.936C27.7511 25.6405 26.3271 25.4918 24.8993 25.4926L24.9007 28.4926C26.1194 28.492 27.3348 28.6188 28.527 28.8711L29.148 25.936ZM24.9 25.4926C13.6331 25.4926 4.5 34.6256 4.5 45.8926H7.5C7.5 36.2825 15.2899 28.4926 24.9 28.4926V25.4926ZM4.5 45.8926C4.5 57.1595 13.6331 66.2926 24.9 66.2926V63.2926C15.2899 63.2926 7.5 55.5026 7.5 45.8926H4.5ZM24.9 66.2926C32.275 66.2926 38.7331 62.378 42.3151 56.5212L39.7559 54.9559C36.6959 59.9591 31.187 63.2926 24.9 63.2926V66.2926Z" fill="#270570"/>
<circle cx="24.9001" cy="45.8925" r="10.8" stroke="#270570" stroke-width="3" stroke-linecap="round" stroke-linejoin="round"/>
<circle cx="54" cy="18" r="12" fill="#FFE3E0"/>
<path d="M54 6C47.3722 6 42 11.3722 42 18C42 24.6278 47.3722 30 54 30C60.6278 30 66 24.6278 66 18" stroke="#270570" stroke-width="3" stroke-linecap="round" stroke-linejoin="round"/>
<path d="M50.5 20.0001L55 17.9584V11.0001" stroke="#270570" stroke-width="3" stroke-linecap="round" stroke-linejoin="round"/>
</svg>
