<svg width="85" height="57" viewBox="0 0 85 57" fill="none" xmlns="http://www.w3.org/2000/svg">
<path d="M65.9694 18.5L49.3836 35.0858H17.9693" stroke="#D3C4F6" stroke-width="34" stroke-linecap="round" stroke-linejoin="round"/>
<path d="M47.7548 18.7978L44.4142 14.8831H24.7144C22.6468 14.8831 20.9708 16.4765 20.9708 18.4421V40.8133C20.9708 42.7789 22.6468 44.3724 24.7144 44.3724H44.3569L47.909 40.3049" fill="#CBF6EC"/>
<path d="M47.0796 18.8268L49.5664 14.8831H64.2308C65.7698 14.8831 67.0175 16.4883 67.0175 18.4685V41.0052C67.0175 42.9854 65.7698 44.5906 64.2308 44.5906H49.609L46.9649 40.493" fill="white"/>
<path d="M20.9876 36.9515V40.8133C20.9876 42.7789 22.6055 44.3724 24.6012 44.3724H42.9052L46.7583 40.662L50.352 44.3724H66.8244M34.6698 14.8831H42.9052L46.7583 18.5935L50.352 14.8831H55.5138" stroke="#270570" stroke-width="2" stroke-linecap="round" stroke-linejoin="round"/>
<path d="M66.8244 22.5496V43.444" stroke="#270570" stroke-width="2" stroke-linecap="round" stroke-linejoin="round"/>
<path d="M47.1351 23.5347V36.5624" stroke="#270570" stroke-width="2" stroke-linecap="round" stroke-linejoin="round" stroke-dasharray="1.74 5.21"/>
<path d="M36.8974 35.1501C35.7975 35.1501 34.9059 34.3296 34.9059 33.3176C34.9059 32.3055 35.7975 31.4851 36.8974 31.4851C37.9972 31.4851 38.8888 32.3055 38.8888 33.3176C38.8888 34.3296 37.9972 35.1501 36.8974 35.1501Z" stroke="#270570" stroke-width="2"/>
<path d="M30.1485 27.9628C29.0487 27.9628 28.1571 27.1424 28.1571 26.1303C28.1571 25.1183 29.0487 24.2979 30.1485 24.2979C31.2484 24.2979 32.14 25.1183 32.14 26.1303C32.14 27.1424 31.2484 27.9628 30.1485 27.9628Z" stroke="#270570" stroke-width="2"/>
<path d="M38.7534 24.6082L28.6302 34.311" stroke="#270570" stroke-width="2" stroke-linecap="round" stroke-linejoin="round"/>
</svg>
