<svg width="72" height="72" viewBox="0 0 72 72" fill="none" xmlns="http://www.w3.org/2000/svg">
<path fill-rule="evenodd" clip-rule="evenodd" d="M8.92162 12H36.2998C37.618 12 38.8811 12.5735 39.8061 13.592L41.4907 15.4468L43.1752 13.592C44.1003 12.5735 45.3634 12 46.6816 12H51.3106C53.3482 12 55 13.7915 55 16.0013V34.9987C55 37.2085 53.3482 39 51.3106 39H46.6816C45.3634 39 44.1003 38.4265 43.1752 37.408L41.4907 35.5532L39.8061 37.408C38.8811 38.4265 37.618 39 36.2998 39H8.92162C6.20348 39 4 36.6102 4 33.6623V17.3377C4 14.3898 6.20348 12 8.92162 12Z" fill="#CBF6EC"/>
<path d="M4 24.2194V14.5191C4 13.1278 5.00521 12 6.24521 12H37.4426C38.0308 12 38.5954 12.2589 39.0152 12.7211L41.4907 15.4468L43.9662 12.7211C44.386 12.2589 44.9506 12 45.5388 12H52.7548C53.9948 12 55 13.1278 55 14.5191V36.4809C55 37.8722 53.9948 39 52.7548 39H45.5388C44.9506 39 44.386 38.7411 43.9662 38.2789L41.4907 35.5532L39.0152 38.2789C38.5954 38.7411 38.0308 39 37.4426 39H9.52671" stroke="#270570" stroke-width="3" stroke-linecap="round" stroke-linejoin="round"/>
<path d="M41.5449 20.5461V23.1444" stroke="#270570" stroke-width="3" stroke-linecap="round" stroke-linejoin="round"/>
<path d="M41.5449 28.4751V31.0734" stroke="#270570" stroke-width="3" stroke-linecap="round" stroke-linejoin="round"/>
<path fill-rule="evenodd" clip-rule="evenodd" d="M64.0784 35H63.2402H36.7002C35.382 35 34.1189 35.5735 33.1939 36.592L31.5093 38.4468L29.8248 36.592C28.8997 35.5735 27.6366 35 26.3184 35H21.6894C19.6518 35 18 36.7915 18 39.0013V57.9987C18 60.2085 19.6518 62 21.6894 62H26.3184C27.6366 62 28.8997 61.4265 29.8248 60.408L31.5093 58.5532L33.1939 60.408C34.1189 61.4265 35.382 62 36.7002 62H64.0784C66.7965 62 69 59.6102 69 56.6623V47.9691V40.3377C69 37.3898 66.7965 35 64.0784 35Z" fill="white"/>
<path d="M63.2402 35H35.5574C34.9692 35 34.4046 35.2589 33.9848 35.7211L31.5093 38.4468L29.0338 35.7211C28.614 35.2589 28.0494 35 27.4612 35H20.2452C19.0052 35 18 36.1278 18 37.5191V59.4809C18 60.8722 19.0052 62 20.2452 62H27.4612C28.0494 62 28.614 61.7411 29.0338 61.2789L31.5093 58.5532L33.9848 61.2789C34.4046 61.7411 34.9692 62 35.5574 62H66.7548C67.9948 62 69 60.8722 69 59.4809V47.9691" stroke="#270570" stroke-width="3" stroke-linecap="round" stroke-linejoin="round"/>
<path d="M31.8052 43.4761V46.0744" stroke="#270570" stroke-width="3" stroke-linecap="round" stroke-linejoin="round"/>
<path d="M31.8052 51.4048V54.0031" stroke="#270570" stroke-width="3" stroke-linecap="round" stroke-linejoin="round"/>
<path d="M62.3749 47V44H60.8749L58.8749 46H51.8749V40H49.3749L46.8749 46C46.8749 46 43.3748 46 40.8749 46C38.3751 46 38.3749 51 40.8749 51C43.3749 51 46.8749 51 46.8749 51L49.3749 56.5H51.8749V51H60.8749" stroke="#270570" stroke-width="3" stroke-linecap="round" stroke-linejoin="round"/>
<path d="M10.6251 25V22H12.1251L14.1251 24H21.1251V18H23.6251L26.1251 24C26.1251 24 29.6252 24 32.1251 24C34.6249 24 34.6251 29 32.1251 29C29.6251 29 26.1251 29 26.1251 29L23.6251 34.5H21.1251V29H12.1251" stroke="#270570" stroke-width="3" stroke-linecap="round" stroke-linejoin="round"/>
</svg>
