<svg width="72" height="72" viewBox="0 0 72 72" fill="none" xmlns="http://www.w3.org/2000/svg">
<path d="M4 29C4 26.7909 5.79086 25 8 25H64C66.2091 25 68 26.7909 68 29V58.5L59 68H8C5.79086 68 4 66.2091 4 64V29Z" fill="white"/>
<path d="M8.98518 25.2856H62.411C65.1643 25.2856 67.3962 27.5176 67.3962 30.2708V40.9693H4V30.2708C4 27.5176 6.23194 25.2856 8.98518 25.2856Z" fill="#FFE3E0"/>
<path d="M27.1265 25.2858H62.9683C65.4138 25.2858 67.3962 27.6264 67.3962 30.5136V40.9694H31.2749M11.4275 40.9694H4V30.5136C4 27.6264 6.22738 25.2858 8.975 25.2858H43.6712" stroke="#270570" stroke-width="3" stroke-linecap="round" stroke-linejoin="round"/>
<path d="M67.3962 35.4028V59.1172L59.2604 67.6315H48.6456M30.0777 25.2858V67.6315H4V35.5304" stroke="#270570" stroke-width="3" stroke-linecap="round" stroke-linejoin="round"/>
<path d="M29.8678 24.5393C28.0996 15.1992 26.0588 9.38624 23.7454 7.10024C20.2752 3.67124 14.7431 3.77247 11.3892 7.32633C8.03522 10.8802 8.12943 16.5409 11.5996 19.9699C13.913 22.2559 20.0024 23.779 29.8678 24.5393Z" stroke="#270570" stroke-width="3" stroke-linecap="round" stroke-linejoin="round"/>
<path d="M37.4853 24.5393C39.2534 15.1992 41.2942 9.38624 43.6077 7.10024C47.0778 3.67124 52.6099 3.77246 55.9638 7.32632C59.3178 10.8802 59.2236 16.5409 55.7534 19.9699C53.44 22.2559 47.3506 23.779 37.4853 24.5393Z" stroke="#270570" stroke-width="3" stroke-linecap="round" stroke-linejoin="round"/>
<path d="M37.8113 24.0715V67.9857H40.7522" stroke="#270570" stroke-width="3" stroke-linecap="round" stroke-linejoin="round"/>
</svg>
