<svg width="72" height="72" viewBox="0 0 72 72" fill="none" xmlns="http://www.w3.org/2000/svg">
<g clip-path="url(#clip0_205_1483)">
<path fill-rule="evenodd" clip-rule="evenodd" d="M27.9876 31.5776C28.6878 30.076 30.4728 29.4263 31.9744 30.1265L32.122 29.8169C36.3522 21.1391 46.2165 16.9744 55.233 19.682C54.9938 18.8458 55.0438 17.9217 55.4407 17.0705C56.316 15.1935 58.5471 14.3814 60.4242 15.2567C62.3012 16.132 63.1133 18.3632 62.238 20.2402C61.8411 21.0914 61.1653 21.7236 60.3702 22.0787C68.3338 27.3056 71.4649 37.7206 67.3204 46.6086C68.822 47.3088 69.4717 49.0938 68.7715 50.5954C68.0712 52.097 66.2863 52.7467 64.7847 52.0465L29.4387 35.5644C27.9371 34.8641 27.2874 33.0792 27.9876 31.5776Z" fill="#CBF6EC"/>
<path fill-rule="evenodd" clip-rule="evenodd" d="M43.2165 48.6093L24.184 39.7344C26.8419 38.767 28.5934 37.377 29.4387 35.5644L64.7847 52.0465C63.9394 53.8591 64.0005 56.0943 64.9679 58.7522L56.8111 54.9486" fill="white"/>
<path d="M43.2165 48.6093L24.184 39.7344C26.8419 38.767 28.5934 37.377 29.4387 35.5644L64.7847 52.0465C63.9394 53.8591 64.0005 56.0943 64.9679 58.7522L56.8111 54.9486" stroke="#270570" stroke-width="3" stroke-linecap="round" stroke-linejoin="round"/>
<path d="M55.2322 19.6827C55.1127 19.2645 55.0665 18.8242 55.0987 18.3824C55.1309 17.9407 55.2423 17.4961 55.4407 17.0705C55.8781 16.1325 56.6549 15.4604 57.5573 15.133C58.459 14.8037 59.4861 14.8193 60.4242 15.2567C61.3635 15.6948 62.0357 16.4716 62.363 17.374C62.691 18.275 62.6754 19.3022 62.238 20.2402C62.0396 20.6657 61.7719 21.0374 61.4542 21.3461C61.1365 21.6547 60.7681 21.9017 60.371 22.0789C64.3521 24.6934 67.1264 28.6037 68.3852 32.9709C69.6467 37.3393 69.3921 42.1659 67.3204 46.6086C68.0708 46.9585 68.6085 47.58 68.8712 48.3016C69.1352 49.0239 69.1214 49.845 68.7715 50.5954C68.4209 51.3472 67.8008 51.8855 67.0778 52.1476C66.3562 52.4102 65.5351 52.3964 64.7847 52.0465L47.1117 43.8054L29.4387 35.5644C28.6883 35.2144 28.1499 34.5943 27.8872 33.8727C27.6246 33.1511 27.637 32.3294 27.9876 31.5776C28.3375 30.8272 28.959 30.2894 29.6806 30.0268C30.4022 29.7641 31.224 29.7766 31.9744 30.1265C34.0461 25.6838 37.5811 22.3869 41.737 20.5446" stroke="#270570" stroke-width="3" stroke-linecap="round" stroke-linejoin="round"/>
<path d="M25.5 13.5H37.5" stroke="#270570" stroke-width="3" stroke-linecap="round"/>
<path d="M10.5 25.5H28.5" stroke="#270570" stroke-width="3" stroke-linecap="round"/>
<path d="M1.5 37.5H19.5" stroke="#270570" stroke-width="3" stroke-linecap="round"/>
<path d="M10.5 49.5H28.5" stroke="#270570" stroke-width="3" stroke-linecap="round"/>
<path d="M46.5 61.5H25.5" stroke="#270570" stroke-width="3" stroke-linecap="round"/>
</g>
<defs>
<clipPath id="clip0_205_1483">
<rect width="72" height="72" fill="white"/>
</clipPath>
</defs>
</svg>
