<svg width="120" height="100" viewBox="0 0 120 100" fill="none" xmlns="http://www.w3.org/2000/svg">
<path d="M87 38H53V89H87V38Z" fill="white"/>
<path d="M91.4282 32.3232C93.1784 28.5524 95.8474 26.667 99.4354 26.667C103.023 26.667 105.666 28.4292 107.362 31.9535C113.406 31.9105 116.428 33.9404 116.428 38.0432C116.428 42.146 114.01 44.3539 109.175 44.667H91.4282" stroke="#270570" stroke-width="3" stroke-linecap="round" stroke-linejoin="round"/>
<path d="M34.4283 9.51323C33.2382 6.94907 31.4232 5.66699 28.9834 5.66699C26.5436 5.66699 24.7469 6.86527 23.5931 9.26183C19.4832 9.23256 17.4283 10.6129 17.4283 13.4028C17.4283 16.1927 19.0724 17.6941 22.3607 17.907H40.8279" stroke="#270570" stroke-width="3" stroke-linecap="round" stroke-linejoin="round"/>
<path fill-rule="evenodd" clip-rule="evenodd" d="M19.4282 89.167V29.3476C19.4282 28.4194 20.1782 27.667 21.1034 27.667H47.1232L52.9325 34.8949V89.167" fill="white"/>
<path fill-rule="evenodd" clip-rule="evenodd" d="M19.4282 89.167V56.1778V89.167Z" fill="white"/>
<path d="M19.4282 40.6943V29.3476C19.4282 28.4194 20.1782 27.667 21.1034 27.667H47.1232L52.9325 34.8949V89.167M19.4282 89.167V56.1778" stroke="#270570" stroke-width="3" stroke-linecap="round" stroke-linejoin="round"/>
<path d="M26.6418 88.5803V77.1648H45.6418V83.2303V88.5803" stroke="#270570" stroke-width="3" stroke-linecap="round" stroke-linejoin="round"/>
<path d="M60.4282 88.5803V77.1648H79.4282V83.2303V88.5803" stroke="#270570" stroke-width="3" stroke-linecap="round" stroke-linejoin="round"/>
<path fill-rule="evenodd" clip-rule="evenodd" d="M27.3257 38.3455H44.9369C45.3987 38.3455 45.773 38.7198 45.773 39.1815V48.8834C45.773 49.3451 45.3987 49.7194 44.9369 49.7194H27.3257C26.864 49.7194 26.4897 49.3451 26.4897 48.8834V39.1815C26.4897 38.7198 26.864 38.3455 27.3257 38.3455Z" fill="#FFE3E0" stroke="#270570" stroke-width="3" stroke-linecap="round" stroke-linejoin="round"/>
<path d="M26.4897 67.5055V61.8186V57.2711C26.4897 56.6418 27.3531 56.1316 28.4181 56.1316H43.8446C44.9096 56.1316 45.773 56.6418 45.773 57.2711V66.366C45.773 66.9953 44.9096 67.5055 43.8446 67.5055H38.13H34.9626" stroke="#270570" stroke-width="3" stroke-linecap="round" stroke-linejoin="round"/>
<path d="M87.4282 88.7915V37.7915H79.4282" stroke="#270570" stroke-width="3" stroke-linecap="round" stroke-linejoin="round"/>
<path fill-rule="evenodd" clip-rule="evenodd" d="M79.7729 67.5055V61.8186V57.2711C79.7729 56.6418 78.9096 56.1316 77.8446 56.1316H62.4181C61.3531 56.1316 60.4897 56.6418 60.4897 57.2711V66.366C60.4897 66.9953 61.3531 67.5055 62.4181 67.5055H68.1327H71.3001" fill="#FFE3E0"/>
<path d="M79.7729 67.5055V61.8186V57.2711C79.7729 56.6418 78.9096 56.1316 77.8446 56.1316H62.4181C61.3531 56.1316 60.4897 56.6418 60.4897 57.2711V66.366C60.4897 66.9953 61.3531 67.5055 62.4181 67.5055H68.1327H71.3001" stroke="#270570" stroke-width="3" stroke-linecap="round" stroke-linejoin="round"/>
<path d="M85.4282 45.9543H68.4282" stroke="#270570" stroke-width="3" stroke-linecap="round"/>
<path d="M69.5 5L69.7786 5.00236C78.2105 5.14563 85 11.7803 85 19.9438C85 28.1971 71.1409 40 69.5 40C67.8591 40 54 28.1971 54 19.9438C54 11.6906 60.9396 5 69.5 5Z" fill="#ECFDF9"/>
<path d="M54 19.9438C54 28.1971 67.8591 40 69.5 40C71.1409 40 85 28.1971 85 19.9438C85 11.6906 78.0604 5 69.5 5" stroke="#270570" stroke-width="3" stroke-linecap="round" stroke-linejoin="round"/>
<path d="M69.5 23C71.433 23 73 21.433 73 19.5C73 17.567 71.433 16 69.5 16C67.567 16 66 17.567 66 19.5C66 21.433 67.567 23 69.5 23Z" fill="white" stroke="#270570" stroke-width="3"/>
<path d="M115.896 95.6896L108.166 90.167H3.37215" stroke="#270570" stroke-width="3" stroke-linecap="round" stroke-linejoin="round"/>
</svg>
