<svg width="72" height="72" viewBox="0 0 72 72" fill="none" xmlns="http://www.w3.org/2000/svg">
<path d="M13.9611 13.436C13.9827 11.5321 15.5322 10 17.4363 10H58.3115V53.0082L48.9999 65H16.892C14.9572 65 13.3949 63.4199 13.4168 61.4852L13.9611 13.436Z" fill="white"/>
<path d="M14 58C14 54.4582 14 51.8011 14 50.0286C14 44.4776 14 40.4358 14 37.9033C14 33.0255 14 25.7087 14 15.9531C14 12.6653 16.6774 10 19.9802 10L52.0198 10C55.3226 10 58 12.6653 58 15.9531C58 21.8003 58 26.1856 58 29.1092" stroke="#270570" stroke-width="3" stroke-linecap="round" stroke-linejoin="round"/>
<path d="M58 42V54.7107L48.2643 65H23" stroke="#270570" stroke-width="3" stroke-linecap="round" stroke-linejoin="round"/>
<path d="M25 28H46" stroke="#270570" stroke-width="3" stroke-linecap="round" stroke-linejoin="round"/>
<path d="M25 37H46" stroke="#270570" stroke-width="3" stroke-linecap="round" stroke-linejoin="round"/>
<path d="M20 51H52" stroke="#270570" stroke-width="3" stroke-linecap="round" stroke-linejoin="round" stroke-dasharray="3 6"/>
<path d="M54 30C60.6274 30 66 24.6274 66 18C66 11.3726 60.6274 6 54 6C47.3726 6 42 11.3726 42 18C42 24.6274 47.3726 30 54 30Z" fill="#FFE3E0"/>
<path d="M53.8187 24.5C53.7187 24.5 53.6287 24.465 53.5487 24.395C53.4787 24.325 53.4437 24.235 53.4437 24.125V23.075C52.6937 22.985 52.0537 22.8 51.5237 22.52C51.0037 22.23 50.6087 21.875 50.3387 21.455C50.0787 21.035 49.9387 20.59 49.9187 20.12C49.9187 20.03 49.9487 19.955 50.0087 19.895C50.0787 19.835 50.1587 19.805 50.2487 19.805H52.2437C52.3737 19.805 52.4737 19.825 52.5437 19.865C52.6137 19.905 52.6937 19.975 52.7837 20.075C53.0937 20.625 53.6637 20.9 54.4937 20.9C55.0337 20.9 55.4487 20.82 55.7387 20.66C56.0387 20.49 56.1887 20.26 56.1887 19.97C56.1887 19.76 56.1087 19.59 55.9487 19.46C55.7987 19.32 55.5587 19.2 55.2287 19.1C54.9087 18.99 54.4337 18.87 53.8037 18.74C52.5937 18.5 51.6887 18.135 51.0887 17.645C50.4887 17.155 50.1887 16.455 50.1887 15.545C50.1887 14.735 50.4787 14.05 51.0587 13.49C51.6387 12.92 52.4337 12.565 53.4437 12.425V11.375C53.4437 11.265 53.4787 11.175 53.5487 11.105C53.6287 11.035 53.7187 11 53.8187 11H55.1237C55.2337 11 55.3237 11.035 55.3937 11.105C55.4637 11.175 55.4987 11.265 55.4987 11.375V12.455C56.1587 12.575 56.7287 12.79 57.2087 13.1C57.6887 13.4 58.0537 13.75 58.3037 14.15C58.5637 14.54 58.7037 14.92 58.7237 15.29C58.7237 15.38 58.6937 15.46 58.6337 15.53C58.5737 15.59 58.4987 15.62 58.4087 15.62H56.3087C56.0787 15.62 55.9087 15.53 55.7987 15.35C55.7387 15.14 55.5787 14.965 55.3187 14.825C55.0687 14.675 54.7637 14.6 54.4037 14.6C53.9837 14.6 53.6587 14.675 53.4287 14.825C53.1987 14.975 53.0837 15.195 53.0837 15.485C53.0837 15.775 53.2337 16.005 53.5337 16.175C53.8337 16.335 54.3887 16.5 55.1987 16.67C56.1387 16.84 56.8887 17.055 57.4487 17.315C58.0087 17.565 58.4187 17.895 58.6787 18.305C58.9387 18.705 59.0687 19.215 59.0687 19.835C59.0687 20.715 58.7437 21.44 58.0937 22.01C57.4537 22.58 56.5887 22.935 55.4987 23.075V24.125C55.4987 24.235 55.4637 24.325 55.3937 24.395C55.3237 24.465 55.2337 24.5 55.1237 24.5H53.8187Z" fill="#270570"/>
<path d="M54 6C47.3726 6 42 11.3726 42 18C42 24.6274 47.3726 30 54 30V30C60.6274 30 66 24.6274 66 18" stroke="#270570" stroke-width="3" stroke-linecap="round" stroke-linejoin="round"/>
</svg>
