<svg width="72" height="72" viewBox="0 0 72 72" fill="none" xmlns="http://www.w3.org/2000/svg">
<path d="M19.9388 63.4246H47.8673C51.7668 63.4246 54.928 60.2634 54.928 56.3638L54.928 30.34H10.7417V46.0025L10.4954 55.6697C10.3871 59.9203 13.8032 63.4246 18.0551 63.4246H19.9388Z" fill="white"/>
<path d="M20.1583 63H47.9393C51.8388 63 55 59.8388 55 55.9393L55 29.9453C55 29.4232 54.5768 29 54.0547 29H11.9453C11.4232 29 11 29.4232 11 29.9453V51.2586" stroke="#270570" stroke-width="2.83582" stroke-linecap="round" stroke-linejoin="round"/>
<path d="M59.5785 42C60.9158 42 62 41.2397 62 40.3019L62 32.1339V30.6981C62 29 60.9158 29 59.5785 29H30" stroke="#270570" stroke-width="2.83582" stroke-linecap="round" stroke-linejoin="round"/>
<path d="M6.42152 43C5.08415 43 4 42.1812 4 41.1713L4 32.375L4 30.8287C4 29 5.08415 29 6.42152 29H36" stroke="#270570" stroke-width="2.83582" stroke-linecap="round" stroke-linejoin="round"/>
<rect width="42.8505" height="5.00386" transform="matrix(0.99863 -0.052336 -0.052336 -0.99863 10.938 21.8165)" fill="#CBF6EC"/>
<path d="M39.9307 14.3926L11.6761 16.142C11.1551 16.1742 10.7587 16.6228 10.7907 17.1439L11.0926 22.0463C11.1248 22.5683 11.5746 22.9648 12.0965 22.9312L20.6719 22.3789L52.9757 20.4019C53.4971 20.37 53.8939 19.9213 53.8618 19.4L53.5598 14.4959C53.5277 13.9748 53.0793 13.5786 52.5582 13.6108L46.7162 13.9725" stroke="#270570" stroke-width="2.83582" stroke-linecap="round" stroke-linejoin="round"/>
<path d="M36.2668 13.5525C36.118 11.4101 35.9973 9.67345 34.7547 9.75981L31.0267 10.0189L27.3546 10.2741C26.056 10.3643 26.1766 12.101 26.3255 14.2434" stroke="#270570" stroke-width="2.83582" stroke-linecap="round" stroke-linejoin="round"/>
<line x1="64.2075" y1="17.207" x2="59.7554" y2="20.7207" stroke="#270570" stroke-width="2.83582" stroke-linecap="round"/>
<line x1="67.8449" y1="23.3048" x2="62.2959" y2="24.4776" stroke="#270570" stroke-width="2.83582" stroke-linecap="round"/>
</svg>
