<svg width="72" height="72" viewBox="0 0 72 72" fill="none" xmlns="http://www.w3.org/2000/svg">
<rect x="4" y="19" width="57" height="36" fill="white"/>
<path d="M61 39.4218V55.6811H4C4 53.2632 4 43.9927 4 27.8696M4 29.0246C4 27.3154 4 24.7517 4 21.3333C4 20.0447 5.10049 19 6.45801 19H10.3698H43.165" stroke="#270570" stroke-width="3" stroke-linecap="round" stroke-linejoin="round"/>
<path d="M33.0926 40.3181L5 27L33.0926 40.3181Z" stroke="#270570" stroke-width="3" stroke-linecap="round" stroke-linejoin="round"/>
<path d="M33 40.2129L46.1052 34L33 40.2129Z" stroke="#270570" stroke-width="3" stroke-linecap="round" stroke-linejoin="round"/>
<path d="M64.535 28.144H58.9916L54 33.875L49.1552 28.144H42.3333C40.4924 28.144 39 26.7387 39 25.005V5.13899C39 3.40538 40.4924 2 42.3333 2H65.6667C67.5076 2 69 3.40538 69 5.13899C69 5.13899 69 15.2915 69 19.3053C69 20.139 69 22.9381 69 25.1657C69 26.8113 67.666 28.144 66.0204 28.144H64.535Z" fill="#FFE3E0"/>
<path d="M64.535 28.144H58.9916L54 33.875L49.1552 28.144H42.3333C40.4924 28.144 39 26.7387 39 25.005V5.13899C39 3.40538 40.4924 2 42.3333 2H65.6667C67.5076 2 69 3.40538 69 5.13899C69 5.13899 69 15.2915 69 19.3053" stroke="#270570" stroke-width="3" stroke-linecap="round" stroke-linejoin="round"/>
<path d="M54.75 10V20.7595" stroke="#270570" stroke-width="3" stroke-linecap="round"/>
<path d="M49 15.3806H59.7595" stroke="#270570" stroke-width="3" stroke-linecap="round"/>
</svg>
