<svg width="72" height="72" viewBox="0 0 72 72" fill="none" xmlns="http://www.w3.org/2000/svg">
<rect x="53.0828" y="43.8621" width="7.67803" height="21.9372" fill="#CCCCCC"/>
<path d="M61.6639 63.0001V47.7735C61.6639 45.5602 59.7781 43.7736 57.4419 43.7736H53.1917" stroke="#666666" stroke-width="3" stroke-linecap="round" stroke-linejoin="round"/>
<path d="M52.6423 43.7731V62.9997V66.9996H15.2221C12.8845 66.9996 11 65.213 11 62.9997V11C11 8.78666 12.8845 7 15.2221 7H20.231H34.0149H48.4203C50.741 7 52.6423 8.78666 52.6423 11V43.7731Z" fill="#CCCCCC"/>
<path d="M52.6423 62.9997V43.7731V11C52.6423 8.78666 50.741 7 48.4203 7H34.0149M56.8644 66.9997H15.2221C12.8845 66.9997 11 65.213 11 62.9997V11C11 8.78666 12.8845 7 15.2221 7H20.231" stroke="#666666" stroke-width="3" stroke-linecap="round" stroke-linejoin="round"/>
<path d="M52.6426 62.9999C52.6426 65.2132 54.8682 66.9999 57.2794 66.9999C59.6746 66.9999 61.637 65.2132 61.637 62.9999" stroke="#666666" stroke-width="3" stroke-linecap="round" stroke-linejoin="round"/>
<path d="M20.5564 17.213H43.6668" stroke="#666666" stroke-width="3" stroke-linecap="round" stroke-linejoin="round"/>
<path d="M20.5564 27.0847H43.6668" stroke="#666666" stroke-width="3" stroke-linecap="round" stroke-linejoin="round"/>
<path d="M16.2148 38.1034H50.9385" stroke="#666666" stroke-width="2.97959" stroke-linecap="round" stroke-linejoin="round" stroke-dasharray="3.76 9.41"/>
<path d="M32.8433 61.1637C32.7125 61.1637 32.5981 61.1176 32.5001 61.0255C32.4021 60.9333 32.353 60.8149 32.353 60.6701V59.288C31.3726 59.1696 30.5392 58.9228 29.8529 58.5477C29.1665 58.1725 28.6502 57.7086 28.3037 57.1557C27.9573 56.6029 27.771 56.0172 27.7449 55.3986C27.7449 55.2801 27.7874 55.1814 27.8723 55.1024C27.9573 55.0234 28.0586 54.984 28.1763 54.984H30.7843C30.9542 54.984 31.085 55.0103 31.1765 55.0629C31.268 55.1156 31.3726 55.2077 31.4902 55.3393C31.8955 56.0633 32.6406 56.4252 33.7257 56.4252C34.4316 56.4252 34.9774 56.3167 35.363 56.0995C35.7487 55.8823 35.9415 55.5829 35.9415 55.2011C35.9415 54.9247 35.8402 54.6977 35.6376 54.52C35.4349 54.3423 35.1212 54.1844 34.6963 54.0461C34.2715 53.9079 33.6472 53.7533 32.8237 53.5822C31.2418 53.2663 30.0588 52.7859 29.2744 52.1409C28.49 51.4959 28.0978 50.5746 28.0978 49.3768C28.0978 48.3107 28.4769 47.4058 29.2352 46.6621C29.9934 45.9184 31.0327 45.4544 32.353 45.2702V43.8881C32.353 43.7433 32.4021 43.6249 32.5001 43.5327C32.5981 43.4406 32.7125 43.3945 32.8433 43.3945H34.5493C34.6931 43.3945 34.8107 43.4406 34.9022 43.5327C34.9937 43.6249 35.0395 43.7433 35.0395 43.8881V45.3097C35.9023 45.4676 36.6474 45.7473 37.2749 46.1487C37.9024 46.5502 38.3829 47.0109 38.7162 47.5308C39.0496 48.0507 39.2293 48.5542 39.2555 49.0412C39.2555 49.1596 39.2162 49.2616 39.1378 49.3472C39.0594 49.4328 38.9613 49.4755 38.8437 49.4755H36.0984C35.7977 49.4755 35.5755 49.3571 35.4317 49.1201C35.3532 48.8437 35.1473 48.6101 34.814 48.4193C34.4806 48.2284 34.0786 48.133 33.608 48.133C33.059 48.133 32.6341 48.2317 32.3334 48.4291C32.0327 48.6266 31.8824 48.9161 31.8824 49.2978C31.8824 49.6795 32.0785 49.979 32.4707 50.1962C32.8629 50.4133 33.5884 50.6338 34.6473 50.8576C35.8762 51.0813 36.8566 51.361 37.5887 51.6967C38.3208 52.0323 38.8567 52.4667 39.1966 52.9997C39.5365 53.5328 39.7065 54.2074 39.7065 55.0235C39.7065 56.1817 39.2849 57.136 38.4417 57.8863C37.5985 58.6365 36.4644 59.1038 35.0395 59.288V60.6701C35.0395 60.8149 34.9937 60.9333 34.9022 61.0255C34.8107 61.1176 34.6931 61.1637 34.5493 61.1637H32.8433Z" fill="#666666"/>
<path d="M64.535 29.144H58.9916L54 34.875L49.1552 29.144H42.3333C40.4924 29.144 39 27.7387 39 26.005V6.13899C39 4.40538 40.4924 3 42.3333 3H65.6667C67.5076 3 69 4.40538 69 6.13899C69 6.13899 69 16.2915 69 20.3053C69 21.139 69 23.9381 69 26.1657C69 27.8113 67.666 29.144 66.0204 29.144H64.535Z" fill="#CCCCCC"/>
<path d="M64.535 28.144H58.9916L54 33.875L49.1552 28.144H42.3333C40.4924 28.144 39 26.7387 39 25.005V5.13899C39 3.40538 40.4924 2 42.3333 2H65.6667C67.5076 2 69 3.40538 69 5.13899C69 5.13899 69 15.2915 69 19.3053" stroke="#666666" stroke-width="3" stroke-linecap="round" stroke-linejoin="round"/>
<path d="M52.2272 18.7791C52.1173 18.7791 52.021 18.7396 51.9385 18.6604C51.8561 18.5812 51.8148 18.4888 51.8148 18.3832C51.8148 18.1985 51.8217 18.0599 51.8354 17.9675C51.9317 17.4264 52.1448 16.9381 52.4747 16.5026C52.8184 16.0671 53.2789 15.5788 53.8563 15.0377C54.2824 14.6418 54.6055 14.3119 54.8254 14.0479C55.0454 13.7708 55.1622 13.5003 55.176 13.2363C55.2172 12.8536 55.0866 12.5435 54.7842 12.3059C54.4955 12.0684 54.1312 11.9496 53.6913 11.9496C52.674 11.9496 52.0485 12.4181 51.8148 13.3551C51.7461 13.5135 51.6636 13.6322 51.5674 13.7114C51.4711 13.7906 51.3337 13.8302 51.155 13.8302H48.4743C48.3368 13.8302 48.22 13.784 48.1237 13.6916C48.0412 13.586 48 13.4541 48 13.2957C48.0275 12.583 48.2681 11.8968 48.7217 11.2369C49.1754 10.5771 49.849 10.0426 50.7425 9.63347C51.6361 9.21116 52.7015 9 53.9388 9C55.2035 9 56.2276 9.19136 57.0112 9.57408C57.8086 9.9436 58.3791 10.3989 58.7227 10.94C59.0664 11.4811 59.2383 12.0288 59.2383 12.583C59.2383 13.2561 59.0802 13.8434 58.764 14.3449C58.4478 14.8464 57.9941 15.4073 57.403 16.0275C57.0319 16.4234 56.75 16.7402 56.5576 16.9777C56.3651 17.2153 56.207 17.4726 56.0833 17.7498C56.0283 17.8685 55.9802 18.0335 55.939 18.2447C55.829 18.4426 55.7259 18.5812 55.6296 18.6604C55.5472 18.7396 55.4303 18.7791 55.2791 18.7791H52.2272ZM52.2891 23.055C52.1379 23.055 52.0073 23.0089 51.8973 22.9165C51.8011 22.8241 51.753 22.7053 51.753 22.5602V20.2044C51.753 20.0593 51.8011 19.9405 51.8973 19.8481C52.0073 19.7425 52.1379 19.6898 52.2891 19.6898H55.0523C55.2035 19.6898 55.3272 19.7425 55.4234 19.8481C55.5334 19.9405 55.5884 20.0593 55.5884 20.2044V22.5602C55.5884 22.7053 55.5334 22.8241 55.4234 22.9165C55.3272 23.0089 55.2035 23.055 55.0523 23.055H52.2891Z" fill="#666666"/>
</svg>
