<svg width="72" height="72" viewBox="0 0 72 72" fill="none" xmlns="http://www.w3.org/2000/svg">
<rect x="53.0828" y="43.8621" width="7.67803" height="21.9372" fill="#FFE3E0"/>
<path d="M61.6639 63.0001V47.7735C61.6639 45.5602 59.7781 43.7736 57.4419 43.7736H53.1917" stroke="#270570" stroke-width="3" stroke-linecap="round" stroke-linejoin="round"/>
<path d="M52.6423 43.7731V62.9997V66.9996H15.2221C12.8845 66.9996 11 65.213 11 62.9997V11C11 8.78666 12.8845 7 15.2221 7H20.231H34.0149H48.4203C50.741 7 52.6423 8.78666 52.6423 11V43.7731Z" fill="white"/>
<path d="M52.6423 62.9997V43.7731V11C52.6423 8.78666 50.741 7 48.4203 7H34.0149M56.8644 66.9997H15.2221C12.8845 66.9997 11 65.213 11 62.9997V11C11 8.78666 12.8845 7 15.2221 7H20.231" stroke="#270570" stroke-width="3" stroke-linecap="round" stroke-linejoin="round"/>
<path d="M52.6426 62.9999C52.6426 65.2132 54.8682 66.9999 57.2794 66.9999C59.6746 66.9999 61.637 65.2132 61.637 62.9999" stroke="#270570" stroke-width="3" stroke-linecap="round" stroke-linejoin="round"/>
<path d="M20.5564 17.213H43.6668" stroke="#270570" stroke-width="3" stroke-linecap="round" stroke-linejoin="round"/>
<path d="M20.5564 27.0847H43.6668" stroke="#270570" stroke-width="3" stroke-linecap="round" stroke-linejoin="round"/>
<path d="M16.2148 38.1034H50.9385" stroke="#270570" stroke-width="2.97959" stroke-linecap="round" stroke-linejoin="round" stroke-dasharray="3.76 9.41"/>
<path d="M32.8433 61.1637C32.7125 61.1637 32.5981 61.1176 32.5001 61.0255C32.4021 60.9333 32.353 60.8149 32.353 60.6701V59.288C31.3726 59.1696 30.5392 58.9228 29.8529 58.5477C29.1665 58.1725 28.6502 57.7086 28.3037 57.1557C27.9573 56.6029 27.771 56.0172 27.7449 55.3986C27.7449 55.2801 27.7874 55.1814 27.8723 55.1024C27.9573 55.0234 28.0586 54.984 28.1763 54.984H30.7843C30.9542 54.984 31.085 55.0103 31.1765 55.0629C31.268 55.1156 31.3726 55.2077 31.4902 55.3393C31.8955 56.0633 32.6406 56.4252 33.7257 56.4252C34.4316 56.4252 34.9774 56.3167 35.363 56.0995C35.7487 55.8823 35.9415 55.5829 35.9415 55.2011C35.9415 54.9247 35.8402 54.6977 35.6376 54.52C35.4349 54.3423 35.1212 54.1844 34.6963 54.0461C34.2715 53.9079 33.6472 53.7533 32.8237 53.5822C31.2418 53.2663 30.0588 52.7859 29.2744 52.1409C28.49 51.4959 28.0978 50.5746 28.0978 49.3768C28.0978 48.3107 28.4769 47.4058 29.2352 46.6621C29.9934 45.9184 31.0327 45.4544 32.353 45.2702V43.8881C32.353 43.7433 32.4021 43.6249 32.5001 43.5327C32.5981 43.4406 32.7125 43.3945 32.8433 43.3945H34.5493C34.6931 43.3945 34.8107 43.4406 34.9022 43.5327C34.9937 43.6249 35.0395 43.7433 35.0395 43.8881V45.3097C35.9023 45.4676 36.6474 45.7473 37.2749 46.1487C37.9024 46.5502 38.3829 47.0109 38.7162 47.5308C39.0496 48.0507 39.2293 48.5542 39.2555 49.0412C39.2555 49.1596 39.2162 49.2616 39.1378 49.3472C39.0594 49.4328 38.9613 49.4755 38.8437 49.4755H36.0984C35.7977 49.4755 35.5755 49.3571 35.4317 49.1201C35.3532 48.8437 35.1473 48.6101 34.814 48.4193C34.4806 48.2284 34.0786 48.133 33.608 48.133C33.059 48.133 32.6341 48.2317 32.3334 48.4291C32.0327 48.6266 31.8824 48.9161 31.8824 49.2978C31.8824 49.6795 32.0785 49.979 32.4707 50.1962C32.8629 50.4133 33.5884 50.6338 34.6473 50.8576C35.8762 51.0813 36.8566 51.361 37.5887 51.6967C38.3208 52.0323 38.8567 52.4667 39.1966 52.9997C39.5365 53.5328 39.7065 54.2074 39.7065 55.0235C39.7065 56.1817 39.2849 57.136 38.4417 57.8863C37.5985 58.6365 36.4644 59.1038 35.0395 59.288V60.6701C35.0395 60.8149 34.9937 60.9333 34.9022 61.0255C34.8107 61.1176 34.6931 61.1637 34.5493 61.1637H32.8433Z" fill="#270570"/>
</svg>
