<svg width="72" height="72" viewBox="0 0 72 72" fill="none" xmlns="http://www.w3.org/2000/svg">
<path fill-rule="evenodd" clip-rule="evenodd" d="M8 16.269C8 14.1188 8.59222 12.6766 9.77666 11.9422C14.4812 10.3297 28.2595 7.35642 51.1115 3.02247C52.882 2.87048 53.7673 3.49058 53.7673 4.88277C53.7673 6.27495 53.7673 13.4875 53.7673 16.269" fill="white"/>
<path fill-rule="evenodd" clip-rule="evenodd" d="M56.5835 69.69H16.8931C11.9815 69.69 8 65.6935 8 60.7622V16.585H56.5835C57.6108 16.585 58.445 17.4211 58.445 18.4535V67.8214C58.445 68.8539 57.6108 69.69 56.5835 69.69Z" fill="white" stroke="#270570" stroke-width="2.85"/>
<path fill-rule="evenodd" clip-rule="evenodd" d="M20.3037 55.3168L33.1494 55.3175C40.4678 55.3175 46.4005 49.4113 46.4005 42.1262C46.4005 34.8411 40.4678 28.935 33.1494 28.935L20.3037 28.9357V55.3168Z" stroke="#270570" stroke-width="2.85" stroke-linejoin="round"/>
<path d="M20.3642 28.935C20.3439 28.935 20.3239 28.9357 20.3037 28.9357V55.3168C20.3239 55.3168 20.3439 55.3175 20.3642 55.3175C27.5372 55.3175 33.3521 49.4116 33.3521 42.1263C33.3521 34.8411 27.5372 28.935 20.3642 28.935" fill="#FFE3E0"/>
<path d="M20.3642 28.935C20.3439 28.935 20.3239 28.9357 20.3037 28.9357V55.3168C20.3239 55.3168 20.3439 55.3175 20.3642 55.3175C27.5372 55.3175 33.3521 49.4116 33.3521 42.1263C33.3521 34.8411 27.5372 28.935 20.3642 28.935" stroke="#270570" stroke-width="2.85" stroke-linecap="round" stroke-linejoin="round"/>
<path d="M8 16.2689C8 14.1188 8.59222 12.6765 9.77666 11.9422C14.4812 10.3296 28.2595 7.35639 51.1115 3.02244C52.882 2.87045 53.7673 3.49055 53.7673 4.88274C53.7673 6.27492 53.7673 8.36176 53.7673 11.1433" stroke="#270570" stroke-width="3" stroke-linecap="round" stroke-linejoin="round"/>
</svg>
