<svg width="120" height="100" viewBox="0 0 120 100" fill="none" xmlns="http://www.w3.org/2000/svg">
<path d="M39 13C39 10.7909 40.7909 9 43 9H92C95.3137 9 98 11.6863 98 15V67C98 70.3137 95.3137 73 92 73H43C40.7909 73 39 71.2091 39 69V13Z" fill="white"/>
<path fill-rule="evenodd" clip-rule="evenodd" d="M43.0474 9C43.0474 8.17157 43.7189 7.5 44.5474 7.5H91.5368C95.7139 7.5 99.1 10.8861 99.1 15.0632V66.6C99.1 70.777 95.7139 74.1632 91.5368 74.1632H65C64.1716 74.1632 63.5 73.4916 63.5 72.6632C63.5 71.8347 64.1716 71.1632 65 71.1632H91.5368C94.057 71.1632 96.1 69.1202 96.1 66.6V15.0632C96.1 12.543 94.057 10.5 91.5368 10.5H44.5474C43.7189 10.5 43.0474 9.82843 43.0474 9Z" fill="#270570"/>
<path d="M87 10.5159H88.5053C91.0167 10.5159 93.0526 12.5518 93.0526 15.0632V66.6001C93.0526 69.1115 91.0167 71.1474 88.5053 71.1474H87V10.5159Z" fill="#CBF6EC"/>
<path fill-rule="evenodd" clip-rule="evenodd" d="M42.0316 10.5C41.1857 10.5 40.5 11.1857 40.5 12.0316V44C40.5 44.8284 39.8284 45.5 39 45.5C38.1716 45.5 37.5 44.8284 37.5 44V12.0316C37.5 9.52886 39.5289 7.5 42.0316 7.5H81.4421C85.6191 7.5 89.0053 10.8861 89.0053 15.0632V51.452C89.0053 52.2805 88.3337 52.952 87.5053 52.952C86.6768 52.952 86.0053 52.2805 86.0053 51.452V15.0632C86.0053 12.543 83.9623 10.5 81.4421 10.5H42.0316ZM87.5053 59.1794C88.3337 59.1794 89.0053 59.851 89.0053 60.6794V66.6C89.0053 70.777 85.6191 74.1632 81.4421 74.1632C80.6137 74.1632 79.9421 73.4916 79.9421 72.6632C79.9421 71.8347 80.6137 71.1632 81.4421 71.1632C83.9623 71.1632 86.0053 69.1202 86.0053 66.6V60.6794C86.0053 59.851 86.6768 59.1794 87.5053 59.1794Z" fill="#270570"/>
<path fill-rule="evenodd" clip-rule="evenodd" d="M63.6487 57.5C63.6487 56.6716 64.3203 56 65.1487 56H75.8514C76.6798 56 77.3514 56.6716 77.3514 57.5C77.3514 58.3284 76.6798 59 75.8514 59H65.1487C64.3203 59 63.6487 58.3284 63.6487 57.5Z" fill="#270570"/>
<path fill-rule="evenodd" clip-rule="evenodd" d="M63.5 63.5C63.5 62.6716 64.1716 62 65 62H72C72.8284 62 73.5 62.6716 73.5 63.5C73.5 64.3284 72.8284 65 72 65H65C64.1716 65 63.5 64.3284 63.5 63.5Z" fill="#270570"/>
<path fill-rule="evenodd" clip-rule="evenodd" d="M64.2526 48.4105C72.6241 48.4105 79.4105 41.6241 79.4105 33.2526C79.4105 24.8811 72.6241 18.0947 64.2526 18.0947C55.8811 18.0947 49.0947 24.8811 49.0947 33.2526C49.0947 41.6241 55.8811 48.4105 64.2526 48.4105Z" fill="#CBF6EC"/>
<path fill-rule="evenodd" clip-rule="evenodd" d="M57.7966 17.8924C59.784 17.0562 61.9663 16.5947 64.2526 16.5947C73.4525 16.5947 80.9105 24.0527 80.9105 33.2526C80.9105 42.4525 73.4525 49.9105 64.2526 49.9105C55.0527 49.9105 47.5947 42.4525 47.5947 33.2526C47.5947 29.553 48.8026 26.1311 50.845 23.3656C51.3371 22.6992 52.2763 22.558 52.9427 23.0501C53.6091 23.5423 53.7503 24.4815 53.2582 25.1478C51.5839 27.4148 50.5947 30.216 50.5947 33.2526C50.5947 40.7957 56.7096 46.9105 64.2526 46.9105C71.7957 46.9105 77.9105 40.7957 77.9105 33.2526C77.9105 25.7096 71.7957 19.5947 64.2526 19.5947C62.373 19.5947 60.5858 19.9736 58.9601 20.6576C58.1965 20.9789 57.317 20.6204 56.9957 19.8568C56.6744 19.0932 57.033 18.2137 57.7966 17.8924Z" fill="#270570"/>
<path fill-rule="evenodd" clip-rule="evenodd" d="M52.9773 27.5726C55.9378 26.3884 59.9249 25.6895 64.2526 25.6895C68.5803 25.6895 72.5674 26.3884 75.528 27.5726C77.0041 28.163 78.2993 28.9036 79.25 29.8027C80.2039 30.7048 80.9105 31.8701 80.9105 33.2526C80.9105 34.6351 80.2039 35.8004 79.25 36.7025C78.2993 37.6016 77.0041 38.3422 75.528 38.9326C72.5674 40.1168 68.5803 40.8158 64.2526 40.8158C59.9249 40.8158 55.9378 40.1168 52.9773 38.9326C51.5012 38.3422 50.206 37.6016 49.2552 36.7025C48.3014 35.8004 47.5947 34.6351 47.5947 33.2526C47.5947 31.8701 48.3014 30.7048 49.2552 29.8027C50.206 28.9036 51.5012 28.163 52.9773 27.5726ZM51.3166 31.9824C50.7364 32.5311 50.5947 32.9608 50.5947 33.2526C50.5947 33.5444 50.7364 33.9742 51.3166 34.5228C51.8999 35.0745 52.8245 35.6404 54.0915 36.1472C56.617 37.1574 60.2089 37.8158 64.2526 37.8158C68.2964 37.8158 71.8882 37.1574 74.4138 36.1472C75.6807 35.6404 76.6053 35.0745 77.1887 34.5228C77.7688 33.9742 77.9105 33.5444 77.9105 33.2526C77.9105 32.9608 77.7688 32.5311 77.1887 31.9824C76.6053 31.4307 75.6807 30.8648 74.4138 30.358C71.8882 29.3478 68.2964 28.6895 64.2526 28.6895C60.2089 28.6895 56.617 29.3478 54.0915 30.358C52.8245 30.8648 51.8999 31.4307 51.3166 31.9824Z" fill="#270570"/>
<path fill-rule="evenodd" clip-rule="evenodd" d="M64.2527 16.9736C65.0811 16.9736 65.7527 17.6452 65.7527 18.4736V48.4105C65.7527 49.2389 65.0811 49.9105 64.2527 49.9105C63.4243 49.9105 62.7527 49.2389 62.7527 48.4105V18.4736C62.7527 17.6452 63.4243 16.9736 64.2527 16.9736Z" fill="#270570"/>
<path d="M45.4158 85.5618C45.4158 89.0977 42.5493 91.9641 39.0134 91.9641C35.4775 91.9641 32.6111 89.0977 32.6111 85.5618" stroke="#270570" stroke-width="3"/>
<path d="M39 54L39 52" stroke="#270570" stroke-width="3" stroke-linecap="round"/>
<path d="M38.6805 54.3472C31.8487 54.3472 28.4583 58.8194 28.1389 65.5277C27.7738 73.1944 27.1805 74.7916 23.6666 80.2222C21.6651 83.3154 23.6666 85.0138 25.5833 85.3333C26.4707 85.4812 43.2951 85.3333 52.4166 85.3333C54.8003 85.3333 55.9305 82.4583 54.0139 80.2222C50.7282 76.3888 49.4863 70.1116 49.8611 66.1666C49.8611 59.2086 45.5124 54.3472 38.6805 54.3472Z" fill="#FFE3E0"/>
<path d="M28.2666 51.272C25.8815 52.9416 21.1111 58.0697 21.1111 65.2253" stroke="#270570" stroke-width="3" stroke-linecap="round"/>
<path d="M50.11 50.9141C52.3696 52.6265 56.8889 57.8861 56.8889 65.2252" stroke="#270570" stroke-width="3" stroke-linecap="round"/>
<path d="M49.7333 66.3551C49.7333 59.4913 45.6404 54.3035 38.7766 54.3035C31.9128 54.3035 27.89 59.4913 27.89 66.3551C28.1411 69.7446 26.861 76.0694 23.7471 79.9128C21.426 82.7777 23.5737 85.1853 25.2187 85.1853C32.2916 85.1853 43.5819 85.1853 52.7461 85.1853C54.664 85.1853 56.5122 82.5839 53.8411 79.9128C52.0971 78.1689 51.4308 77.0506 50.8282 74.6403" stroke="#270570" stroke-width="3" stroke-linecap="round"/>
<path d="M35.7988 59.5759C34.7945 60.3291 32.7859 62.8901 32.7859 67.1081" stroke="#270570" stroke-width="3" stroke-linecap="round"/>
</svg>
