<svg width="72" height="72" viewBox="0 0 72 72" fill="none" xmlns="http://www.w3.org/2000/svg">
<ellipse cx="44.3467" cy="17.9786" rx="6.19703" ry="9.78545" transform="rotate(13.7602 44.3467 17.9786)" fill="white"/>
<ellipse cx="59.0456" cy="31.1338" rx="6.19703" ry="10.5" transform="rotate(24.931 59.0456 31.1338)" fill="white"/>
<path d="M36.6239 58.7994C45.7724 58.7994 57 68.7831 57 57.9674C57 47.1517 44.5249 38 36.208 38C27.8912 38 15 47.1517 15 57.9674C15 68.7831 25.8591 58.7994 36.6239 58.7994Z" fill="#CBF6EC"/>
<path d="M57 58.9674C57 69.7831 45.7724 59.7994 36.6239 59.7994C25.8591 59.7994 15 69.7831 15 58.9674C15 48.1517 27.8912 39 36.208 39C40.161 39 45.0533 41.0674 49.0991 44.3983" stroke="#270570" stroke-width="3" stroke-linecap="round"/>
<ellipse cx="13.0716" cy="31.9666" rx="6" ry="10" transform="rotate(-22.3535 13.0716 31.9666)" fill="white" stroke="#270570" stroke-width="3"/>
<path d="M48.3494 10.2331C47.6748 9.4417 46.8498 8.91826 45.9088 8.75234C42.6455 8.17692 39.2226 12.1196 38.2635 17.5585C37.3045 22.9975 39.1725 27.8731 42.4359 28.4485C45.6992 29.0239 49.1222 25.0812 50.0812 19.6423C50.2531 18.6677 50.3341 17.7113 50.3327 16.7944" stroke="#270570" stroke-width="3" stroke-linecap="round"/>
<ellipse cx="25.3837" cy="19.1063" rx="6" ry="10" transform="rotate(-15 25.3837 19.1063)" fill="white" stroke="#270570" stroke-width="3"/>
<path d="M62.5866 22.1528C59.493 20.9653 55.3806 24.1824 53.4014 29.3384C51.4222 34.4944 52.3256 39.6369 55.4192 40.8244C58.5128 42.0119 62.6252 38.7948 64.6044 33.6388C65.0582 32.4566 65.3605 31.2751 65.5195 30.1419" stroke="#270570" stroke-width="3" stroke-linecap="round"/>
</svg>
