<svg width="318" height="168" viewBox="0 0 318 168" fill="none" xmlns="http://www.w3.org/2000/svg">
<g clip-path="url(#clip0_264_1941)">
<path d="M30 97.1294C40.9069 60.4627 63.6708 42.1294 98.2917 42.1294C144.583 42.1294 162 97.1294 162 97.1294" stroke="#FB8478" stroke-width="4" stroke-linecap="round" stroke-linejoin="round" stroke-dasharray="5 10"/>
<path d="M35.6294 125.349C47.5634 147.869 67.7611 159.129 96.2225 159.129C141.111 159.129 158 112.129 158 112.129" stroke="#FFE3E0" stroke-width="4" stroke-linecap="round" stroke-linejoin="round" stroke-dasharray="5 10"/>
<path d="M163 97.1294C173.907 60.4627 196.671 42.1294 231.292 42.1294C253.875 42.1294 269.585 55.2186 279.755 68.6262" stroke="#CBF6EC" stroke-width="4" stroke-linecap="round" stroke-linejoin="round" stroke-dasharray="5 10"/>
<path d="M295.857 77L296.184 77.0042C303.134 77.1827 308.714 83.0384 308.714 90.236C308.714 97.546 297.218 108 295.857 108C294.496 108 283 97.546 283 90.236C283 82.9259 288.756 77 295.857 77Z" fill="#D3C4F6"/>
<path d="M283 89.809C283 96.8832 294.496 107 295.857 107C297.218 107 308.714 96.8832 308.714 89.809C308.714 82.7348 302.958 77 295.857 77" stroke="#270570" stroke-width="3" stroke-linecap="round" stroke-linejoin="round"/>
<path d="M295.321 93.0713C297.392 93.0713 299.071 91.3924 299.071 89.3213C299.071 87.2502 297.392 85.5713 295.321 85.5713C293.25 85.5713 291.571 87.2502 291.571 89.3213C291.571 91.3924 293.25 93.0713 295.321 93.0713Z" fill="white" stroke="#270570" stroke-width="3"/>
<path d="M169 112.129C179.246 139.463 200.63 153.129 233.153 153.129C276.639 153.129 293 112.129 293 112.129" stroke="#ECFDF9" stroke-width="4" stroke-linecap="round" stroke-linejoin="round" stroke-dasharray="5 10"/>
<path d="M28.8571 77L29.1839 77.0042C36.1337 77.1827 41.7143 83.0384 41.7143 90.236C41.7143 97.546 30.2183 108 28.8571 108C27.496 108 16 97.546 16 90.236C16 82.9259 21.7563 77 28.8571 77Z" fill="#D3C4F6"/>
<path d="M16 89.809C16 96.8832 27.496 107 28.8571 107C30.2183 107 41.7143 96.8832 41.7143 89.809C41.7143 82.7348 35.9579 77 28.8571 77" stroke="#270570" stroke-width="3" stroke-linecap="round" stroke-linejoin="round"/>
<path d="M28.3213 93.0713C30.3924 93.0713 32.0713 91.3924 32.0713 89.3213C32.0713 87.2502 30.3924 85.5713 28.3213 85.5713C26.2502 85.5713 24.5713 87.2502 24.5713 89.3213C24.5713 91.3924 26.2502 93.0713 28.3213 93.0713Z" fill="white" stroke="#270570" stroke-width="3"/>
<path d="M164 77L164.305 77.0039C170.791 77.1709 176 82.6488 176 89.382C176 96.2204 165.27 106 164 106C162.73 106 152 96.2204 152 89.382C152 82.5436 157.373 77 164 77Z" fill="#D3C4F6"/>
<path d="M152 89.809C152 96.8832 163.496 107 164.857 107C166.218 107 177.714 96.8832 177.714 89.809C177.714 82.7348 171.958 77 164.857 77" stroke="#270570" stroke-width="3" stroke-linecap="round" stroke-linejoin="round"/>
<path d="M164.5 92C166.433 92 168 90.433 168 88.5C168 86.567 166.433 85 164.5 85C162.567 85 161 86.567 161 88.5C161 90.433 162.567 92 164.5 92Z" fill="white" stroke="#270570" stroke-width="3"/>
<path d="M283 59V71.1733H271" stroke="#CBF6EC" stroke-width="5" stroke-linecap="round"/>
<path d="M28.413 130.021L32.1748 118.444L43.5874 122.152" stroke="#FFE3E0" stroke-width="5" stroke-linecap="round"/>
<path fill-rule="evenodd" clip-rule="evenodd" d="M65.9216 73H93.2998C94.618 73 95.8811 73.5735 96.8061 74.592L98.4907 76.4468L100.175 74.592C101.1 73.5735 102.363 73 103.682 73H108.311C110.348 73 112 74.7915 112 77.0013V95.9987C112 98.2085 110.348 100 108.311 100H103.682C102.363 100 101.1 99.4265 100.175 98.408L98.4907 96.5532L96.8061 98.408C95.8811 99.4265 94.618 100 93.2998 100H65.9216C63.2035 100 61 97.6102 61 94.6623V78.3377C61 75.3898 63.2035 73 65.9216 73Z" fill="#FFE3E0"/>
<path d="M61 85.2194V75.5191C61 74.1278 62.0052 73 63.2452 73H94.4426C95.0308 73 95.5954 73.2589 96.0152 73.7211L98.4907 76.4468L100.966 73.7211C101.386 73.2589 101.951 73 102.539 73H109.755C110.995 73 112 74.1278 112 75.5191V97.4809C112 98.8722 110.995 100 109.755 100H102.539C101.951 100 101.386 99.7411 100.966 99.2789L98.4907 96.5532L96.0152 99.2789C95.5954 99.7411 95.0308 100 94.4426 100H66.5267" stroke="#270570" stroke-width="3" stroke-linecap="round" stroke-linejoin="round"/>
<path d="M98.5449 81.5461V84.1444" stroke="#270570" stroke-width="3" stroke-linecap="round" stroke-linejoin="round"/>
<path d="M98.5449 89.4751V92.0734" stroke="#270570" stroke-width="3" stroke-linecap="round" stroke-linejoin="round"/>
<path fill-rule="evenodd" clip-rule="evenodd" d="M121.078 96H120.24H93.7002C92.382 96 91.1189 96.5735 90.1939 97.592L88.5093 99.4468L86.8248 97.592C85.8997 96.5735 84.6366 96 83.3184 96H78.6894C76.6518 96 75 97.7915 75 100.001V118.999C75 121.209 76.6518 123 78.6894 123H83.3184C84.6366 123 85.8997 122.426 86.8248 121.408L88.5093 119.553L90.1939 121.408C91.1189 122.426 92.382 123 93.7002 123H121.078C123.797 123 126 120.61 126 117.662V108.969V101.338C126 98.3898 123.797 96 121.078 96Z" fill="#FFE3E0"/>
<path d="M120.24 96H92.5574C91.9692 96 91.4046 96.2589 90.9848 96.7211L88.5093 99.4468L86.0338 96.7211C85.614 96.2589 85.0494 96 84.4612 96H77.2452C76.0052 96 75 97.1278 75 98.5191V120.481C75 121.872 76.0052 123 77.2452 123H84.4612C85.0494 123 85.614 122.741 86.0338 122.279L88.5093 119.553L90.9848 122.279C91.4046 122.741 91.9692 123 92.5574 123H123.755C124.995 123 126 121.872 126 120.481V108.969" stroke="#270570" stroke-width="3" stroke-linecap="round" stroke-linejoin="round"/>
<path d="M88.8052 104.476V107.074" stroke="#270570" stroke-width="3" stroke-linecap="round" stroke-linejoin="round"/>
<path d="M88.8052 112.405V115.003" stroke="#270570" stroke-width="3" stroke-linecap="round" stroke-linejoin="round"/>
<path d="M119.375 108V105H117.875L115.875 107H108.875V101H106.375L103.875 107C103.875 107 100.375 107 97.8749 107C95.3751 107 95.3749 112 97.8749 112C100.375 112 103.875 112 103.875 112L106.375 117.5H108.875V112H117.875" stroke="#270570" stroke-width="3" stroke-linecap="round" stroke-linejoin="round"/>
<path d="M67.6251 86V83H69.1251L71.1251 85H78.1251V79H80.6251L83.1251 85C83.1251 85 86.6252 85 89.1251 85C91.6249 85 91.6251 90 89.1251 90C86.6251 90 83.1251 90 83.1251 90L80.6251 95.5H78.1251V90H69.1251" stroke="#270570" stroke-width="3" stroke-linecap="round" stroke-linejoin="round"/>
<path fill-rule="evenodd" clip-rule="evenodd" d="M202.922 73H230.3C231.618 73 232.881 73.5735 233.806 74.592L235.491 76.4468L237.175 74.592C238.1 73.5735 239.363 73 240.682 73H245.311C247.348 73 249 74.7915 249 77.0013V95.9987C249 98.2085 247.348 100 245.311 100H240.682C239.363 100 238.1 99.4265 237.175 98.408L235.491 96.5532L233.806 98.408C232.881 99.4265 231.618 100 230.3 100H202.922C200.203 100 198 97.6102 198 94.6623V78.3377C198 75.3898 200.203 73 202.922 73Z" fill="#CBF6EC"/>
<path d="M198 85.2194V75.5191C198 74.1278 199.005 73 200.245 73H231.443C232.031 73 232.595 73.2589 233.015 73.7211L235.491 76.4468L237.966 73.7211C238.386 73.2589 238.951 73 239.539 73H246.755C247.995 73 249 74.1278 249 75.5191V97.4809C249 98.8722 247.995 100 246.755 100H239.539C238.951 100 238.386 99.7411 237.966 99.2789L235.491 96.5532L233.015 99.2789C232.595 99.7411 232.031 100 231.443 100H203.527" stroke="#270570" stroke-width="3" stroke-linecap="round" stroke-linejoin="round"/>
<path d="M235.545 81.5461V84.1444" stroke="#270570" stroke-width="3" stroke-linecap="round" stroke-linejoin="round"/>
<path d="M235.545 89.4751V92.0734" stroke="#270570" stroke-width="3" stroke-linecap="round" stroke-linejoin="round"/>
<path fill-rule="evenodd" clip-rule="evenodd" d="M258.078 96H257.24H230.7C229.382 96 228.119 96.5735 227.194 97.592L225.509 99.4468L223.825 97.592C222.9 96.5735 221.637 96 220.318 96H215.689C213.652 96 212 97.7915 212 100.001V118.999C212 121.209 213.652 123 215.689 123H220.318C221.637 123 222.9 122.426 223.825 121.408L225.509 119.553L227.194 121.408C228.119 122.426 229.382 123 230.7 123H258.078C260.797 123 263 120.61 263 117.662V108.969V101.338C263 98.3898 260.797 96 258.078 96Z" fill="#CBF6EC"/>
<path d="M257.24 96H229.557C228.969 96 228.405 96.2589 227.985 96.7211L225.509 99.4468L223.034 96.7211C222.614 96.2589 222.049 96 221.461 96H214.245C213.005 96 212 97.1278 212 98.5191V120.481C212 121.872 213.005 123 214.245 123H221.461C222.049 123 222.614 122.741 223.034 122.279L225.509 119.553L227.985 122.279C228.405 122.741 228.969 123 229.557 123H260.755C261.995 123 263 121.872 263 120.481V108.969" stroke="#270570" stroke-width="3" stroke-linecap="round" stroke-linejoin="round"/>
<path d="M225.805 104.476V107.074" stroke="#270570" stroke-width="3" stroke-linecap="round" stroke-linejoin="round"/>
<path d="M225.805 112.405V115.003" stroke="#270570" stroke-width="3" stroke-linecap="round" stroke-linejoin="round"/>
<path d="M256.375 108V105H254.875L252.875 107H245.875V101H243.375L240.875 107C240.875 107 237.375 107 234.875 107C232.375 107 232.375 112 234.875 112C237.375 112 240.875 112 240.875 112L243.375 117.5H245.875V112H254.875" stroke="#270570" stroke-width="3" stroke-linecap="round" stroke-linejoin="round"/>
<path d="M204.625 86V83H206.125L208.125 85H215.125V79H217.625L220.125 85C220.125 85 223.625 85 226.125 85C228.625 85 228.625 90 226.125 90C223.625 90 220.125 90 220.125 90L217.625 95.5H215.125V90H206.125" stroke="#270570" stroke-width="3" stroke-linecap="round" stroke-linejoin="round"/>
<g clip-path="url(#clip1_264_1941)">
<path fill-rule="evenodd" clip-rule="evenodd" d="M98.5382 18.6467L76.7741 15.9338L75.186 15.7709C74.0799 15.6574 73.0793 16.4287 72.951 17.4936C72.8425 18.3948 73.3969 19.2423 74.2861 19.5345L74.9464 19.8057L83.5 23.5" fill="white"/>
<path d="M98.5382 18.6467L76.7741 15.9338L75.186 15.7709C74.0799 15.6574 73.0793 16.4287 72.951 17.4936C72.8425 18.3948 73.3969 19.2423 74.2861 19.5345L74.9464 19.8057L77.8734 21.0077" stroke="#270570" stroke-width="3" stroke-linecap="round"/>
<path fill-rule="evenodd" clip-rule="evenodd" d="M88.6244 33.8468C87.2063 34.3548 86.2469 34.6985 85.7461 34.8777C80.7248 36.6752 75.474 38.5506 69.9937 40.5037C68.5115 41.1793 65.9445 41.4806 64.2881 40.6719C62.6317 39.8632 56.9208 34.4997 56.1131 33.1052C55.3054 31.7107 55.4944 29.7682 57.7603 29.4011C60.3854 29.5945 66.7787 30.8503 67.2921 30.79C67.8055 30.7297 85.6133 23.8729 107.051 15.8396C108.508 15.2151 109.903 14.8082 111.074 14.4434C114.065 13.5117 116.864 15.1893 119.15 16.9272C121.436 18.665 120.083 21.2838 116.708 22.7307C110.266 25.4931 106.275 26.9646 102.284 28.4362C100.094 31.6631 95.8125 38.2754 89.4384 48.273C88.8641 49.174 87.6568 49.4501 86.742 48.8898C86.0015 48.4363 85.6596 47.554 85.9043 46.7286L88.2806 38.7154" fill="white"/>
<path fill-rule="evenodd" clip-rule="evenodd" d="M57.9662 33.1866C57.1111 32.1517 56.7909 32.0309 57.1563 31.1712C57.2265 31.0059 57.4829 30.8039 57.8471 30.825C59.8585 30.9411 65.2609 31.9294 66.8542 32.1715C67.2668 32.2342 67.5896 32.1634 67.6474 32.1459C67.9558 32.0531 69.536 31.5001 69.536 31.5001L79.9629 35.4425C79.9629 35.4425 69.2115 39.3148 68.5766 39.5007C67.9416 39.6867 66.346 39.974 65.0314 39.4676C63.7168 38.9613 58.8213 34.2214 57.9662 33.1866Z" fill="#FFE3E0"/>
<path d="M107.729 20.3433L111.215 18.9561" stroke="#270570" stroke-width="3" stroke-linecap="round"/>
<path d="M88.6244 33.8468C87.2063 34.3548 86.2469 34.6985 85.7461 34.8777C80.7248 36.6752 75.474 38.5506 69.9937 40.5037C68.5115 41.1793 65.9445 41.4806 64.2881 40.6719C62.6317 39.8632 56.9208 34.4997 56.1131 33.1052C55.3054 31.7107 55.4944 29.7682 57.7603 29.4011C60.3854 29.5945 66.7787 30.8503 67.2921 30.79C67.8055 30.7297 85.6133 23.8729 107.051 15.8396C108.508 15.2151 109.903 14.8082 111.074 14.4434C114.065 13.5117 116.864 15.1893 119.15 16.9272C121.436 18.665 120.083 21.2838 116.708 22.7307C110.266 25.4931 106.275 26.9646 102.284 28.4362C100.094 31.6631 95.8125 38.2754 89.4384 48.273C88.8641 49.174 87.6568 49.4501 86.742 48.8898C86.0015 48.4363 85.6596 47.554 85.9043 46.7286L88.2806 38.7154" stroke="#270570" stroke-width="3" stroke-linecap="round" stroke-linejoin="round"/>
</g>
<g clip-path="url(#clip2_264_1941)">
<path fill-rule="evenodd" clip-rule="evenodd" d="M245.165 23.9468L228.058 10.2205L226.792 9.24879C225.91 8.57198 224.653 8.70373 223.985 9.54305C223.42 10.2534 223.448 11.2658 224.051 11.981L224.471 12.5582L230 21" fill="white"/>
<path d="M245.165 23.9468L228.058 10.2205L226.792 9.24879C225.91 8.57198 224.653 8.70373 223.985 9.54305C223.42 10.2534 223.448 11.2658 224.051 11.981L224.471 12.5582L226.333 15.117" stroke="#270570" stroke-width="3" stroke-linecap="round"/>
<path fill-rule="evenodd" clip-rule="evenodd" d="M228.751 31.6873C227.278 31.3759 226.28 31.1652 225.76 31.0552C220.542 29.9515 215.088 28.7938 209.398 27.582C207.781 27.3796 205.438 26.2896 204.452 24.7322C203.466 23.1749 201.417 15.6128 201.461 14.0019C201.505 12.391 202.685 10.8363 204.806 11.7123C206.94 13.254 211.724 17.6768 212.193 17.8948C212.662 18.1128 231.42 21.6162 253.885 26.0223C255.453 26.2546 256.854 26.64 258.043 26.9438C261.078 27.7195 262.581 30.6161 263.616 33.2948C264.65 35.9735 262.124 37.4932 258.492 36.955C251.559 35.9275 247.389 35.0868 243.219 34.246C239.662 35.8448 232.548 39.2282 221.877 44.3964C220.915 44.8622 219.743 44.464 219.258 43.5071C218.865 42.7326 219.037 41.802 219.678 41.2277L225.905 35.6519" fill="white"/>
<path fill-rule="evenodd" clip-rule="evenodd" d="M202.996 15.0435C202.811 13.7139 202.602 13.4431 203.364 12.9028C203.51 12.7989 203.834 12.7614 204.133 12.9704C205.785 14.1244 209.866 17.7996 211.096 18.8415C211.414 19.1113 211.726 19.2203 211.784 19.2358C212.096 19.3185 213.731 19.6766 213.731 19.6766L220.54 28.5026C220.54 28.5026 209.355 26.1597 208.717 25.9849C208.079 25.8102 206.57 25.2178 205.716 24.0971C204.863 22.9764 203.181 16.3731 202.996 15.0435Z" fill="#CBF6EC"/>
<path d="M252.1 30.2123L255.796 30.8603" stroke="#270570" stroke-width="3" stroke-linecap="round"/>
<path d="M228.751 31.6873C227.278 31.3759 226.28 31.1652 225.76 31.0552C220.542 29.9515 215.088 28.7938 209.398 27.582C207.781 27.3796 205.438 26.2896 204.452 24.7322C203.466 23.1749 201.417 15.6128 201.461 14.0019C201.505 12.391 202.685 10.8363 204.806 11.7123C206.94 13.254 211.724 17.6768 212.193 17.8948C212.662 18.1128 231.42 21.6162 253.885 26.0223C255.453 26.2546 256.854 26.64 258.043 26.9438C261.078 27.7195 262.581 30.6161 263.616 33.2948C264.65 35.9735 262.124 37.4932 258.492 36.955C251.559 35.9275 247.389 35.0868 243.219 34.246C239.662 35.8448 232.548 39.2282 221.877 44.3964C220.915 44.8622 219.743 44.464 219.258 43.5071C218.865 42.7326 219.037 41.802 219.678 41.2277L225.905 35.6519" stroke="#270570" stroke-width="3" stroke-linecap="round" stroke-linejoin="round"/>
</g>
</g>
<defs>
<clipPath id="clip0_264_1941">
<rect width="318" height="168" fill="white"/>
</clipPath>
<clipPath id="clip1_264_1941">
<rect width="67.5482" height="67.5482" fill="white" transform="translate(55.895 -2) rotate(3.30548)"/>
</clipPath>
<clipPath id="clip2_264_1941">
<rect width="67.5482" height="67.5482" fill="white" transform="translate(219.69 -16) rotate(34.9439)"/>
</clipPath>
</defs>
</svg>
