<svg width="72" height="72" viewBox="0 0 72 72" fill="none" xmlns="http://www.w3.org/2000/svg">
<path fill-rule="evenodd" clip-rule="evenodd" d="M56.5001 19.2655C64.0227 19.2655 57.5383 54.5155 36.3309 60.3051L35.6843 60.4714L35.0376 60.3051C13.8302 54.5155 7.72697 19.2655 15.5001 19.2655C23.2734 19.2655 31.178 16.8437 35.6843 12V12.0017L36.1254 12.4612C40.5883 16.9974 48.9776 19.2655 56.5001 19.2655Z" fill="white"/>
<path d="M35.6843 12C31.178 16.8437 23.2734 19.2655 15.5001 19.2655C7.72697 19.2655 13.8302 54.5155 35.0376 60.3051L35.6843 60.4714L36.3309 60.3051C57.5383 54.5155 64.0227 19.2655 56.5001 19.2655C48.9776 19.2655 40.5883 16.9974 36.1254 12.4612L35.6843 12.0017V12ZM35.6843 12L35.6826 12.0017" stroke="#270570" stroke-width="3" stroke-linecap="round" stroke-linejoin="round"/>
<path d="M35.6841 29.4497V43.187" stroke="#270570" stroke-width="3" stroke-linecap="round"/>
<path d="M43.579 35.8579H27.7896" stroke="#270570" stroke-width="3" stroke-linecap="round"/>
</svg>
