<svg width="72" height="72" viewBox="0 0 72 72" fill="none" xmlns="http://www.w3.org/2000/svg">
<circle cx="28" cy="26" r="24" fill="white"/>
<path fill-rule="evenodd" clip-rule="evenodd" d="M40.0002 47.5285C43.7356 52.2859 48.859 58.8684 56.3298 68.3832C58.031 70.5499 61.1733 70.9358 63.3482 69.245C65.523 67.5542 65.907 64.4271 64.2058 62.2603C59.0648 55.7128 55.2091 50.8022 52.6387 47.5285C51.6692 46.2938 50.215 44.4417 48.2761 41.9723" fill="white"/>
<path d="M40.0002 47.5285C43.7356 52.2859 48.859 58.8684 56.3298 68.3832C58.031 70.5499 61.1733 70.9358 63.3482 69.245C65.523 67.5542 65.907 64.4271 64.2058 62.2603C59.0648 55.7128 55.2091 50.8022 52.6387 47.5285C51.6692 46.2938 50.215 44.4417 48.2761 41.9723" stroke="#270570" stroke-width="3" stroke-linecap="round"/>
<path d="M28 2C14.7452 2 4 12.7452 4 26C4 39.2548 14.7452 50 28 50C41.2548 50 52 39.2548 52 26" stroke="#270570" stroke-width="3" stroke-linecap="round"/>
<path d="M20.7919 41.7489C29.7667 45.5585 40.1202 41.3956 43.917 32.4507C47.7139 23.5059 43.5163 13.1664 34.5415 9.35684C25.5667 5.54726 15.2132 9.7102 11.4163 18.655C7.61948 27.5998 11.817 37.9393 20.7919 41.7489Z" fill="#FFE3E0"/>
<path d="M28.2 43.4C38.0142 43.4 45.9702 35.6098 45.9702 26C45.9702 16.3903 38.0142 8.60002 28.2 8.60002C18.3858 8.60002 10.4298 16.3903 10.4298 26" stroke="#270570" stroke-width="3" stroke-linecap="round"/>
</svg>
