<svg width="72" height="72" viewBox="0 0 72 72" fill="none" xmlns="http://www.w3.org/2000/svg">
<path d="M13.4602 7.65682C10.6472 8.45269 7.21137 11.3417 8.84584 15.0266C15.0604 29.3384 16.9711 33.2905 22.5316 45.4119C24.2496 48.4289 28.1285 48.9531 30.8282 47.7559C30.8282 43.5 32.4999 42.5 34.8936 39.9297C29.6117 28.5019 27.5251 23.5173 21.8697 11.3417C19.8373 7.46289 16.2731 6.86095 13.4602 7.65682Z" fill="#FFE3E0"/>
<path d="M9.53624 10.3512C8.49439 11.6374 8.01492 13.2981 8.84584 15.1637C15.0604 29.4166 16.9711 33.3525 22.5316 45.424C24.2496 48.4285 28.1285 48.9506 30.8282 47.7583M34.4999 38.5C29.2181 27.1192 29.605 27.2892 23.9496 15.1637" stroke="#270570" stroke-width="3" stroke-linecap="round" stroke-linejoin="round"/>
<path d="M30.4229 47.3512C30.4229 47.3512 31.8259 42.2646 34.4636 39.7814C37.1014 37.2981 38.6468 35.3512 43.1692 35.3512C47.6917 35.3512 49.0616 35.3512 55.6553 35.3512C62.249 35.3512 63.4229 41.3512 63.4229 43.0446C63.4229 44.7379 63.4229 47.3512 63.4229 47.3512H30.4229Z" fill="white" stroke="#270570" stroke-width="3" stroke-linecap="round" stroke-linejoin="round"/>
<path d="M59.4229 57.8512V53.3512C59.4229 52.7989 58.9751 52.3512 58.4229 52.3512H26.4229C25.8706 52.3512 25.4229 52.7989 25.4229 53.3512V62.3512C25.4229 62.9035 25.8706 63.3512 26.4229 63.3512H59.4229" fill="white"/>
<path d="M59.4229 57.8512V53.3512C59.4229 52.7989 58.9751 52.3512 58.4229 52.3512H26.4229C25.8706 52.3512 25.4229 52.7989 25.4229 53.3512V62.3512C25.4229 62.9035 25.8706 63.3512 26.4229 63.3512H59.4229" stroke="#270570" stroke-width="3" stroke-linecap="round" stroke-linejoin="round"/>
<path d="M27.4229 48.3512L29.5472 52.3512H55.8943L57.4229 48.3512H27.4229Z" fill="white" stroke="#270570" stroke-width="3" stroke-linecap="round" stroke-linejoin="round"/>
</svg>
