<svg width="72" height="72" viewBox="0 0 72 72" fill="none" xmlns="http://www.w3.org/2000/svg">
<path d="M48.9653 55.1805C44.1483 60.0107 38.5373 62.6818 36.5002 62.6818V9.00018C42.99 12.9214 50.7775 16.4425 57.9643 18.4577C58.4417 18.5914 58.7727 19.0356 58.7727 19.5421V31.0314C58.7727 42.8628 53.4395 50.6943 48.9653 55.1805Z" fill="#CBF6EC"/>
<path d="M24.1278 55.4542C29.1021 60.313 34.8964 63 37 63V9C30.2983 12.9444 22.2563 16.4864 14.8348 18.5136C14.3418 18.6481 14 19.0949 14 19.6045V31.1618C14 43.0634 19.5074 50.9413 24.1278 55.4542Z" fill="white"/>
<path d="M14.2271 31.0312C14.2271 42.8624 19.5605 50.6939 24.0349 55.1802C28.8518 60.0104 34.4629 62.6816 36.5001 62.6816C38.5371 62.6816 44.1482 60.0104 48.9651 55.1802C53.4394 50.694 58.7725 42.8625 58.7725 31.0312V19.5419C58.7725 19.0353 58.4416 18.5912 57.9641 18.4575C50.7774 16.4423 43.5484 13.3044 37.0586 9.38326C36.7139 9.17498 36.2861 9.17498 35.9415 9.38326C29.2646 13.4171 22.4262 16.3852 15.0355 18.4575C14.558 18.5912 14.2271 19.0353 14.2271 19.542C14.2271 20.2301 14.2271 21.0269 14.2271 21.9322" stroke="#270570" stroke-width="3" stroke-linecap="round" stroke-linejoin="round"/>
<path d="M26.5156 38.8629L31.8766 44.3396L45.4602 27.5695" stroke="#270570" stroke-width="3" stroke-linecap="round" stroke-linejoin="round"/>
</svg>
