<svg width="72" height="72" viewBox="0 0 72 72" fill="none" xmlns="http://www.w3.org/2000/svg">
<path d="M10 13C10 10.7909 11.7909 9 14 9H61V58.5L51 70H14C11.7909 70 10 68.2091 10 66V13Z" fill="white"/>
<path fill-rule="evenodd" clip-rule="evenodd" d="M24.446 29.4937C24.446 30.8705 23.33 31.9865 21.9532 31.9865C20.5764 31.9865 19.4595 30.8705 19.4595 29.4937C19.4595 28.117 20.5764 27 21.9532 27C23.33 27 24.446 28.117 24.446 29.4937Z" fill="#270570"/>
<path fill-rule="evenodd" clip-rule="evenodd" d="M21.9532 43.8365C20.5764 43.8365 19.4595 42.7205 19.4595 41.3437C19.4595 39.9669 20.5764 38.85 21.9532 38.85C23.33 38.85 24.446 39.9669 24.446 41.3437C24.446 42.7205 23.33 43.8365 21.9532 43.8365Z" fill="#270570"/>
<path fill-rule="evenodd" clip-rule="evenodd" d="M24.446 53.4937C24.446 54.8705 23.33 55.9865 21.9532 55.9865C20.5764 55.9865 19.4595 54.8705 19.4595 53.4937C19.4595 52.117 20.5764 51 21.9532 51C23.33 51 24.446 52.117 24.446 53.4937Z" fill="#270570"/>
<path d="M53.5135 29.4324C50.6114 29.4324 35.9801 29.4324 29.1892 29.4324" stroke="#270570" stroke-width="3" stroke-linecap="round" stroke-linejoin="round"/>
<path fill-rule="evenodd" clip-rule="evenodd" d="M46.0135 41.25C43.1114 41.25 35.9801 41.25 29.1892 41.25H46.0135Z" stroke="#270570" stroke-width="3" stroke-linecap="round" stroke-linejoin="round"/>
<path d="M49 53.5C46.6138 53.5 34.5837 53.5 29 53.5" stroke="#270570" stroke-width="3" stroke-linecap="round" stroke-linejoin="round"/>
<path d="M10.5 57C10.5 53.4582 10.5 47.0412 10.5 45.2687C10.5 39.7178 10.5 35.676 10.5 33.1434C10.5 28.2656 10.5 24.7087 10.5 14.9531C10.5 11.6653 13.1863 9 16.5 9C16.5 9 25.5 9 30 9" stroke="#270570" stroke-width="3" stroke-linecap="round" stroke-linejoin="round"/>
<path d="M61 48V60.4344L51.5425 70.5H27" stroke="#270570" stroke-width="3" stroke-linecap="round" stroke-linejoin="round"/>
<path d="M64.535 28.144H58.9916L54 33.875L49.1552 28.144H42.3333C40.4924 28.144 39 26.7387 39 25.005V5.13899C39 3.40538 40.4924 2 42.3333 2H65.6667C67.5076 2 69 3.40538 69 5.13899C69 5.13899 69 15.2915 69 19.3053C69 20.139 69 22.9381 69 25.1657C69 26.8113 67.666 28.144 66.0204 28.144H64.535Z" fill="#FFE3E0"/>
<path d="M64.535 28.144H58.9916L54 33.875L49.1552 28.144H42.3333C40.4924 28.144 39 26.7387 39 25.005V5.13899C39 3.40538 40.4924 2 42.3333 2H65.6667C67.5076 2 69 3.40538 69 5.13899C69 5.13899 69 15.2915 69 19.3053" stroke="#270570" stroke-width="3" stroke-linecap="round" stroke-linejoin="round"/>
<path fill-rule="evenodd" clip-rule="evenodd" d="M56.0109 11.5623C56.1616 11.9615 56.5414 12.2276 56.9681 12.2329L60.3604 12.2747C61.3768 12.2873 61.77 13.6029 60.9272 14.1711L58.4068 15.8703C58.018 16.1325 57.8535 16.623 58.0057 17.0666L58.978 19.8995C59.2961 20.8265 58.2694 21.6365 57.4419 21.1115L54.4305 19.2009C54.0914 18.9857 53.6586 18.9857 53.3196 19.2009L50.3082 21.1115C49.4807 21.6365 48.454 20.8264 48.7721 19.8995L49.7444 17.0666C49.8966 16.623 49.7321 16.1325 49.3433 15.8703L46.8229 14.1711C45.9801 13.6029 46.3733 12.2873 47.3897 12.2747L50.782 12.2329C51.2087 12.2276 51.5885 11.9615 51.7392 11.5623L52.9051 8.47428C53.2426 7.58015 54.5074 7.58015 54.845 8.47428L56.0109 11.5623Z" fill="#270570"/>
</svg>
