<svg width="72" height="72" viewBox="0 0 72 72" fill="none" xmlns="http://www.w3.org/2000/svg">
<path d="M10 13C10 10.7909 11.7909 9 14 9H61V58.5L51 70H14C11.7909 70 10 68.2091 10 66V13Z" fill="white"/>
<path fill-rule="evenodd" clip-rule="evenodd" d="M24.446 29.4937C24.446 30.8705 23.33 31.9865 21.9532 31.9865C20.5764 31.9865 19.4595 30.8705 19.4595 29.4937C19.4595 28.117 20.5764 27 21.9532 27C23.33 27 24.446 28.117 24.446 29.4937Z" fill="#270570"/>
<path fill-rule="evenodd" clip-rule="evenodd" d="M21.9532 43.8365C20.5764 43.8365 19.4595 42.7205 19.4595 41.3437C19.4595 39.9669 20.5764 38.85 21.9532 38.85C23.33 38.85 24.446 39.9669 24.446 41.3437C24.446 42.7205 23.33 43.8365 21.9532 43.8365Z" fill="#270570"/>
<path fill-rule="evenodd" clip-rule="evenodd" d="M24.446 53.4937C24.446 54.8705 23.33 55.9865 21.9532 55.9865C20.5764 55.9865 19.4595 54.8705 19.4595 53.4937C19.4595 52.117 20.5764 51 21.9532 51C23.33 51 24.446 52.117 24.446 53.4937Z" fill="#270570"/>
<path d="M53.5135 29.4324C50.6114 29.4324 35.9801 29.4324 29.1892 29.4324" stroke="#270570" stroke-width="3" stroke-linecap="round" stroke-linejoin="round"/>
<path fill-rule="evenodd" clip-rule="evenodd" d="M46.0135 41.25C43.1114 41.25 35.9801 41.25 29.1892 41.25H46.0135Z" stroke="#270570" stroke-width="3" stroke-linecap="round" stroke-linejoin="round"/>
<path d="M49 53.5C46.6138 53.5 34.5837 53.5 29 53.5" stroke="#270570" stroke-width="3" stroke-linecap="round" stroke-linejoin="round"/>
<path d="M10.5 57C10.5 53.4582 10.5 47.0412 10.5 45.2687C10.5 39.7178 10.5 35.676 10.5 33.1434C10.5 28.2656 10.5 24.7087 10.5 14.9531C10.5 11.6653 13.1863 9 16.5 9C16.5 9 25.5 9 30 9" stroke="#270570" stroke-width="3" stroke-linecap="round" stroke-linejoin="round"/>
<path d="M61 48V60.4344L51.5425 70.5H27" stroke="#270570" stroke-width="3" stroke-linecap="round" stroke-linejoin="round"/>
<path d="M68.2901 29.0077L55.6444 6.87769C54.8975 5.57063 53.0288 5.52617 52.2206 6.79622L50.5 9.5L39.6507 29.0287C38.9101 30.3618 39.8741 32 41.399 32H66.5536C68.0893 32 69.052 30.341 68.2901 29.0077Z" fill="#FFE3E0"/>
<path d="M52.5659 22.9319C52.4339 22.9319 52.3199 22.8899 52.2239 22.8059C52.1399 22.7099 52.0979 22.5959 52.0979 22.4639V14.8499C52.0979 14.7179 52.1399 14.6099 52.2239 14.5259C52.3199 14.4419 52.4339 14.3999 52.5659 14.3999H54.7439C54.8759 14.3999 54.9839 14.4419 55.0679 14.5259C55.1639 14.6099 55.2119 14.7179 55.2119 14.8499V22.4639C55.2119 22.5959 55.1639 22.7099 55.0679 22.8059C54.9839 22.8899 54.8759 22.9319 54.7439 22.9319H52.5659ZM52.4939 26.9999C52.3739 26.9999 52.2659 26.9579 52.1699 26.8739C52.0859 26.7779 52.0439 26.6699 52.0439 26.5499V24.2279C52.0439 24.0959 52.0859 23.9879 52.1699 23.9039C52.2659 23.8079 52.3739 23.7599 52.4939 23.7599H54.8159C54.9359 23.7599 55.0379 23.8079 55.1219 23.9039C55.2179 23.9879 55.2659 24.0959 55.2659 24.2279V26.5499C55.2659 26.6699 55.2239 26.7779 55.1399 26.8739C55.0559 26.9579 54.9479 26.9999 54.8159 26.9999H52.4939Z" fill="#270570"/>
<path d="M49.2345 8.69469C48.7897 9.3936 48.9958 10.3207 49.6947 10.7655C50.3936 11.2103 51.3207 11.0042 51.7655 10.3053L49.2345 8.69469ZM42.8207 26.2111C43.2135 25.4817 42.9406 24.5721 42.2111 24.1793C41.4817 23.7865 40.5721 24.0594 40.1793 24.7889L42.8207 26.2111ZM68.2901 29.0077L69.5925 28.2635L68.2901 29.0077ZM52.2206 6.79622L53.4861 7.60154L52.2206 6.79622ZM54.342 7.6219L66.9878 29.7519L69.5925 28.2635L56.9468 6.13349L54.342 7.6219ZM66.5536 30.5H41.3484V33.5H66.5536V30.5ZM51.7655 10.3053L53.4861 7.60154L50.9551 5.99091L49.2345 8.69469L51.7655 10.3053ZM40.9082 29.763L42.8207 26.2111L40.1793 24.7889L38.2668 28.3407L40.9082 29.763ZM41.3484 30.5C40.9701 30.5 40.7288 30.0961 40.9082 29.763L38.2668 28.3407C37.0112 30.6725 38.7001 33.5 41.3484 33.5V30.5ZM66.9878 29.7519C67.1782 30.0853 66.9376 30.5 66.5536 30.5V33.5C69.241 33.5 70.9258 30.5968 69.5925 28.2635L66.9878 29.7519ZM56.9468 6.13349C55.6397 3.84612 52.3695 3.76831 50.9551 5.99091L53.4861 7.60154C53.6881 7.28402 54.1553 7.29514 54.342 7.6219L56.9468 6.13349Z" fill="#270570"/>
</svg>
