<svg width="72" height="72" viewBox="0 0 72 72" fill="none" xmlns="http://www.w3.org/2000/svg">
<rect x="39" y="4" width="29" height="47" fill="#CBF6EC"/>
<path d="M5 58.0449L5.26432 32.2022V19H54V69H5V58.0449Z" fill="white"/>
<path d="M39 17.63V5C39 4.44771 39.4477 4 40 4H53.5M54.6549 51H67C67.5523 51 68 50.5523 68 50V5C68 4.44772 67.5523 4 67 4H63.393" stroke="#270570" stroke-width="3" stroke-linecap="round"/>
<path d="M53.4186 25.4074V19C53.4186 18.4477 52.9709 18 52.4186 18H5C4.44772 18 4 18.4477 4 19V67C4 67.5523 4.44771 68 5 68H53C53.5523 68 54 67.5523 54 67V44.9886" stroke="#270570" stroke-width="3" stroke-linecap="round"/>
<path d="M19.3514 49C19.2538 49 19.1708 48.964 19.1025 48.8919C19.0342 48.8198 19 48.7271 19 48.6138V41.3525C19 41.2392 19.0342 41.1465 19.1025 41.0744C19.1708 41.0023 19.2538 40.9663 19.3514 40.9663H20.7132C20.8108 40.9663 20.8938 41.0023 20.9621 41.0744C21.0402 41.1465 21.0792 41.2392 21.0792 41.3525V41.8778C21.2745 41.5894 21.5429 41.3422 21.8846 41.1362C22.236 40.9302 22.6509 40.8221 23.1292 40.8118C24.2615 40.7912 25.0376 41.2444 25.4574 42.1713C25.6819 41.7697 26.004 41.4452 26.4238 41.198C26.8533 40.9405 27.3218 40.8118 27.8294 40.8118C28.337 40.8118 28.7958 40.9354 29.2058 41.1826C29.6158 41.4195 29.938 41.7903 30.1722 42.2949C30.4163 42.7893 30.5383 43.4279 30.5383 44.2107V48.6138C30.5383 48.7271 30.5041 48.8198 30.4358 48.8919C30.3675 48.964 30.2845 49 30.1869 49H28.7373C28.6397 49 28.5567 48.964 28.4884 48.8919C28.42 48.8198 28.3859 48.7271 28.3859 48.6138V44.3343C28.3859 43.912 28.3273 43.5824 28.2101 43.3455C28.093 43.0983 27.9368 42.9232 27.7416 42.8202C27.5561 42.7172 27.3462 42.6657 27.112 42.6657C26.907 42.6657 26.7068 42.7172 26.5116 42.8202C26.3261 42.9232 26.17 43.0983 26.0431 43.3455C25.9259 43.5824 25.8673 43.912 25.8673 44.3343V48.6138C25.8673 48.7271 25.8332 48.8198 25.7648 48.8919C25.6965 48.964 25.6087 49 25.5013 49H24.0663C23.9589 49 23.8711 48.964 23.8027 48.8919C23.7344 48.8198 23.7002 48.7271 23.7002 48.6138V44.3343C23.7002 43.912 23.6417 43.5824 23.5245 43.3455C23.4074 43.0983 23.2512 42.9232 23.056 42.8202C22.8705 42.7172 22.6655 42.6657 22.441 42.6657C22.236 42.6657 22.0359 42.7224 21.8406 42.8357C21.6454 42.9387 21.4843 43.1086 21.3574 43.3455C21.2403 43.5824 21.1817 43.9068 21.1817 44.3188V48.6138C21.1817 48.7271 21.1476 48.8198 21.0792 48.8919C21.0109 48.964 20.9279 49 20.8303 49H19.3514Z" fill="#270570"/>
<path d="M32.3859 49C32.2785 49 32.1907 48.964 32.1223 48.8919C32.054 48.8198 32.0198 48.7271 32.0198 48.6138V47.6868C32.0198 47.6044 32.0394 47.4963 32.0784 47.3624C32.1272 47.2182 32.2297 47.0791 32.3859 46.9452L34.3187 44.9213C35.0313 44.3446 35.6072 43.8553 36.0465 43.4537C36.4956 43.052 36.8275 42.6863 37.0422 42.3567C37.257 42.0272 37.3643 41.7079 37.3643 41.3989C37.3643 40.9972 37.257 40.6676 37.0422 40.4101C36.8372 40.1423 36.5004 40.0084 36.0319 40.0084C35.7195 40.0084 35.4559 40.0805 35.2412 40.2247C35.0362 40.3586 34.8751 40.5389 34.758 40.7654C34.6408 40.992 34.5627 41.2392 34.5237 41.507C34.4944 41.6409 34.431 41.7336 34.3333 41.7851C34.2455 41.8366 34.1528 41.8624 34.0551 41.8624H32.503C32.4054 41.8624 32.3273 41.8315 32.2688 41.7697C32.2102 41.6976 32.1809 41.6203 32.1809 41.5379C32.1907 41.0641 32.2834 40.6161 32.4591 40.1938C32.6446 39.7715 32.9033 39.3956 33.2352 39.066C33.5671 38.7364 33.9673 38.4789 34.4358 38.2935C34.9044 38.0978 35.4364 38 36.0319 38C36.8519 38 37.5401 38.1442 38.0965 38.4326C38.6529 38.7107 39.0726 39.0969 39.3557 39.5913C39.6388 40.0857 39.7804 40.6573 39.7804 41.3062C39.7804 41.8006 39.6827 42.2589 39.4875 42.6812C39.302 43.1035 39.0287 43.5103 38.6675 43.9017C38.3063 44.2828 37.8768 44.6793 37.379 45.0913L35.6512 46.9143H39.6339C39.7413 46.9143 39.8292 46.9504 39.8975 47.0225C39.9658 47.0946 40 47.1873 40 47.3006V48.6138C40 48.7271 39.9658 48.8198 39.8975 48.8919C39.8292 48.964 39.7413 49 39.6339 49H32.3859Z" fill="#270570"/>
</svg>
