<svg width="72" height="72" viewBox="0 0 72 72" fill="none" xmlns="http://www.w3.org/2000/svg">
<rect x="21.0667" y="22.3999" width="29.8667" height="33.6" fill="white"/>
<path d="M17.6735 45.872L7 52.75V69H65V53.5L54.3885 46.1359C51.6741 44.2523 48.0726 44.2632 45.3698 46.1633L40.5289 49.5663C37.8117 51.4764 34.1883 51.4764 31.4711 49.5663L26.4681 46.0493C23.8458 44.2059 20.3679 44.1358 17.6735 45.872Z" fill="#CBF6EC"/>
<path d="M51 44V13.4C51 8.76081 54.7608 5 59.4 5H63" stroke="#270570" stroke-width="3" stroke-linecap="round"/>
<path d="M21 44V12.4C21 7.76081 24.7608 4 29.4 4H33" stroke="#270570" stroke-width="3" stroke-linecap="round"/>
<line x1="22" y1="22.5" x2="50" y2="22.5" stroke="#270570" stroke-width="3"/>
<line x1="22" y1="36.5" x2="50" y2="36.5" stroke="#270570" stroke-width="3"/>
<path d="M8 53.2L16.9173 46.3634C20.1561 43.8803 24.7449 44.2333 27.5659 47.1825L30.2189 49.9561C33.3693 53.2497 38.6307 53.2497 41.7811 49.9561L44.4341 47.1825C47.2551 44.2333 51.8439 43.8803 55.0827 46.3634L64 53.2" stroke="#270570" stroke-width="3" stroke-linecap="round"/>
<path d="M8 68L16.676 60.8733C19.9913 58.15 24.8645 58.5268 27.7218 61.7273L30.0322 64.3153C33.213 67.8782 38.787 67.8782 41.9678 64.3153L44.2783 61.7273C47.1355 58.5268 52.0087 58.15 55.324 60.8733L64 68" stroke="#270570" stroke-width="3" stroke-linecap="round"/>
</svg>
