<svg width="72" height="72" viewBox="0 0 72 72" fill="none" xmlns="http://www.w3.org/2000/svg">
<path d="M3.02783 56.5078L15.3113 68.7913" stroke="#270570" stroke-width="3" stroke-linecap="round"/>
<rect x="43.7168" y="14.2832" width="19.5429" height="49.9429" rx="2.57512" transform="rotate(45 43.7168 14.2832)" fill="white"/>
<path d="M43.3331 42.3052L19.15 38.8505L8.7858 49.2147L22.6047 63.0336L43.3331 42.3052Z" fill="#CBF6EC"/>
<path d="M40.6459 17.3541L41.8959 16.1041C42.9016 15.0984 44.532 15.0984 45.5377 16.1041L55.7148 26.2812C56.7205 27.2869 56.7205 28.9173 55.7148 29.923L24.0416 61.5962C23.036 62.6019 21.4055 62.6019 20.3998 61.5962L10.2227 51.4191C9.21705 50.4134 9.21705 48.7829 10.2227 47.7773L34.5042 23.4958" stroke="#270570" stroke-width="3" stroke-linecap="round" stroke-linejoin="round"/>
<rect x="12.2402" y="53.4375" width="8.68573" height="8.68573" transform="rotate(45 12.2402 53.4375)" fill="white" stroke="#270570" stroke-width="3" stroke-linejoin="round"/>
<path d="M50.6264 15.0513C52.3224 13.3553 55.0721 13.3553 56.7681 15.0513V15.0513C58.4641 16.7473 58.4641 19.4971 56.7681 21.1931L53.6973 24.2639L47.5555 18.1222L50.6264 15.0513Z" fill="white" stroke="#270570" stroke-width="3" stroke-linejoin="round"/>
<path d="M56.7684 15.0519L62.9102 8.91016" stroke="#270570" stroke-width="3" stroke-linecap="round"/>
<path d="M42.5654 34.6274L46.6599 38.7219" stroke="#270570" stroke-width="3" stroke-linecap="round"/>
<path d="M35.6562 41.5376L39.7507 45.6321" stroke="#270570" stroke-width="3" stroke-linecap="round"/>
<path d="M28.7461 48.4478L32.8406 52.5422" stroke="#270570" stroke-width="3" stroke-linecap="round"/>
</svg>
