<svg width="72" height="72" viewBox="0 0 72 72" fill="none" xmlns="http://www.w3.org/2000/svg">
<path d="M3 32C3 29.7909 4.79086 28 7 28H21.6573C22.8267 28 23.9376 28.5118 24.6975 29.4006L24.9598 29.7073C26.5564 31.5748 29.4436 31.5748 31.0402 29.7073L31.3025 29.4006C32.0624 28.5118 33.1733 28 34.3427 28H65C67.2091 28 69 29.7909 69 32V54C69 56.2091 67.2091 58 65 58H34.6055C33.5751 58 32.5845 57.6024 31.84 56.89L30.0949 55.22C28.6188 53.8075 26.3155 53.7343 24.7528 55.0503L23.5701 56.0462C22.8773 56.6297 22.0069 56.9607 21.1015 56.9851L7.10793 57.3628C4.85734 57.4236 3 55.6157 3 53.3643V32Z" fill="white"/>
<path d="M18.71 49.3317C18.71 46.8129 16.6764 44.771 14.168 44.771C11.6595 44.771 9.62599 46.8129 9.62599 49.3317" stroke="#666666" stroke-width="3" stroke-linecap="round" stroke-linejoin="round"/>
<path d="M49.2041 39.1094H40.9155" stroke="#666666" stroke-width="3" stroke-linecap="round" stroke-linejoin="round"/>
<path d="M32.9024 28.1299L28.0786 32.9736" stroke="#666666" stroke-width="3" stroke-linecap="round" stroke-linejoin="round"/>
<path d="M15.0762 28.1079L23.2121 28.1079L28.0359 32.9516" stroke="#666666" stroke-width="3" stroke-linecap="round" stroke-linejoin="round"/>
<path d="M28.333 39.7598V44.7598" stroke="#666666" stroke-width="3" stroke-linecap="round" stroke-linejoin="round"/>
<path d="M40.5613 57.5117H32.4254L27.6016 52.668" stroke="#666666" stroke-width="3" stroke-linecap="round" stroke-linejoin="round"/>
<path d="M2.76904 49.7649L2.76904 52.7986V52.7986C2.76904 55.4016 4.87925 57.5118 7.48232 57.5118H14.884H23.0199L27.4736 52.7986" stroke="#666666" stroke-width="3" stroke-linecap="round" stroke-linejoin="round"/>
<path d="M68.6855 45.5442H40.9264" stroke="#666666" stroke-width="3" stroke-linecap="round" stroke-linejoin="round"/>
<path d="M14.1679 43.5243C15.9998 43.5243 17.4745 42.0348 17.4745 40.2103C17.4745 38.3857 15.9998 36.8962 14.1679 36.8962C12.3359 36.8962 10.8613 38.3857 10.8613 40.2103C10.8613 42.0348 12.3359 43.5243 14.1679 43.5243Z" stroke="#666666" stroke-width="2.97959" stroke-linecap="round" stroke-linejoin="round"/>
<path d="M69.2623 38.6064V50.4807C69.2623 54.3637 66.1145 57.5116 62.2314 57.5116" stroke="#666666" stroke-width="3" stroke-linecap="round" stroke-linejoin="round"/>
<path fill-rule="evenodd" clip-rule="evenodd" d="M45.7933 27.1868L46.8422 27.5767C46.9498 27.5767 47.2717 27.5767 49.9925 26.3159L50.9907 26.7304C52.2833 30.0008 52.4161 30 52.7953 30H55.3172C55.7028 30 55.8396 30 57.0418 26.7187L58.0425 26.3056C59.8765 27.0973 60.9508 27.4993 61.2396 27.4993L61.4796 27.4924L63.4168 25.5562C63.6924 25.2722 63.7889 25.174 62.3178 22.0086L62.7221 21.0224C66 19.7292 66 19.5935 66 19.2071V16.6859C65.9996 16.2887 65.9996 16.15 62.7116 14.9532L62.3031 13.9643C63.7022 10.7358 63.6094 10.6398 63.3377 10.3598L61.5504 8.57694L61.373 8.42435H61.1659C61.0567 8.42435 60.7307 8.42435 58.0138 9.68248L57.0138 9.27085C55.7214 6 55.5889 6 55.2104 6H52.689C52.311 6 52.1641 5.99957 50.9655 9.28251L49.9698 9.69522C48.1337 8.90371 47.0569 8.50302 46.7663 8.50302L46.528 8.51058L44.6054 10.435C44.3137 10.715 44.2119 10.8138 45.6913 13.9924L45.2842 14.9778C42.011 16.2697 42.011 16.395 42.011 16.7903V19.3143C42.011 19.7102 41.6586 19.6917 44.9428 20.8928L44.5362 25.0536L45.7933 27.1868ZM54.0023 22.1998C51.6901 22.1998 49.8073 20.315 49.8073 17.9991C49.8073 15.6848 51.6901 13.8018 54.0023 13.8018C56.3133 13.8018 58.1921 15.6853 58.1921 17.9991C58.1916 20.315 56.3128 22.1998 54.0023 22.1998Z" fill="#CCCCCC"/>
<path d="M46.3158 25.7808C45.5393 25.4922 44.6759 25.8877 44.3873 26.6643C44.0987 27.4408 44.4942 28.3043 45.2708 28.5929L46.3158 25.7808ZM46.8422 27.5767L46.3197 28.9827C46.4869 29.0448 46.6639 29.0767 46.8422 29.0767V27.5767ZM49.9925 26.3159L50.5677 24.9306C50.18 24.7697 49.7427 24.7785 49.3619 24.9549L49.9925 26.3159ZM50.9907 26.7304L52.3857 26.179C52.2365 25.8016 51.9407 25.5007 51.5659 25.345L50.9907 26.7304ZM57.0418 26.7187L56.4694 25.3322C56.0811 25.4925 55.7779 25.8083 55.6334 26.2027L57.0418 26.7187ZM58.0425 26.3056L58.6371 24.9284C58.2653 24.7679 57.8444 24.7646 57.4701 24.9191L58.0425 26.3056ZM61.2396 27.4993V28.9993C61.254 28.9993 61.2684 28.9991 61.2828 28.9987L61.2396 27.4993ZM61.4796 27.4924L61.5228 28.9918C61.9053 28.9807 62.2693 28.8239 62.54 28.5533L61.4796 27.4924ZM63.4168 25.5562L64.4772 26.6171C64.4826 26.6117 64.4879 26.6063 64.4932 26.6009L63.4168 25.5562ZM62.3178 22.0086L60.9299 21.4397C60.7714 21.8265 60.7814 22.2618 60.9576 22.6408L62.3178 22.0086ZM62.7221 21.0224L62.1716 19.6271C61.7915 19.777 61.4891 20.0755 61.3341 20.4535L62.7221 21.0224ZM66 16.6859H67.5V16.6846L66 16.6859ZM62.7116 14.9532L61.3253 15.5259C61.4861 15.915 61.8029 16.2187 62.1986 16.3627L62.7116 14.9532ZM62.3031 13.9643L60.9268 13.3679C60.7654 13.7402 60.7618 14.162 60.9167 14.5371L62.3031 13.9643ZM63.3377 10.3598L64.4143 9.31528C64.4086 9.3094 64.4029 9.30356 64.397 9.29776L63.3377 10.3598ZM61.5504 8.57694L62.6097 7.51493C62.5836 7.4889 62.5565 7.46384 62.5286 7.4398L61.5504 8.57694ZM61.373 8.42435L62.3512 7.28721C62.0791 7.0531 61.732 6.92435 61.373 6.92435V8.42435ZM58.0138 9.68248L57.4428 11.0696C57.8293 11.2287 58.2647 11.2193 58.6441 11.0436L58.0138 9.68248ZM57.0138 9.27085L55.6188 9.82207C55.7685 10.2011 56.066 10.5028 56.4428 10.6579L57.0138 9.27085ZM50.9655 9.28251L51.5398 10.6682C51.9277 10.5074 52.2305 10.1914 52.3745 9.79696L50.9655 9.28251ZM49.9698 9.69522L49.376 11.0727C49.7483 11.2332 50.1697 11.2361 50.5442 11.0809L49.9698 9.69522ZM46.7663 8.50302V7.00302C46.7505 7.00302 46.7346 7.00327 46.7188 7.00377L46.7663 8.50302ZM46.528 8.51058L46.4804 7.01133C46.099 7.02342 45.7365 7.18045 45.4668 7.45044L46.528 8.51058ZM44.6054 10.435L45.6442 11.5171C45.6518 11.5098 45.6592 11.5025 45.6666 11.4951L44.6054 10.435ZM45.6913 13.9924L47.0776 14.5651C47.2379 14.1772 47.2283 13.7399 47.0512 13.3594L45.6913 13.9924ZM45.2842 14.9778L45.8349 16.373C46.2135 16.2236 46.5152 15.9267 46.6706 15.5505L45.2842 14.9778ZM44.4276 22.3015C45.2057 22.586 46.067 22.186 46.3516 21.4079C46.6361 20.6299 46.2361 19.7685 45.458 19.484L44.4276 22.3015ZM57.8089 17.8957L59.3089 17.896V17.8957H57.8089ZM45.2708 28.5929L46.3197 28.9827L47.3648 26.1706L46.3158 25.7808L45.2708 28.5929ZM46.8422 29.0767C47.1525 29.0767 47.4517 29.0097 47.9493 28.829C48.4445 28.6492 49.2513 28.3126 50.6231 27.6769L49.3619 24.9549C48.0129 25.58 47.2984 25.8737 46.9255 26.0091C46.8349 26.042 46.7707 26.0633 46.7273 26.0767C46.6834 26.0902 46.6662 26.0939 46.6689 26.0933C46.6728 26.0924 46.7009 26.0864 46.7463 26.0818C46.7694 26.0794 46.7922 26.078 46.8138 26.0772C46.8335 26.0766 46.8492 26.0767 46.8422 26.0767V29.0767ZM49.4173 27.7013L50.4155 28.1157L51.5659 25.345L50.5677 24.9306L49.4173 27.7013ZM49.5957 27.2817C50.2284 28.8825 50.6294 29.8237 50.9451 30.3564C51.099 30.6159 51.3494 30.9896 51.7696 31.239C52.253 31.5258 52.7307 31.5 52.7953 31.5V28.5C52.6704 28.5 52.9892 28.4743 53.3007 28.6591C53.5489 28.8064 53.6142 28.9759 53.5259 28.8268C53.3573 28.5423 53.0456 27.8487 52.3857 26.179L49.5957 27.2817ZM52.7953 31.5H55.3172V28.5H52.7953V31.5ZM55.3172 31.5C55.3783 31.5 55.8631 31.527 56.3495 31.2365C56.779 30.9799 57.0279 30.5944 57.178 30.33C57.4845 29.7895 57.8623 28.8394 58.4502 27.2347L55.6334 26.2027C55.0191 27.8793 54.7273 28.5699 54.5686 28.8497C54.4859 28.9954 54.5532 28.815 54.8111 28.661C55.1258 28.473 55.4489 28.5 55.3172 28.5V31.5ZM57.6142 28.1052L58.6149 27.6921L57.4701 24.9191L56.4694 25.3322L57.6142 28.1052ZM57.448 27.6827C58.3735 28.0823 59.1271 28.3921 59.6956 28.6045C59.9784 28.7101 60.2342 28.7987 60.4524 28.863C60.6172 28.9116 60.927 28.9993 61.2396 28.9993V25.9993C61.4078 25.9993 61.475 26.0368 61.2999 25.9852C61.1782 25.9494 60.9966 25.888 60.7455 25.7942C60.2461 25.6076 59.5455 25.3206 58.6371 24.9284L57.448 27.6827ZM61.2828 28.9987L61.5228 28.9918L61.4364 25.993L61.1964 25.9999L61.2828 28.9987ZM62.54 28.5533L64.4772 26.6171L62.3565 24.4952L60.4192 26.4314L62.54 28.5533ZM64.4932 26.6009C64.5364 26.5564 64.8871 26.2328 65.0229 25.6933C65.1446 25.2098 65.0505 24.7629 64.9687 24.4652C64.8032 23.8634 64.3973 22.9239 63.6781 21.3765L60.9576 22.6408C61.7095 24.2588 61.9909 24.9511 62.076 25.2607C62.1195 25.4187 62.0415 25.2474 62.1136 24.9611C62.1998 24.6188 62.4351 24.414 62.3404 24.5115L64.4932 26.6009ZM63.7058 22.5775L64.11 21.5913L61.3341 20.4535L60.9299 21.4397L63.7058 22.5775ZM63.2725 22.4178C64.8767 21.7849 65.8219 21.3825 66.3575 21.0637C66.6199 20.9075 66.9939 20.6545 67.2424 20.2312C67.5256 19.7487 67.5 19.2728 67.5 19.2071H64.5C64.5 19.3347 64.4744 19.0206 64.6551 18.7127C64.8012 18.4638 64.9704 18.3981 64.8231 18.4858C64.5392 18.6548 63.8454 18.9668 62.1716 19.6271L63.2725 22.4178ZM67.5 19.2071V16.6859H64.5V19.2071H67.5ZM67.5 16.6846C67.4999 16.6239 67.5266 16.1411 67.2419 15.6563C66.9862 15.2209 66.5992 14.9686 66.3306 14.8157C65.7865 14.5061 64.8317 14.1286 63.2247 13.5436L62.1986 16.3627C63.8796 16.9746 64.5688 17.2648 64.8468 17.423C64.9892 17.5041 64.8078 17.4357 64.655 17.1755C64.4731 16.8658 64.4999 16.5493 64.5 16.6872L67.5 16.6846ZM64.098 14.3804L63.6894 13.3915L60.9167 14.5371L61.3253 15.5259L64.098 14.3804ZM63.6794 14.5607C64.364 12.981 64.7471 12.0297 64.9006 11.4263C64.9762 11.1294 65.061 10.69 64.9415 10.2186C64.8058 9.68324 64.4614 9.3638 64.4143 9.31528L62.2611 11.4043C62.3499 11.4958 62.119 11.2933 62.0334 10.9556C61.964 10.6818 62.0355 10.5207 61.9933 10.6864C61.9114 11.0081 61.6413 11.719 60.9268 13.3679L63.6794 14.5607ZM64.397 9.29776L62.6097 7.51493L60.4911 9.63894L62.2784 11.4218L64.397 9.29776ZM62.5286 7.4398L62.3512 7.28721L60.3948 9.56149L60.5722 9.71408L62.5286 7.4398ZM61.373 6.92435H61.1659V9.92435H61.373V6.92435ZM61.1659 6.92435C60.8572 6.92435 60.5582 6.98998 60.0575 7.17106C59.561 7.35067 58.7536 7.68686 57.3835 8.32133L58.6441 11.0436C59.9909 10.42 60.705 10.1271 61.078 9.99217C61.1686 9.95941 61.2328 9.93824 61.2763 9.92491C61.3203 9.91145 61.3376 9.90767 61.3351 9.90822C61.3314 9.90905 61.3039 9.91497 61.2592 9.91942C61.2082 9.92451 61.1655 9.92435 61.1659 9.92435V6.92435ZM58.5848 8.2954L57.5848 7.88378L56.4428 10.6579L57.4428 11.0696L58.5848 8.2954ZM58.4089 8.71964C57.7762 7.11857 57.3755 6.17742 57.0602 5.64485C56.9068 5.38559 56.6569 5.01194 56.2375 4.76226C55.7539 4.47433 55.276 4.5 55.2104 4.5V7.5C55.334 7.5 55.0147 7.52567 54.7028 7.33996C54.4551 7.19248 54.39 7.02327 54.4785 7.17287C54.6473 7.45801 54.959 8.15228 55.6188 9.82207L58.4089 8.71964ZM55.2104 4.5H52.689V7.5H55.2104V4.5ZM52.689 4.5C52.6264 4.5 52.1441 4.47356 51.6586 4.76405C51.232 5.01934 50.9831 5.40194 50.8318 5.66744C50.5228 6.20962 50.1434 7.16054 49.5564 8.76807L52.3745 9.79696C52.9862 8.12154 53.2796 7.43121 53.4382 7.15287C53.5207 7.0081 53.4543 7.18562 53.199 7.3384C52.8848 7.52639 52.5626 7.5 52.689 7.5V4.5ZM50.3911 7.89684L49.3954 8.30954L50.5442 11.0809L51.5398 10.6682L50.3911 7.89684ZM50.5636 8.31776C49.6366 7.91815 48.8816 7.60861 48.3117 7.39649C48.0281 7.29097 47.7717 7.20255 47.5528 7.13845C47.3866 7.08978 47.0777 7.00302 46.7663 7.00302V10.003C46.6002 10.003 46.5349 9.96635 46.7097 10.0175C46.8318 10.0533 47.0139 10.1145 47.2653 10.2081C47.7654 10.3942 48.4669 10.6808 49.376 11.0727L50.5636 8.31776ZM46.7188 7.00377L46.4804 7.01133L46.5755 10.0098L46.8139 10.0023L46.7188 7.00377ZM45.4668 7.45044L43.5443 9.37485L45.6666 11.4951L47.5891 9.57071L45.4668 7.45044ZM43.5666 9.3529C43.5242 9.39361 43.1518 9.71237 42.9993 10.2585C42.8608 10.7545 42.9547 11.2153 43.0357 11.5166C43.1996 12.1253 43.6088 13.0728 44.3313 14.6253L47.0512 13.3594C46.2944 11.7334 46.0148 11.0422 45.9327 10.7369C45.8907 10.5811 45.9723 10.766 45.8887 11.0654C45.7911 11.415 45.5408 11.6164 45.6442 11.5171L43.5666 9.3529ZM44.3049 13.4197L43.8978 14.4051L46.6706 15.5505L47.0776 14.5651L44.3049 13.4197ZM44.7335 13.5825C43.134 14.2139 42.1899 14.6134 41.656 14.9295C41.3942 15.0845 41.0168 15.3378 40.7671 15.7652C40.4847 16.2484 40.511 16.7268 40.511 16.7903H43.511C43.511 16.6561 43.5373 16.9706 43.3572 17.2788C43.2098 17.5311 43.0369 17.5983 43.1843 17.511C43.4687 17.3426 44.1612 17.0336 45.8349 16.373L44.7335 13.5825ZM40.511 16.7903V19.3143H43.511V16.7903H40.511ZM40.511 19.3143C40.511 19.2829 40.517 19.2044 40.5072 19.3253C40.5013 19.3974 40.4806 19.6387 40.5525 19.9248C40.7208 20.5939 41.2212 20.9352 41.4691 21.0852C41.9474 21.3744 42.8524 21.7254 44.4276 22.3015L45.458 19.484C44.6398 19.1848 44.0657 18.9679 43.6614 18.8044C43.2368 18.6328 43.071 18.548 43.0215 18.5181C42.947 18.473 43.3303 18.6697 43.462 19.1933C43.4897 19.3037 43.4978 19.3978 43.4996 19.4633C43.5012 19.5241 43.4974 19.567 43.4974 19.5678C43.494 19.6093 43.511 19.4447 43.511 19.3143H40.511ZM54.0836 20.066C52.8331 20.066 51.8536 19.0679 51.8536 17.8957H48.8536C48.8536 20.7704 51.2222 23.066 54.0836 23.066V20.066ZM51.8536 17.8957C51.8536 16.7262 52.8319 15.7285 54.0836 15.7285V12.7285C51.2236 12.7285 48.8536 15.0212 48.8536 17.8957H51.8536ZM54.0836 15.7285C55.3319 15.7285 56.3089 16.7243 56.3089 17.8957H59.3089C59.3089 15.0238 56.9448 12.7285 54.0836 12.7285V15.7285ZM56.3089 17.8954C56.3087 19.0701 55.3302 20.066 54.0836 20.066V23.066C56.9457 23.066 59.3083 20.7682 59.3089 17.896L56.3089 17.8954Z" fill="#666666"/>
</svg>
