<svg width="72" height="72" viewBox="0 0 72 72" fill="none" xmlns="http://www.w3.org/2000/svg">
<path d="M39.0637 21.271L35.5657 16H9.04068C6.25683 16 4.00008 18.1455 4.00008 20.7921V50.914C4.00008 53.5606 6.25683 55.7061 9.04068 55.7061H35.4885L39.2712 50.2294" fill="#CBF6EC"/>
<path d="M39.1589 21.31L41.8366 16H62.1414C64.2725 16 66 18.1614 66 20.8276V51.1724C66 53.8386 64.2725 56 62.1414 56H41.8956L39 50.4828" fill="white"/>
<path d="M4.02271 45.7143V50.914C4.02271 53.5606 6.20107 55.7061 8.88822 55.7061H33.5338L38.7218 50.7102L43.5607 55.7061H65.74M22.4452 16H33.5338L38.7218 20.9959L43.5607 16H50.5108" stroke="#270570" stroke-width="3" stroke-linecap="round" stroke-linejoin="round"/>
<path d="M65.74 26.3226V54.4561" stroke="#270570" stroke-width="3" stroke-linecap="round" stroke-linejoin="round"/>
<path d="M39.2292 27.649V45.1903" stroke="#270570" stroke-width="3" stroke-linecap="round" stroke-linejoin="round" stroke-dasharray="2.34 7.02"/>
<path d="M20.541 45C20.3989 45 20.271 44.9507 20.1574 44.8522C20.0579 44.7537 20.0082 44.627 20.0082 44.4722V42.9944C18.9426 42.8678 18.0333 42.6074 17.2803 42.2133C16.5415 41.8052 15.9803 41.3056 15.5967 40.7144C15.2273 40.1233 15.0284 39.497 15 38.8356C15 38.7089 15.0426 38.6033 15.1279 38.5189C15.2273 38.4344 15.341 38.3922 15.4689 38.3922H18.3033C18.488 38.3922 18.6301 38.4204 18.7295 38.4767C18.829 38.533 18.9426 38.6315 19.0705 38.7722C19.5109 39.5463 20.3208 39.9333 21.5 39.9333C22.2672 39.9333 22.8568 39.8207 23.2689 39.5956C23.6951 39.3563 23.9082 39.0326 23.9082 38.6244C23.9082 38.3289 23.7945 38.0896 23.5672 37.9067C23.3541 37.7096 23.0131 37.5407 22.5443 37.4C22.0896 37.2452 21.4148 37.0763 20.5197 36.8933C18.8005 36.5556 17.5148 36.0419 16.6623 35.3522C15.8098 34.6626 15.3836 33.6774 15.3836 32.3967C15.3836 31.2567 15.7956 30.2926 16.6197 29.5044C17.4437 28.7022 18.5732 28.2026 20.0082 28.0056V26.5278C20.0082 26.373 20.0579 26.2463 20.1574 26.1478C20.271 26.0493 20.3989 26 20.541 26H22.3951C22.5514 26 22.6792 26.0493 22.7787 26.1478C22.8781 26.2463 22.9279 26.373 22.9279 26.5278V28.0478C23.8656 28.2167 24.6754 28.5193 25.3574 28.9556C26.0393 29.3778 26.5579 29.8704 26.9131 30.4333C27.2825 30.9822 27.4814 31.517 27.5098 32.0378C27.5098 32.1644 27.4672 32.277 27.382 32.3756C27.2967 32.46 27.1902 32.5022 27.0623 32.5022H24.0787C23.7519 32.5022 23.5104 32.3756 23.3541 32.1222C23.2689 31.8267 23.0415 31.5804 22.6721 31.3833C22.3169 31.1722 21.8836 31.0667 21.3721 31.0667C20.7754 31.0667 20.3137 31.1722 19.9869 31.3833C19.6601 31.5944 19.4967 31.9041 19.4967 32.3122C19.4967 32.7204 19.7098 33.0441 20.1361 33.2833C20.5623 33.5085 21.3508 33.7407 22.5016 33.98C23.8372 34.2193 24.9027 34.5219 25.6984 34.8878C26.494 35.2396 27.0765 35.7041 27.4459 36.2811C27.8153 36.8441 28 37.5619 28 38.4344C28 39.673 27.5383 40.6933 26.6148 41.4956C25.7055 42.2978 24.4765 42.7974 22.9279 42.9944V44.4722C22.9279 44.627 22.8781 44.7537 22.7787 44.8522C22.6792 44.9507 22.5514 45 22.3951 45H20.541Z" fill="#270570"/>
</svg>
