<svg width="72" height="72" viewBox="0 0 72 72" fill="none" xmlns="http://www.w3.org/2000/svg">
<path d="M2.99988 32C2.99988 29.7909 4.79074 28 6.99988 28H21.6571C22.8266 28 23.9374 28.5118 24.6974 29.4006L24.9596 29.7073C26.5563 31.5748 29.4434 31.5748 31.0401 29.7073L31.3024 29.4006C32.0623 28.5118 33.1732 28 34.3426 28H64.9999C67.209 28 68.9999 29.7909 68.9999 32V54C68.9999 56.2091 67.209 58 64.9999 58H34.6054C33.575 58 32.5844 57.6024 31.8399 56.89L30.0947 55.22C28.6187 53.8075 26.3154 53.7343 24.7527 55.0503L23.57 56.0462C22.8772 56.6297 22.0068 56.9607 21.1014 56.9851L7.1078 57.3628C4.85721 57.4236 2.99988 55.6157 2.99988 53.3643V32Z" fill="white"/>
<path d="M18.7098 49.3317C18.7098 46.8129 16.6763 44.771 14.1679 44.771C11.6594 44.771 9.62587 46.8129 9.62587 49.3317" stroke="#270570" stroke-width="3" stroke-linecap="round" stroke-linejoin="round"/>
<path d="M49.204 39.1094H40.9154" stroke="#270570" stroke-width="3" stroke-linecap="round" stroke-linejoin="round"/>
<path d="M32.9023 28.1299L28.0785 32.9736" stroke="#270570" stroke-width="3" stroke-linecap="round" stroke-linejoin="round"/>
<path d="M15.076 28.1079L23.212 28.1079L28.0358 32.9516" stroke="#270570" stroke-width="3" stroke-linecap="round" stroke-linejoin="round"/>
<path d="M28.3329 39.7598V44.7598" stroke="#270570" stroke-width="3" stroke-linecap="round" stroke-linejoin="round"/>
<path d="M40.5612 57.5117H32.4253L27.6014 52.668" stroke="#270570" stroke-width="3" stroke-linecap="round" stroke-linejoin="round"/>
<path d="M2.76892 49.7649L2.76892 52.7986V52.7986C2.76892 55.4016 4.87913 57.5118 7.4822 57.5118H14.8838H23.0197L27.4734 52.7986" stroke="#270570" stroke-width="3" stroke-linecap="round" stroke-linejoin="round"/>
<path d="M68.6854 45.5442H40.9262" stroke="#270570" stroke-width="3" stroke-linecap="round" stroke-linejoin="round"/>
<path d="M14.1677 43.5243C15.9997 43.5243 17.4743 42.0348 17.4743 40.2103C17.4743 38.3857 15.9997 36.8962 14.1677 36.8962C12.3358 36.8962 10.8612 38.3857 10.8612 40.2103C10.8612 42.0348 12.3358 43.5243 14.1677 43.5243Z" stroke="#270570" stroke-width="2.97959" stroke-linecap="round" stroke-linejoin="round"/>
<path d="M69.2622 38.6064V50.4807C69.2622 54.3637 66.1144 57.5116 62.2313 57.5116" stroke="#270570" stroke-width="3" stroke-linecap="round" stroke-linejoin="round"/>
<path d="M64.535 28.144H58.9916L54 33.875L49.1552 28.144H42.3333C40.4924 28.144 39 26.7387 39 25.005V5.13899C39 3.40538 40.4924 2 42.3333 2H65.6667C67.5076 2 69 3.40538 69 5.13899C69 5.13899 69 15.2915 69 19.3053C69 20.139 69 22.9381 69 25.1657C69 26.8113 67.666 28.144 66.0204 28.144H64.535Z" fill="#FFE3E0"/>
<path d="M64.535 28.144H58.9916L54 33.875L49.1552 28.144H42.3333C40.4924 28.144 39 26.7387 39 25.005V5.13899C39 3.40538 40.4924 2 42.3333 2H65.6667C67.5076 2 69 3.40538 69 5.13899C69 5.13899 69 15.2915 69 19.3053" stroke="#270570" stroke-width="3" stroke-linecap="round" stroke-linejoin="round"/>
<path fill-rule="evenodd" clip-rule="evenodd" d="M56.8859 9.52023C56.9848 9.52023 57.0645 9.44002 57.0643 9.34115C57.0635 8.62524 57.6508 7.65572 58.1939 8.12217C58.2077 8.13406 58.2209 8.14697 58.2332 8.16094L60.8083 10.5976C61.1306 10.9616 61.1306 11.5536 60.8083 11.9195L58.2349 14.34C57.7366 14.9 57.0645 13.8543 57.0645 13.1047V13.0338C57.0645 12.9248 56.9767 12.8363 56.8677 12.8354L50.4023 12.7855C48.7567 12.7855 48.9617 14.1791 48.9617 14.1791C48.9617 15.3301 48.5235 16.2272 47.5864 16.275C46.6884 16.275 46.0001 15.6952 46.0001 14.1791C46.0001 12.6629 46.6884 9.52023 50.4023 9.52023H56.8859ZM50.1641 22.2587C50.0652 22.2587 49.9856 22.3389 49.9857 22.4377C49.9865 23.1536 49.3992 24.1232 48.8561 23.6567C48.8423 23.6448 48.8291 23.6319 48.8168 23.618L46.2417 21.1813C45.9194 20.8173 45.9194 20.2253 46.2417 19.8594L48.8151 17.4389C49.3134 16.8789 49.9855 17.9246 49.9855 18.6742V18.7451C49.9855 18.8541 50.0734 18.9426 50.1823 18.9435L56.6477 18.9934C58.2934 18.9934 58.0883 17.5998 58.0883 17.5998C58.0883 16.4487 58.5266 15.5517 59.4637 15.5039C60.3616 15.5039 61.0499 16.0837 61.0499 17.5998C61.0499 19.116 60.3616 22.2587 56.6477 22.2587H50.1641Z" fill="#270570"/>
</svg>
