<svg width="72" height="72" viewBox="0 0 72 72" fill="none" xmlns="http://www.w3.org/2000/svg">
<path d="M40.0635 21.271L35.5655 16H9.04056C6.25671 16 3.99995 18.1455 3.99995 20.7921V50.914C3.99995 53.5606 6.25671 55.7061 9.04056 55.7061H35.4884L40.2711 50.2294" fill="#FFE3E0"/>
<path d="M39.1545 21.31L42.5028 16H62.2478C64.3201 16 66 18.1614 66 20.8276V51.1724C66 53.8386 64.3201 56 62.2478 56H42.5602L39 50.4828" fill="white"/>
<path d="M4.02271 45.7143V50.914C4.02271 53.5606 6.20107 55.7061 8.88822 55.7061H33.5338L38.7218 50.7102L43.5607 55.7061H65.74M22.4452 16H33.5338L38.7218 20.9959L43.5607 16H50.5108" stroke="#270570" stroke-width="3" stroke-linecap="round" stroke-linejoin="round"/>
<path d="M65.74 26.3226V54.4561" stroke="#270570" stroke-width="3" stroke-linecap="round" stroke-linejoin="round"/>
<path d="M39.2292 27.649V45.1903" stroke="#270570" stroke-width="3" stroke-linecap="round" stroke-linejoin="round" stroke-dasharray="2.34 7.02"/>
<path d="M25.4446 43.2887C23.9637 43.2887 22.7632 42.184 22.7632 40.8214C22.7632 39.4587 23.9637 38.354 25.4446 38.354C26.9255 38.354 28.126 39.4587 28.126 40.8214C28.126 42.184 26.9255 43.2887 25.4446 43.2887Z" stroke="#270570" stroke-width="3"/>
<path d="M16.3575 33.6113C14.8766 33.6113 13.6761 32.5066 13.6761 31.1439C13.6761 29.7812 14.8766 28.6766 16.3575 28.6766C17.8384 28.6766 19.0389 29.7812 19.0389 31.1439C19.0389 32.5066 17.8384 33.6113 16.3575 33.6113Z" stroke="#270570" stroke-width="3"/>
<path d="M27.9437 29.0945L14.3132 42.159" stroke="#270570" stroke-width="3" stroke-linecap="round" stroke-linejoin="round"/>
</svg>
