<svg width="72" height="72" viewBox="0 0 72 72" fill="none" xmlns="http://www.w3.org/2000/svg">
<path d="M3 32C3 29.7909 4.79086 28 7 28H21.6573C22.8267 28 23.9376 28.5118 24.6975 29.4006L24.9598 29.7073C26.5564 31.5748 29.4436 31.5748 31.0402 29.7073L31.3025 29.4006C32.0624 28.5118 33.1733 28 34.3427 28H65C67.2091 28 69 29.7909 69 32V54C69 56.2091 67.2091 58 65 58H34.6055C33.5751 58 32.5845 57.6024 31.84 56.89L30.0949 55.22C28.6188 53.8075 26.3155 53.7343 24.7528 55.0503L23.5701 56.0462C22.8773 56.6297 22.0069 56.9607 21.1015 56.9851L7.10793 57.3628C4.85734 57.4236 3 55.6157 3 53.3643V32Z" fill="white"/>
<path d="M18.71 49.3317C18.71 46.8129 16.6764 44.771 14.168 44.771C11.6595 44.771 9.62599 46.8129 9.62599 49.3317" stroke="#270570" stroke-width="3" stroke-linecap="round" stroke-linejoin="round"/>
<path d="M49.2041 39.1094H40.9155" stroke="#270570" stroke-width="3" stroke-linecap="round" stroke-linejoin="round"/>
<path d="M32.9024 28.1299L28.0786 32.9736" stroke="#270570" stroke-width="3" stroke-linecap="round" stroke-linejoin="round"/>
<path d="M15.0762 28.1079L23.2121 28.1079L28.0359 32.9516" stroke="#270570" stroke-width="3" stroke-linecap="round" stroke-linejoin="round"/>
<path d="M28.333 39.7598V44.7598" stroke="#270570" stroke-width="3" stroke-linecap="round" stroke-linejoin="round"/>
<path d="M40.5613 57.5117H32.4254L27.6016 52.668" stroke="#270570" stroke-width="3" stroke-linecap="round" stroke-linejoin="round"/>
<path d="M2.76904 49.7649L2.76904 52.7986V52.7986C2.76904 55.4016 4.87925 57.5118 7.48232 57.5118H14.884H23.0199L27.4736 52.7986" stroke="#270570" stroke-width="3" stroke-linecap="round" stroke-linejoin="round"/>
<path d="M68.6855 45.5442H40.9264" stroke="#270570" stroke-width="3" stroke-linecap="round" stroke-linejoin="round"/>
<path d="M14.1679 43.5243C15.9998 43.5243 17.4745 42.0348 17.4745 40.2103C17.4745 38.3857 15.9998 36.8962 14.1679 36.8962C12.3359 36.8962 10.8613 38.3857 10.8613 40.2103C10.8613 42.0348 12.3359 43.5243 14.1679 43.5243Z" stroke="#270570" stroke-width="2.97959" stroke-linecap="round" stroke-linejoin="round"/>
<path d="M69.2623 38.6064V50.4807C69.2623 54.3637 66.1145 57.5116 62.2314 57.5116" stroke="#270570" stroke-width="3" stroke-linecap="round" stroke-linejoin="round"/>
<path d="M64.535 29.144H58.9916L54 34.875L49.1552 29.144H42.3333C40.4924 29.144 39 27.7387 39 26.005V6.13899C39 4.40538 40.4924 3 42.3333 3H65.6667C67.5076 3 69 4.40538 69 6.13899C69 6.13899 69 16.2915 69 20.3053C69 21.139 69 23.9381 69 26.1657C69 27.8113 67.666 29.144 66.0204 29.144H64.535Z" fill="#FFE3E0"/>
<path d="M64.535 28.144H58.9916L54 33.875L49.1552 28.144H42.3333C40.4924 28.144 39 26.7387 39 25.005V5.13899C39 3.40538 40.4924 2 42.3333 2H65.6667C67.5076 2 69 3.40538 69 5.13899C69 5.13899 69 15.2915 69 19.3053" stroke="#270570" stroke-width="3" stroke-linecap="round" stroke-linejoin="round"/>
<path d="M52.2272 18.7791C52.1173 18.7791 52.021 18.7396 51.9385 18.6604C51.8561 18.5812 51.8148 18.4888 51.8148 18.3832C51.8148 18.1985 51.8217 18.0599 51.8354 17.9675C51.9317 17.4264 52.1448 16.9381 52.4747 16.5026C52.8184 16.0671 53.2789 15.5788 53.8563 15.0377C54.2824 14.6418 54.6055 14.3119 54.8254 14.0479C55.0454 13.7708 55.1622 13.5003 55.176 13.2363C55.2172 12.8536 55.0866 12.5435 54.7842 12.3059C54.4955 12.0684 54.1312 11.9496 53.6913 11.9496C52.674 11.9496 52.0485 12.4181 51.8148 13.3551C51.7461 13.5135 51.6636 13.6322 51.5674 13.7114C51.4711 13.7906 51.3337 13.8302 51.155 13.8302H48.4743C48.3368 13.8302 48.22 13.784 48.1237 13.6916C48.0412 13.586 48 13.4541 48 13.2957C48.0275 12.583 48.2681 11.8968 48.7217 11.2369C49.1754 10.5771 49.849 10.0426 50.7425 9.63347C51.6361 9.21116 52.7015 9 53.9388 9C55.2035 9 56.2276 9.19136 57.0112 9.57408C57.8086 9.9436 58.3791 10.3989 58.7227 10.94C59.0664 11.4811 59.2383 12.0288 59.2383 12.583C59.2383 13.2561 59.0802 13.8434 58.764 14.3449C58.4478 14.8464 57.9941 15.4073 57.403 16.0275C57.0319 16.4234 56.75 16.7402 56.5576 16.9777C56.3651 17.2153 56.207 17.4726 56.0833 17.7498C56.0283 17.8685 55.9802 18.0335 55.939 18.2447C55.829 18.4426 55.7259 18.5812 55.6296 18.6604C55.5472 18.7396 55.4303 18.7791 55.2791 18.7791H52.2272ZM52.2891 23.055C52.1379 23.055 52.0073 23.0089 51.8973 22.9165C51.8011 22.8241 51.753 22.7053 51.753 22.5602V20.2044C51.753 20.0593 51.8011 19.9405 51.8973 19.8481C52.0073 19.7425 52.1379 19.6898 52.2891 19.6898H55.0523C55.2035 19.6898 55.3272 19.7425 55.4234 19.8481C55.5334 19.9405 55.5884 20.0593 55.5884 20.2044V22.5602C55.5884 22.7053 55.5334 22.8241 55.4234 22.9165C55.3272 23.0089 55.2035 23.055 55.0523 23.055H52.2891Z" fill="#270570"/>
</svg>
