<svg width="72" height="72" viewBox="0 0 72 72" fill="none" xmlns="http://www.w3.org/2000/svg">
<path d="M3 32C3 29.7909 4.79086 28 7 28H21.6573C22.8267 28 23.9376 28.5118 24.6975 29.4006L24.9598 29.7073C26.5564 31.5748 29.4436 31.5748 31.0402 29.7073L31.3025 29.4006C32.0624 28.5118 33.1733 28 34.3427 28H65C67.2091 28 69 29.7909 69 32V54C69 56.2091 67.2091 58 65 58H34.6055C33.5751 58 32.5845 57.6024 31.84 56.89L30.0949 55.22C28.6188 53.8075 26.3155 53.7343 24.7528 55.0503L23.5701 56.0462C22.8773 56.6297 22.0069 56.9607 21.1015 56.9851L7.10793 57.3628C4.85734 57.4236 3 55.6157 3 53.3643V32Z" fill="white"/>
<path d="M18.71 49.3317C18.71 46.8129 16.6764 44.771 14.168 44.771C11.6595 44.771 9.62599 46.8129 9.62599 49.3317" stroke="#666666" stroke-width="3" stroke-linecap="round" stroke-linejoin="round"/>
<path d="M49.2041 39.1094H40.9155" stroke="#666666" stroke-width="3" stroke-linecap="round" stroke-linejoin="round"/>
<path d="M32.9024 28.1299L28.0786 32.9736" stroke="#666666" stroke-width="3" stroke-linecap="round" stroke-linejoin="round"/>
<path d="M15.0762 28.1079L23.2121 28.1079L28.0359 32.9516" stroke="#666666" stroke-width="3" stroke-linecap="round" stroke-linejoin="round"/>
<path d="M28.333 39.7598V44.7598" stroke="#666666" stroke-width="3" stroke-linecap="round" stroke-linejoin="round"/>
<path d="M40.5613 57.5117H32.4254L27.6016 52.668" stroke="#666666" stroke-width="3" stroke-linecap="round" stroke-linejoin="round"/>
<path d="M2.76904 49.7649L2.76904 52.7986V52.7986C2.76904 55.4016 4.87925 57.5118 7.48232 57.5118H14.884H23.0199L27.4736 52.7986" stroke="#666666" stroke-width="3" stroke-linecap="round" stroke-linejoin="round"/>
<path d="M68.6855 45.5442H40.9264" stroke="#666666" stroke-width="3" stroke-linecap="round" stroke-linejoin="round"/>
<path d="M14.1679 43.5243C15.9998 43.5243 17.4745 42.0348 17.4745 40.2103C17.4745 38.3857 15.9998 36.8962 14.1679 36.8962C12.3359 36.8962 10.8613 38.3857 10.8613 40.2103C10.8613 42.0348 12.3359 43.5243 14.1679 43.5243Z" stroke="#666666" stroke-width="2.97959" stroke-linecap="round" stroke-linejoin="round"/>
<path d="M69.2623 38.6064V50.4807C69.2623 54.3637 66.1145 57.5116 62.2314 57.5116" stroke="#666666" stroke-width="3" stroke-linecap="round" stroke-linejoin="round"/>
<path d="M64.535 28.144H58.9916L54 33.875L49.1552 28.144H42.3333C40.4924 28.144 39 26.7387 39 25.005V5.13899C39 3.40538 40.4924 2 42.3333 2H65.6667C67.5076 2 69 3.40538 69 5.13899C69 5.13899 69 15.2915 69 19.3053C69 20.139 69 22.9381 69 25.1657C69 26.8113 67.666 28.144 66.0204 28.144H64.535Z" fill="#CCCCCC"/>
<path d="M64.535 28.144H58.9916L54 33.875L49.1552 28.144H42.3333C40.4924 28.144 39 26.7387 39 25.005V5.13899C39 3.40538 40.4924 2 42.3333 2H65.6667C67.5076 2 69 3.40538 69 5.13899C69 5.13899 69 15.2915 69 19.3053" stroke="#666666" stroke-width="3" stroke-linecap="round" stroke-linejoin="round"/>
<path d="M51.637 10.5144C51.0512 9.9286 50.1014 9.9286 49.5157 10.5144C48.9299 11.1002 48.9299 12.0499 49.5157 12.6357L51.637 10.5144ZM57.1238 20.2438C57.7096 20.8296 58.6593 20.8296 59.2451 20.2438C59.8309 19.658 59.8309 18.7083 59.2451 18.1225L57.1238 20.2438ZM49.5157 18.1236C48.9299 18.7094 48.9299 19.6591 49.5157 20.2449C50.1014 20.8307 51.0512 20.8307 51.637 20.2449L49.5157 18.1236ZM59.2451 12.6368C59.8309 12.051 59.8309 11.1012 59.2451 10.5155C58.6593 9.92966 57.7096 9.92966 57.1238 10.5155L59.2451 12.6368ZM49.5157 12.6357L57.1238 20.2438L59.2451 18.1225L51.637 10.5144L49.5157 12.6357ZM51.637 20.2449L59.2451 12.6368L57.1238 10.5155L49.5157 18.1236L51.637 20.2449Z" fill="#666666"/>
</svg>
