<svg width="73" height="72" viewBox="0 0 73 72" fill="none" xmlns="http://www.w3.org/2000/svg">
<path d="M1.86108 26.2886C1.86108 24.0794 3.65195 22.2886 5.86108 22.2886H25.158L32.8611 28.3329V47.1327L26.1017 53.2886H5.86108C3.65194 53.2886 1.86108 51.4977 1.86108 49.2886V26.2886Z" fill="#FFE3E0"/>
<path d="M71 26C71 23.7909 69.2091 22 67 22H39.4606L33 28.0443V46.8441L38.6692 53H67C69.2091 53 71 51.2091 71 49V26Z" fill="white"/>
<path fill-rule="evenodd" clip-rule="evenodd" d="M19.2421 34.0214C19.395 34.4164 19.7729 34.6786 20.1964 34.6837L23.1704 34.7195C24.1932 34.7318 24.5821 36.0608 23.7274 36.6226L21.5892 38.0281C21.191 38.2899 21.0225 38.7893 21.1807 39.2388L22.021 41.6261C22.3458 42.5488 21.3295 43.3666 20.4976 42.852L17.7686 41.1638C17.4344 40.9571 17.012 40.9571 16.6777 41.1638L13.9488 42.852C13.1169 43.3666 12.1005 42.5488 12.4253 41.6261L13.2656 39.2388C13.4238 38.7893 13.2553 38.2899 12.8572 38.0281L10.719 36.6226C9.86423 36.0608 10.2532 34.7318 11.276 34.7195L14.2499 34.6837C14.6735 34.6786 15.0514 34.4164 15.2043 34.0214L16.2563 31.3045C16.5983 30.4212 17.848 30.4212 18.19 31.3045L19.2421 34.0214Z" fill="#270570"/>
<path d="M44.18 22.7908L38.3464 22.7908L33.0361 28.1011" stroke="#270570" stroke-width="3" stroke-linecap="round" stroke-linejoin="round"/>
<path d="M20.1458 22.7668L27.6793 22.7668L32.9896 28.077" stroke="#270570" stroke-width="3" stroke-linecap="round" stroke-linejoin="round"/>
<path d="M32.333 35.0482V40.0482" stroke="#270570" stroke-width="3" stroke-linecap="round" stroke-linejoin="round"/>
<path d="M56.1448 52.8104L38.445 52.8104L33.1347 47.5001" stroke="#270570" stroke-width="3" stroke-linecap="round" stroke-linejoin="round"/>
<path d="M2.34991 43.8101L2.32556 47.6249L2.31823 48.7741C2.304 51.0032 4.11462 52.8138 6.34367 52.7996L19.2278 52.7173L28.2417 52.6598L33.2092 47.4278" stroke="#270570" stroke-width="3" stroke-linecap="round" stroke-linejoin="round"/>
<path d="M56.1448 40.7865H44.18" stroke="#270570" stroke-width="3" stroke-linecap="round" stroke-linejoin="round"/>
<path d="M62.2439 34.7886H44.18" stroke="#270570" stroke-width="3" stroke-linecap="round" stroke-linejoin="round"/>
<path d="M59.2239 22.867L67.2212 22.8618C69.4314 22.8603 71.2239 24.6516 71.2239 26.8618V48.8591C71.2239 51.0683 69.433 52.8591 67.2239 52.8591H65.2252" stroke="#270570" stroke-width="3" stroke-linecap="round" stroke-linejoin="round"/>
</svg>
