<svg width="72" height="72" viewBox="0 0 72 72" fill="none" xmlns="http://www.w3.org/2000/svg">
<path d="M57 26H17C14.7909 26 13 27.7909 13 30V57C13 59.2091 14.7909 61 17 61H51.5L61 51V30C61 27.7909 59.2091 26 57 26Z" fill="white"/>
<path d="M12 61C13.0587 61 22 52.9066 22 47.2472C22 41.5878 17.5228 37 12 37C6.47715 37 2 41.5878 2 47.2472C2 52.9066 10.9413 61 12 61Z" fill="#FFE3E0"/>
<path d="M60 29C61.0587 29 70 20.9066 70 15.2472C70 9.58783 65.5228 5 60 5C54.4772 5 50 9.58783 50 15.2472C50 20.9066 58.9413 29 60 29Z" fill="#FFE3E0"/>
<path d="M12 50C13.6569 50 15 48.6569 15 47C15 45.3431 13.6569 44 12 44C10.3431 44 9 45.3431 9 47C9 48.6569 10.3431 50 12 50Z" fill="#270570"/>
<path d="M60 17C61.6569 17 63 15.6569 63 14C63 12.3431 61.6569 11 60 11C58.3431 11 57 12.3431 57 14C57 15.6569 58.3431 17 60 17Z" fill="#270570"/>
<path d="M2 47.2472C2 51.0201 5.33333 55.6044 12 61C14.871 58.5184 16.815 56.7081 17.8319 55.5692C20.6106 52.457 22 49.683 22 47.2472C22 44.3193 20.8017 41.6783 18.8802 39.8109C17.0876 38.0687 14.6656 37 12 37" stroke="#270570" stroke-width="3" stroke-linecap="round" stroke-linejoin="round"/>
<path d="M50 15.2472C50 19.0201 53.3333 23.6044 60 29C62.871 26.5184 64.815 24.7081 65.8319 23.5692C68.6106 20.457 70 17.683 70 15.2472C70 12.3193 68.8017 9.67826 66.8802 7.81088C65.0876 6.06874 62.6656 5 60 5" stroke="#270570" stroke-width="3" stroke-linecap="round" stroke-linejoin="round"/>
<path d="M61 35.3535C61 38.8212 61 44.0227 61 50.9581L51.3791 61H21.3627M13 31.7422C13 30.664 13 29.3981 13 27.9445C13 26.8706 13.9267 26 15.0699 26H43.8512C44.3891 26 45.5179 26 47.2374 26" stroke="#270570" stroke-width="3" stroke-linecap="round" stroke-linejoin="round"/>
<path d="M60 51H51V60" stroke="#270570" stroke-width="3" stroke-linecap="round" stroke-linejoin="round"/>
<path d="M26.7612 45.2759H34.0686" stroke="#270570" stroke-width="3" stroke-linecap="round" stroke-linejoin="round"/>
<path d="M49.5903 38.4164L54.6407 33.4455" stroke="#270570" stroke-width="3" stroke-linecap="round" stroke-linejoin="round"/>
<path d="M39 44.5015C39 42.5696 40.5686 41 42.5008 41C44.4306 41 46 42.5696 46 44.5015C46 46.4311 44.4306 48 42.5008 48C40.5686 48 39 46.4311 39 44.5015Z" stroke="#270570" stroke-width="3" stroke-linecap="round" stroke-linejoin="round"/>
</svg>
