<svg width="72" height="72" viewBox="0 0 72 72" fill="none" xmlns="http://www.w3.org/2000/svg">
<circle cx="29" cy="41" r="27" fill="white"/>
<path d="M29 14.2C27.0099 14.2 25.0701 14.4152 23.2027 14.8238C11.0764 17.4767 2 28.2787 2 41.2C2 56.1111 14.0889 68.2 29 68.2C43.9111 68.2 56 56.1129 56 41.2" stroke="#270570" stroke-width="3" stroke-linecap="round" stroke-linejoin="round"/>
<path d="M39.106 51.3369C39.106 46.4535 35.1029 42.4948 30.1648 42.4948C25.2267 42.4948 21.2236 46.4535 21.2236 51.3369" stroke="#270570" stroke-width="3" stroke-linecap="round" stroke-linejoin="round"/>
<path d="M30.1648 41.4578C32.9527 41.4578 35.2413 39.2185 35.2413 36.421C35.2413 33.6235 32.9527 31.3842 30.1648 31.3842C27.377 31.3842 25.0884 33.6235 25.0884 36.421C25.0884 39.2185 27.377 41.4578 30.1648 41.4578Z" stroke="#270570" stroke-width="3" stroke-linecap="round" stroke-linejoin="round"/>
<path d="M64.535 28.144H58.9916L54 33.875L49.1552 28.144H42.3333C40.4924 28.144 39 26.7387 39 25.005V5.13899C39 3.40538 40.4924 2 42.3333 2H65.6667C67.5076 2 69 3.40538 69 5.13899C69 5.13899 69 15.2915 69 19.3053C69 20.139 69 22.9381 69 25.1657C69 26.8113 67.666 28.144 66.0204 28.144H64.535Z" fill="#FFE3E0"/>
<path d="M64.535 28.144H58.9916L54 33.875L49.1552 28.144H42.3333C40.4924 28.144 39 26.7387 39 25.005V5.13899C39 3.40538 40.4924 2 42.3333 2H65.6667C67.5076 2 69 3.40538 69 5.13899C69 5.13899 69 15.2915 69 19.3053" stroke="#270570" stroke-width="3" stroke-linecap="round" stroke-linejoin="round"/>
<path d="M61.2512 12C61.2512 11.1716 60.5797 10.5 59.7512 10.5C58.9228 10.5 58.2512 11.1716 58.2512 12H61.2512ZM58.2512 19C58.2512 19.8284 58.9228 20.5 59.7512 20.5C60.5797 20.5 61.2512 19.8284 61.2512 19H58.2512ZM56 14C55.1716 14 54.5 14.6716 54.5 15.5C54.5 16.3284 55.1716 17 56 17V14ZM63 17C63.8284 17 64.5 16.3284 64.5 15.5C64.5 14.6716 63.8284 14 63 14V17ZM58.2512 12V19H61.2512V12H58.2512ZM56 17H63V14H56V17Z" fill="#270570"/>
<path d="M44 15.7491H51" stroke="#270570" stroke-width="3" stroke-linecap="round" stroke-linejoin="round"/>
</svg>
