<svg width="72" height="72" viewBox="0 0 72 72" fill="none" xmlns="http://www.w3.org/2000/svg">
<path fill-rule="evenodd" clip-rule="evenodd" d="M12.8951 52.6061V56.2925H59.0692V32.8192L35.9822 10L12.8951 32.8192V40.8328V42.9636" fill="white"/>
<path d="M12.8951 52.6061V56.2925H59.0692V32.8192L35.9822 10L12.8951 32.8192V40.8328V42.9636" stroke="#270570" stroke-width="3" stroke-linecap="round" stroke-linejoin="round"/>
<path fill-rule="evenodd" clip-rule="evenodd" d="M19.0518 36.2324L35.9823 20.1029L52.9128 36.2324H29.6751V27.0443" fill="#CBF6EC"/>
<path d="M19.0518 36.2324L35.9823 20.1029L52.9128 36.2324H29.6751V27.0443" stroke="#270570" stroke-width="3" stroke-linecap="round" stroke-linejoin="round"/>
<path d="M42.1387 26.1735L42.1387 34.788" stroke="#270570" stroke-width="3" stroke-linecap="round"/>
<path d="M26.6206 36.2324L33.0306 36.2324" stroke="#270570" stroke-width="3" stroke-linecap="round"/>
<path d="M9.81689 34.6893L35.7534 10L62.1475 34.6893" stroke="#270570" stroke-width="3" stroke-linecap="round" stroke-linejoin="round"/>
<path fill-rule="evenodd" clip-rule="evenodd" d="M29.8257 43.9478H32.7382H42.1388V56.2924H29.8257V46.1926V43.9478Z" stroke="#270570" stroke-width="3" stroke-linecap="round" stroke-linejoin="round"/>
<path d="M5 57H65.8148L69 63.5" stroke="#270570" stroke-width="3" stroke-linecap="round" stroke-linejoin="round"/>
</svg>
