<svg width="72" height="72" viewBox="0 0 72 72" fill="none" xmlns="http://www.w3.org/2000/svg">
<rect x="54.0046" y="44.2001" width="7.73066" height="22.0876" fill="#FFE3E0"/>
<path d="M62.645 62.9999V47.7732C62.645 45.5599 60.7462 43.7732 58.394 43.7732H54.1146" stroke="#270570" stroke-width="3" stroke-linecap="round" stroke-linejoin="round"/>
<path d="M53.5616 63V43.7733V11C53.5616 8.78667 51.6472 7 49.3106 7H15.8848C13.5312 7 11.6338 8.78667 11.6338 11V63C11.6338 65.2133 13.5312 67 15.8848 67H57.8126" fill="white"/>
<path d="M53.5616 63V43.7733V11C53.5616 8.78667 51.6472 7 49.3106 7H15.8848C13.5312 7 11.6338 8.78667 11.6338 11V63C11.6338 65.2133 13.5312 67 15.8848 67H57.8126" stroke="#270570" stroke-width="3" stroke-linecap="round" stroke-linejoin="round"/>
<path d="M53.5614 63.0001C53.5614 65.2135 55.8023 67.0001 58.23 67.0001C60.6416 67.0001 62.6175 65.2135 62.6175 63.0001" stroke="#270570" stroke-width="3" stroke-linecap="round" stroke-linejoin="round"/>
<path d="M23.441 50.1445H41.6318" stroke="#270570" stroke-width="3" stroke-linecap="round" stroke-linejoin="round"/>
<path d="M20.723 43.5985H44.8541" stroke="#270570" stroke-width="3" stroke-linecap="round" stroke-linejoin="round"/>
<path fill-rule="evenodd" clip-rule="evenodd" d="M35.9509 23.9822C36.1788 24.5707 36.7417 24.9614 37.3728 24.969L40.5771 25.0076C42.1008 25.0259 42.6803 27.0058 41.407 27.8428L39.2019 29.2923C38.6087 29.6822 38.3577 30.4263 38.5934 31.0959L39.4833 33.6242C39.9672 34.9989 38.4531 36.2174 37.2137 35.4507L34.1502 33.5555C33.6522 33.2475 33.0229 33.2475 32.5249 33.5555L29.4614 35.4507C28.222 36.2174 26.7079 34.9989 27.1918 33.6243L28.0817 31.0959C28.3174 30.4263 28.0664 29.6822 27.4732 29.2923L25.2681 27.8428C23.9948 27.0058 24.5743 25.0259 26.098 25.0076L29.3024 24.969C29.9334 24.9614 30.4963 24.5707 30.7242 23.9822L31.8971 20.953C32.4067 19.6372 34.2684 19.6372 34.778 20.953L35.9509 23.9822Z" stroke="#270570" stroke-width="2.97959"/>
<path d="M64.535 28.144H58.9916L54 33.875L49.1552 28.144H42.3333C40.4924 28.144 39 26.7387 39 25.005V5.13899C39 3.40538 40.4924 2 42.3333 2H65.6667C67.5076 2 69 3.40538 69 5.13899C69 5.13899 69 15.2915 69 19.3053C69 20.139 69 22.9381 69 25.1657C69 26.8113 67.666 28.144 66.0204 28.144H64.535Z" fill="#FFE3E0"/>
<path d="M64.535 28.144H58.9916L54 33.875L49.1552 28.144H42.3333C40.4924 28.144 39 26.7387 39 25.005V5.13899C39 3.40538 40.4924 2 42.3333 2H65.6667C67.5076 2 69 3.40538 69 5.13899C69 5.13899 69 15.2915 69 19.3053" stroke="#270570" stroke-width="3" stroke-linecap="round" stroke-linejoin="round"/>
<path d="M46.8611 18.4917V19.5696C46.8611 20.4605 47.5833 21.1827 48.4741 21.1827H61.1687C62.0596 21.1827 62.7817 20.4605 62.7817 19.5696V18.4917" stroke="#270570" stroke-width="3" stroke-linecap="round"/>
<path d="M51.2031 12.9653L54.8215 15.6563L58.4398 12.9653" stroke="#270570" stroke-width="3" stroke-linecap="round"/>
<path d="M54.8214 7.5835V14.3109" stroke="#270570" stroke-width="3" stroke-linecap="round"/>
</svg>
