<svg width="72" height="72" viewBox="0 0 72 72" fill="none" xmlns="http://www.w3.org/2000/svg">
<rect x="8" y="25" width="53" height="39" rx="4" fill="white"/>
<path fill-rule="evenodd" clip-rule="evenodd" d="M21 30.4429L46.1812 5.88464C47.7451 4.35939 50.2435 4.37099 51.7932 5.91069L68.5918 22.6009C69.3712 23.3753 69.38 24.6334 68.6115 25.4186L61.1914 33L42.6979 30.4429H21Z" fill="#CBF6EC"/>
<path d="M61.5248 59.4539V60.5079C61.5248 62.717 59.7339 64.5079 57.5248 64.5079H11.5712C9.36773 64.5079 7.57924 62.7259 7.5712 60.5224L7.45803 29.4927C7.44995 27.2779 9.24316 25.4781 11.458 25.4781H21" stroke="#270570" stroke-width="3" stroke-linecap="round"/>
<path d="M14.5 56.5246V35.4964C14.5 33.2887 16.2887 31.4984 18.4964 31.4964L57.5949 31.4614C59.8349 31.4594 61.6399 33.2971 61.5978 35.5367L61.5138 40" stroke="#270570" stroke-width="3" stroke-linecap="round"/>
<path fill-rule="evenodd" clip-rule="evenodd" d="M61.5249 40.4649C62.1186 40.4649 62.8145 40.4649 63.5177 40.4649C65.7251 40.4649 67.5153 42.2531 67.5177 44.4605L67.5255 51.5173C67.528 53.7282 65.7364 55.5218 63.5255 55.5218H47.5571C45.348 55.5218 43.5571 53.7309 43.5571 51.5218V44.4649C43.5571 42.2558 45.348 40.4649 47.5571 40.4649H55.5435" fill="white"/>
<path d="M61.5249 40.4649C62.1186 40.4649 62.8145 40.4649 63.5177 40.4649C65.7251 40.4649 67.5153 42.2531 67.5177 44.4605L67.5255 51.5173C67.528 53.7282 65.7364 55.5218 63.5255 55.5218H47.5571C45.348 55.5218 43.5571 53.7309 43.5571 51.5218V44.4649C43.5571 42.2558 45.348 40.4649 47.5571 40.4649H55.5435" stroke="#270570" stroke-width="3" stroke-linecap="round"/>
<path fill-rule="evenodd" clip-rule="evenodd" d="M50 50C51.1046 50 52 49.1046 52 48C52 46.8954 51.1046 46 50 46C48.8954 46 48 46.8954 48 48C48 49.1046 48.8954 50 50 50Z" fill="#270570"/>
<path d="M56.5535 11L67.1681 21.2622C68.7391 22.781 68.8005 25.2795 67.3061 26.8736L61.5631 33" stroke="#270570" stroke-width="3" stroke-linecap="round"/>
</svg>
