<svg width="72" height="72" viewBox="0 0 72 72" fill="none" xmlns="http://www.w3.org/2000/svg">
<mask id="mask0_222_1760" style="mask-type:alpha" maskUnits="userSpaceOnUse" x="0" y="0" width="72" height="72">
<rect width="72" height="72" fill="white"/>
</mask>
<g mask="url(#mask0_222_1760)">
<path fill-rule="evenodd" clip-rule="evenodd" d="M46.5 61.5C59.7548 61.5 70.5 50.7548 70.5 37.5C70.5 24.2452 59.7548 13.5 46.5 13.5C33.2452 13.5 22.5 24.2452 22.5 37.5C22.5 50.7548 33.2452 61.5 46.5 61.5Z" fill="#CBF6EC"/>
<path d="M46.5 61.5C59.7548 61.5 70.5 50.7548 70.5 37.5C70.5 24.2452 59.7548 13.5 46.5 13.5" stroke="#270570" stroke-width="3" stroke-linecap="round" stroke-linejoin="round"/>
<path d="M25.5 13.5H37.5" stroke="#270570" stroke-width="3" stroke-linecap="round"/>
<path d="M25.5 61.5H46.5" stroke="#270570" stroke-width="3" stroke-linecap="round"/>
<path d="M10.5 25.5H28.5" stroke="#270570" stroke-width="3" stroke-linecap="round"/>
<path d="M1.5 37.5H25.5" stroke="#270570" stroke-width="3" stroke-linecap="round"/>
<path d="M37.5 37.5H46.5L55.5 28.5" stroke="#270570" stroke-width="3" stroke-linecap="round" stroke-linejoin="round"/>
<path d="M10.5 49.5H28.5" stroke="#270570" stroke-width="3" stroke-linecap="round"/>
<path d="M64.5 19.5L67.5 16.5" stroke="#270570" stroke-width="3"/>
<path d="M64.5 13.5L70.5 19.5" stroke="#270570" stroke-width="3" stroke-linecap="round"/>
</g>
</svg>
