<svg width="72" height="72" viewBox="0 0 72 72" fill="none" xmlns="http://www.w3.org/2000/svg">
<path d="M45 48.5763C45 58.7514 36.7173 67 26.5 67C16.2827 67 8 58.7514 8 48.5763C8 38.4012 16.2827 30.1526 26.5 30.1526C28.0179 30.1526 27.0883 29.8093 28.5 30.1527C31.562 30.8975 30.4147 35.1199 32.6667 37.1712C34.1835 38.5528 41.7838 37.9894 42.7719 39.8031C44.1929 42.4116 45 45.4001 45 48.5763Z" fill="white"/>
<path d="M45 49.0092C45 59.4975 36.7173 68 26.5 68C16.2827 68 8 59.4975 8 49.0092C8 42.9132 10.7981 37.488 15.1477 34.0132C16.0638 33.2814 17.0488 32.6361 18.0909 32.0892C18.8992 31.665 19.7419 31.3001 20.6136 31" stroke="#270570" stroke-width="3" stroke-linecap="round"/>
<circle cx="26.5" cy="49.5" r="9.5" fill="#CBF6EC"/>
<path d="M36 48.8204C36 54.4424 31.7467 59 26.5 59C21.2533 59 17 54.4424 17 48.8204C17 44.1296 19.9609 40.1798 23.9893 39" stroke="#270570" stroke-width="3" stroke-linecap="round"/>
<circle cx="30" cy="12" r="6.5" fill="white" stroke="#270570" stroke-width="3"/>
<path d="M29 27H41" stroke="#270570" stroke-width="3" stroke-linecap="round"/>
<path d="M29 20L29 30.8791C29 35.2974 32.5817 38.8791 37 38.8791H43.1113C46.4887 38.8791 49.5022 41.0001 50.642 44.1794L53.6966 52.6998C54.8364 55.879 57.85 58 61.2273 58H63" stroke="#270570" stroke-width="3" stroke-linecap="round"/>
</svg>
